<?xml version="1.0" encoding="utf-8"?><svg version="1.1" id="Layer_1" xmlns="http://www.w3.org/2000/svg" xmlns:xlink="http://www.w3.org/1999/xlink" x="0px" y="0px" viewBox="0 0 5000 5000" style="enable-background:new 0 0 5000 5000;" xml:space="preserve"><style type="text/css">.st0{enable-background:new }.st1{fill:#C7C7C7}.st2{fill:#FF7D1F}.st3{fill:#9ADA2C}.st4{fill:#1D9FD3}</style><g> <g class="st0"> <path class="st1" d="M1535.4,2357.1c-25,0-44.7,8.9-59,26.7s-21.5,42.3-21.5,73.6c0,32.7,6.9,57.5,20.7,74.3 c13.8,16.8,33.7,25.2,59.8,25.2c11.3,0,22.2-1.1,32.8-3.4c10.6-2.3,21.5-5.1,33-8.7v37.4c-20.9,7.9-44.5,11.9-71,11.9 c-39,0-68.9-11.8-89.8-35.5s-31.3-57.5-31.3-101.6c0-27.8,5.1-52,15.2-72.9c10.1-20.8,24.8-36.8,44-47.8 c19.2-11.1,41.7-16.6,67.6-16.6c27.2,0,52.3,5.7,75.4,17.2l-15.7,36.3c-9-4.3-18.5-8-28.5-11.2 C1557,2358.7,1546.4,2357.1,1535.4,2357.1z"/> </g> <g class="st0"> <path class="st1" d="M2076,2590.4l-77.2-222.9h-1.5c2.1,33.1,3.1,64.2,3.1,93.1v129.8h-39.5v-266.9h61.4l73.9,212.4h1.1 l76.1-212.4h61.5v266.9H2193v-132c0-13.3,0.3-30.6,1-51.9c0.7-21.3,1.2-34.2,1.7-38.7h-1.5l-79.9,222.6L2076,2590.4L2076,2590.4z" /> <path class="st1" d="M2423.9,2590.4l-77.2-222.9h-1.5c2.1,33.1,3.1,64.2,3.1,93.1v129.8h-39.5v-266.9h61.4l73.9,212.4h1.1 l76.1-212.4h61.5v266.9h-41.9v-132c0-13.3,0.3-30.6,1-51.9c0.7-21.3,1.2-34.2,1.7-38.7h-1.5l-79.9,222.6L2423.9,2590.4 L2423.9,2590.4z"/> <path class="st1" d="M2865.3,2323.5v172.7c0,19.7-4.2,37-12.7,51.8c-8.4,14.8-20.6,26.2-36.6,34.1c-16,8-35.1,12-57.3,12 c-33,0-58.7-8.8-77-26.3s-27.5-41.6-27.5-72.3v-172h43.7v168.9c0,22,5.1,38.3,15.3,48.8s25.9,15.7,47,15.7 c41,0,61.5-21.6,61.5-64.8v-168.5L2865.3,2323.5L2865.3,2323.5z"/> <path class="st1" d="M3158.9,2590.4h-53.3l-130.9-212.7h-1.5l0.9,11.9c1.7,22.6,2.5,43.3,2.5,62.1v138.8h-39.5v-266.9h52.8 l130.6,211.6h1.1c-0.2-2.8-0.7-13-1.5-30.6c-0.7-17.6-1.1-31.3-1.1-41.2v-139.9h39.9V2590.4z"/> <path class="st1" d="M3232.9,2590.4v-266.9h43.5v266.9H3232.9z"/> <path class="st1" d="M3586.8,2456.6c0,43.5-10.8,77.2-32.5,101.3s-52.3,36.2-92,36.2c-40.2,0-71-12-92.6-35.9 c-21.5-23.9-32.3-57.9-32.3-102s10.8-77.9,32.5-101.5s52.6-35.4,92.8-35.4c39.6,0,70.2,12,91.8,36 C3576,2379.3,3586.8,2413,3586.8,2456.6z M3383.6,2456.6c0,32.9,6.6,57.8,19.8,74.8s32.8,25.5,58.8,25.5 c25.9,0,45.4-8.4,58.5-25.2c13.2-16.8,19.8-41.8,19.8-75c0-32.7-6.5-57.6-19.6-74.5c-13-16.9-32.5-25.4-58.4-25.4 c-26.1,0-45.8,8.5-59.1,25.4C3390.2,2399,3383.6,2423.9,3383.6,2456.6z"/> </g> <path class="st2" d="M1798.7,2310.6c80.5,17.2,132.1,96.5,115,177.4c-1.9,4.5-7.3,6.6-12,4.8c-3.2-1.3-5.5-4.2-5.7-7.6 c2.2-36.6-13.2-72-41.4-95.3c0.3-21-16.5-38.4-37.5-38.7c-5.9-0.1-11.6,1.2-16.9,3.7c-39.5-8.2-80.1,8.1-103.1,41.3 c-2.8,3.7-8.2,4.6-12.1,2s-5.3-7.6-3.2-11.7l0,0c11.4-20.4,28.6-37.4,49.6-48.9c7.6-5.1,9.6-15,4.8-22.5c-0.9-1.3-1.9-2.6-3.2-3.6 C1754.4,2306.4,1777,2306,1798.7,2310.6z"/> <path class="st2" d="M1791.9,2369.8c9.9-13,29-15.9,42.6-6.4c0.6,0.4,1.1,0.8,1.6,1.2c13.6,11.2,15.9,30.6,5.1,44.3 c-9.9,13-29,15.9-42.6,6.4c-0.6-0.4-1.1-0.8-1.6-1.2C1783.4,2402.9,1781.1,2383.6,1791.9,2369.8z"/> <path class="st2" d="M1798.7,2310.6c80.5,17.2,132.1,96.5,115,177.4c-1.9,4.5-7.3,6.6-12,4.8c-3.2-1.3-5.5-4.2-5.7-7.6 c2.2-36.6-13.2-72-41.4-95.3c0.3-21-16.5-38.4-37.5-38.7c-5.9-0.1-11.6,1.2-16.9,3.7c-39.5-8.2-80.1,8.1-103.1,41.3 c-2.8,3.7-8.2,4.6-12.1,2s-5.3-7.6-3.2-11.7l0,0c11.4-20.4,28.6-37.4,49.6-48.9c7.6-5.1,9.6-15,4.8-22.5c-0.9-1.3-1.9-2.6-3.2-3.6 C1754.4,2306.4,1777,2306,1798.7,2310.6z"/> <path class="st2" d="M1791.9,2369.8c9.9-13,29-15.9,42.6-6.4c0.6,0.4,1.1,0.8,1.6,1.2c13.6,11.2,15.9,30.6,5.1,44.3 c-9.9,13-29,15.9-42.6,6.4c-0.6-0.4-1.1-0.8-1.6-1.2C1783.4,2402.9,1781.1,2383.6,1791.9,2369.8z"/> <path class="st2" d="M1798.7,2310.6c80.5,17.2,132.1,96.5,115,177.4c-1.9,4.5-7.3,6.6-12,4.8c-3.2-1.3-5.5-4.2-5.7-7.6 c2.2-36.6-13.2-72-41.4-95.3c0.3-21-16.5-38.4-37.5-38.7c-5.9-0.1-11.6,1.2-16.9,3.7c-39.5-8.2-80.1,8.1-103.1,41.3 c-2.8,3.7-8.2,4.6-12.1,2s-5.3-7.6-3.2-11.7l0,0c11.4-20.4,28.6-37.4,49.6-48.9c7.6-5.1,9.6-15,4.8-22.5c-0.9-1.3-1.9-2.6-3.2-3.6 C1754.4,2306.4,1777,2306,1798.7,2310.6z"/> <path class="st2" d="M1791.9,2369.8c9.9-13,29-15.9,42.6-6.4c0.6,0.4,1.1,0.8,1.6,1.2c13.6,11.2,15.9,30.6,5.1,44.3 c-9.9,13-29,15.9-42.6,6.4c-0.6-0.4-1.1-0.8-1.6-1.2C1783.4,2402.9,1781.1,2383.6,1791.9,2369.8z"/> <path class="st2" d="M1798.7,2310.6c80.5,17.2,132.1,96.5,115,177.4c-1.9,4.5-7.3,6.6-12,4.8c-3.2-1.3-5.5-4.2-5.7-7.6 c2.2-36.6-13.2-72-41.4-95.3c0.3-21-16.5-38.4-37.5-38.7c-5.9-0.1-11.6,1.2-16.9,3.7c-39.5-8.2-80.1,8.1-103.1,41.3 c-2.8,3.7-8.2,4.6-12.1,2s-5.3-7.6-3.2-11.7l0,0c11.4-20.4,28.6-37.4,49.6-48.9c7.6-5.1,9.6-15,4.8-22.5c-0.9-1.3-1.9-2.6-3.2-3.6 C1754.4,2306.4,1777,2306,1798.7,2310.6z"/> <path class="st2" d="M1791.9,2369.8c9.9-13,29-15.9,42.6-6.4c0.6,0.4,1.1,0.8,1.6,1.2c13.6,11.2,15.9,30.6,5.1,44.3 c-9.9,13-29,15.9-42.6,6.4c-0.6-0.4-1.1-0.8-1.6-1.2C1783.4,2402.9,1781.1,2383.6,1791.9,2369.8z"/> <path class="st2" d="M1798.7,2310.6c80.5,17.2,132.1,96.5,115,177.4c-1.9,4.5-7.3,6.6-12,4.8c-3.2-1.3-5.5-4.2-5.7-7.6 c2.2-36.6-13.2-72-41.4-95.3c0.3-21-16.5-38.4-37.5-38.7c-5.9-0.1-11.6,1.2-16.9,3.7c-39.5-8.2-80.1,8.1-103.1,41.3 c-2.8,3.7-8.2,4.6-12.1,2s-5.3-7.6-3.2-11.7l0,0c11.4-20.4,28.6-37.4,49.6-48.9c7.6-5.1,9.6-15,4.8-22.5c-0.9-1.3-1.9-2.6-3.2-3.6 C1754.4,2306.4,1777,2306,1798.7,2310.6z"/> <path class="st2" d="M1791.9,2369.8c9.9-13,29-15.9,42.6-6.4c0.6,0.4,1.1,0.8,1.6,1.2c13.6,11.2,15.9,30.6,5.1,44.3 c-9.9,13-29,15.9-42.6,6.4c-0.6-0.4-1.1-0.8-1.6-1.2C1783.4,2402.9,1781.1,2383.6,1791.9,2369.8z"/> <path class="st2" d="M1798.7,2310.6c80.5,17.2,132.1,96.5,115,177.4c-1.9,4.5-7.3,6.6-12,4.8c-3.2-1.3-5.5-4.2-5.7-7.6 c2.2-36.6-13.2-72-41.4-95.3c0.3-21-16.5-38.4-37.5-38.7c-5.9-0.1-11.6,1.2-16.9,3.7c-39.5-8.2-80.1,8.1-103.1,41.3 c-2.8,3.7-8.2,4.6-12.1,2s-5.3-7.6-3.2-11.7l0,0c11.4-20.4,28.6-37.4,49.6-48.9c7.6-5.1,9.6-15,4.8-22.5c-0.9-1.3-1.9-2.6-3.2-3.6 C1754.4,2306.4,1777,2306,1798.7,2310.6z"/> <path class="st2" d="M1791.9,2369.8c9.9-13,29-15.9,42.6-6.4c0.6,0.4,1.1,0.8,1.6,1.2c13.6,11.2,15.9,30.6,5.1,44.3 c-9.9,13-29,15.9-42.6,6.4c-0.6-0.4-1.1-0.8-1.6-1.2C1783.4,2402.9,1781.1,2383.6,1791.9,2369.8z"/> <path class="st3" d="M1721.6,2314.8c3.3-0.3,6.5,1.1,8.4,3.7c3.1,4.2,2.2,9.9-1.9,13.1c-32.7,16.4-55.6,47.4-61.6,83.6 c-18.3,10.3-25,33.5-14.6,51.9c2.8,5.1,6.8,9.5,11.6,12.9c12.7,38.4,47,65.5,87.2,68.9c4.8,0.8,8.2,4.9,7.8,9.6 c-0.1,4.5-3.8,8.2-8.5,8.6c-23.8,0.2-47.1-6.2-67.1-18.6c-7.8-3.9-17.4-1.1-21.5,6.4c-0.1,0.2-0.2,0.4-0.4,0.7 c-0.7,1.4-1.2,3-1.5,4.5c-15.4-16.4-26.8-35.6-33.6-56.6C1600.5,2424.8,1643.2,2340.3,1721.6,2314.8z"/> <ellipse class="st4" cx="1801.7" cy="2533" rx="31.4" ry="31.5"/> <path class="st3" d="M1660.4,2428.7c9.9-13,29-15.9,42.6-6.4c0.6,0.4,1.1,0.8,1.6,1.2c13.6,11.2,15.9,30.6,5.1,44.3 c-9.9,13-29,15.9-42.6,6.4c-0.5-0.4-1.1-0.8-1.6-1.2C1651.9,2461.8,1649.6,2442.5,1660.4,2428.7z"/> <path class="st4" d="M1878.6,2557c-55.1,61.4-149.4,66.4-210.6,11.3c-1.9-2.7-2.3-6.1-1-9.1c1.8-4.5,7.1-6.8,11.7-5 c0.1,0.1,0.3,0.1,0.4,0.2c30.1,20.1,68.8,24.5,102.9,11.7c18.1,10.8,41.5,4.9,52.2-13.3c3-5.1,4.8-10.7,5.3-16.6 c26.8-30.3,33-73.6,15.9-110.3c-1.8-4.4,0.1-9.3,4.4-11.6c4.1-2.1,9.2-0.8,11.7,3.1c12.1,20.6,18.2,44,17.5,67.6 c0.3,8.8,7.9,15.6,17,15.4h0.1c1.6-0.1,3.2-0.4,4.7-0.9C1904.5,2520.6,1893.5,2540.2,1878.6,2557z"/> <g> <path class="st2" d="M1798.7,2310.6c80.5,17.2,132.1,96.5,115,177.4c-1.9,4.5-7.3,6.6-12,4.8c-3.2-1.3-5.5-4.2-5.7-7.6 c2.2-36.6-13.2-72-41.4-95.3c0.3-21-16.5-38.4-37.5-38.7c-5.9-0.1-11.6,1.2-16.9,3.7c-39.5-8.2-80.1,8.1-103.1,41.3 c-2.8,3.7-8.2,4.6-12.1,2s-5.3-7.6-3.2-11.7l0,0c11.4-20.4,28.6-37.4,49.6-48.9c7.6-5.1,9.6-15,4.8-22.5c-0.9-1.3-1.9-2.6-3.2-3.6 C1754.4,2306.4,1777,2306,1798.7,2310.6z"/> <path class="st2" d="M1791.9,2369.8c9.9-13,29-15.9,42.6-6.4c0.6,0.4,1.1,0.8,1.6,1.2c13.6,11.2,15.9,30.6,5.1,44.3 c-9.9,13-29,15.9-42.6,6.4c-0.6-0.4-1.1-0.8-1.6-1.2C1783.4,2402.9,1781.1,2383.6,1791.9,2369.8z"/> <path class="st2" d="M1798.7,2310.6c80.5,17.2,132.1,96.5,115,177.4c-1.9,4.5-7.3,6.6-12,4.8c-3.2-1.3-5.5-4.2-5.7-7.6 c2.2-36.6-13.2-72-41.4-95.3c0.3-21-16.5-38.4-37.5-38.7c-5.9-0.1-11.6,1.2-16.9,3.7c-39.5-8.2-80.1,8.1-103.1,41.3 c-2.8,3.7-8.2,4.6-12.1,2s-5.3-7.6-3.2-11.7l0,0c11.4-20.4,28.6-37.4,49.6-48.9c7.6-5.1,9.6-15,4.8-22.5c-0.9-1.3-1.9-2.6-3.2-3.6 C1754.4,2306.4,1777,2306,1798.7,2310.6z"/> <path class="st2" d="M1791.9,2369.8c9.9-13,29-15.9,42.6-6.4c0.6,0.4,1.1,0.8,1.6,1.2c13.6,11.2,15.9,30.6,5.1,44.3 c-9.9,13-29,15.9-42.6,6.4c-0.6-0.4-1.1-0.8-1.6-1.2C1783.4,2402.9,1781.1,2383.6,1791.9,2369.8z"/> <path class="st2" d="M1798.7,2310.6c80.5,17.2,132.1,96.5,115,177.4c-1.9,4.5-7.3,6.6-12,4.8c-3.2-1.3-5.5-4.2-5.7-7.6 c2.2-36.6-13.2-72-41.4-95.3c0.3-21-16.5-38.4-37.5-38.7c-5.9-0.1-11.6,1.2-16.9,3.7c-39.5-8.2-80.1,8.1-103.1,41.3 c-2.8,3.7-8.2,4.6-12.1,2s-5.3-7.6-3.2-11.7l0,0c11.4-20.4,28.6-37.4,49.6-48.9c7.6-5.1,9.6-15,4.8-22.5c-0.9-1.3-1.9-2.6-3.2-3.6 C1754.4,2306.4,1777,2306,1798.7,2310.6z"/> <path class="st2" d="M1791.9,2369.8c9.9-13,29-15.9,42.6-6.4c0.6,0.4,1.1,0.8,1.6,1.2c13.6,11.2,15.9,30.6,5.1,44.3 c-9.9,13-29,15.9-42.6,6.4c-0.6-0.4-1.1-0.8-1.6-1.2C1783.4,2402.9,1781.1,2383.6,1791.9,2369.8z"/> <path class="st2" d="M1798.7,2310.6c80.5,17.2,132.1,96.5,115,177.4c-1.9,4.5-7.3,6.6-12,4.8c-3.2-1.3-5.5-4.2-5.7-7.6 c2.2-36.6-13.2-72-41.4-95.3c0.3-21-16.5-38.4-37.5-38.7c-5.9-0.1-11.6,1.2-16.9,3.7c-39.5-8.2-80.1,8.1-103.1,41.3 c-2.8,3.7-8.2,4.6-12.1,2s-5.3-7.6-3.2-11.7l0,0c11.4-20.4,28.6-37.4,49.6-48.9c7.6-5.1,9.6-15,4.8-22.5c-0.9-1.3-1.9-2.6-3.2-3.6 C1754.4,2306.4,1777,2306,1798.7,2310.6z"/> <path class="st2" d="M1791.9,2369.8c9.9-13,29-15.9,42.6-6.4c0.6,0.4,1.1,0.8,1.6,1.2c13.6,11.2,15.9,30.6,5.1,44.3 c-9.9,13-29,15.9-42.6,6.4c-0.6-0.4-1.1-0.8-1.6-1.2C1783.4,2402.9,1781.1,2383.6,1791.9,2369.8z"/> <path class="st2" d="M1798.7,2310.6c80.5,17.2,132.1,96.5,115,177.4c-1.9,4.5-7.3,6.6-12,4.8c-3.2-1.3-5.5-4.2-5.7-7.6 c2.2-36.6-13.2-72-41.4-95.3c0.3-21-16.5-38.4-37.5-38.7c-5.9-0.1-11.6,1.2-16.9,3.7c-39.5-8.2-80.1,8.1-103.1,41.3 c-2.8,3.7-8.2,4.6-12.1,2s-5.3-7.6-3.2-11.7l0,0c11.4-20.4,28.6-37.4,49.6-48.9c7.6-5.1,9.6-15,4.8-22.5c-0.9-1.3-1.9-2.6-3.2-3.6 C1754.4,2306.4,1777,2306,1798.7,2310.6z"/> <path class="st2" d="M1791.9,2369.8c9.9-13,29-15.9,42.6-6.4c0.6,0.4,1.1,0.8,1.6,1.2c13.6,11.2,15.9,30.6,5.1,44.3 c-9.9,13-29,15.9-42.6,6.4c-0.6-0.4-1.1-0.8-1.6-1.2C1783.4,2402.9,1781.1,2383.6,1791.9,2369.8z"/> <path class="st2" d="M1798.7,2310.6c80.5,17.2,132.1,96.5,115,177.4c-1.9,4.5-7.3,6.6-12,4.8c-3.2-1.3-5.5-4.2-5.7-7.6 c2.2-36.6-13.2-72-41.4-95.3c0.3-21-16.5-38.4-37.5-38.7c-5.9-0.1-11.6,1.2-16.9,3.7c-39.5-8.2-80.1,8.1-103.1,41.3 c-2.8,3.7-8.2,4.6-12.1,2s-5.3-7.6-3.2-11.7l0,0c11.4-20.4,28.6-37.4,49.6-48.9c7.6-5.1,9.6-15,4.8-22.5c-0.9-1.3-1.9-2.6-3.2-3.6 C1754.4,2306.4,1777,2306,1798.7,2310.6z"/> <path class="st2" d="M1791.9,2369.8c9.9-13,29-15.9,42.6-6.4c0.6,0.4,1.1,0.8,1.6,1.2c13.6,11.2,15.9,30.6,5.1,44.3 c-9.9,13-29,15.9-42.6,6.4c-0.6-0.4-1.1-0.8-1.6-1.2C1783.4,2402.9,1781.1,2383.6,1791.9,2369.8z"/> <path class="st3" d="M1721.6,2314.8c3.3-0.3,6.5,1.1,8.4,3.7c3.1,4.2,2.2,9.9-1.9,13.1c-32.7,16.4-55.6,47.4-61.6,83.6 c-18.3,10.3-25,33.5-14.6,51.9c2.8,5.1,6.8,9.5,11.6,12.9c12.7,38.4,47,65.5,87.2,68.9c4.8,0.8,8.2,4.9,7.8,9.6 c-0.1,4.5-3.8,8.2-8.5,8.6c-23.8,0.2-47.1-6.2-67.1-18.6c-7.8-3.9-17.4-1.1-21.5,6.4c-0.1,0.2-0.2,0.4-0.4,0.7 c-0.7,1.4-1.2,3-1.5,4.5c-15.4-16.4-26.8-35.6-33.6-56.6C1600.5,2424.8,1643.2,2340.3,1721.6,2314.8z"/> <ellipse class="st4" cx="1801.7" cy="2533" rx="31.4" ry="31.5"/> <path class="st3" d="M1660.4,2428.7c9.9-13,29-15.9,42.6-6.4c0.6,0.4,1.1,0.8,1.6,1.2c13.6,11.2,15.9,30.6,5.1,44.3 c-9.9,13-29,15.9-42.6,6.4c-0.5-0.4-1.1-0.8-1.6-1.2C1651.9,2461.8,1649.6,2442.5,1660.4,2428.7z"/> <path class="st4" d="M1878.6,2557c-55.1,61.4-149.4,66.4-210.6,11.3c-1.9-2.7-2.3-6.1-1-9.1c1.8-4.5,7.1-6.8,11.7-5 c0.1,0.1,0.3,0.1,0.4,0.2c30.1,20.1,68.8,24.5,102.9,11.7c18.1,10.8,41.5,4.9,52.2-13.3c3-5.1,4.8-10.7,5.3-16.6 c26.8-30.3,33-73.6,15.9-110.3c-1.8-4.4,0.1-9.3,4.4-11.6c4.1-2.1,9.2-0.8,11.7,3.1c12.1,20.6,18.2,44,17.5,67.6 c0.3,8.8,7.9,15.6,17,15.4h0.1c1.6-0.1,3.2-0.4,4.7-0.9C1904.5,2520.6,1893.5,2540.2,1878.6,2557z"/> <path class="st2" d="M1798.7,2310.6c80.5,17.2,132.1,96.5,115,177.4c-1.9,4.5-7.3,6.6-12,4.8c-3.2-1.3-5.5-4.2-5.7-7.6 c2.2-36.6-13.2-72-41.4-95.3c0.3-21-16.5-38.4-37.5-38.7c-5.9-0.1-11.6,1.2-16.9,3.7c-39.5-8.2-80.1,8.1-103.1,41.3 c-2.8,3.7-8.2,4.6-12.1,2s-5.3-7.6-3.2-11.7l0,0c11.4-20.4,28.6-37.4,49.6-48.9c7.6-5.1,9.6-15,4.8-22.5c-0.9-1.3-1.9-2.6-3.2-3.6 C1754.4,2306.4,1777,2306,1798.7,2310.6z"/> <path class="st2" d="M1791.9,2369.8c9.9-13,29-15.9,42.6-6.4c0.6,0.4,1.1,0.8,1.6,1.2c13.6,11.2,15.9,30.6,5.1,44.3 c-9.9,13-29,15.9-42.6,6.4c-0.6-0.4-1.1-0.8-1.6-1.2C1783.4,2402.9,1781.1,2383.6,1791.9,2369.8z"/> <path class="st2" d="M1798.7,2310.6c80.5,17.2,132.1,96.5,115,177.4c-1.9,4.5-7.3,6.6-12,4.8c-3.2-1.3-5.5-4.2-5.7-7.6 c2.2-36.6-13.2-72-41.4-95.3c0.3-21-16.5-38.4-37.5-38.7c-5.9-0.1-11.6,1.2-16.9,3.7c-39.5-8.2-80.1,8.1-103.1,41.3 c-2.8,3.7-8.2,4.6-12.1,2s-5.3-7.6-3.2-11.7l0,0c11.4-20.4,28.6-37.4,49.6-48.9c7.6-5.1,9.6-15,4.8-22.5c-0.9-1.3-1.9-2.6-3.2-3.6 C1754.4,2306.4,1777,2306,1798.7,2310.6z"/> <path class="st2" d="M1791.9,2369.8c9.9-13,29-15.9,42.6-6.4c0.6,0.4,1.1,0.8,1.6,1.2c13.6,11.2,15.9,30.6,5.1,44.3 c-9.9,13-29,15.9-42.6,6.4c-0.6-0.4-1.1-0.8-1.6-1.2C1783.4,2402.9,1781.1,2383.6,1791.9,2369.8z"/> <path class="st2" d="M1798.7,2310.6c80.5,17.2,132.1,96.5,115,177.4c-1.9,4.5-7.3,6.6-12,4.8c-3.2-1.3-5.5-4.2-5.7-7.6 c2.2-36.6-13.2-72-41.4-95.3c0.3-21-16.5-38.4-37.5-38.7c-5.9-0.1-11.6,1.2-16.9,3.7c-39.5-8.2-80.1,8.1-103.1,41.3 c-2.8,3.7-8.2,4.6-12.1,2s-5.3-7.6-3.2-11.7l0,0c11.4-20.4,28.6-37.4,49.6-48.9c7.6-5.1,9.6-15,4.8-22.5c-0.9-1.3-1.9-2.6-3.2-3.6 C1754.4,2306.4,1777,2306,1798.7,2310.6z"/> <path class="st2" d="M1791.9,2369.8c9.9-13,29-15.9,42.6-6.4c0.6,0.4,1.1,0.8,1.6,1.2c13.6,11.2,15.9,30.6,5.1,44.3 c-9.9,13-29,15.9-42.6,6.4c-0.6-0.4-1.1-0.8-1.6-1.2C1783.4,2402.9,1781.1,2383.6,1791.9,2369.8z"/> <path class="st2" d="M1798.7,2310.6c80.5,17.2,132.1,96.5,115,177.4c-1.9,4.5-7.3,6.6-12,4.8c-3.2-1.3-5.5-4.2-5.7-7.6 c2.2-36.6-13.2-72-41.4-95.3c0.3-21-16.5-38.4-37.5-38.7c-5.9-0.1-11.6,1.2-16.9,3.7c-39.5-8.2-80.1,8.1-103.1,41.3 c-2.8,3.7-8.2,4.6-12.1,2s-5.3-7.6-3.2-11.7l0,0c11.4-20.4,28.6-37.4,49.6-48.9c7.6-5.1,9.6-15,4.8-22.5c-0.9-1.3-1.9-2.6-3.2-3.6 C1754.4,2306.4,1777,2306,1798.7,2310.6z"/> <path class="st2" d="M1791.9,2369.8c9.9-13,29-15.9,42.6-6.4c0.6,0.4,1.1,0.8,1.6,1.2c13.6,11.2,15.9,30.6,5.1,44.3 c-9.9,13-29,15.9-42.6,6.4c-0.6-0.4-1.1-0.8-1.6-1.2C1783.4,2402.9,1781.1,2383.6,1791.9,2369.8z"/> <path class="st2" d="M1798.7,2310.6c80.5,17.2,132.1,96.5,115,177.4c-1.9,4.5-7.3,6.6-12,4.8c-3.2-1.3-5.5-4.2-5.7-7.6 c2.2-36.6-13.2-72-41.4-95.3c0.3-21-16.5-38.4-37.5-38.7c-5.9-0.1-11.6,1.2-16.9,3.7c-39.5-8.2-80.1,8.1-103.1,41.3 c-2.8,3.7-8.2,4.6-12.1,2s-5.3-7.6-3.2-11.7l0,0c11.4-20.4,28.6-37.4,49.6-48.9c7.6-5.1,9.6-15,4.8-22.5c-0.9-1.3-1.9-2.6-3.2-3.6 C1754.4,2306.4,1777,2306,1798.7,2310.6z"/> <path class="st2" d="M1791.9,2369.8c9.9-13,29-15.9,42.6-6.4c0.6,0.4,1.1,0.8,1.6,1.2c13.6,11.2,15.9,30.6,5.1,44.3 c-9.9,13-29,15.9-42.6,6.4c-0.6-0.4-1.1-0.8-1.6-1.2C1783.4,2402.9,1781.1,2383.6,1791.9,2369.8z"/> <path class="st2" d="M1798.7,2310.6c80.5,17.2,132.1,96.5,115,177.4c-1.9,4.5-7.3,6.6-12,4.8c-3.2-1.3-5.5-4.2-5.7-7.6 c2.2-36.6-13.2-72-41.4-95.3c0.3-21-16.5-38.4-37.5-38.7c-5.9-0.1-11.6,1.2-16.9,3.7c-39.5-8.2-80.1,8.1-103.1,41.3 c-2.8,3.7-8.2,4.6-12.1,2s-5.3-7.6-3.2-11.7l0,0c11.4-20.4,28.6-37.4,49.6-48.9c7.6-5.1,9.6-15,4.8-22.5c-0.9-1.3-1.9-2.6-3.2-3.6 C1754.4,2306.4,1777,2306,1798.7,2310.6z"/> <path class="st2" d="M1791.9,2369.8c9.9-13,29-15.9,42.6-6.4c0.6,0.4,1.1,0.8,1.6,1.2c13.6,11.2,15.9,30.6,5.1,44.3 c-9.9,13-29,15.9-42.6,6.4c-0.6-0.4-1.1-0.8-1.6-1.2C1783.4,2402.9,1781.1,2383.6,1791.9,2369.8z"/> <path class="st3" d="M1721.6,2314.8c3.3-0.3,6.5,1.1,8.4,3.7c3.1,4.2,2.2,9.9-1.9,13.1c-32.7,16.4-55.6,47.4-61.6,83.6 c-18.3,10.3-25,33.5-14.6,51.9c2.8,5.1,6.8,9.5,11.6,12.9c12.7,38.4,47,65.5,87.2,68.9c4.8,0.8,8.2,4.9,7.8,9.6 c-0.1,4.5-3.8,8.2-8.5,8.6c-23.8,0.2-47.1-6.2-67.1-18.6c-7.8-3.9-17.4-1.1-21.5,6.4c-0.1,0.2-0.2,0.4-0.4,0.7 c-0.7,1.4-1.2,3-1.5,4.5c-15.4-16.4-26.8-35.6-33.6-56.6C1600.5,2424.8,1643.2,2340.3,1721.6,2314.8z"/> <ellipse class="st4" cx="1801.7" cy="2533" rx="31.4" ry="31.5"/> <path class="st3" d="M1660.4,2428.7c9.9-13,29-15.9,42.6-6.4c0.6,0.4,1.1,0.8,1.6,1.2c13.6,11.2,15.9,30.6,5.1,44.3 c-9.9,13-29,15.9-42.6,6.4c-0.5-0.4-1.1-0.8-1.6-1.2C1651.9,2461.8,1649.6,2442.5,1660.4,2428.7z"/> <path class="st4" d="M1878.6,2557c-55.1,61.4-149.4,66.4-210.6,11.3c-1.9-2.7-2.3-6.1-1-9.1c1.8-4.5,7.1-6.8,11.7-5 c0.1,0.1,0.3,0.1,0.4,0.2c30.1,20.1,68.8,24.5,102.9,11.7c18.1,10.8,41.5,4.9,52.2-13.3c3-5.1,4.8-10.7,5.3-16.6 c26.8-30.3,33-73.6,15.9-110.3c-1.8-4.4,0.1-9.3,4.4-11.6c4.1-2.1,9.2-0.8,11.7,3.1c12.1,20.6,18.2,44,17.5,67.6 c0.3,8.8,7.9,15.6,17,15.4h0.1c1.6-0.1,3.2-0.4,4.7-0.9C1904.5,2520.6,1893.5,2540.2,1878.6,2557z"/> <path class="st2" d="M1798.7,2310.6c80.5,17.2,132.1,96.5,115,177.4c-1.9,4.5-7.3,6.6-12,4.8c-3.2-1.3-5.5-4.2-5.7-7.6 c2.2-36.6-13.2-72-41.4-95.3c0.3-21-16.5-38.4-37.5-38.7c-5.9-0.1-11.6,1.2-16.9,3.7c-39.5-8.2-80.1,8.1-103.1,41.3 c-2.8,3.7-8.2,4.6-12.1,2s-5.3-7.6-3.2-11.7l0,0c11.4-20.4,28.6-37.4,49.6-48.9c7.6-5.1,9.6-15,4.8-22.5c-0.9-1.3-1.9-2.6-3.2-3.6 C1754.4,2306.4,1777,2306,1798.7,2310.6z"/> <path class="st2" d="M1791.9,2369.8c9.9-13,29-15.9,42.6-6.4c0.6,0.4,1.1,0.8,1.6,1.2c13.6,11.2,15.9,30.6,5.1,44.3 c-9.9,13-29,15.9-42.6,6.4c-0.6-0.4-1.1-0.8-1.6-1.2C1783.4,2402.9,1781.1,2383.6,1791.9,2369.8z"/> <path class="st2" d="M1798.7,2310.6c80.5,17.2,132.1,96.5,115,177.4c-1.9,4.5-7.3,6.6-12,4.8c-3.2-1.3-5.5-4.2-5.7-7.6 c2.2-36.6-13.2-72-41.4-95.3c0.3-21-16.5-38.4-37.5-38.7c-5.9-0.1-11.6,1.2-16.9,3.7c-39.5-8.2-80.1,8.1-103.1,41.3 c-2.8,3.7-8.2,4.6-12.1,2s-5.3-7.6-3.2-11.7l0,0c11.4-20.4,28.6-37.4,49.6-48.9c7.6-5.1,9.6-15,4.8-22.5c-0.9-1.3-1.9-2.6-3.2-3.6 C1754.4,2306.4,1777,2306,1798.7,2310.6z"/> <path class="st2" d="M1791.9,2369.8c9.9-13,29-15.9,42.6-6.4c0.6,0.4,1.1,0.8,1.6,1.2c13.6,11.2,15.9,30.6,5.1,44.3 c-9.9,13-29,15.9-42.6,6.4c-0.6-0.4-1.1-0.8-1.6-1.2C1783.4,2402.9,1781.1,2383.6,1791.9,2369.8z"/> <path class="st2" d="M1798.7,2310.6c80.5,17.2,132.1,96.5,115,177.4c-1.9,4.5-7.3,6.6-12,4.8c-3.2-1.3-5.5-4.2-5.7-7.6 c2.2-36.6-13.2-72-41.4-95.3c0.3-21-16.5-38.4-37.5-38.7c-5.9-0.1-11.6,1.2-16.9,3.7c-39.5-8.2-80.1,8.1-103.1,41.3 c-2.8,3.7-8.2,4.6-12.1,2s-5.3-7.6-3.2-11.7l0,0c11.4-20.4,28.6-37.4,49.6-48.9c7.6-5.1,9.6-15,4.8-22.5c-0.9-1.3-1.9-2.6-3.2-3.6 C1754.4,2306.4,1777,2306,1798.7,2310.6z"/> <path class="st2" d="M1791.9,2369.8c9.9-13,29-15.9,42.6-6.4c0.6,0.4,1.1,0.8,1.6,1.2c13.6,11.2,15.9,30.6,5.1,44.3 c-9.9,13-29,15.9-42.6,6.4c-0.6-0.4-1.1-0.8-1.6-1.2C1783.4,2402.9,1781.1,2383.6,1791.9,2369.8z"/> <path class="st2" d="M1798.7,2310.6c80.5,17.2,132.1,96.5,115,177.4c-1.9,4.5-7.3,6.6-12,4.8c-3.2-1.3-5.5-4.2-5.7-7.6 c2.2-36.6-13.2-72-41.4-95.3c0.3-21-16.5-38.4-37.5-38.7c-5.9-0.1-11.6,1.2-16.9,3.7c-39.5-8.2-80.1,8.1-103.1,41.3 c-2.8,3.7-8.2,4.6-12.1,2s-5.3-7.6-3.2-11.7l0,0c11.4-20.4,28.6-37.4,49.6-48.9c7.6-5.1,9.6-15,4.8-22.5c-0.9-1.3-1.9-2.6-3.2-3.6 C1754.4,2306.4,1777,2306,1798.7,2310.6z"/> <path class="st2" d="M1791.9,2369.8c9.9-13,29-15.9,42.6-6.4c0.6,0.4,1.1,0.8,1.6,1.2c13.6,11.2,15.9,30.6,5.1,44.3 c-9.9,13-29,15.9-42.6,6.4c-0.6-0.4-1.1-0.8-1.6-1.2C1783.4,2402.9,1781.1,2383.6,1791.9,2369.8z"/> <path class="st2" d="M1798.7,2310.6c80.5,17.2,132.1,96.5,115,177.4c-1.9,4.5-7.3,6.6-12,4.8c-3.2-1.3-5.5-4.2-5.7-7.6 c2.2-36.6-13.2-72-41.4-95.3c0.3-21-16.5-38.4-37.5-38.7c-5.9-0.1-11.6,1.2-16.9,3.7c-39.5-8.2-80.1,8.1-103.1,41.3 c-2.8,3.7-8.2,4.6-12.1,2s-5.3-7.6-3.2-11.7l0,0c11.4-20.4,28.6-37.4,49.6-48.9c7.6-5.1,9.6-15,4.8-22.5c-0.9-1.3-1.9-2.6-3.2-3.6 C1754.4,2306.4,1777,2306,1798.7,2310.6z"/> <path class="st2" d="M1791.9,2369.8c9.9-13,29-15.9,42.6-6.4c0.6,0.4,1.1,0.8,1.6,1.2c13.6,11.2,15.9,30.6,5.1,44.3 c-9.9,13-29,15.9-42.6,6.4c-0.6-0.4-1.1-0.8-1.6-1.2C1783.4,2402.9,1781.1,2383.6,1791.9,2369.8z"/> <path class="st2" d="M1798.7,2310.6c80.5,17.2,132.1,96.5,115,177.4c-1.9,4.5-7.3,6.6-12,4.8c-3.2-1.3-5.5-4.2-5.7-7.6 c2.2-36.6-13.2-72-41.4-95.3c0.3-21-16.5-38.4-37.5-38.7c-5.9-0.1-11.6,1.2-16.9,3.7c-39.5-8.2-80.1,8.1-103.1,41.3 c-2.8,3.7-8.2,4.6-12.1,2s-5.3-7.6-3.2-11.7l0,0c11.4-20.4,28.6-37.4,49.6-48.9c7.6-5.1,9.6-15,4.8-22.5c-0.9-1.3-1.9-2.6-3.2-3.6 C1754.4,2306.4,1777,2306,1798.7,2310.6z"/> <path class="st2" d="M1791.9,2369.8c9.9-13,29-15.9,42.6-6.4c0.6,0.4,1.1,0.8,1.6,1.2c13.6,11.2,15.9,30.6,5.1,44.3 c-9.9,13-29,15.9-42.6,6.4c-0.6-0.4-1.1-0.8-1.6-1.2C1783.4,2402.9,1781.1,2383.6,1791.9,2369.8z"/> <path class="st3" d="M1721.6,2314.8c3.3-0.3,6.5,1.1,8.4,3.7c3.1,4.2,2.2,9.9-1.9,13.1c-32.7,16.4-55.6,47.4-61.6,83.6 c-18.3,10.3-25,33.5-14.6,51.9c2.8,5.1,6.8,9.5,11.6,12.9c12.7,38.4,47,65.5,87.2,68.9c4.8,0.8,8.2,4.9,7.8,9.6 c-0.1,4.5-3.8,8.2-8.5,8.6c-23.8,0.2-47.1-6.2-67.1-18.6c-7.8-3.9-17.4-1.1-21.5,6.4c-0.1,0.2-0.2,0.4-0.4,0.7 c-0.7,1.4-1.2,3-1.5,4.5c-15.4-16.4-26.8-35.6-33.6-56.6C1600.5,2424.8,1643.2,2340.3,1721.6,2314.8z"/> <ellipse class="st4" cx="1801.7" cy="2533" rx="31.4" ry="31.5"/> <path class="st3" d="M1660.4,2428.7c9.9-13,29-15.9,42.6-6.4c0.6,0.4,1.1,0.8,1.6,1.2c13.6,11.2,15.9,30.6,5.1,44.3 c-9.9,13-29,15.9-42.6,6.4c-0.5-0.4-1.1-0.8-1.6-1.2C1651.9,2461.8,1649.6,2442.5,1660.4,2428.7z"/> <path class="st4" d="M1878.6,2557c-55.1,61.4-149.4,66.4-210.6,11.3c-1.9-2.7-2.3-6.1-1-9.1c1.8-4.5,7.1-6.8,11.7-5 c0.1,0.1,0.3,0.1,0.4,0.2c30.1,20.1,68.8,24.5,102.9,11.7c18.1,10.8,41.5,4.9,52.2-13.3c3-5.1,4.8-10.7,5.3-16.6 c26.8-30.3,33-73.6,15.9-110.3c-1.8-4.4,0.1-9.3,4.4-11.6c4.1-2.1,9.2-0.8,11.7,3.1c12.1,20.6,18.2,44,17.5,67.6 c0.3,8.8,7.9,15.6,17,15.4h0.1c1.6-0.1,3.2-0.4,4.7-0.9C1904.5,2520.6,1893.5,2540.2,1878.6,2557z"/> <path class="st2" d="M1798.7,2310.6c80.5,17.2,132.1,96.5,115,177.4c-1.9,4.5-7.3,6.6-12,4.8c-3.2-1.3-5.5-4.2-5.7-7.6 c2.2-36.6-13.2-72-41.4-95.3c0.3-21-16.5-38.4-37.5-38.7c-5.9-0.1-11.6,1.2-16.9,3.7c-39.5-8.2-80.1,8.1-103.1,41.3 c-2.8,3.7-8.2,4.6-12.1,2s-5.3-7.6-3.2-11.7l0,0c11.4-20.4,28.6-37.4,49.6-48.9c7.6-5.1,9.6-15,4.8-22.5c-0.9-1.3-1.9-2.6-3.2-3.6 C1754.4,2306.4,1777,2306,1798.7,2310.6z"/> <path class="st2" d="M1791.9,2369.8c9.9-13,29-15.9,42.6-6.4c0.6,0.4,1.1,0.8,1.6,1.2c13.6,11.2,15.9,30.6,5.1,44.3 c-9.9,13-29,15.9-42.6,6.4c-0.6-0.4-1.1-0.8-1.6-1.2C1783.4,2402.9,1781.1,2383.6,1791.9,2369.8z"/> <path class="st2" d="M1798.7,2310.6c80.5,17.2,132.1,96.5,115,177.4c-1.9,4.5-7.3,6.6-12,4.8c-3.2-1.3-5.5-4.2-5.7-7.6 c2.2-36.6-13.2-72-41.4-95.3c0.3-21-16.5-38.4-37.5-38.7c-5.9-0.1-11.6,1.2-16.9,3.7c-39.5-8.2-80.1,8.1-103.1,41.3 c-2.8,3.7-8.2,4.6-12.1,2s-5.3-7.6-3.2-11.7l0,0c11.4-20.4,28.6-37.4,49.6-48.9c7.6-5.1,9.6-15,4.8-22.5c-0.9-1.3-1.9-2.6-3.2-3.6 C1754.4,2306.4,1777,2306,1798.7,2310.6z"/> <path class="st2" d="M1791.9,2369.8c9.9-13,29-15.9,42.6-6.4c0.6,0.4,1.1,0.8,1.6,1.2c13.6,11.2,15.9,30.6,5.1,44.3 c-9.9,13-29,15.9-42.6,6.4c-0.6-0.4-1.1-0.8-1.6-1.2C1783.4,2402.9,1781.1,2383.6,1791.9,2369.8z"/> <path class="st2" d="M1798.7,2310.6c80.5,17.2,132.1,96.5,115,177.4c-1.9,4.5-7.3,6.6-12,4.8c-3.2-1.3-5.5-4.2-5.7-7.6 c2.2-36.6-13.2-72-41.4-95.3c0.3-21-16.5-38.4-37.5-38.7c-5.9-0.1-11.6,1.2-16.9,3.7c-39.5-8.2-80.1,8.1-103.1,41.3 c-2.8,3.7-8.2,4.6-12.1,2s-5.3-7.6-3.2-11.7l0,0c11.4-20.4,28.6-37.4,49.6-48.9c7.6-5.1,9.6-15,4.8-22.5c-0.9-1.3-1.9-2.6-3.2-3.6 C1754.4,2306.4,1777,2306,1798.7,2310.6z"/> <path class="st2" d="M1791.9,2369.8c9.9-13,29-15.9,42.6-6.4c0.6,0.4,1.1,0.8,1.6,1.2c13.6,11.2,15.9,30.6,5.1,44.3 c-9.9,13-29,15.9-42.6,6.4c-0.6-0.4-1.1-0.8-1.6-1.2C1783.4,2402.9,1781.1,2383.6,1791.9,2369.8z"/> <path class="st2" d="M1798.7,2310.6c80.5,17.2,132.1,96.5,115,177.4c-1.9,4.5-7.3,6.6-12,4.8c-3.2-1.3-5.5-4.2-5.7-7.6 c2.2-36.6-13.2-72-41.4-95.3c0.3-21-16.5-38.4-37.5-38.7c-5.9-0.1-11.6,1.2-16.9,3.7c-39.5-8.2-80.1,8.1-103.1,41.3 c-2.8,3.7-8.2,4.6-12.1,2s-5.3-7.6-3.2-11.7l0,0c11.4-20.4,28.6-37.4,49.6-48.9c7.6-5.1,9.6-15,4.8-22.5c-0.9-1.3-1.9-2.6-3.2-3.6 C1754.4,2306.4,1777,2306,1798.7,2310.6z"/> <path class="st2" d="M1791.9,2369.8c9.9-13,29-15.9,42.6-6.4c0.6,0.4,1.1,0.8,1.6,1.2c13.6,11.2,15.9,30.6,5.1,44.3 c-9.9,13-29,15.9-42.6,6.4c-0.6-0.4-1.1-0.8-1.6-1.2C1783.4,2402.9,1781.1,2383.6,1791.9,2369.8z"/> <path class="st2" d="M1798.7,2310.6c80.5,17.2,132.1,96.5,115,177.4c-1.9,4.5-7.3,6.6-12,4.8c-3.2-1.3-5.5-4.2-5.7-7.6 c2.2-36.6-13.2-72-41.4-95.3c0.3-21-16.5-38.4-37.5-38.7c-5.9-0.1-11.6,1.2-16.9,3.7c-39.5-8.2-80.1,8.1-103.1,41.3 c-2.8,3.7-8.2,4.6-12.1,2s-5.3-7.6-3.2-11.7l0,0c11.4-20.4,28.6-37.4,49.6-48.9c7.6-5.1,9.6-15,4.8-22.5c-0.9-1.3-1.9-2.6-3.2-3.6 C1754.4,2306.4,1777,2306,1798.7,2310.6z"/> <path class="st2" d="M1791.9,2369.8c9.9-13,29-15.9,42.6-6.4c0.6,0.4,1.1,0.8,1.6,1.2c13.6,11.2,15.9,30.6,5.1,44.3 c-9.9,13-29,15.9-42.6,6.4c-0.6-0.4-1.1-0.8-1.6-1.2C1783.4,2402.9,1781.1,2383.6,1791.9,2369.8z"/> <path class="st2" d="M1798.7,2310.6c80.5,17.2,132.1,96.5,115,177.4c-1.9,4.5-7.3,6.6-12,4.8c-3.2-1.3-5.5-4.2-5.7-7.6 c2.2-36.6-13.2-72-41.4-95.3c0.3-21-16.5-38.4-37.5-38.7c-5.9-0.1-11.6,1.2-16.9,3.7c-39.5-8.2-80.1,8.1-103.1,41.3 c-2.8,3.7-8.2,4.6-12.1,2s-5.3-7.6-3.2-11.7l0,0c11.4-20.4,28.6-37.4,49.6-48.9c7.6-5.1,9.6-15,4.8-22.5c-0.9-1.3-1.9-2.6-3.2-3.6 C1754.4,2306.4,1777,2306,1798.7,2310.6z"/> <path class="st2" d="M1791.9,2369.8c9.9-13,29-15.9,42.6-6.4c0.6,0.4,1.1,0.8,1.6,1.2c13.6,11.2,15.9,30.6,5.1,44.3 c-9.9,13-29,15.9-42.6,6.4c-0.6-0.4-1.1-0.8-1.6-1.2C1783.4,2402.9,1781.1,2383.6,1791.9,2369.8z"/> <path class="st3" d="M1721.6,2314.8c3.3-0.3,6.5,1.1,8.4,3.7c3.1,4.2,2.2,9.9-1.9,13.1c-32.7,16.4-55.6,47.4-61.6,83.6 c-18.3,10.3-25,33.5-14.6,51.9c2.8,5.1,6.8,9.5,11.6,12.9c12.7,38.4,47,65.5,87.2,68.9c4.8,0.8,8.2,4.9,7.8,9.6 c-0.1,4.5-3.8,8.2-8.5,8.6c-23.8,0.2-47.1-6.2-67.1-18.6c-7.8-3.9-17.4-1.1-21.5,6.4c-0.1,0.2-0.2,0.4-0.4,0.7 c-0.7,1.4-1.2,3-1.5,4.5c-15.4-16.4-26.8-35.6-33.6-56.6C1600.5,2424.8,1643.2,2340.3,1721.6,2314.8z"/> <ellipse class="st4" cx="1801.7" cy="2533" rx="31.4" ry="31.5"/> <path class="st3" d="M1660.4,2428.7c9.9-13,29-15.9,42.6-6.4c0.6,0.4,1.1,0.8,1.6,1.2c13.6,11.2,15.9,30.6,5.1,44.3 c-9.9,13-29,15.9-42.6,6.4c-0.5-0.4-1.1-0.8-1.6-1.2C1651.9,2461.8,1649.6,2442.5,1660.4,2428.7z"/> <path class="st4" d="M1878.6,2557c-55.1,61.4-149.4,66.4-210.6,11.3c-1.9-2.7-2.3-6.1-1-9.1c1.8-4.5,7.1-6.8,11.7-5 c0.1,0.1,0.3,0.1,0.4,0.2c30.1,20.1,68.8,24.5,102.9,11.7c18.1,10.8,41.5,4.9,52.2-13.3c3-5.1,4.8-10.7,5.3-16.6 c26.8-30.3,33-73.6,15.9-110.3c-1.8-4.4,0.1-9.3,4.4-11.6c4.1-2.1,9.2-0.8,11.7,3.1c12.1,20.6,18.2,44,17.5,67.6 c0.3,8.8,7.9,15.6,17,15.4h0.1c1.6-0.1,3.2-0.4,4.7-0.9C1904.5,2520.6,1893.5,2540.2,1878.6,2557z"/> <path class="st2" d="M1798.7,2310.6c80.5,17.2,132.1,96.5,115,177.4c-1.9,4.5-7.3,6.6-12,4.8c-3.2-1.3-5.5-4.2-5.7-7.6 c2.2-36.6-13.2-72-41.4-95.3c0.3-21-16.5-38.4-37.5-38.7c-5.9-0.1-11.6,1.2-16.9,3.7c-39.5-8.2-80.1,8.1-103.1,41.3 c-2.8,3.7-8.2,4.6-12.1,2s-5.3-7.6-3.2-11.7l0,0c11.4-20.4,28.6-37.4,49.6-48.9c7.6-5.1,9.6-15,4.8-22.5c-0.9-1.3-1.9-2.6-3.2-3.6 C1754.4,2306.4,1777,2306,1798.7,2310.6z"/> <path class="st2" d="M1791.9,2369.8c9.9-13,29-15.9,42.6-6.4c0.6,0.4,1.1,0.8,1.6,1.2c13.6,11.2,15.9,30.6,5.1,44.3 c-9.9,13-29,15.9-42.6,6.4c-0.6-0.4-1.1-0.8-1.6-1.2C1783.4,2402.9,1781.1,2383.6,1791.9,2369.8z"/> <path class="st2" d="M1798.7,2310.6c80.5,17.2,132.1,96.5,115,177.4c-1.9,4.5-7.3,6.6-12,4.8c-3.2-1.3-5.5-4.2-5.7-7.6 c2.2-36.6-13.2-72-41.4-95.3c0.3-21-16.5-38.4-37.5-38.7c-5.9-0.1-11.6,1.2-16.9,3.7c-39.5-8.2-80.1,8.1-103.1,41.3 c-2.8,3.7-8.2,4.6-12.1,2s-5.3-7.6-3.2-11.7l0,0c11.4-20.4,28.6-37.4,49.6-48.9c7.6-5.1,9.6-15,4.8-22.5c-0.9-1.3-1.9-2.6-3.2-3.6 C1754.4,2306.4,1777,2306,1798.7,2310.6z"/> <path class="st2" d="M1791.9,2369.8c9.9-13,29-15.9,42.6-6.4c0.6,0.4,1.1,0.8,1.6,1.2c13.6,11.2,15.9,30.6,5.1,44.3 c-9.9,13-29,15.9-42.6,6.4c-0.6-0.4-1.1-0.8-1.6-1.2C1783.4,2402.9,1781.1,2383.6,1791.9,2369.8z"/> <path class="st2" d="M1798.7,2310.6c80.5,17.2,132.1,96.5,115,177.4c-1.9,4.5-7.3,6.6-12,4.8c-3.2-1.3-5.5-4.2-5.7-7.6 c2.2-36.6-13.2-72-41.4-95.3c0.3-21-16.5-38.4-37.5-38.7c-5.9-0.1-11.6,1.2-16.9,3.7c-39.5-8.2-80.1,8.1-103.1,41.3 c-2.8,3.7-8.2,4.6-12.1,2s-5.3-7.6-3.2-11.7l0,0c11.4-20.4,28.6-37.4,49.6-48.9c7.6-5.1,9.6-15,4.8-22.5c-0.9-1.3-1.9-2.6-3.2-3.6 C1754.4,2306.4,1777,2306,1798.7,2310.6z"/> <path class="st2" d="M1791.9,2369.8c9.9-13,29-15.9,42.6-6.4c0.6,0.4,1.1,0.8,1.6,1.2c13.6,11.2,15.9,30.6,5.1,44.3 c-9.9,13-29,15.9-42.6,6.4c-0.6-0.4-1.1-0.8-1.6-1.2C1783.4,2402.9,1781.1,2383.6,1791.9,2369.8z"/> <path class="st2" d="M1798.7,2310.6c80.5,17.2,132.1,96.5,115,177.4c-1.9,4.5-7.3,6.6-12,4.8c-3.2-1.3-5.5-4.2-5.7-7.6 c2.2-36.6-13.2-72-41.4-95.3c0.3-21-16.5-38.4-37.5-38.7c-5.9-0.1-11.6,1.2-16.9,3.7c-39.5-8.2-80.1,8.1-103.1,41.3 c-2.8,3.7-8.2,4.6-12.1,2s-5.3-7.6-3.2-11.7l0,0c11.4-20.4,28.6-37.4,49.6-48.9c7.6-5.1,9.6-15,4.8-22.5c-0.9-1.3-1.9-2.6-3.2-3.6 C1754.4,2306.4,1777,2306,1798.7,2310.6z"/> <path class="st2" d="M1791.9,2369.8c9.9-13,29-15.9,42.6-6.4c0.6,0.4,1.1,0.8,1.6,1.2c13.6,11.2,15.9,30.6,5.1,44.3 c-9.9,13-29,15.9-42.6,6.4c-0.6-0.4-1.1-0.8-1.6-1.2C1783.4,2402.9,1781.1,2383.6,1791.9,2369.8z"/> <path class="st2" d="M1798.7,2310.6c80.5,17.2,132.1,96.5,115,177.4c-1.9,4.5-7.3,6.6-12,4.8c-3.2-1.3-5.5-4.2-5.7-7.6 c2.2-36.6-13.2-72-41.4-95.3c0.3-21-16.5-38.4-37.5-38.7c-5.9-0.1-11.6,1.2-16.9,3.7c-39.5-8.2-80.1,8.1-103.1,41.3 c-2.8,3.7-8.2,4.6-12.1,2s-5.3-7.6-3.2-11.7l0,0c11.4-20.4,28.6-37.4,49.6-48.9c7.6-5.1,9.6-15,4.8-22.5c-0.9-1.3-1.9-2.6-3.2-3.6 C1754.4,2306.4,1777,2306,1798.7,2310.6z"/> <path class="st2" d="M1791.9,2369.8c9.9-13,29-15.9,42.6-6.4c0.6,0.4,1.1,0.8,1.6,1.2c13.6,11.2,15.9,30.6,5.1,44.3 c-9.9,13-29,15.9-42.6,6.4c-0.6-0.4-1.1-0.8-1.6-1.2C1783.4,2402.9,1781.1,2383.6,1791.9,2369.8z"/> <path class="st2" d="M1798.7,2310.6c80.5,17.2,132.1,96.5,115,177.4c-1.9,4.5-7.3,6.6-12,4.8c-3.2-1.3-5.5-4.2-5.7-7.6 c2.2-36.6-13.2-72-41.4-95.3c0.3-21-16.5-38.4-37.5-38.7c-5.9-0.1-11.6,1.2-16.9,3.7c-39.5-8.2-80.1,8.1-103.1,41.3 c-2.8,3.7-8.2,4.6-12.1,2s-5.3-7.6-3.2-11.7l0,0c11.4-20.4,28.6-37.4,49.6-48.9c7.6-5.1,9.6-15,4.8-22.5c-0.9-1.3-1.9-2.6-3.2-3.6 C1754.4,2306.4,1777,2306,1798.7,2310.6z"/> <path class="st2" d="M1791.9,2369.8c9.9-13,29-15.9,42.6-6.4c0.6,0.4,1.1,0.8,1.6,1.2c13.6,11.2,15.9,30.6,5.1,44.3 c-9.9,13-29,15.9-42.6,6.4c-0.6-0.4-1.1-0.8-1.6-1.2C1783.4,2402.9,1781.1,2383.6,1791.9,2369.8z"/> <path class="st3" d="M1721.6,2314.8c3.3-0.3,6.5,1.1,8.4,3.7c3.1,4.2,2.2,9.9-1.9,13.1c-32.7,16.4-55.6,47.4-61.6,83.6 c-18.3,10.3-25,33.5-14.6,51.9c2.8,5.1,6.8,9.5,11.6,12.9c12.7,38.4,47,65.5,87.2,68.9c4.8,0.8,8.2,4.9,7.8,9.6 c-0.1,4.5-3.8,8.2-8.5,8.6c-23.8,0.2-47.1-6.2-67.1-18.6c-7.8-3.9-17.4-1.1-21.5,6.4c-0.1,0.2-0.2,0.4-0.4,0.7 c-0.7,1.4-1.2,3-1.5,4.5c-15.4-16.4-26.8-35.6-33.6-56.6C1600.5,2424.8,1643.2,2340.3,1721.6,2314.8z"/> <ellipse class="st4" cx="1801.7" cy="2533" rx="31.4" ry="31.5"/> <path class="st3" d="M1660.4,2428.7c9.9-13,29-15.9,42.6-6.4c0.6,0.4,1.1,0.8,1.6,1.2c13.6,11.2,15.9,30.6,5.1,44.3 c-9.9,13-29,15.9-42.6,6.4c-0.5-0.4-1.1-0.8-1.6-1.2C1651.9,2461.8,1649.6,2442.5,1660.4,2428.7z"/> <path class="st4" d="M1878.6,2557c-55.1,61.4-149.4,66.4-210.6,11.3c-1.9-2.7-2.3-6.1-1-9.1c1.8-4.5,7.1-6.8,11.7-5 c0.1,0.1,0.3,0.1,0.4,0.2c30.1,20.1,68.8,24.5,102.9,11.7c18.1,10.8,41.5,4.9,52.2-13.3c3-5.1,4.8-10.7,5.3-16.6 c26.8-30.3,33-73.6,15.9-110.3c-1.8-4.4,0.1-9.3,4.4-11.6c4.1-2.1,9.2-0.8,11.7,3.1c12.1,20.6,18.2,44,17.5,67.6 c0.3,8.8,7.9,15.6,17,15.4h0.1c1.6-0.1,3.2-0.4,4.7-0.9C1904.5,2520.6,1893.5,2540.2,1878.6,2557z"/> <path class="st2" d="M1798.7,2310.6c80.5,17.2,132.1,96.5,115,177.4c-1.9,4.5-7.3,6.6-12,4.8c-3.2-1.3-5.5-4.2-5.7-7.6 c2.2-36.6-13.2-72-41.4-95.3c0.3-21-16.5-38.4-37.5-38.7c-5.9-0.1-11.6,1.2-16.9,3.7c-39.5-8.2-80.1,8.1-103.1,41.3 c-2.8,3.7-8.2,4.6-12.1,2s-5.3-7.6-3.2-11.7l0,0c11.4-20.4,28.6-37.4,49.6-48.9c7.6-5.1,9.6-15,4.8-22.5c-0.9-1.3-1.9-2.6-3.2-3.6 C1754.4,2306.4,1777,2306,1798.7,2310.6z"/> <path class="st2" d="M1791.9,2369.8c9.9-13,29-15.9,42.6-6.4c0.6,0.4,1.1,0.8,1.6,1.2c13.6,11.2,15.9,30.6,5.1,44.3 c-9.9,13-29,15.9-42.6,6.4c-0.6-0.4-1.1-0.8-1.6-1.2C1783.4,2402.9,1781.1,2383.6,1791.9,2369.8z"/> <path class="st2" d="M1798.7,2310.6c80.5,17.2,132.1,96.5,115,177.4c-1.9,4.5-7.3,6.6-12,4.8c-3.2-1.3-5.5-4.2-5.7-7.6 c2.2-36.6-13.2-72-41.4-95.3c0.3-21-16.5-38.4-37.5-38.7c-5.9-0.1-11.6,1.2-16.9,3.7c-39.5-8.2-80.1,8.1-103.1,41.3 c-2.8,3.7-8.2,4.6-12.1,2s-5.3-7.6-3.2-11.7l0,0c11.4-20.4,28.6-37.4,49.6-48.9c7.6-5.1,9.6-15,4.8-22.5c-0.9-1.3-1.9-2.6-3.2-3.6 C1754.4,2306.4,1777,2306,1798.7,2310.6z"/> <path class="st2" d="M1791.9,2369.8c9.9-13,29-15.9,42.6-6.4c0.6,0.4,1.1,0.8,1.6,1.2c13.6,11.2,15.9,30.6,5.1,44.3 c-9.9,13-29,15.9-42.6,6.4c-0.6-0.4-1.1-0.8-1.6-1.2C1783.4,2402.9,1781.1,2383.6,1791.9,2369.8z"/> <path class="st2" d="M1798.7,2310.6c80.5,17.2,132.1,96.5,115,177.4c-1.9,4.5-7.3,6.6-12,4.8c-3.2-1.3-5.5-4.2-5.7-7.6 c2.2-36.6-13.2-72-41.4-95.3c0.3-21-16.5-38.4-37.5-38.7c-5.9-0.1-11.6,1.2-16.9,3.7c-39.5-8.2-80.1,8.1-103.1,41.3 c-2.8,3.7-8.2,4.6-12.1,2s-5.3-7.6-3.2-11.7l0,0c11.4-20.4,28.6-37.4,49.6-48.9c7.6-5.1,9.6-15,4.8-22.5c-0.9-1.3-1.9-2.6-3.2-3.6 C1754.4,2306.4,1777,2306,1798.7,2310.6z"/> <path class="st2" d="M1791.9,2369.8c9.9-13,29-15.9,42.6-6.4c0.6,0.4,1.1,0.8,1.6,1.2c13.6,11.2,15.9,30.6,5.1,44.3 c-9.9,13-29,15.9-42.6,6.4c-0.6-0.4-1.1-0.8-1.6-1.2C1783.4,2402.9,1781.1,2383.6,1791.9,2369.8z"/> <path class="st2" d="M1798.7,2310.6c80.5,17.2,132.1,96.5,115,177.4c-1.9,4.5-7.3,6.6-12,4.8c-3.2-1.3-5.5-4.2-5.7-7.6 c2.2-36.6-13.2-72-41.4-95.3c0.3-21-16.5-38.4-37.5-38.7c-5.9-0.1-11.6,1.2-16.9,3.7c-39.5-8.2-80.1,8.1-103.1,41.3 c-2.8,3.7-8.2,4.6-12.1,2s-5.3-7.6-3.2-11.7l0,0c11.4-20.4,28.6-37.4,49.6-48.9c7.6-5.1,9.6-15,4.8-22.5c-0.9-1.3-1.9-2.6-3.2-3.6 C1754.4,2306.4,1777,2306,1798.7,2310.6z"/> <path class="st2" d="M1791.9,2369.8c9.9-13,29-15.9,42.6-6.4c0.6,0.4,1.1,0.8,1.6,1.2c13.6,11.2,15.9,30.6,5.1,44.3 c-9.9,13-29,15.9-42.6,6.4c-0.6-0.4-1.1-0.8-1.6-1.2C1783.4,2402.9,1781.1,2383.6,1791.9,2369.8z"/> <path class="st2" d="M1798.7,2310.6c80.5,17.2,132.1,96.5,115,177.4c-1.9,4.5-7.3,6.6-12,4.8c-3.2-1.3-5.5-4.2-5.7-7.6 c2.2-36.6-13.2-72-41.4-95.3c0.3-21-16.5-38.4-37.5-38.7c-5.9-0.1-11.6,1.2-16.9,3.7c-39.5-8.2-80.1,8.1-103.1,41.3 c-2.8,3.7-8.2,4.6-12.1,2s-5.3-7.6-3.2-11.7l0,0c11.4-20.4,28.6-37.4,49.6-48.9c7.6-5.1,9.6-15,4.8-22.5c-0.9-1.3-1.9-2.6-3.2-3.6 C1754.4,2306.4,1777,2306,1798.7,2310.6z"/> <path class="st2" d="M1791.9,2369.8c9.9-13,29-15.9,42.6-6.4c0.6,0.4,1.1,0.8,1.6,1.2c13.6,11.2,15.9,30.6,5.1,44.3 c-9.9,13-29,15.9-42.6,6.4c-0.6-0.4-1.1-0.8-1.6-1.2C1783.4,2402.9,1781.1,2383.6,1791.9,2369.8z"/> <path class="st2" d="M1798.7,2310.6c80.5,17.2,132.1,96.5,115,177.4c-1.9,4.5-7.3,6.6-12,4.8c-3.2-1.3-5.5-4.2-5.7-7.6 c2.2-36.6-13.2-72-41.4-95.3c0.3-21-16.5-38.4-37.5-38.7c-5.9-0.1-11.6,1.2-16.9,3.7c-39.5-8.2-80.1,8.1-103.1,41.3 c-2.8,3.7-8.2,4.6-12.1,2s-5.3-7.6-3.2-11.7l0,0c11.4-20.4,28.6-37.4,49.6-48.9c7.6-5.1,9.6-15,4.8-22.5c-0.9-1.3-1.9-2.6-3.2-3.6 C1754.4,2306.4,1777,2306,1798.7,2310.6z"/> <path class="st2" d="M1791.9,2369.8c9.9-13,29-15.9,42.6-6.4c0.6,0.4,1.1,0.8,1.6,1.2c13.6,11.2,15.9,30.6,5.1,44.3 c-9.9,13-29,15.9-42.6,6.4c-0.6-0.4-1.1-0.8-1.6-1.2C1783.4,2402.9,1781.1,2383.6,1791.9,2369.8z"/> <path class="st3" d="M1721.6,2314.8c3.3-0.3,6.5,1.1,8.4,3.7c3.1,4.2,2.2,9.9-1.9,13.1c-32.7,16.4-55.6,47.4-61.6,83.6 c-18.3,10.3-25,33.5-14.6,51.9c2.8,5.1,6.8,9.5,11.6,12.9c12.7,38.4,47,65.5,87.2,68.9c4.8,0.8,8.2,4.9,7.8,9.6 c-0.1,4.5-3.8,8.2-8.5,8.6c-23.8,0.2-47.1-6.2-67.1-18.6c-7.8-3.9-17.4-1.1-21.5,6.4c-0.1,0.2-0.2,0.4-0.4,0.7 c-0.7,1.4-1.2,3-1.5,4.5c-15.4-16.4-26.8-35.6-33.6-56.6C1600.5,2424.8,1643.2,2340.3,1721.6,2314.8z"/> <ellipse class="st4" cx="1801.7" cy="2533" rx="31.4" ry="31.5"/> <path class="st3" d="M1660.4,2428.7c9.9-13,29-15.9,42.6-6.4c0.6,0.4,1.1,0.8,1.6,1.2c13.6,11.2,15.9,30.6,5.1,44.3 c-9.9,13-29,15.9-42.6,6.4c-0.5-0.4-1.1-0.8-1.6-1.2C1651.9,2461.8,1649.6,2442.5,1660.4,2428.7z"/> <path class="st4" d="M1878.6,2557c-55.1,61.4-149.4,66.4-210.6,11.3c-1.9-2.7-2.3-6.1-1-9.1c1.8-4.5,7.1-6.8,11.7-5 c0.1,0.1,0.3,0.1,0.4,0.2c30.1,20.1,68.8,24.5,102.9,11.7c18.1,10.8,41.5,4.9,52.2-13.3c3-5.1,4.8-10.7,5.3-16.6 c26.8-30.3,33-73.6,15.9-110.3c-1.8-4.4,0.1-9.3,4.4-11.6c4.1-2.1,9.2-0.8,11.7,3.1c12.1,20.6,18.2,44,17.5,67.6 c0.3,8.8,7.9,15.6,17,15.4h0.1c1.6-0.1,3.2-0.4,4.7-0.9C1904.5,2520.6,1893.5,2540.2,1878.6,2557z"/> <path class="st2" d="M1798.7,2310.6c80.5,17.2,132.1,96.5,115,177.4c-1.9,4.5-7.3,6.6-12,4.8c-3.2-1.3-5.5-4.2-5.7-7.6 c2.2-36.6-13.2-72-41.4-95.3c0.3-21-16.5-38.4-37.5-38.7c-5.9-0.1-11.6,1.2-16.9,3.7c-39.5-8.2-80.1,8.1-103.1,41.3 c-2.8,3.7-8.2,4.6-12.1,2s-5.3-7.6-3.2-11.7l0,0c11.4-20.4,28.6-37.4,49.6-48.9c7.6-5.1,9.6-15,4.8-22.5c-0.9-1.3-1.9-2.6-3.2-3.6 C1754.4,2306.4,1777,2306,1798.7,2310.6z"/> <path class="st2" d="M1791.9,2369.8c9.9-13,29-15.9,42.6-6.4c0.6,0.4,1.1,0.8,1.6,1.2c13.6,11.2,15.9,30.6,5.1,44.3 c-9.9,13-29,15.9-42.6,6.4c-0.6-0.4-1.1-0.8-1.6-1.2C1783.4,2402.9,1781.1,2383.6,1791.9,2369.8z"/> <path class="st2" d="M1798.7,2310.6c80.5,17.2,132.1,96.5,115,177.4c-1.9,4.5-7.3,6.6-12,4.8c-3.2-1.3-5.5-4.2-5.7-7.6 c2.2-36.6-13.2-72-41.4-95.3c0.3-21-16.5-38.4-37.5-38.7c-5.9-0.1-11.6,1.2-16.9,3.7c-39.5-8.2-80.1,8.1-103.1,41.3 c-2.8,3.7-8.2,4.6-12.1,2s-5.3-7.6-3.2-11.7l0,0c11.4-20.4,28.6-37.4,49.6-48.9c7.6-5.1,9.6-15,4.8-22.5c-0.9-1.3-1.9-2.6-3.2-3.6 C1754.4,2306.4,1777,2306,1798.7,2310.6z"/> <path class="st2" d="M1791.9,2369.8c9.9-13,29-15.9,42.6-6.4c0.6,0.4,1.1,0.8,1.6,1.2c13.6,11.2,15.9,30.6,5.1,44.3 c-9.9,13-29,15.9-42.6,6.4c-0.6-0.4-1.1-0.8-1.6-1.2C1783.4,2402.9,1781.1,2383.6,1791.9,2369.8z"/> <path class="st2" d="M1798.7,2310.6c80.5,17.2,132.1,96.5,115,177.4c-1.9,4.5-7.3,6.6-12,4.8c-3.2-1.3-5.5-4.2-5.7-7.6 c2.2-36.6-13.2-72-41.4-95.3c0.3-21-16.5-38.4-37.5-38.7c-5.9-0.1-11.6,1.2-16.9,3.7c-39.5-8.2-80.1,8.1-103.1,41.3 c-2.8,3.7-8.2,4.6-12.1,2s-5.3-7.6-3.2-11.7l0,0c11.4-20.4,28.6-37.4,49.6-48.9c7.6-5.1,9.6-15,4.8-22.5c-0.9-1.3-1.9-2.6-3.2-3.6 C1754.4,2306.4,1777,2306,1798.7,2310.6z"/> <path class="st2" d="M1791.9,2369.8c9.9-13,29-15.9,42.6-6.4c0.6,0.4,1.1,0.8,1.6,1.2c13.6,11.2,15.9,30.6,5.1,44.3 c-9.9,13-29,15.9-42.6,6.4c-0.6-0.4-1.1-0.8-1.6-1.2C1783.4,2402.9,1781.1,2383.6,1791.9,2369.8z"/> <path class="st2" d="M1798.7,2310.6c80.5,17.2,132.1,96.5,115,177.4c-1.9,4.5-7.3,6.6-12,4.8c-3.2-1.3-5.5-4.2-5.7-7.6 c2.2-36.6-13.2-72-41.4-95.3c0.3-21-16.5-38.4-37.5-38.7c-5.9-0.1-11.6,1.2-16.9,3.7c-39.5-8.2-80.1,8.1-103.1,41.3 c-2.8,3.7-8.2,4.6-12.1,2s-5.3-7.6-3.2-11.7l0,0c11.4-20.4,28.6-37.4,49.6-48.9c7.6-5.1,9.6-15,4.8-22.5c-0.9-1.3-1.9-2.6-3.2-3.6 C1754.4,2306.4,1777,2306,1798.7,2310.6z"/> <path class="st2" d="M1791.9,2369.8c9.9-13,29-15.9,42.6-6.4c0.6,0.4,1.1,0.8,1.6,1.2c13.6,11.2,15.9,30.6,5.1,44.3 c-9.9,13-29,15.9-42.6,6.4c-0.6-0.4-1.1-0.8-1.6-1.2C1783.4,2402.9,1781.1,2383.6,1791.9,2369.8z"/> <path class="st2" d="M1798.7,2310.6c80.5,17.2,132.1,96.5,115,177.4c-1.9,4.5-7.3,6.6-12,4.8c-3.2-1.3-5.5-4.2-5.7-7.6 c2.2-36.6-13.2-72-41.4-95.3c0.3-21-16.5-38.4-37.5-38.7c-5.9-0.1-11.6,1.2-16.9,3.7c-39.5-8.2-80.1,8.1-103.1,41.3 c-2.8,3.7-8.2,4.6-12.1,2s-5.3-7.6-3.2-11.7l0,0c11.4-20.4,28.6-37.4,49.6-48.9c7.6-5.1,9.6-15,4.8-22.5c-0.9-1.3-1.9-2.6-3.2-3.6 C1754.4,2306.4,1777,2306,1798.7,2310.6z"/> <path class="st2" d="M1791.9,2369.8c9.9-13,29-15.9,42.6-6.4c0.6,0.4,1.1,0.8,1.6,1.2c13.6,11.2,15.9,30.6,5.1,44.3 c-9.9,13-29,15.9-42.6,6.4c-0.6-0.4-1.1-0.8-1.6-1.2C1783.4,2402.9,1781.1,2383.6,1791.9,2369.8z"/> <path class="st2" d="M1798.7,2310.6c80.5,17.2,132.1,96.5,115,177.4c-1.9,4.5-7.3,6.6-12,4.8c-3.2-1.3-5.5-4.2-5.7-7.6 c2.2-36.6-13.2-72-41.4-95.3c0.3-21-16.5-38.4-37.5-38.7c-5.9-0.1-11.6,1.2-16.9,3.7c-39.5-8.2-80.1,8.1-103.1,41.3 c-2.8,3.7-8.2,4.6-12.1,2s-5.3-7.6-3.2-11.7l0,0c11.4-20.4,28.6-37.4,49.6-48.9c7.6-5.1,9.6-15,4.8-22.5c-0.9-1.3-1.9-2.6-3.2-3.6 C1754.4,2306.4,1777,2306,1798.7,2310.6z"/> <path class="st2" d="M1791.9,2369.8c9.9-13,29-15.9,42.6-6.4c0.6,0.4,1.1,0.8,1.6,1.2c13.6,11.2,15.9,30.6,5.1,44.3 c-9.9,13-29,15.9-42.6,6.4c-0.6-0.4-1.1-0.8-1.6-1.2C1783.4,2402.9,1781.1,2383.6,1791.9,2369.8z"/> <path class="st3" d="M1721.6,2314.8c3.3-0.3,6.5,1.1,8.4,3.7c3.1,4.2,2.2,9.9-1.9,13.1c-32.7,16.4-55.6,47.4-61.6,83.6 c-18.3,10.3-25,33.5-14.6,51.9c2.8,5.1,6.8,9.5,11.6,12.9c12.7,38.4,47,65.5,87.2,68.9c4.8,0.8,8.2,4.9,7.8,9.6 c-0.1,4.5-3.8,8.2-8.5,8.6c-23.8,0.2-47.1-6.2-67.1-18.6c-7.8-3.9-17.4-1.1-21.5,6.4c-0.1,0.2-0.2,0.4-0.4,0.7 c-0.7,1.4-1.2,3-1.5,4.5c-15.4-16.4-26.8-35.6-33.6-56.6C1600.5,2424.8,1643.2,2340.3,1721.6,2314.8z"/> <ellipse class="st4" cx="1801.7" cy="2533" rx="31.4" ry="31.5"/> <path class="st3" d="M1660.4,2428.7c9.9-13,29-15.9,42.6-6.4c0.6,0.4,1.1,0.8,1.6,1.2c13.6,11.2,15.9,30.6,5.1,44.3 c-9.9,13-29,15.9-42.6,6.4c-0.5-0.4-1.1-0.8-1.6-1.2C1651.9,2461.8,1649.6,2442.5,1660.4,2428.7z"/> <path class="st4" d="M1878.6,2557c-55.1,61.4-149.4,66.4-210.6,11.3c-1.9-2.7-2.3-6.1-1-9.1c1.8-4.5,7.1-6.8,11.7-5 c0.1,0.1,0.3,0.1,0.4,0.2c30.1,20.1,68.8,24.5,102.9,11.7c18.1,10.8,41.5,4.9,52.2-13.3c3-5.1,4.8-10.7,5.3-16.6 c26.8-30.3,33-73.6,15.9-110.3c-1.8-4.4,0.1-9.3,4.4-11.6c4.1-2.1,9.2-0.8,11.7,3.1c12.1,20.6,18.2,44,17.5,67.6 c0.3,8.8,7.9,15.6,17,15.4h0.1c1.6-0.1,3.2-0.4,4.7-0.9C1904.5,2520.6,1893.5,2540.2,1878.6,2557z"/> <path class="st2" d="M1798.7,2310.6c80.5,17.2,132.1,96.5,115,177.4c-1.9,4.5-7.3,6.6-12,4.8c-3.2-1.3-5.5-4.2-5.7-7.6 c2.2-36.6-13.2-72-41.4-95.3c0.3-21-16.5-38.4-37.5-38.7c-5.9-0.1-11.6,1.2-16.9,3.7c-39.5-8.2-80.1,8.1-103.1,41.3 c-2.8,3.7-8.2,4.6-12.1,2s-5.3-7.6-3.2-11.7l0,0c11.4-20.4,28.6-37.4,49.6-48.9c7.6-5.1,9.6-15,4.8-22.5c-0.9-1.3-1.9-2.6-3.2-3.6 C1754.4,2306.4,1777,2306,1798.7,2310.6z"/> <path class="st2" d="M1791.9,2369.8c9.9-13,29-15.9,42.6-6.4c0.6,0.4,1.1,0.8,1.6,1.2c13.6,11.2,15.9,30.6,5.1,44.3 c-9.9,13-29,15.9-42.6,6.4c-0.6-0.4-1.1-0.8-1.6-1.2C1783.4,2402.9,1781.1,2383.6,1791.9,2369.8z"/> <path class="st2" d="M1798.7,2310.6c80.5,17.2,132.1,96.5,115,177.4c-1.9,4.5-7.3,6.6-12,4.8c-3.2-1.3-5.5-4.2-5.7-7.6 c2.2-36.6-13.2-72-41.4-95.3c0.3-21-16.5-38.4-37.5-38.7c-5.9-0.1-11.6,1.2-16.9,3.7c-39.5-8.2-80.1,8.1-103.1,41.3 c-2.8,3.7-8.2,4.6-12.1,2s-5.3-7.6-3.2-11.7l0,0c11.4-20.4,28.6-37.4,49.6-48.9c7.6-5.1,9.6-15,4.8-22.5c-0.9-1.3-1.9-2.6-3.2-3.6 C1754.4,2306.4,1777,2306,1798.7,2310.6z"/> <path class="st2" d="M1791.9,2369.8c9.9-13,29-15.9,42.6-6.4c0.6,0.4,1.1,0.8,1.6,1.2c13.6,11.2,15.9,30.6,5.1,44.3 c-9.9,13-29,15.9-42.6,6.4c-0.6-0.4-1.1-0.8-1.6-1.2C1783.4,2402.9,1781.1,2383.6,1791.9,2369.8z"/> <path class="st2" d="M1798.7,2310.6c80.5,17.2,132.1,96.5,115,177.4c-1.9,4.5-7.3,6.6-12,4.8c-3.2-1.3-5.5-4.2-5.7-7.6 c2.2-36.6-13.2-72-41.4-95.3c0.3-21-16.5-38.4-37.5-38.7c-5.9-0.1-11.6,1.2-16.9,3.7c-39.5-8.2-80.1,8.1-103.1,41.3 c-2.8,3.7-8.2,4.6-12.1,2s-5.3-7.6-3.2-11.7l0,0c11.4-20.4,28.6-37.4,49.6-48.9c7.6-5.1,9.6-15,4.8-22.5c-0.9-1.3-1.9-2.6-3.2-3.6 C1754.4,2306.4,1777,2306,1798.7,2310.6z"/> <path class="st2" d="M1791.9,2369.8c9.9-13,29-15.9,42.6-6.4c0.6,0.4,1.1,0.8,1.6,1.2c13.6,11.2,15.9,30.6,5.1,44.3 c-9.9,13-29,15.9-42.6,6.4c-0.6-0.4-1.1-0.8-1.6-1.2C1783.4,2402.9,1781.1,2383.6,1791.9,2369.8z"/> <path class="st2" d="M1798.7,2310.6c80.5,17.2,132.1,96.5,115,177.4c-1.9,4.5-7.3,6.6-12,4.8c-3.2-1.3-5.5-4.2-5.7-7.6 c2.2-36.6-13.2-72-41.4-95.3c0.3-21-16.5-38.4-37.5-38.7c-5.9-0.1-11.6,1.2-16.9,3.7c-39.5-8.2-80.1,8.1-103.1,41.3 c-2.8,3.7-8.2,4.6-12.1,2s-5.3-7.6-3.2-11.7l0,0c11.4-20.4,28.6-37.4,49.6-48.9c7.6-5.1,9.6-15,4.8-22.5c-0.9-1.3-1.9-2.6-3.2-3.6 C1754.4,2306.4,1777,2306,1798.7,2310.6z"/> <path class="st2" d="M1791.9,2369.8c9.9-13,29-15.9,42.6-6.4c0.6,0.4,1.1,0.8,1.6,1.2c13.6,11.2,15.9,30.6,5.1,44.3 c-9.9,13-29,15.9-42.6,6.4c-0.6-0.4-1.1-0.8-1.6-1.2C1783.4,2402.9,1781.1,2383.6,1791.9,2369.8z"/> <path class="st2" d="M1798.7,2310.6c80.5,17.2,132.1,96.5,115,177.4c-1.9,4.5-7.3,6.6-12,4.8c-3.2-1.3-5.5-4.2-5.7-7.6 c2.2-36.6-13.2-72-41.4-95.3c0.3-21-16.5-38.4-37.5-38.7c-5.9-0.1-11.6,1.2-16.9,3.7c-39.5-8.2-80.1,8.1-103.1,41.3 c-2.8,3.7-8.2,4.6-12.1,2s-5.3-7.6-3.2-11.7l0,0c11.4-20.4,28.6-37.4,49.6-48.9c7.6-5.1,9.6-15,4.8-22.5c-0.9-1.3-1.9-2.6-3.2-3.6 C1754.4,2306.4,1777,2306,1798.7,2310.6z"/> <path class="st2" d="M1791.9,2369.8c9.9-13,29-15.9,42.6-6.4c0.6,0.4,1.1,0.8,1.6,1.2c13.6,11.2,15.9,30.6,5.1,44.3 c-9.9,13-29,15.9-42.6,6.4c-0.6-0.4-1.1-0.8-1.6-1.2C1783.4,2402.9,1781.1,2383.6,1791.9,2369.8z"/> <path class="st2" d="M1798.7,2310.6c80.5,17.2,132.1,96.5,115,177.4c-1.9,4.5-7.3,6.6-12,4.8c-3.2-1.3-5.5-4.2-5.7-7.6 c2.2-36.6-13.2-72-41.4-95.3c0.3-21-16.5-38.4-37.5-38.7c-5.9-0.1-11.6,1.2-16.9,3.7c-39.5-8.2-80.1,8.1-103.1,41.3 c-2.8,3.7-8.2,4.6-12.1,2s-5.3-7.6-3.2-11.7l0,0c11.4-20.4,28.6-37.4,49.6-48.9c7.6-5.1,9.6-15,4.8-22.5c-0.9-1.3-1.9-2.6-3.2-3.6 C1754.4,2306.4,1777,2306,1798.7,2310.6z"/> <path class="st2" d="M1791.9,2369.8c9.9-13,29-15.9,42.6-6.4c0.6,0.4,1.1,0.8,1.6,1.2c13.6,11.2,15.9,30.6,5.1,44.3 c-9.9,13-29,15.9-42.6,6.4c-0.6-0.4-1.1-0.8-1.6-1.2C1783.4,2402.9,1781.1,2383.6,1791.9,2369.8z"/> <path class="st3" d="M1721.6,2314.8c3.3-0.3,6.5,1.1,8.4,3.7c3.1,4.2,2.2,9.9-1.9,13.1c-32.7,16.4-55.6,47.4-61.6,83.6 c-18.3,10.3-25,33.5-14.6,51.9c2.8,5.1,6.8,9.5,11.6,12.9c12.7,38.4,47,65.5,87.2,68.9c4.8,0.8,8.2,4.9,7.8,9.6 c-0.1,4.5-3.8,8.2-8.5,8.6c-23.8,0.2-47.1-6.2-67.1-18.6c-7.8-3.9-17.4-1.1-21.5,6.4c-0.1,0.2-0.2,0.4-0.4,0.7 c-0.7,1.4-1.2,3-1.5,4.5c-15.4-16.4-26.8-35.6-33.6-56.6C1600.5,2424.8,1643.2,2340.3,1721.6,2314.8z"/> <ellipse class="st4" cx="1801.7" cy="2533" rx="31.4" ry="31.5"/> <path class="st3" d="M1660.4,2428.7c9.9-13,29-15.9,42.6-6.4c0.6,0.4,1.1,0.8,1.6,1.2c13.6,11.2,15.9,30.6,5.1,44.3 c-9.9,13-29,15.9-42.6,6.4c-0.5-0.4-1.1-0.8-1.6-1.2C1651.9,2461.8,1649.6,2442.5,1660.4,2428.7z"/> <path class="st4" d="M1878.6,2557c-55.1,61.4-149.4,66.4-210.6,11.3c-1.9-2.7-2.3-6.1-1-9.1c1.8-4.5,7.1-6.8,11.7-5 c0.1,0.1,0.3,0.1,0.4,0.2c30.1,20.1,68.8,24.5,102.9,11.7c18.1,10.8,41.5,4.9,52.2-13.3c3-5.1,4.8-10.7,5.3-16.6 c26.8-30.3,33-73.6,15.9-110.3c-1.8-4.4,0.1-9.3,4.4-11.6c4.1-2.1,9.2-0.8,11.7,3.1c12.1,20.6,18.2,44,17.5,67.6 c0.3,8.8,7.9,15.6,17,15.4h0.1c1.6-0.1,3.2-0.4,4.7-0.9C1904.5,2520.6,1893.5,2540.2,1878.6,2557z"/> <path class="st2" d="M1798.7,2310.6c80.5,17.2,132.1,96.5,115,177.4c-1.9,4.5-7.3,6.6-12,4.8c-3.2-1.3-5.5-4.2-5.7-7.6 c2.2-36.6-13.2-72-41.4-95.3c0.3-21-16.5-38.4-37.5-38.7c-5.9-0.1-11.6,1.2-16.9,3.7c-39.5-8.2-80.1,8.1-103.1,41.3 c-2.8,3.7-8.2,4.6-12.1,2s-5.3-7.6-3.2-11.7l0,0c11.4-20.4,28.6-37.4,49.6-48.9c7.6-5.1,9.6-15,4.8-22.5c-0.9-1.3-1.9-2.6-3.2-3.6 C1754.4,2306.4,1777,2306,1798.7,2310.6z"/> <path class="st2" d="M1791.9,2369.8c9.9-13,29-15.9,42.6-6.4c0.6,0.4,1.1,0.8,1.6,1.2c13.6,11.2,15.9,30.6,5.1,44.3 c-9.9,13-29,15.9-42.6,6.4c-0.6-0.4-1.1-0.8-1.6-1.2C1783.4,2402.9,1781.1,2383.6,1791.9,2369.8z"/> <path class="st2" d="M1798.7,2310.6c80.5,17.2,132.1,96.5,115,177.4c-1.9,4.5-7.3,6.6-12,4.8c-3.2-1.3-5.5-4.2-5.7-7.6 c2.2-36.6-13.2-72-41.4-95.3c0.3-21-16.5-38.4-37.5-38.7c-5.9-0.1-11.6,1.2-16.9,3.7c-39.5-8.2-80.1,8.1-103.1,41.3 c-2.8,3.7-8.2,4.6-12.1,2s-5.3-7.6-3.2-11.7l0,0c11.4-20.4,28.6-37.4,49.6-48.9c7.6-5.1,9.6-15,4.8-22.5c-0.9-1.3-1.9-2.6-3.2-3.6 C1754.4,2306.4,1777,2306,1798.7,2310.6z"/> <path class="st2" d="M1791.9,2369.8c9.9-13,29-15.9,42.6-6.4c0.6,0.4,1.1,0.8,1.6,1.2c13.6,11.2,15.9,30.6,5.1,44.3 c-9.9,13-29,15.9-42.6,6.4c-0.6-0.4-1.1-0.8-1.6-1.2C1783.4,2402.9,1781.1,2383.6,1791.9,2369.8z"/> <path class="st2" d="M1798.7,2310.6c80.5,17.2,132.1,96.5,115,177.4c-1.9,4.5-7.3,6.6-12,4.8c-3.2-1.3-5.5-4.2-5.7-7.6 c2.2-36.6-13.2-72-41.4-95.3c0.3-21-16.5-38.4-37.5-38.7c-5.9-0.1-11.6,1.2-16.9,3.7c-39.5-8.2-80.1,8.1-103.1,41.3 c-2.8,3.7-8.2,4.6-12.1,2s-5.3-7.6-3.2-11.7l0,0c11.4-20.4,28.6-37.4,49.6-48.9c7.6-5.1,9.6-15,4.8-22.5c-0.9-1.3-1.9-2.6-3.2-3.6 C1754.4,2306.4,1777,2306,1798.7,2310.6z"/> <path class="st2" d="M1791.9,2369.8c9.9-13,29-15.9,42.6-6.4c0.6,0.4,1.1,0.8,1.6,1.2c13.6,11.2,15.9,30.6,5.1,44.3 c-9.9,13-29,15.9-42.6,6.4c-0.6-0.4-1.1-0.8-1.6-1.2C1783.4,2402.9,1781.1,2383.6,1791.9,2369.8z"/> <path class="st2" d="M1798.7,2310.6c80.5,17.2,132.1,96.5,115,177.4c-1.9,4.5-7.3,6.6-12,4.8c-3.2-1.3-5.5-4.2-5.7-7.6 c2.2-36.6-13.2-72-41.4-95.3c0.3-21-16.5-38.4-37.5-38.7c-5.9-0.1-11.6,1.2-16.9,3.7c-39.5-8.2-80.1,8.1-103.1,41.3 c-2.8,3.7-8.2,4.6-12.1,2s-5.3-7.6-3.2-11.7l0,0c11.4-20.4,28.6-37.4,49.6-48.9c7.6-5.1,9.6-15,4.8-22.5c-0.9-1.3-1.9-2.6-3.2-3.6 C1754.4,2306.4,1777,2306,1798.7,2310.6z"/> <path class="st2" d="M1791.9,2369.8c9.9-13,29-15.9,42.6-6.4c0.6,0.4,1.1,0.8,1.6,1.2c13.6,11.2,15.9,30.6,5.1,44.3 c-9.9,13-29,15.9-42.6,6.4c-0.6-0.4-1.1-0.8-1.6-1.2C1783.4,2402.9,1781.1,2383.6,1791.9,2369.8z"/> <path class="st2" d="M1798.7,2310.6c80.5,17.2,132.1,96.5,115,177.4c-1.9,4.5-7.3,6.6-12,4.8c-3.2-1.3-5.5-4.2-5.7-7.6 c2.2-36.6-13.2-72-41.4-95.3c0.3-21-16.5-38.4-37.5-38.7c-5.9-0.1-11.6,1.2-16.9,3.7c-39.5-8.2-80.1,8.1-103.1,41.3 c-2.8,3.7-8.2,4.6-12.1,2s-5.3-7.6-3.2-11.7l0,0c11.4-20.4,28.6-37.4,49.6-48.9c7.6-5.1,9.6-15,4.8-22.5c-0.9-1.3-1.9-2.6-3.2-3.6 C1754.4,2306.4,1777,2306,1798.7,2310.6z"/> <path class="st2" d="M1791.9,2369.8c9.9-13,29-15.9,42.6-6.4c0.6,0.4,1.1,0.8,1.6,1.2c13.6,11.2,15.9,30.6,5.1,44.3 c-9.9,13-29,15.9-42.6,6.4c-0.6-0.4-1.1-0.8-1.6-1.2C1783.4,2402.9,1781.1,2383.6,1791.9,2369.8z"/> <path class="st2" d="M1798.7,2310.6c80.5,17.2,132.1,96.5,115,177.4c-1.9,4.5-7.3,6.6-12,4.8c-3.2-1.3-5.5-4.2-5.7-7.6 c2.2-36.6-13.2-72-41.4-95.3c0.3-21-16.5-38.4-37.5-38.7c-5.9-0.1-11.6,1.2-16.9,3.7c-39.5-8.2-80.1,8.1-103.1,41.3 c-2.8,3.7-8.2,4.6-12.1,2s-5.3-7.6-3.2-11.7l0,0c11.4-20.4,28.6-37.4,49.6-48.9c7.6-5.1,9.6-15,4.8-22.5c-0.9-1.3-1.9-2.6-3.2-3.6 C1754.4,2306.4,1777,2306,1798.7,2310.6z"/> <path class="st2" d="M1791.9,2369.8c9.9-13,29-15.9,42.6-6.4c0.6,0.4,1.1,0.8,1.6,1.2c13.6,11.2,15.9,30.6,5.1,44.3 c-9.9,13-29,15.9-42.6,6.4c-0.6-0.4-1.1-0.8-1.6-1.2C1783.4,2402.9,1781.1,2383.6,1791.9,2369.8z"/> <path class="st3" d="M1721.6,2314.8c3.3-0.3,6.5,1.1,8.4,3.7c3.1,4.2,2.2,9.9-1.9,13.1c-32.7,16.4-55.6,47.4-61.6,83.6 c-18.3,10.3-25,33.5-14.6,51.9c2.8,5.1,6.8,9.5,11.6,12.9c12.7,38.4,47,65.5,87.2,68.9c4.8,0.8,8.2,4.9,7.8,9.6 c-0.1,4.5-3.8,8.2-8.5,8.6c-23.8,0.2-47.1-6.2-67.1-18.6c-7.8-3.9-17.4-1.1-21.5,6.4c-0.1,0.2-0.2,0.4-0.4,0.7 c-0.7,1.4-1.2,3-1.5,4.5c-15.4-16.4-26.8-35.6-33.6-56.6C1600.5,2424.8,1643.2,2340.3,1721.6,2314.8z"/> <ellipse class="st4" cx="1801.7" cy="2533" rx="31.4" ry="31.5"/> <path class="st3" d="M1660.4,2428.7c9.9-13,29-15.9,42.6-6.4c0.6,0.4,1.1,0.8,1.6,1.2c13.6,11.2,15.9,30.6,5.1,44.3 c-9.9,13-29,15.9-42.6,6.4c-0.5-0.4-1.1-0.8-1.6-1.2C1651.9,2461.8,1649.6,2442.5,1660.4,2428.7z"/> <path class="st4" d="M1878.6,2557c-55.1,61.4-149.4,66.4-210.6,11.3c-1.9-2.7-2.3-6.1-1-9.1c1.8-4.5,7.1-6.8,11.7-5 c0.1,0.1,0.3,0.1,0.4,0.2c30.1,20.1,68.8,24.5,102.9,11.7c18.1,10.8,41.5,4.9,52.2-13.3c3-5.1,4.8-10.7,5.3-16.6 c26.8-30.3,33-73.6,15.9-110.3c-1.8-4.4,0.1-9.3,4.4-11.6c4.1-2.1,9.2-0.8,11.7,3.1c12.1,20.6,18.2,44,17.5,67.6 c0.3,8.8,7.9,15.6,17,15.4h0.1c1.6-0.1,3.2-0.4,4.7-0.9C1904.5,2520.6,1893.5,2540.2,1878.6,2557z"/> <path class="st2" d="M1798.7,2310.6c80.5,17.2,132.1,96.5,115,177.4c-1.9,4.5-7.3,6.6-12,4.8c-3.2-1.3-5.5-4.2-5.7-7.6 c2.2-36.6-13.2-72-41.4-95.3c0.3-21-16.5-38.4-37.5-38.7c-5.9-0.1-11.6,1.2-16.9,3.7c-39.5-8.2-80.1,8.1-103.1,41.3 c-2.8,3.7-8.2,4.6-12.1,2s-5.3-7.6-3.2-11.7l0,0c11.4-20.4,28.6-37.4,49.6-48.9c7.6-5.1,9.6-15,4.8-22.5c-0.9-1.3-1.9-2.6-3.2-3.6 C1754.4,2306.4,1777,2306,1798.7,2310.6z"/> <path class="st2" d="M1791.9,2369.8c9.9-13,29-15.9,42.6-6.4c0.6,0.4,1.1,0.8,1.6,1.2c13.6,11.2,15.9,30.6,5.1,44.3 c-9.9,13-29,15.9-42.6,6.4c-0.6-0.4-1.1-0.8-1.6-1.2C1783.4,2402.9,1781.1,2383.6,1791.9,2369.8z"/> <path class="st2" d="M1798.7,2310.6c80.5,17.2,132.1,96.5,115,177.4c-1.9,4.5-7.3,6.6-12,4.8c-3.2-1.3-5.5-4.2-5.7-7.6 c2.2-36.6-13.2-72-41.4-95.3c0.3-21-16.5-38.4-37.5-38.7c-5.9-0.1-11.6,1.2-16.9,3.7c-39.5-8.2-80.1,8.1-103.1,41.3 c-2.8,3.7-8.2,4.6-12.1,2s-5.3-7.6-3.2-11.7l0,0c11.4-20.4,28.6-37.4,49.6-48.9c7.6-5.1,9.6-15,4.8-22.5c-0.9-1.3-1.9-2.6-3.2-3.6 C1754.4,2306.4,1777,2306,1798.7,2310.6z"/> <path class="st2" d="M1791.9,2369.8c9.9-13,29-15.9,42.6-6.4c0.6,0.4,1.1,0.8,1.6,1.2c13.6,11.2,15.9,30.6,5.1,44.3 c-9.9,13-29,15.9-42.6,6.4c-0.6-0.4-1.1-0.8-1.6-1.2C1783.4,2402.9,1781.1,2383.6,1791.9,2369.8z"/> <path class="st2" d="M1798.7,2310.6c80.5,17.2,132.1,96.5,115,177.4c-1.9,4.5-7.3,6.6-12,4.8c-3.2-1.3-5.5-4.2-5.7-7.6 c2.2-36.6-13.2-72-41.4-95.3c0.3-21-16.5-38.4-37.5-38.7c-5.9-0.1-11.6,1.2-16.9,3.7c-39.5-8.2-80.1,8.1-103.1,41.3 c-2.8,3.7-8.2,4.6-12.1,2s-5.3-7.6-3.2-11.7l0,0c11.4-20.4,28.6-37.4,49.6-48.9c7.6-5.1,9.6-15,4.8-22.5c-0.9-1.3-1.9-2.6-3.2-3.6 C1754.4,2306.4,1777,2306,1798.7,2310.6z"/> <path class="st2" d="M1791.9,2369.8c9.9-13,29-15.9,42.6-6.4c0.6,0.4,1.1,0.8,1.6,1.2c13.6,11.2,15.9,30.6,5.1,44.3 c-9.9,13-29,15.9-42.6,6.4c-0.6-0.4-1.1-0.8-1.6-1.2C1783.4,2402.9,1781.1,2383.6,1791.9,2369.8z"/> <path class="st2" d="M1798.7,2310.6c80.5,17.2,132.1,96.5,115,177.4c-1.9,4.5-7.3,6.6-12,4.8c-3.2-1.3-5.5-4.2-5.7-7.6 c2.2-36.6-13.2-72-41.4-95.3c0.3-21-16.5-38.4-37.5-38.7c-5.9-0.1-11.6,1.2-16.9,3.7c-39.5-8.2-80.1,8.1-103.1,41.3 c-2.8,3.7-8.2,4.6-12.1,2s-5.3-7.6-3.2-11.7l0,0c11.4-20.4,28.6-37.4,49.6-48.9c7.6-5.1,9.6-15,4.8-22.5c-0.9-1.3-1.9-2.6-3.2-3.6 C1754.4,2306.4,1777,2306,1798.7,2310.6z"/> <path class="st2" d="M1791.9,2369.8c9.9-13,29-15.9,42.6-6.4c0.6,0.4,1.1,0.8,1.6,1.2c13.6,11.2,15.9,30.6,5.1,44.3 c-9.9,13-29,15.9-42.6,6.4c-0.6-0.4-1.1-0.8-1.6-1.2C1783.4,2402.9,1781.1,2383.6,1791.9,2369.8z"/> <path class="st2" d="M1798.7,2310.6c80.5,17.2,132.1,96.5,115,177.4c-1.9,4.5-7.3,6.6-12,4.8c-3.2-1.3-5.5-4.2-5.7-7.6 c2.2-36.6-13.2-72-41.4-95.3c0.3-21-16.5-38.4-37.5-38.7c-5.9-0.1-11.6,1.2-16.9,3.7c-39.5-8.2-80.1,8.1-103.1,41.3 c-2.8,3.7-8.2,4.6-12.1,2s-5.3-7.6-3.2-11.7l0,0c11.4-20.4,28.6-37.4,49.6-48.9c7.6-5.1,9.6-15,4.8-22.5c-0.9-1.3-1.9-2.6-3.2-3.6 C1754.4,2306.4,1777,2306,1798.7,2310.6z"/> <path class="st2" d="M1791.9,2369.8c9.9-13,29-15.9,42.6-6.4c0.6,0.4,1.1,0.8,1.6,1.2c13.6,11.2,15.9,30.6,5.1,44.3 c-9.9,13-29,15.9-42.6,6.4c-0.6-0.4-1.1-0.8-1.6-1.2C1783.4,2402.9,1781.1,2383.6,1791.9,2369.8z"/> <path class="st2" d="M1798.7,2310.6c80.5,17.2,132.1,96.5,115,177.4c-1.9,4.5-7.3,6.6-12,4.8c-3.2-1.3-5.5-4.2-5.7-7.6 c2.2-36.6-13.2-72-41.4-95.3c0.3-21-16.5-38.4-37.5-38.7c-5.9-0.1-11.6,1.2-16.9,3.7c-39.5-8.2-80.1,8.1-103.1,41.3 c-2.8,3.7-8.2,4.6-12.1,2s-5.3-7.6-3.2-11.7l0,0c11.4-20.4,28.6-37.4,49.6-48.9c7.6-5.1,9.6-15,4.8-22.5c-0.9-1.3-1.9-2.6-3.2-3.6 C1754.4,2306.4,1777,2306,1798.7,2310.6z"/> <path class="st2" d="M1791.9,2369.8c9.9-13,29-15.9,42.6-6.4c0.6,0.4,1.1,0.8,1.6,1.2c13.6,11.2,15.9,30.6,5.1,44.3 c-9.9,13-29,15.9-42.6,6.4c-0.6-0.4-1.1-0.8-1.6-1.2C1783.4,2402.9,1781.1,2383.6,1791.9,2369.8z"/> <path class="st3" d="M1721.6,2314.8c3.3-0.3,6.5,1.1,8.4,3.7c3.1,4.2,2.2,9.9-1.9,13.1c-32.7,16.4-55.6,47.4-61.6,83.6 c-18.3,10.3-25,33.5-14.6,51.9c2.8,5.1,6.8,9.5,11.6,12.9c12.7,38.4,47,65.5,87.2,68.9c4.8,0.8,8.2,4.9,7.8,9.6 c-0.1,4.5-3.8,8.2-8.5,8.6c-23.8,0.2-47.1-6.2-67.1-18.6c-7.8-3.9-17.4-1.1-21.5,6.4c-0.1,0.2-0.2,0.4-0.4,0.7 c-0.7,1.4-1.2,3-1.5,4.5c-15.4-16.4-26.8-35.6-33.6-56.6C1600.5,2424.8,1643.2,2340.3,1721.6,2314.8z"/> <ellipse class="st4" cx="1801.7" cy="2533" rx="31.4" ry="31.5"/> <path class="st3" d="M1660.4,2428.7c9.9-13,29-15.9,42.6-6.4c0.6,0.4,1.1,0.8,1.6,1.2c13.6,11.2,15.9,30.6,5.1,44.3 c-9.9,13-29,15.9-42.6,6.4c-0.5-0.4-1.1-0.8-1.6-1.2C1651.9,2461.8,1649.6,2442.5,1660.4,2428.7z"/> <path class="st4" d="M1878.6,2557c-55.1,61.4-149.4,66.4-210.6,11.3c-1.9-2.7-2.3-6.1-1-9.1c1.8-4.5,7.1-6.8,11.7-5 c0.1,0.1,0.3,0.1,0.4,0.2c30.1,20.1,68.8,24.5,102.9,11.7c18.1,10.8,41.5,4.9,52.2-13.3c3-5.1,4.8-10.7,5.3-16.6 c26.8-30.3,33-73.6,15.9-110.3c-1.8-4.4,0.1-9.3,4.4-11.6c4.1-2.1,9.2-0.8,11.7,3.1c12.1,20.6,18.2,44,17.5,67.6 c0.3,8.8,7.9,15.6,17,15.4h0.1c1.6-0.1,3.2-0.4,4.7-0.9C1904.5,2520.6,1893.5,2540.2,1878.6,2557z"/> <path class="st2" d="M1798.7,2310.6c80.5,17.2,132.1,96.5,115,177.4c-1.9,4.5-7.3,6.6-12,4.8c-3.2-1.3-5.5-4.2-5.7-7.6 c2.2-36.6-13.2-72-41.4-95.3c0.3-21-16.5-38.4-37.5-38.7c-5.9-0.1-11.6,1.2-16.9,3.7c-39.5-8.2-80.1,8.1-103.1,41.3 c-2.8,3.7-8.2,4.6-12.1,2s-5.3-7.6-3.2-11.7l0,0c11.4-20.4,28.6-37.4,49.6-48.9c7.6-5.1,9.6-15,4.8-22.5c-0.9-1.3-1.9-2.6-3.2-3.6 C1754.4,2306.4,1777,2306,1798.7,2310.6z"/> <path class="st2" d="M1791.9,2369.8c9.9-13,29-15.9,42.6-6.4c0.6,0.4,1.1,0.8,1.6,1.2c13.6,11.2,15.9,30.6,5.1,44.3 c-9.9,13-29,15.9-42.6,6.4c-0.6-0.4-1.1-0.8-1.6-1.2C1783.4,2402.9,1781.1,2383.6,1791.9,2369.8z"/> <path class="st2" d="M1798.7,2310.6c80.5,17.2,132.1,96.5,115,177.4c-1.9,4.5-7.3,6.6-12,4.8c-3.2-1.3-5.5-4.2-5.7-7.6 c2.2-36.6-13.2-72-41.4-95.3c0.3-21-16.5-38.4-37.5-38.7c-5.9-0.1-11.6,1.2-16.9,3.7c-39.5-8.2-80.1,8.1-103.1,41.3 c-2.8,3.7-8.2,4.6-12.1,2s-5.3-7.6-3.2-11.7l0,0c11.4-20.4,28.6-37.4,49.6-48.9c7.6-5.1,9.6-15,4.8-22.5c-0.9-1.3-1.9-2.6-3.2-3.6 C1754.4,2306.4,1777,2306,1798.7,2310.6z"/> <path class="st2" d="M1791.9,2369.8c9.9-13,29-15.9,42.6-6.4c0.6,0.4,1.1,0.8,1.6,1.2c13.6,11.2,15.9,30.6,5.1,44.3 c-9.9,13-29,15.9-42.6,6.4c-0.6-0.4-1.1-0.8-1.6-1.2C1783.4,2402.9,1781.1,2383.6,1791.9,2369.8z"/> <path class="st2" d="M1798.7,2310.6c80.5,17.2,132.1,96.5,115,177.4c-1.9,4.5-7.3,6.6-12,4.8c-3.2-1.3-5.5-4.2-5.7-7.6 c2.2-36.6-13.2-72-41.4-95.3c0.3-21-16.5-38.4-37.5-38.7c-5.9-0.1-11.6,1.2-16.9,3.7c-39.5-8.2-80.1,8.1-103.1,41.3 c-2.8,3.7-8.2,4.6-12.1,2s-5.3-7.6-3.2-11.7l0,0c11.4-20.4,28.6-37.4,49.6-48.9c7.6-5.1,9.6-15,4.8-22.5c-0.9-1.3-1.9-2.6-3.2-3.6 C1754.4,2306.4,1777,2306,1798.7,2310.6z"/> <path class="st2" d="M1791.9,2369.8c9.9-13,29-15.9,42.6-6.4c0.6,0.4,1.1,0.8,1.6,1.2c13.6,11.2,15.9,30.6,5.1,44.3 c-9.9,13-29,15.9-42.6,6.4c-0.6-0.4-1.1-0.8-1.6-1.2C1783.4,2402.9,1781.1,2383.6,1791.9,2369.8z"/> <path class="st2" d="M1798.7,2310.6c80.5,17.2,132.1,96.5,115,177.4c-1.9,4.5-7.3,6.6-12,4.8c-3.2-1.3-5.5-4.2-5.7-7.6 c2.2-36.6-13.2-72-41.4-95.3c0.3-21-16.5-38.4-37.5-38.7c-5.9-0.1-11.6,1.2-16.9,3.7c-39.5-8.2-80.1,8.1-103.1,41.3 c-2.8,3.7-8.2,4.6-12.1,2s-5.3-7.6-3.2-11.7l0,0c11.4-20.4,28.6-37.4,49.6-48.9c7.6-5.1,9.6-15,4.8-22.5c-0.9-1.3-1.9-2.6-3.2-3.6 C1754.4,2306.4,1777,2306,1798.7,2310.6z"/> <path class="st2" d="M1791.9,2369.8c9.9-13,29-15.9,42.6-6.4c0.6,0.4,1.1,0.8,1.6,1.2c13.6,11.2,15.9,30.6,5.1,44.3 c-9.9,13-29,15.9-42.6,6.4c-0.6-0.4-1.1-0.8-1.6-1.2C1783.4,2402.9,1781.1,2383.6,1791.9,2369.8z"/> <path class="st2" d="M1798.7,2310.6c80.5,17.2,132.1,96.5,115,177.4c-1.9,4.5-7.3,6.6-12,4.8c-3.2-1.3-5.5-4.2-5.7-7.6 c2.2-36.6-13.2-72-41.4-95.3c0.3-21-16.5-38.4-37.5-38.7c-5.9-0.1-11.6,1.2-16.9,3.7c-39.5-8.2-80.1,8.1-103.1,41.3 c-2.8,3.7-8.2,4.6-12.1,2s-5.3-7.6-3.2-11.7l0,0c11.4-20.4,28.6-37.4,49.6-48.9c7.6-5.1,9.6-15,4.8-22.5c-0.9-1.3-1.9-2.6-3.2-3.6 C1754.4,2306.4,1777,2306,1798.7,2310.6z"/> <path class="st2" d="M1791.9,2369.8c9.9-13,29-15.9,42.6-6.4c0.6,0.4,1.1,0.8,1.6,1.2c13.6,11.2,15.9,30.6,5.1,44.3 c-9.9,13-29,15.9-42.6,6.4c-0.6-0.4-1.1-0.8-1.6-1.2C1783.4,2402.9,1781.1,2383.6,1791.9,2369.8z"/> <path class="st2" d="M1798.7,2310.6c80.5,17.2,132.1,96.5,115,177.4c-1.9,4.5-7.3,6.6-12,4.8c-3.2-1.3-5.5-4.2-5.7-7.6 c2.2-36.6-13.2-72-41.4-95.3c0.3-21-16.5-38.4-37.5-38.7c-5.9-0.1-11.6,1.2-16.9,3.7c-39.5-8.2-80.1,8.1-103.1,41.3 c-2.8,3.7-8.2,4.6-12.1,2s-5.3-7.6-3.2-11.7l0,0c11.4-20.4,28.6-37.4,49.6-48.9c7.6-5.1,9.6-15,4.8-22.5c-0.9-1.3-1.9-2.6-3.2-3.6 C1754.4,2306.4,1777,2306,1798.7,2310.6z"/> <path class="st2" d="M1791.9,2369.8c9.9-13,29-15.9,42.6-6.4c0.6,0.4,1.1,0.8,1.6,1.2c13.6,11.2,15.9,30.6,5.1,44.3 c-9.9,13-29,15.9-42.6,6.4c-0.6-0.4-1.1-0.8-1.6-1.2C1783.4,2402.9,1781.1,2383.6,1791.9,2369.8z"/> <path class="st3" d="M1721.6,2314.8c3.3-0.3,6.5,1.1,8.4,3.7c3.1,4.2,2.2,9.9-1.9,13.1c-32.7,16.4-55.6,47.4-61.6,83.6 c-18.3,10.3-25,33.5-14.6,51.9c2.8,5.1,6.8,9.5,11.6,12.9c12.7,38.4,47,65.5,87.2,68.9c4.8,0.8,8.2,4.9,7.8,9.6 c-0.1,4.5-3.8,8.2-8.5,8.6c-23.8,0.2-47.1-6.2-67.1-18.6c-7.8-3.9-17.4-1.1-21.5,6.4c-0.1,0.2-0.2,0.4-0.4,0.7 c-0.7,1.4-1.2,3-1.5,4.5c-15.4-16.4-26.8-35.6-33.6-56.6C1600.5,2424.8,1643.2,2340.3,1721.6,2314.8z"/> <ellipse class="st4" cx="1801.7" cy="2533" rx="31.4" ry="31.5"/> <path class="st3" d="M1660.4,2428.7c9.9-13,29-15.9,42.6-6.4c0.6,0.4,1.1,0.8,1.6,1.2c13.6,11.2,15.9,30.6,5.1,44.3 c-9.9,13-29,15.9-42.6,6.4c-0.5-0.4-1.1-0.8-1.6-1.2C1651.9,2461.8,1649.6,2442.5,1660.4,2428.7z"/> <path class="st4" d="M1878.6,2557c-55.1,61.4-149.4,66.4-210.6,11.3c-1.9-2.7-2.3-6.1-1-9.1c1.8-4.5,7.1-6.8,11.7-5 c0.1,0.1,0.3,0.1,0.4,0.2c30.1,20.1,68.8,24.5,102.9,11.7c18.1,10.8,41.5,4.9,52.2-13.3c3-5.1,4.8-10.7,5.3-16.6 c26.8-30.3,33-73.6,15.9-110.3c-1.8-4.4,0.1-9.3,4.4-11.6c4.1-2.1,9.2-0.8,11.7,3.1c12.1,20.6,18.2,44,17.5,67.6 c0.3,8.8,7.9,15.6,17,15.4h0.1c1.6-0.1,3.2-0.4,4.7-0.9C1904.5,2520.6,1893.5,2540.2,1878.6,2557z"/> <path class="st2" d="M1798.7,2310.6c80.5,17.2,132.1,96.5,115,177.4c-1.9,4.5-7.3,6.6-12,4.8c-3.2-1.3-5.5-4.2-5.7-7.6 c2.2-36.6-13.2-72-41.4-95.3c0.3-21-16.5-38.4-37.5-38.7c-5.9-0.1-11.6,1.2-16.9,3.7c-39.5-8.2-80.1,8.1-103.1,41.3 c-2.8,3.7-8.2,4.6-12.1,2s-5.3-7.6-3.2-11.7l0,0c11.4-20.4,28.6-37.4,49.6-48.9c7.6-5.1,9.6-15,4.8-22.5c-0.9-1.3-1.9-2.6-3.2-3.6 C1754.4,2306.4,1777,2306,1798.7,2310.6z"/> <path class="st2" d="M1791.9,2369.8c9.9-13,29-15.9,42.6-6.4c0.6,0.4,1.1,0.8,1.6,1.2c13.6,11.2,15.9,30.6,5.1,44.3 c-9.9,13-29,15.9-42.6,6.4c-0.6-0.4-1.1-0.8-1.6-1.2C1783.4,2402.9,1781.1,2383.6,1791.9,2369.8z"/> <path class="st2" d="M1798.7,2310.6c80.5,17.2,132.1,96.5,115,177.4c-1.9,4.5-7.3,6.6-12,4.8c-3.2-1.3-5.5-4.2-5.7-7.6 c2.2-36.6-13.2-72-41.4-95.3c0.3-21-16.5-38.4-37.5-38.7c-5.9-0.1-11.6,1.2-16.9,3.7c-39.5-8.2-80.1,8.1-103.1,41.3 c-2.8,3.7-8.2,4.6-12.1,2s-5.3-7.6-3.2-11.7l0,0c11.4-20.4,28.6-37.4,49.6-48.9c7.6-5.1,9.6-15,4.8-22.5c-0.9-1.3-1.9-2.6-3.2-3.6 C1754.4,2306.4,1777,2306,1798.7,2310.6z"/> <path class="st2" d="M1791.9,2369.8c9.9-13,29-15.9,42.6-6.4c0.6,0.4,1.1,0.8,1.6,1.2c13.6,11.2,15.9,30.6,5.1,44.3 c-9.9,13-29,15.9-42.6,6.4c-0.6-0.4-1.1-0.8-1.6-1.2C1783.4,2402.9,1781.1,2383.6,1791.9,2369.8z"/> <path class="st2" d="M1798.7,2310.6c80.5,17.2,132.1,96.5,115,177.4c-1.9,4.5-7.3,6.6-12,4.8c-3.2-1.3-5.5-4.2-5.7-7.6 c2.2-36.6-13.2-72-41.4-95.3c0.3-21-16.5-38.4-37.5-38.7c-5.9-0.1-11.6,1.2-16.9,3.7c-39.5-8.2-80.1,8.1-103.1,41.3 c-2.8,3.7-8.2,4.6-12.1,2s-5.3-7.6-3.2-11.7l0,0c11.4-20.4,28.6-37.4,49.6-48.9c7.6-5.1,9.6-15,4.8-22.5c-0.9-1.3-1.9-2.6-3.2-3.6 C1754.4,2306.4,1777,2306,1798.7,2310.6z"/> <path class="st2" d="M1791.9,2369.8c9.9-13,29-15.9,42.6-6.4c0.6,0.4,1.1,0.8,1.6,1.2c13.6,11.2,15.9,30.6,5.1,44.3 c-9.9,13-29,15.9-42.6,6.4c-0.6-0.4-1.1-0.8-1.6-1.2C1783.4,2402.9,1781.1,2383.6,1791.9,2369.8z"/> <path class="st2" d="M1798.7,2310.6c80.5,17.2,132.1,96.5,115,177.4c-1.9,4.5-7.3,6.6-12,4.8c-3.2-1.3-5.5-4.2-5.7-7.6 c2.2-36.6-13.2-72-41.4-95.3c0.3-21-16.5-38.4-37.5-38.7c-5.9-0.1-11.6,1.2-16.9,3.7c-39.5-8.2-80.1,8.1-103.1,41.3 c-2.8,3.7-8.2,4.6-12.1,2s-5.3-7.6-3.2-11.7l0,0c11.4-20.4,28.6-37.4,49.6-48.9c7.6-5.1,9.6-15,4.8-22.5c-0.9-1.3-1.9-2.6-3.2-3.6 C1754.4,2306.4,1777,2306,1798.7,2310.6z"/> <path class="st2" d="M1791.9,2369.8c9.9-13,29-15.9,42.6-6.4c0.6,0.4,1.1,0.8,1.6,1.2c13.6,11.2,15.9,30.6,5.1,44.3 c-9.9,13-29,15.9-42.6,6.4c-0.6-0.4-1.1-0.8-1.6-1.2C1783.4,2402.9,1781.1,2383.6,1791.9,2369.8z"/> <path class="st2" d="M1798.7,2310.6c80.5,17.2,132.1,96.5,115,177.4c-1.9,4.5-7.3,6.6-12,4.8c-3.2-1.3-5.5-4.2-5.7-7.6 c2.2-36.6-13.2-72-41.4-95.3c0.3-21-16.5-38.4-37.5-38.7c-5.9-0.1-11.6,1.2-16.9,3.7c-39.5-8.2-80.1,8.1-103.1,41.3 c-2.8,3.7-8.2,4.6-12.1,2s-5.3-7.6-3.2-11.7l0,0c11.4-20.4,28.6-37.4,49.6-48.9c7.6-5.1,9.6-15,4.8-22.5c-0.9-1.3-1.9-2.6-3.2-3.6 C1754.4,2306.4,1777,2306,1798.7,2310.6z"/> <path class="st2" d="M1791.9,2369.8c9.9-13,29-15.9,42.6-6.4c0.6,0.4,1.1,0.8,1.6,1.2c13.6,11.2,15.9,30.6,5.1,44.3 c-9.9,13-29,15.9-42.6,6.4c-0.6-0.4-1.1-0.8-1.6-1.2C1783.4,2402.9,1781.1,2383.6,1791.9,2369.8z"/> <path class="st2" d="M1798.7,2310.6c80.5,17.2,132.1,96.5,115,177.4c-1.9,4.5-7.3,6.6-12,4.8c-3.2-1.3-5.5-4.2-5.7-7.6 c2.2-36.6-13.2-72-41.4-95.3c0.3-21-16.5-38.4-37.5-38.7c-5.9-0.1-11.6,1.2-16.9,3.7c-39.5-8.2-80.1,8.1-103.1,41.3 c-2.8,3.7-8.2,4.6-12.1,2s-5.3-7.6-3.2-11.7l0,0c11.4-20.4,28.6-37.4,49.6-48.9c7.6-5.1,9.6-15,4.8-22.5c-0.9-1.3-1.9-2.6-3.2-3.6 C1754.4,2306.4,1777,2306,1798.7,2310.6z"/> <path class="st2" d="M1791.9,2369.8c9.9-13,29-15.9,42.6-6.4c0.6,0.4,1.1,0.8,1.6,1.2c13.6,11.2,15.9,30.6,5.1,44.3 c-9.9,13-29,15.9-42.6,6.4c-0.6-0.4-1.1-0.8-1.6-1.2C1783.4,2402.9,1781.1,2383.6,1791.9,2369.8z"/> <path class="st3" d="M1721.6,2314.8c3.3-0.3,6.5,1.1,8.4,3.7c3.1,4.2,2.2,9.9-1.9,13.1c-32.7,16.4-55.6,47.4-61.6,83.6 c-18.3,10.3-25,33.5-14.6,51.9c2.8,5.1,6.8,9.5,11.6,12.9c12.7,38.4,47,65.5,87.2,68.9c4.8,0.8,8.2,4.9,7.8,9.6 c-0.1,4.5-3.8,8.2-8.5,8.6c-23.8,0.2-47.1-6.2-67.1-18.6c-7.8-3.9-17.4-1.1-21.5,6.4c-0.1,0.2-0.2,0.4-0.4,0.7 c-0.7,1.4-1.2,3-1.5,4.5c-15.4-16.4-26.8-35.6-33.6-56.6C1600.5,2424.8,1643.2,2340.3,1721.6,2314.8z"/> <ellipse class="st4" cx="1801.7" cy="2533" rx="31.4" ry="31.5"/> <path class="st3" d="M1660.4,2428.7c9.9-13,29-15.9,42.6-6.4c0.6,0.4,1.1,0.8,1.6,1.2c13.6,11.2,15.9,30.6,5.1,44.3 c-9.9,13-29,15.9-42.6,6.4c-0.5-0.4-1.1-0.8-1.6-1.2C1651.9,2461.8,1649.6,2442.5,1660.4,2428.7z"/> <path class="st4" d="M1878.6,2557c-55.1,61.4-149.4,66.4-210.6,11.3c-1.9-2.7-2.3-6.1-1-9.1c1.8-4.5,7.1-6.8,11.7-5 c0.1,0.1,0.3,0.1,0.4,0.2c30.1,20.1,68.8,24.5,102.9,11.7c18.1,10.8,41.5,4.9,52.2-13.3c3-5.1,4.8-10.7,5.3-16.6 c26.8-30.3,33-73.6,15.9-110.3c-1.8-4.4,0.1-9.3,4.4-11.6c4.1-2.1,9.2-0.8,11.7,3.1c12.1,20.6,18.2,44,17.5,67.6 c0.3,8.8,7.9,15.6,17,15.4h0.1c1.6-0.1,3.2-0.4,4.7-0.9C1904.5,2520.6,1893.5,2540.2,1878.6,2557z"/> <path class="st2" d="M1798.7,2310.6c80.5,17.2,132.1,96.5,115,177.4c-1.9,4.5-7.3,6.6-12,4.8c-3.2-1.3-5.5-4.2-5.7-7.6 c2.2-36.6-13.2-72-41.4-95.3c0.3-21-16.5-38.4-37.5-38.7c-5.9-0.1-11.6,1.2-16.9,3.7c-39.5-8.2-80.1,8.1-103.1,41.3 c-2.8,3.7-8.2,4.6-12.1,2s-5.3-7.6-3.2-11.7l0,0c11.4-20.4,28.6-37.4,49.6-48.9c7.6-5.1,9.6-15,4.8-22.5c-0.9-1.3-1.9-2.6-3.2-3.6 C1754.4,2306.4,1777,2306,1798.7,2310.6z"/> <path class="st2" d="M1791.9,2369.8c9.9-13,29-15.9,42.6-6.4c0.6,0.4,1.1,0.8,1.6,1.2c13.6,11.2,15.9,30.6,5.1,44.3 c-9.9,13-29,15.9-42.6,6.4c-0.6-0.4-1.1-0.8-1.6-1.2C1783.4,2402.9,1781.1,2383.6,1791.9,2369.8z"/> <path class="st2" d="M1798.7,2310.6c80.5,17.2,132.1,96.5,115,177.4c-1.9,4.5-7.3,6.6-12,4.8c-3.2-1.3-5.5-4.2-5.7-7.6 c2.2-36.6-13.2-72-41.4-95.3c0.3-21-16.5-38.4-37.5-38.7c-5.9-0.1-11.6,1.2-16.9,3.7c-39.5-8.2-80.1,8.1-103.1,41.3 c-2.8,3.7-8.2,4.6-12.1,2s-5.3-7.6-3.2-11.7l0,0c11.4-20.4,28.6-37.4,49.6-48.9c7.6-5.1,9.6-15,4.8-22.5c-0.9-1.3-1.9-2.6-3.2-3.6 C1754.4,2306.4,1777,2306,1798.7,2310.6z"/> <path class="st2" d="M1791.9,2369.8c9.9-13,29-15.9,42.6-6.4c0.6,0.4,1.1,0.8,1.6,1.2c13.6,11.2,15.9,30.6,5.1,44.3 c-9.9,13-29,15.9-42.6,6.4c-0.6-0.4-1.1-0.8-1.6-1.2C1783.4,2402.9,1781.1,2383.6,1791.9,2369.8z"/> <path class="st2" d="M1798.7,2310.6c80.5,17.2,132.1,96.5,115,177.4c-1.9,4.5-7.3,6.6-12,4.8c-3.2-1.3-5.5-4.2-5.7-7.6 c2.2-36.6-13.2-72-41.4-95.3c0.3-21-16.5-38.4-37.5-38.7c-5.9-0.1-11.6,1.2-16.9,3.7c-39.5-8.2-80.1,8.1-103.1,41.3 c-2.8,3.7-8.2,4.6-12.1,2s-5.3-7.6-3.2-11.7l0,0c11.4-20.4,28.6-37.4,49.6-48.9c7.6-5.1,9.6-15,4.8-22.5c-0.9-1.3-1.9-2.6-3.2-3.6 C1754.4,2306.4,1777,2306,1798.7,2310.6z"/> <path class="st2" d="M1791.9,2369.8c9.9-13,29-15.9,42.6-6.4c0.6,0.4,1.1,0.8,1.6,1.2c13.6,11.2,15.9,30.6,5.1,44.3 c-9.9,13-29,15.9-42.6,6.4c-0.6-0.4-1.1-0.8-1.6-1.2C1783.4,2402.9,1781.1,2383.6,1791.9,2369.8z"/> <path class="st2" d="M1798.7,2310.6c80.5,17.2,132.1,96.5,115,177.4c-1.9,4.5-7.3,6.6-12,4.8c-3.2-1.3-5.5-4.2-5.7-7.6 c2.2-36.6-13.2-72-41.4-95.3c0.3-21-16.5-38.4-37.5-38.7c-5.9-0.1-11.6,1.2-16.9,3.7c-39.5-8.2-80.1,8.1-103.1,41.3 c-2.8,3.7-8.2,4.6-12.1,2s-5.3-7.6-3.2-11.7l0,0c11.4-20.4,28.6-37.4,49.6-48.9c7.6-5.1,9.6-15,4.8-22.5c-0.9-1.3-1.9-2.6-3.2-3.6 C1754.4,2306.4,1777,2306,1798.7,2310.6z"/> <path class="st2" d="M1791.9,2369.8c9.9-13,29-15.9,42.6-6.4c0.6,0.4,1.1,0.8,1.6,1.2c13.6,11.2,15.9,30.6,5.1,44.3 c-9.9,13-29,15.9-42.6,6.4c-0.6-0.4-1.1-0.8-1.6-1.2C1783.4,2402.9,1781.1,2383.6,1791.9,2369.8z"/> <path class="st2" d="M1798.7,2310.6c80.5,17.2,132.1,96.5,115,177.4c-1.9,4.5-7.3,6.6-12,4.8c-3.2-1.3-5.5-4.2-5.7-7.6 c2.2-36.6-13.2-72-41.4-95.3c0.3-21-16.5-38.4-37.5-38.7c-5.9-0.1-11.6,1.2-16.9,3.7c-39.5-8.2-80.1,8.1-103.1,41.3 c-2.8,3.7-8.2,4.6-12.1,2s-5.3-7.6-3.2-11.7l0,0c11.4-20.4,28.6-37.4,49.6-48.9c7.6-5.1,9.6-15,4.8-22.5c-0.9-1.3-1.9-2.6-3.2-3.6 C1754.4,2306.4,1777,2306,1798.7,2310.6z"/> <path class="st2" d="M1791.9,2369.8c9.9-13,29-15.9,42.6-6.4c0.6,0.4,1.1,0.8,1.6,1.2c13.6,11.2,15.9,30.6,5.1,44.3 c-9.9,13-29,15.9-42.6,6.4c-0.6-0.4-1.1-0.8-1.6-1.2C1783.4,2402.9,1781.1,2383.6,1791.9,2369.8z"/> <path class="st2" d="M1798.7,2310.6c80.5,17.2,132.1,96.5,115,177.4c-1.9,4.5-7.3,6.6-12,4.8c-3.2-1.3-5.5-4.2-5.7-7.6 c2.2-36.6-13.2-72-41.4-95.3c0.3-21-16.5-38.4-37.5-38.7c-5.9-0.1-11.6,1.2-16.9,3.7c-39.5-8.2-80.1,8.1-103.1,41.3 c-2.8,3.7-8.2,4.6-12.1,2s-5.3-7.6-3.2-11.7l0,0c11.4-20.4,28.6-37.4,49.6-48.9c7.6-5.1,9.6-15,4.8-22.5c-0.9-1.3-1.9-2.6-3.2-3.6 C1754.4,2306.4,1777,2306,1798.7,2310.6z"/> <path class="st2" d="M1791.9,2369.8c9.9-13,29-15.9,42.6-6.4c0.6,0.4,1.1,0.8,1.6,1.2c13.6,11.2,15.9,30.6,5.1,44.3 c-9.9,13-29,15.9-42.6,6.4c-0.6-0.4-1.1-0.8-1.6-1.2C1783.4,2402.9,1781.1,2383.6,1791.9,2369.8z"/> <path class="st3" d="M1721.6,2314.8c3.3-0.3,6.5,1.1,8.4,3.7c3.1,4.2,2.2,9.9-1.9,13.1c-32.7,16.4-55.6,47.4-61.6,83.6 c-18.3,10.3-25,33.5-14.6,51.9c2.8,5.1,6.8,9.5,11.6,12.9c12.7,38.4,47,65.5,87.2,68.9c4.8,0.8,8.2,4.9,7.8,9.6 c-0.1,4.5-3.8,8.2-8.5,8.6c-23.8,0.2-47.1-6.2-67.1-18.6c-7.8-3.9-17.4-1.1-21.5,6.4c-0.1,0.2-0.2,0.4-0.4,0.7 c-0.7,1.4-1.2,3-1.5,4.5c-15.4-16.4-26.8-35.6-33.6-56.6C1600.5,2424.8,1643.2,2340.3,1721.6,2314.8z"/> <ellipse class="st4" cx="1801.7" cy="2533" rx="31.4" ry="31.5"/> <path class="st3" d="M1660.4,2428.7c9.9-13,29-15.9,42.6-6.4c0.6,0.4,1.1,0.8,1.6,1.2c13.6,11.2,15.9,30.6,5.1,44.3 c-9.9,13-29,15.9-42.6,6.4c-0.5-0.4-1.1-0.8-1.6-1.2C1651.9,2461.8,1649.6,2442.5,1660.4,2428.7z"/> <path class="st4" d="M1878.6,2557c-55.1,61.4-149.4,66.4-210.6,11.3c-1.9-2.7-2.3-6.1-1-9.1c1.8-4.5,7.1-6.8,11.7-5 c0.1,0.1,0.3,0.1,0.4,0.2c30.1,20.1,68.8,24.5,102.9,11.7c18.1,10.8,41.5,4.9,52.2-13.3c3-5.1,4.8-10.7,5.3-16.6 c26.8-30.3,33-73.6,15.9-110.3c-1.8-4.4,0.1-9.3,4.4-11.6c4.1-2.1,9.2-0.8,11.7,3.1c12.1,20.6,18.2,44,17.5,67.6 c0.3,8.8,7.9,15.6,17,15.4h0.1c1.6-0.1,3.2-0.4,4.7-0.9C1904.5,2520.6,1893.5,2540.2,1878.6,2557z"/> <path class="st2" d="M1798.7,2310.6c80.5,17.2,132.1,96.5,115,177.4c-1.9,4.5-7.3,6.6-12,4.8c-3.2-1.3-5.5-4.2-5.7-7.6 c2.2-36.6-13.2-72-41.4-95.3c0.3-21-16.5-38.4-37.5-38.7c-5.9-0.1-11.6,1.2-16.9,3.7c-39.5-8.2-80.1,8.1-103.1,41.3 c-2.8,3.7-8.2,4.6-12.1,2s-5.3-7.6-3.2-11.7l0,0c11.4-20.4,28.6-37.4,49.6-48.9c7.6-5.1,9.6-15,4.8-22.5c-0.9-1.3-1.9-2.6-3.2-3.6 C1754.4,2306.4,1777,2306,1798.7,2310.6z"/> <path class="st2" d="M1791.9,2369.8c9.9-13,29-15.9,42.6-6.4c0.6,0.4,1.1,0.8,1.6,1.2c13.6,11.2,15.9,30.6,5.1,44.3 c-9.9,13-29,15.9-42.6,6.4c-0.6-0.4-1.1-0.8-1.6-1.2C1783.4,2402.9,1781.1,2383.6,1791.9,2369.8z"/> <path class="st2" d="M1798.7,2310.6c80.5,17.2,132.1,96.5,115,177.4c-1.9,4.5-7.3,6.6-12,4.8c-3.2-1.3-5.5-4.2-5.7-7.6 c2.2-36.6-13.2-72-41.4-95.3c0.3-21-16.5-38.4-37.5-38.7c-5.9-0.1-11.6,1.2-16.9,3.7c-39.5-8.2-80.1,8.1-103.1,41.3 c-2.8,3.7-8.2,4.6-12.1,2s-5.3-7.6-3.2-11.7l0,0c11.4-20.4,28.6-37.4,49.6-48.9c7.6-5.1,9.6-15,4.8-22.5c-0.9-1.3-1.9-2.6-3.2-3.6 C1754.4,2306.4,1777,2306,1798.7,2310.6z"/> <path class="st2" d="M1791.9,2369.8c9.9-13,29-15.9,42.6-6.4c0.6,0.4,1.1,0.8,1.6,1.2c13.6,11.2,15.9,30.6,5.1,44.3 c-9.9,13-29,15.9-42.6,6.4c-0.6-0.4-1.1-0.8-1.6-1.2C1783.4,2402.9,1781.1,2383.6,1791.9,2369.8z"/> <path class="st2" d="M1798.7,2310.6c80.5,17.2,132.1,96.5,115,177.4c-1.9,4.5-7.3,6.6-12,4.8c-3.2-1.3-5.5-4.2-5.7-7.6 c2.2-36.6-13.2-72-41.4-95.3c0.3-21-16.5-38.4-37.5-38.7c-5.9-0.1-11.6,1.2-16.9,3.7c-39.5-8.2-80.1,8.1-103.1,41.3 c-2.8,3.7-8.2,4.6-12.1,2s-5.3-7.6-3.2-11.7l0,0c11.4-20.4,28.6-37.4,49.6-48.9c7.6-5.1,9.6-15,4.8-22.5c-0.9-1.3-1.9-2.6-3.2-3.6 C1754.4,2306.4,1777,2306,1798.7,2310.6z"/> <path class="st2" d="M1791.9,2369.8c9.9-13,29-15.9,42.6-6.4c0.6,0.4,1.1,0.8,1.6,1.2c13.6,11.2,15.9,30.6,5.1,44.3 c-9.9,13-29,15.9-42.6,6.4c-0.6-0.4-1.1-0.8-1.6-1.2C1783.4,2402.9,1781.1,2383.6,1791.9,2369.8z"/> <path class="st2" d="M1798.7,2310.6c80.5,17.2,132.1,96.5,115,177.4c-1.9,4.5-7.3,6.6-12,4.8c-3.2-1.3-5.5-4.2-5.7-7.6 c2.2-36.6-13.2-72-41.4-95.3c0.3-21-16.5-38.4-37.5-38.7c-5.9-0.1-11.6,1.2-16.9,3.7c-39.5-8.2-80.1,8.1-103.1,41.3 c-2.8,3.7-8.2,4.6-12.1,2s-5.3-7.6-3.2-11.7l0,0c11.4-20.4,28.6-37.4,49.6-48.9c7.6-5.1,9.6-15,4.8-22.5c-0.9-1.3-1.9-2.6-3.2-3.6 C1754.4,2306.4,1777,2306,1798.7,2310.6z"/> <path class="st2" d="M1791.9,2369.8c9.9-13,29-15.9,42.6-6.4c0.6,0.4,1.1,0.8,1.6,1.2c13.6,11.2,15.9,30.6,5.1,44.3 c-9.9,13-29,15.9-42.6,6.4c-0.6-0.4-1.1-0.8-1.6-1.2C1783.4,2402.9,1781.1,2383.6,1791.9,2369.8z"/> <path class="st2" d="M1798.7,2310.6c80.5,17.2,132.1,96.5,115,177.4c-1.9,4.5-7.3,6.6-12,4.8c-3.2-1.3-5.5-4.2-5.7-7.6 c2.2-36.6-13.2-72-41.4-95.3c0.3-21-16.5-38.4-37.5-38.7c-5.9-0.1-11.6,1.2-16.9,3.7c-39.5-8.2-80.1,8.1-103.1,41.3 c-2.8,3.7-8.2,4.6-12.1,2s-5.3-7.6-3.2-11.7l0,0c11.4-20.4,28.6-37.4,49.6-48.9c7.6-5.1,9.6-15,4.8-22.5c-0.9-1.3-1.9-2.6-3.2-3.6 C1754.4,2306.4,1777,2306,1798.7,2310.6z"/> <path class="st2" d="M1791.9,2369.8c9.9-13,29-15.9,42.6-6.4c0.6,0.4,1.1,0.8,1.6,1.2c13.6,11.2,15.9,30.6,5.1,44.3 c-9.9,13-29,15.9-42.6,6.4c-0.6-0.4-1.1-0.8-1.6-1.2C1783.4,2402.9,1781.1,2383.6,1791.9,2369.8z"/> <path class="st2" d="M1798.7,2310.6c80.5,17.2,132.1,96.5,115,177.4c-1.9,4.5-7.3,6.6-12,4.8c-3.2-1.3-5.5-4.2-5.7-7.6 c2.2-36.6-13.2-72-41.4-95.3c0.3-21-16.5-38.4-37.5-38.7c-5.9-0.1-11.6,1.2-16.9,3.7c-39.5-8.2-80.1,8.1-103.1,41.3 c-2.8,3.7-8.2,4.6-12.1,2s-5.3-7.6-3.2-11.7l0,0c11.4-20.4,28.6-37.4,49.6-48.9c7.6-5.1,9.6-15,4.8-22.5c-0.9-1.3-1.9-2.6-3.2-3.6 C1754.4,2306.4,1777,2306,1798.7,2310.6z"/> <path class="st2" d="M1791.9,2369.8c9.9-13,29-15.9,42.6-6.4c0.6,0.4,1.1,0.8,1.6,1.2c13.6,11.2,15.9,30.6,5.1,44.3 c-9.9,13-29,15.9-42.6,6.4c-0.6-0.4-1.1-0.8-1.6-1.2C1783.4,2402.9,1781.1,2383.6,1791.9,2369.8z"/> <path class="st3" d="M1721.6,2314.8c3.3-0.3,6.5,1.1,8.4,3.7c3.1,4.2,2.2,9.9-1.9,13.1c-32.7,16.4-55.6,47.4-61.6,83.6 c-18.3,10.3-25,33.5-14.6,51.9c2.8,5.1,6.8,9.5,11.6,12.9c12.7,38.4,47,65.5,87.2,68.9c4.8,0.8,8.2,4.9,7.8,9.6 c-0.1,4.5-3.8,8.2-8.5,8.6c-23.8,0.2-47.1-6.2-67.1-18.6c-7.8-3.9-17.4-1.1-21.5,6.4c-0.1,0.2-0.2,0.4-0.4,0.7 c-0.7,1.4-1.2,3-1.5,4.5c-15.4-16.4-26.8-35.6-33.6-56.6C1600.5,2424.8,1643.2,2340.3,1721.6,2314.8z"/> <ellipse class="st4" cx="1801.7" cy="2533" rx="31.4" ry="31.5"/> <path class="st3" d="M1660.4,2428.7c9.9-13,29-15.9,42.6-6.4c0.6,0.4,1.1,0.8,1.6,1.2c13.6,11.2,15.9,30.6,5.1,44.3 c-9.9,13-29,15.9-42.6,6.4c-0.5-0.4-1.1-0.8-1.6-1.2C1651.9,2461.8,1649.6,2442.5,1660.4,2428.7z"/> <path class="st4" d="M1878.6,2557c-55.1,61.4-149.4,66.4-210.6,11.3c-1.9-2.7-2.3-6.1-1-9.1c1.8-4.5,7.1-6.8,11.7-5 c0.1,0.1,0.3,0.1,0.4,0.2c30.1,20.1,68.8,24.5,102.9,11.7c18.1,10.8,41.5,4.9,52.2-13.3c3-5.1,4.8-10.7,5.3-16.6 c26.8-30.3,33-73.6,15.9-110.3c-1.8-4.4,0.1-9.3,4.4-11.6c4.1-2.1,9.2-0.8,11.7,3.1c12.1,20.6,18.2,44,17.5,67.6 c0.3,8.8,7.9,15.6,17,15.4h0.1c1.6-0.1,3.2-0.4,4.7-0.9C1904.5,2520.6,1893.5,2540.2,1878.6,2557z"/> <path class="st2" d="M1798.7,2310.6c80.5,17.2,132.1,96.5,115,177.4c-1.9,4.5-7.3,6.6-12,4.8c-3.2-1.3-5.5-4.2-5.7-7.6 c2.2-36.6-13.2-72-41.4-95.3c0.3-21-16.5-38.4-37.5-38.7c-5.9-0.1-11.6,1.2-16.9,3.7c-39.5-8.2-80.1,8.1-103.1,41.3 c-2.8,3.7-8.2,4.6-12.1,2s-5.3-7.6-3.2-11.7l0,0c11.4-20.4,28.6-37.4,49.6-48.9c7.6-5.1,9.6-15,4.8-22.5c-0.9-1.3-1.9-2.6-3.2-3.6 C1754.4,2306.4,1777,2306,1798.7,2310.6z"/> <path class="st2" d="M1791.9,2369.8c9.9-13,29-15.9,42.6-6.4c0.6,0.4,1.1,0.8,1.6,1.2c13.6,11.2,15.9,30.6,5.1,44.3 c-9.9,13-29,15.9-42.6,6.4c-0.6-0.4-1.1-0.8-1.6-1.2C1783.4,2402.9,1781.1,2383.6,1791.9,2369.8z"/> <path class="st2" d="M1798.7,2310.6c80.5,17.2,132.1,96.5,115,177.4c-1.9,4.5-7.3,6.6-12,4.8c-3.2-1.3-5.5-4.2-5.7-7.6 c2.2-36.6-13.2-72-41.4-95.3c0.3-21-16.5-38.4-37.5-38.7c-5.9-0.1-11.6,1.2-16.9,3.7c-39.5-8.2-80.1,8.1-103.1,41.3 c-2.8,3.7-8.2,4.6-12.1,2s-5.3-7.6-3.2-11.7l0,0c11.4-20.4,28.6-37.4,49.6-48.9c7.6-5.1,9.6-15,4.8-22.5c-0.9-1.3-1.9-2.6-3.2-3.6 C1754.4,2306.4,1777,2306,1798.7,2310.6z"/> <path class="st2" d="M1791.9,2369.8c9.9-13,29-15.9,42.6-6.4c0.6,0.4,1.1,0.8,1.6,1.2c13.6,11.2,15.9,30.6,5.1,44.3 c-9.9,13-29,15.9-42.6,6.4c-0.6-0.4-1.1-0.8-1.6-1.2C1783.4,2402.9,1781.1,2383.6,1791.9,2369.8z"/> <path class="st2" d="M1798.7,2310.6c80.5,17.2,132.1,96.5,115,177.4c-1.9,4.5-7.3,6.6-12,4.8c-3.2-1.3-5.5-4.2-5.7-7.6 c2.2-36.6-13.2-72-41.4-95.3c0.3-21-16.5-38.4-37.5-38.7c-5.9-0.1-11.6,1.2-16.9,3.7c-39.5-8.2-80.1,8.1-103.1,41.3 c-2.8,3.7-8.2,4.6-12.1,2s-5.3-7.6-3.2-11.7l0,0c11.4-20.4,28.6-37.4,49.6-48.9c7.6-5.1,9.6-15,4.8-22.5c-0.9-1.3-1.9-2.6-3.2-3.6 C1754.4,2306.4,1777,2306,1798.7,2310.6z"/> <path class="st2" d="M1791.9,2369.8c9.9-13,29-15.9,42.6-6.4c0.6,0.4,1.1,0.8,1.6,1.2c13.6,11.2,15.9,30.6,5.1,44.3 c-9.9,13-29,15.9-42.6,6.4c-0.6-0.4-1.1-0.8-1.6-1.2C1783.4,2402.9,1781.1,2383.6,1791.9,2369.8z"/> <path class="st2" d="M1798.7,2310.6c80.5,17.2,132.1,96.5,115,177.4c-1.9,4.5-7.3,6.6-12,4.8c-3.2-1.3-5.5-4.2-5.7-7.6 c2.2-36.6-13.2-72-41.4-95.3c0.3-21-16.5-38.4-37.5-38.7c-5.9-0.1-11.6,1.2-16.9,3.7c-39.5-8.2-80.1,8.1-103.1,41.3 c-2.8,3.7-8.2,4.6-12.1,2s-5.3-7.6-3.2-11.7l0,0c11.4-20.4,28.6-37.4,49.6-48.9c7.6-5.1,9.6-15,4.8-22.5c-0.9-1.3-1.9-2.6-3.2-3.6 C1754.4,2306.4,1777,2306,1798.7,2310.6z"/> <path class="st2" d="M1791.9,2369.8c9.9-13,29-15.9,42.6-6.4c0.6,0.4,1.1,0.8,1.6,1.2c13.6,11.2,15.9,30.6,5.1,44.3 c-9.9,13-29,15.9-42.6,6.4c-0.6-0.4-1.1-0.8-1.6-1.2C1783.4,2402.9,1781.1,2383.6,1791.9,2369.8z"/> <path class="st2" d="M1798.7,2310.6c80.5,17.2,132.1,96.5,115,177.4c-1.9,4.5-7.3,6.6-12,4.8c-3.2-1.3-5.5-4.2-5.7-7.6 c2.2-36.6-13.2-72-41.4-95.3c0.3-21-16.5-38.4-37.5-38.7c-5.9-0.1-11.6,1.2-16.9,3.7c-39.5-8.2-80.1,8.1-103.1,41.3 c-2.8,3.7-8.2,4.6-12.1,2s-5.3-7.6-3.2-11.7l0,0c11.4-20.4,28.6-37.4,49.6-48.9c7.6-5.1,9.6-15,4.8-22.5c-0.9-1.3-1.9-2.6-3.2-3.6 C1754.4,2306.4,1777,2306,1798.7,2310.6z"/> <path class="st2" d="M1791.9,2369.8c9.9-13,29-15.9,42.6-6.4c0.6,0.4,1.1,0.8,1.6,1.2c13.6,11.2,15.9,30.6,5.1,44.3 c-9.9,13-29,15.9-42.6,6.4c-0.6-0.4-1.1-0.8-1.6-1.2C1783.4,2402.9,1781.1,2383.6,1791.9,2369.8z"/> <path class="st2" d="M1798.7,2310.6c80.5,17.2,132.1,96.5,115,177.4c-1.9,4.5-7.3,6.6-12,4.8c-3.2-1.3-5.5-4.2-5.7-7.6 c2.2-36.6-13.2-72-41.4-95.3c0.3-21-16.5-38.4-37.5-38.7c-5.9-0.1-11.6,1.2-16.9,3.7c-39.5-8.2-80.1,8.1-103.1,41.3 c-2.8,3.7-8.2,4.6-12.1,2s-5.3-7.6-3.2-11.7l0,0c11.4-20.4,28.6-37.4,49.6-48.9c7.6-5.1,9.6-15,4.8-22.5c-0.9-1.3-1.9-2.6-3.2-3.6 C1754.4,2306.4,1777,2306,1798.7,2310.6z"/> <path class="st2" d="M1791.9,2369.8c9.9-13,29-15.9,42.6-6.4c0.6,0.4,1.1,0.8,1.6,1.2c13.6,11.2,15.9,30.6,5.1,44.3 c-9.9,13-29,15.9-42.6,6.4c-0.6-0.4-1.1-0.8-1.6-1.2C1783.4,2402.9,1781.1,2383.6,1791.9,2369.8z"/> <path class="st3" d="M1721.6,2314.8c3.3-0.3,6.5,1.1,8.4,3.7c3.1,4.2,2.2,9.9-1.9,13.1c-32.7,16.4-55.6,47.4-61.6,83.6 c-18.3,10.3-25,33.5-14.6,51.9c2.8,5.1,6.8,9.5,11.6,12.9c12.7,38.4,47,65.5,87.2,68.9c4.8,0.8,8.2,4.9,7.8,9.6 c-0.1,4.5-3.8,8.2-8.5,8.6c-23.8,0.2-47.1-6.2-67.1-18.6c-7.8-3.9-17.4-1.1-21.5,6.4c-0.1,0.2-0.2,0.4-0.4,0.7 c-0.7,1.4-1.2,3-1.5,4.5c-15.4-16.4-26.8-35.6-33.6-56.6C1600.5,2424.8,1643.2,2340.3,1721.6,2314.8z"/> <ellipse class="st4" cx="1801.7" cy="2533" rx="31.4" ry="31.5"/> <path class="st3" d="M1660.4,2428.7c9.9-13,29-15.9,42.6-6.4c0.6,0.4,1.1,0.8,1.6,1.2c13.6,11.2,15.9,30.6,5.1,44.3 c-9.9,13-29,15.9-42.6,6.4c-0.5-0.4-1.1-0.8-1.6-1.2C1651.9,2461.8,1649.6,2442.5,1660.4,2428.7z"/> <path class="st4" d="M1878.6,2557c-55.1,61.4-149.4,66.4-210.6,11.3c-1.9-2.7-2.3-6.1-1-9.1c1.8-4.5,7.1-6.8,11.7-5 c0.1,0.1,0.3,0.1,0.4,0.2c30.1,20.1,68.8,24.5,102.9,11.7c18.1,10.8,41.5,4.9,52.2-13.3c3-5.1,4.8-10.7,5.3-16.6 c26.8-30.3,33-73.6,15.9-110.3c-1.8-4.4,0.1-9.3,4.4-11.6c4.1-2.1,9.2-0.8,11.7,3.1c12.1,20.6,18.2,44,17.5,67.6 c0.3,8.8,7.9,15.6,17,15.4h0.1c1.6-0.1,3.2-0.4,4.7-0.9C1904.5,2520.6,1893.5,2540.2,1878.6,2557z"/> <path class="st2" d="M1798.7,2310.6c80.5,17.2,132.1,96.5,115,177.4c-1.9,4.5-7.3,6.6-12,4.8c-3.2-1.3-5.5-4.2-5.7-7.6 c2.2-36.6-13.2-72-41.4-95.3c0.3-21-16.5-38.4-37.5-38.7c-5.9-0.1-11.6,1.2-16.9,3.7c-39.5-8.2-80.1,8.1-103.1,41.3 c-2.8,3.7-8.2,4.6-12.1,2s-5.3-7.6-3.2-11.7l0,0c11.4-20.4,28.6-37.4,49.6-48.9c7.6-5.1,9.6-15,4.8-22.5c-0.9-1.3-1.9-2.6-3.2-3.6 C1754.4,2306.4,1777,2306,1798.7,2310.6z"/> <path class="st2" d="M1791.9,2369.8c9.9-13,29-15.9,42.6-6.4c0.6,0.4,1.1,0.8,1.6,1.2c13.6,11.2,15.9,30.6,5.1,44.3 c-9.9,13-29,15.9-42.6,6.4c-0.6-0.4-1.1-0.8-1.6-1.2C1783.4,2402.9,1781.1,2383.6,1791.9,2369.8z"/> <path class="st2" d="M1798.7,2310.6c80.5,17.2,132.1,96.5,115,177.4c-1.9,4.5-7.3,6.6-12,4.8c-3.2-1.3-5.5-4.2-5.7-7.6 c2.2-36.6-13.2-72-41.4-95.3c0.3-21-16.5-38.4-37.5-38.7c-5.9-0.1-11.6,1.2-16.9,3.7c-39.5-8.2-80.1,8.1-103.1,41.3 c-2.8,3.7-8.2,4.6-12.1,2s-5.3-7.6-3.2-11.7l0,0c11.4-20.4,28.6-37.4,49.6-48.9c7.6-5.1,9.6-15,4.8-22.5c-0.9-1.3-1.9-2.6-3.2-3.6 C1754.4,2306.4,1777,2306,1798.7,2310.6z"/> <path class="st2" d="M1791.9,2369.8c9.9-13,29-15.9,42.6-6.4c0.6,0.4,1.1,0.8,1.6,1.2c13.6,11.2,15.9,30.6,5.1,44.3 c-9.9,13-29,15.9-42.6,6.4c-0.6-0.4-1.1-0.8-1.6-1.2C1783.4,2402.9,1781.1,2383.6,1791.9,2369.8z"/> <path class="st2" d="M1798.7,2310.6c80.5,17.2,132.1,96.5,115,177.4c-1.9,4.5-7.3,6.6-12,4.8c-3.2-1.3-5.5-4.2-5.7-7.6 c2.2-36.6-13.2-72-41.4-95.3c0.3-21-16.5-38.4-37.5-38.7c-5.9-0.1-11.6,1.2-16.9,3.7c-39.5-8.2-80.1,8.1-103.1,41.3 c-2.8,3.7-8.2,4.6-12.1,2s-5.3-7.6-3.2-11.7l0,0c11.4-20.4,28.6-37.4,49.6-48.9c7.6-5.1,9.6-15,4.8-22.5c-0.9-1.3-1.9-2.6-3.2-3.6 C1754.4,2306.4,1777,2306,1798.7,2310.6z"/> <path class="st2" d="M1791.9,2369.8c9.9-13,29-15.9,42.6-6.4c0.6,0.4,1.1,0.8,1.6,1.2c13.6,11.2,15.9,30.6,5.1,44.3 c-9.9,13-29,15.9-42.6,6.4c-0.6-0.4-1.1-0.8-1.6-1.2C1783.4,2402.9,1781.1,2383.6,1791.9,2369.8z"/> <path class="st2" d="M1798.7,2310.6c80.5,17.2,132.1,96.5,115,177.4c-1.9,4.5-7.3,6.6-12,4.8c-3.2-1.3-5.5-4.2-5.7-7.6 c2.2-36.6-13.2-72-41.4-95.3c0.3-21-16.5-38.4-37.5-38.7c-5.9-0.1-11.6,1.2-16.9,3.7c-39.5-8.2-80.1,8.1-103.1,41.3 c-2.8,3.7-8.2,4.6-12.1,2s-5.3-7.6-3.2-11.7l0,0c11.4-20.4,28.6-37.4,49.6-48.9c7.6-5.1,9.6-15,4.8-22.5c-0.9-1.3-1.9-2.6-3.2-3.6 C1754.4,2306.4,1777,2306,1798.7,2310.6z"/> <path class="st2" d="M1791.9,2369.8c9.9-13,29-15.9,42.6-6.4c0.6,0.4,1.1,0.8,1.6,1.2c13.6,11.2,15.9,30.6,5.1,44.3 c-9.9,13-29,15.9-42.6,6.4c-0.6-0.4-1.1-0.8-1.6-1.2C1783.4,2402.9,1781.1,2383.6,1791.9,2369.8z"/> <path class="st2" d="M1798.7,2310.6c80.5,17.2,132.1,96.5,115,177.4c-1.9,4.5-7.3,6.6-12,4.8c-3.2-1.3-5.5-4.2-5.7-7.6 c2.2-36.6-13.2-72-41.4-95.3c0.3-21-16.5-38.4-37.5-38.7c-5.9-0.1-11.6,1.2-16.9,3.7c-39.5-8.2-80.1,8.1-103.1,41.3 c-2.8,3.7-8.2,4.6-12.1,2s-5.3-7.6-3.2-11.7l0,0c11.4-20.4,28.6-37.4,49.6-48.9c7.6-5.1,9.6-15,4.8-22.5c-0.9-1.3-1.9-2.6-3.2-3.6 C1754.4,2306.4,1777,2306,1798.7,2310.6z"/> <path class="st2" d="M1791.9,2369.8c9.9-13,29-15.9,42.6-6.4c0.6,0.4,1.1,0.8,1.6,1.2c13.6,11.2,15.9,30.6,5.1,44.3 c-9.9,13-29,15.9-42.6,6.4c-0.6-0.4-1.1-0.8-1.6-1.2C1783.4,2402.9,1781.1,2383.6,1791.9,2369.8z"/> <path class="st2" d="M1798.7,2310.6c80.5,17.2,132.1,96.5,115,177.4c-1.9,4.5-7.3,6.6-12,4.8c-3.2-1.3-5.5-4.2-5.7-7.6 c2.2-36.6-13.2-72-41.4-95.3c0.3-21-16.5-38.4-37.5-38.7c-5.9-0.1-11.6,1.2-16.9,3.7c-39.5-8.2-80.1,8.1-103.1,41.3 c-2.8,3.7-8.2,4.6-12.1,2s-5.3-7.6-3.2-11.7l0,0c11.4-20.4,28.6-37.4,49.6-48.9c7.6-5.1,9.6-15,4.8-22.5c-0.9-1.3-1.9-2.6-3.2-3.6 C1754.4,2306.4,1777,2306,1798.7,2310.6z"/> <path class="st2" d="M1791.9,2369.8c9.9-13,29-15.9,42.6-6.4c0.6,0.4,1.1,0.8,1.6,1.2c13.6,11.2,15.9,30.6,5.1,44.3 c-9.9,13-29,15.9-42.6,6.4c-0.6-0.4-1.1-0.8-1.6-1.2C1783.4,2402.9,1781.1,2383.6,1791.9,2369.8z"/> <path class="st3" d="M1721.6,2314.8c3.3-0.3,6.5,1.1,8.4,3.7c3.1,4.2,2.2,9.9-1.9,13.1c-32.7,16.4-55.6,47.4-61.6,83.6 c-18.3,10.3-25,33.5-14.6,51.9c2.8,5.1,6.8,9.5,11.6,12.9c12.7,38.4,47,65.5,87.2,68.9c4.8,0.8,8.2,4.9,7.8,9.6 c-0.1,4.5-3.8,8.2-8.5,8.6c-23.8,0.2-47.1-6.2-67.1-18.6c-7.8-3.9-17.4-1.1-21.5,6.4c-0.1,0.2-0.2,0.4-0.4,0.7 c-0.7,1.4-1.2,3-1.5,4.5c-15.4-16.4-26.8-35.6-33.6-56.6C1600.5,2424.8,1643.2,2340.3,1721.6,2314.8z"/> <ellipse class="st4" cx="1801.7" cy="2533" rx="31.4" ry="31.5"/> <path class="st3" d="M1660.4,2428.7c9.9-13,29-15.9,42.6-6.4c0.6,0.4,1.1,0.8,1.6,1.2c13.6,11.2,15.9,30.6,5.1,44.3 c-9.9,13-29,15.9-42.6,6.4c-0.5-0.4-1.1-0.8-1.6-1.2C1651.9,2461.8,1649.6,2442.5,1660.4,2428.7z"/> <path class="st4" d="M1878.6,2557c-55.1,61.4-149.4,66.4-210.6,11.3c-1.9-2.7-2.3-6.1-1-9.1c1.8-4.5,7.1-6.8,11.7-5 c0.1,0.1,0.3,0.1,0.4,0.2c30.1,20.1,68.8,24.5,102.9,11.7c18.1,10.8,41.5,4.9,52.2-13.3c3-5.1,4.8-10.7,5.3-16.6 c26.8-30.3,33-73.6,15.9-110.3c-1.8-4.4,0.1-9.3,4.4-11.6c4.1-2.1,9.2-0.8,11.7,3.1c12.1,20.6,18.2,44,17.5,67.6 c0.3,8.8,7.9,15.6,17,15.4h0.1c1.6-0.1,3.2-0.4,4.7-0.9C1904.5,2520.6,1893.5,2540.2,1878.6,2557z"/> <path class="st2" d="M1798.7,2310.6c80.5,17.2,132.1,96.5,115,177.4c-1.9,4.5-7.3,6.6-12,4.8c-3.2-1.3-5.5-4.2-5.7-7.6 c2.2-36.6-13.2-72-41.4-95.3c0.3-21-16.5-38.4-37.5-38.7c-5.9-0.1-11.6,1.2-16.9,3.7c-39.5-8.2-80.1,8.1-103.1,41.3 c-2.8,3.7-8.2,4.6-12.1,2s-5.3-7.6-3.2-11.7l0,0c11.4-20.4,28.6-37.4,49.6-48.9c7.6-5.1,9.6-15,4.8-22.5c-0.9-1.3-1.9-2.6-3.2-3.6 C1754.4,2306.4,1777,2306,1798.7,2310.6z"/> <path class="st2" d="M1791.9,2369.8c9.9-13,29-15.9,42.6-6.4c0.6,0.4,1.1,0.8,1.6,1.2c13.6,11.2,15.9,30.6,5.1,44.3 c-9.9,13-29,15.9-42.6,6.4c-0.6-0.4-1.1-0.8-1.6-1.2C1783.4,2402.9,1781.1,2383.6,1791.9,2369.8z"/> <path class="st2" d="M1798.7,2310.6c80.5,17.2,132.1,96.5,115,177.4c-1.9,4.5-7.3,6.6-12,4.8c-3.2-1.3-5.5-4.2-5.7-7.6 c2.2-36.6-13.2-72-41.4-95.3c0.3-21-16.5-38.4-37.5-38.7c-5.9-0.1-11.6,1.2-16.9,3.7c-39.5-8.2-80.1,8.1-103.1,41.3 c-2.8,3.7-8.2,4.6-12.1,2s-5.3-7.6-3.2-11.7l0,0c11.4-20.4,28.6-37.4,49.6-48.9c7.6-5.1,9.6-15,4.8-22.5c-0.9-1.3-1.9-2.6-3.2-3.6 C1754.4,2306.4,1777,2306,1798.7,2310.6z"/> <path class="st2" d="M1791.9,2369.8c9.9-13,29-15.9,42.6-6.4c0.6,0.4,1.1,0.8,1.6,1.2c13.6,11.2,15.9,30.6,5.1,44.3 c-9.9,13-29,15.9-42.6,6.4c-0.6-0.4-1.1-0.8-1.6-1.2C1783.4,2402.9,1781.1,2383.6,1791.9,2369.8z"/> <path class="st2" d="M1798.7,2310.6c80.5,17.2,132.1,96.5,115,177.4c-1.9,4.5-7.3,6.6-12,4.8c-3.2-1.3-5.5-4.2-5.7-7.6 c2.2-36.6-13.2-72-41.4-95.3c0.3-21-16.5-38.4-37.5-38.7c-5.9-0.1-11.6,1.2-16.9,3.7c-39.5-8.2-80.1,8.1-103.1,41.3 c-2.8,3.7-8.2,4.6-12.1,2s-5.3-7.6-3.2-11.7l0,0c11.4-20.4,28.6-37.4,49.6-48.9c7.6-5.1,9.6-15,4.8-22.5c-0.9-1.3-1.9-2.6-3.2-3.6 C1754.4,2306.4,1777,2306,1798.7,2310.6z"/> <path class="st2" d="M1791.9,2369.8c9.9-13,29-15.9,42.6-6.4c0.6,0.4,1.1,0.8,1.6,1.2c13.6,11.2,15.9,30.6,5.1,44.3 c-9.9,13-29,15.9-42.6,6.4c-0.6-0.4-1.1-0.8-1.6-1.2C1783.4,2402.9,1781.1,2383.6,1791.9,2369.8z"/> <path class="st2" d="M1798.7,2310.6c80.5,17.2,132.1,96.5,115,177.4c-1.9,4.5-7.3,6.6-12,4.8c-3.2-1.3-5.5-4.2-5.7-7.6 c2.2-36.6-13.2-72-41.4-95.3c0.3-21-16.5-38.4-37.5-38.7c-5.9-0.1-11.6,1.2-16.9,3.7c-39.5-8.2-80.1,8.1-103.1,41.3 c-2.8,3.7-8.2,4.6-12.1,2s-5.3-7.6-3.2-11.7l0,0c11.4-20.4,28.6-37.4,49.6-48.9c7.6-5.1,9.6-15,4.8-22.5c-0.9-1.3-1.9-2.6-3.2-3.6 C1754.4,2306.4,1777,2306,1798.7,2310.6z"/> <path class="st2" d="M1791.9,2369.8c9.9-13,29-15.9,42.6-6.4c0.6,0.4,1.1,0.8,1.6,1.2c13.6,11.2,15.9,30.6,5.1,44.3 c-9.9,13-29,15.9-42.6,6.4c-0.6-0.4-1.1-0.8-1.6-1.2C1783.4,2402.9,1781.1,2383.6,1791.9,2369.8z"/> <path class="st2" d="M1798.7,2310.6c80.5,17.2,132.1,96.5,115,177.4c-1.9,4.5-7.3,6.6-12,4.8c-3.2-1.3-5.5-4.2-5.7-7.6 c2.2-36.6-13.2-72-41.4-95.3c0.3-21-16.5-38.4-37.5-38.7c-5.9-0.1-11.6,1.2-16.9,3.7c-39.5-8.2-80.1,8.1-103.1,41.3 c-2.8,3.7-8.2,4.6-12.1,2s-5.3-7.6-3.2-11.7l0,0c11.4-20.4,28.6-37.4,49.6-48.9c7.6-5.1,9.6-15,4.8-22.5c-0.9-1.3-1.9-2.6-3.2-3.6 C1754.4,2306.4,1777,2306,1798.7,2310.6z"/> <path class="st2" d="M1791.9,2369.8c9.9-13,29-15.9,42.6-6.4c0.6,0.4,1.1,0.8,1.6,1.2c13.6,11.2,15.9,30.6,5.1,44.3 c-9.9,13-29,15.9-42.6,6.4c-0.6-0.4-1.1-0.8-1.6-1.2C1783.4,2402.9,1781.1,2383.6,1791.9,2369.8z"/> <path class="st2" d="M1798.7,2310.6c80.5,17.2,132.1,96.5,115,177.4c-1.9,4.5-7.3,6.6-12,4.8c-3.2-1.3-5.5-4.2-5.7-7.6 c2.2-36.6-13.2-72-41.4-95.3c0.3-21-16.5-38.4-37.5-38.7c-5.9-0.1-11.6,1.2-16.9,3.7c-39.5-8.2-80.1,8.1-103.1,41.3 c-2.8,3.7-8.2,4.6-12.1,2s-5.3-7.6-3.2-11.7l0,0c11.4-20.4,28.6-37.4,49.6-48.9c7.6-5.1,9.6-15,4.8-22.5c-0.9-1.3-1.9-2.6-3.2-3.6 C1754.4,2306.4,1777,2306,1798.7,2310.6z"/> <path class="st2" d="M1791.9,2369.8c9.9-13,29-15.9,42.6-6.4c0.6,0.4,1.1,0.8,1.6,1.2c13.6,11.2,15.9,30.6,5.1,44.3 c-9.9,13-29,15.9-42.6,6.4c-0.6-0.4-1.1-0.8-1.6-1.2C1783.4,2402.9,1781.1,2383.6,1791.9,2369.8z"/> <path class="st3" d="M1721.6,2314.8c3.3-0.3,6.5,1.1,8.4,3.7c3.1,4.2,2.2,9.9-1.9,13.1c-32.7,16.4-55.6,47.4-61.6,83.6 c-18.3,10.3-25,33.5-14.6,51.9c2.8,5.1,6.8,9.5,11.6,12.9c12.7,38.4,47,65.5,87.2,68.9c4.8,0.8,8.2,4.9,7.8,9.6 c-0.1,4.5-3.8,8.2-8.5,8.6c-23.8,0.2-47.1-6.2-67.1-18.6c-7.8-3.9-17.4-1.1-21.5,6.4c-0.1,0.2-0.2,0.4-0.4,0.7 c-0.7,1.4-1.2,3-1.5,4.5c-15.4-16.4-26.8-35.6-33.6-56.6C1600.5,2424.8,1643.2,2340.3,1721.6,2314.8z"/> <ellipse class="st4" cx="1801.7" cy="2533" rx="31.4" ry="31.5"/> <path class="st3" d="M1660.4,2428.7c9.9-13,29-15.9,42.6-6.4c0.6,0.4,1.1,0.8,1.6,1.2c13.6,11.2,15.9,30.6,5.1,44.3 c-9.9,13-29,15.9-42.6,6.4c-0.5-0.4-1.1-0.8-1.6-1.2C1651.9,2461.8,1649.6,2442.5,1660.4,2428.7z"/> <path class="st4" d="M1878.6,2557c-55.1,61.4-149.4,66.4-210.6,11.3c-1.9-2.7-2.3-6.1-1-9.1c1.8-4.5,7.1-6.8,11.7-5 c0.1,0.1,0.3,0.1,0.4,0.2c30.1,20.1,68.8,24.5,102.9,11.7c18.1,10.8,41.5,4.9,52.2-13.3c3-5.1,4.8-10.7,5.3-16.6 c26.8-30.3,33-73.6,15.9-110.3c-1.8-4.4,0.1-9.3,4.4-11.6c4.1-2.1,9.2-0.8,11.7,3.1c12.1,20.6,18.2,44,17.5,67.6 c0.3,8.8,7.9,15.6,17,15.4h0.1c1.6-0.1,3.2-0.4,4.7-0.9C1904.5,2520.6,1893.5,2540.2,1878.6,2557z"/> <path class="st2" d="M1798.7,2310.6c80.5,17.2,132.1,96.5,115,177.4c-1.9,4.5-7.3,6.6-12,4.8c-3.2-1.3-5.5-4.2-5.7-7.6 c2.2-36.6-13.2-72-41.4-95.3c0.3-21-16.5-38.4-37.5-38.7c-5.9-0.1-11.6,1.2-16.9,3.7c-39.5-8.2-80.1,8.1-103.1,41.3 c-2.8,3.7-8.2,4.6-12.1,2s-5.3-7.6-3.2-11.7l0,0c11.4-20.4,28.6-37.4,49.6-48.9c7.6-5.1,9.6-15,4.8-22.5c-0.9-1.3-1.9-2.6-3.2-3.6 C1754.4,2306.4,1777,2306,1798.7,2310.6z"/> <path class="st2" d="M1791.9,2369.8c9.9-13,29-15.9,42.6-6.4c0.6,0.4,1.1,0.8,1.6,1.2c13.6,11.2,15.9,30.6,5.1,44.3 c-9.9,13-29,15.9-42.6,6.4c-0.6-0.4-1.1-0.8-1.6-1.2C1783.4,2402.9,1781.1,2383.6,1791.9,2369.8z"/> <path class="st2" d="M1798.7,2310.6c80.5,17.2,132.1,96.5,115,177.4c-1.9,4.5-7.3,6.6-12,4.8c-3.2-1.3-5.5-4.2-5.7-7.6 c2.2-36.6-13.2-72-41.4-95.3c0.3-21-16.5-38.4-37.5-38.7c-5.9-0.1-11.6,1.2-16.9,3.7c-39.5-8.2-80.1,8.1-103.1,41.3 c-2.8,3.7-8.2,4.6-12.1,2s-5.3-7.6-3.2-11.7l0,0c11.4-20.4,28.6-37.4,49.6-48.9c7.6-5.1,9.6-15,4.8-22.5c-0.9-1.3-1.9-2.6-3.2-3.6 C1754.4,2306.4,1777,2306,1798.7,2310.6z"/> <path class="st2" d="M1791.9,2369.8c9.9-13,29-15.9,42.6-6.4c0.6,0.4,1.1,0.8,1.6,1.2c13.6,11.2,15.9,30.6,5.1,44.3 c-9.9,13-29,15.9-42.6,6.4c-0.6-0.4-1.1-0.8-1.6-1.2C1783.4,2402.9,1781.1,2383.6,1791.9,2369.8z"/> <path class="st2" d="M1798.7,2310.6c80.5,17.2,132.1,96.5,115,177.4c-1.9,4.5-7.3,6.6-12,4.8c-3.2-1.3-5.5-4.2-5.7-7.6 c2.2-36.6-13.2-72-41.4-95.3c0.3-21-16.5-38.4-37.5-38.7c-5.9-0.1-11.6,1.2-16.9,3.7c-39.5-8.2-80.1,8.1-103.1,41.3 c-2.8,3.7-8.2,4.6-12.1,2s-5.3-7.6-3.2-11.7l0,0c11.4-20.4,28.6-37.4,49.6-48.9c7.6-5.1,9.6-15,4.8-22.5c-0.9-1.3-1.9-2.6-3.2-3.6 C1754.4,2306.4,1777,2306,1798.7,2310.6z"/> <path class="st2" d="M1791.9,2369.8c9.9-13,29-15.9,42.6-6.4c0.6,0.4,1.1,0.8,1.6,1.2c13.6,11.2,15.9,30.6,5.1,44.3 c-9.9,13-29,15.9-42.6,6.4c-0.6-0.4-1.1-0.8-1.6-1.2C1783.4,2402.9,1781.1,2383.6,1791.9,2369.8z"/> <path class="st2" d="M1798.7,2310.6c80.5,17.2,132.1,96.5,115,177.4c-1.9,4.5-7.3,6.6-12,4.8c-3.2-1.3-5.5-4.2-5.7-7.6 c2.2-36.6-13.2-72-41.4-95.3c0.3-21-16.5-38.4-37.5-38.7c-5.9-0.1-11.6,1.2-16.9,3.7c-39.5-8.2-80.1,8.1-103.1,41.3 c-2.8,3.7-8.2,4.6-12.1,2s-5.3-7.6-3.2-11.7l0,0c11.4-20.4,28.6-37.4,49.6-48.9c7.6-5.1,9.6-15,4.8-22.5c-0.9-1.3-1.9-2.6-3.2-3.6 C1754.4,2306.4,1777,2306,1798.7,2310.6z"/> <path class="st2" d="M1791.9,2369.8c9.9-13,29-15.9,42.6-6.4c0.6,0.4,1.1,0.8,1.6,1.2c13.6,11.2,15.9,30.6,5.1,44.3 c-9.9,13-29,15.9-42.6,6.4c-0.6-0.4-1.1-0.8-1.6-1.2C1783.4,2402.9,1781.1,2383.6,1791.9,2369.8z"/> <path class="st2" d="M1798.7,2310.6c80.5,17.2,132.1,96.5,115,177.4c-1.9,4.5-7.3,6.6-12,4.8c-3.2-1.3-5.5-4.2-5.7-7.6 c2.2-36.6-13.2-72-41.4-95.3c0.3-21-16.5-38.4-37.5-38.7c-5.9-0.1-11.6,1.2-16.9,3.7c-39.5-8.2-80.1,8.1-103.1,41.3 c-2.8,3.7-8.2,4.6-12.1,2s-5.3-7.6-3.2-11.7l0,0c11.4-20.4,28.6-37.4,49.6-48.9c7.6-5.1,9.6-15,4.8-22.5c-0.9-1.3-1.9-2.6-3.2-3.6 C1754.4,2306.4,1777,2306,1798.7,2310.6z"/> <path class="st2" d="M1791.9,2369.8c9.9-13,29-15.9,42.6-6.4c0.6,0.4,1.1,0.8,1.6,1.2c13.6,11.2,15.9,30.6,5.1,44.3 c-9.9,13-29,15.9-42.6,6.4c-0.6-0.4-1.1-0.8-1.6-1.2C1783.4,2402.9,1781.1,2383.6,1791.9,2369.8z"/> <path class="st2" d="M1798.7,2310.6c80.5,17.2,132.1,96.5,115,177.4c-1.9,4.5-7.3,6.6-12,4.8c-3.2-1.3-5.5-4.2-5.7-7.6 c2.2-36.6-13.2-72-41.4-95.3c0.3-21-16.5-38.4-37.5-38.7c-5.9-0.1-11.6,1.2-16.9,3.7c-39.5-8.2-80.1,8.1-103.1,41.3 c-2.8,3.7-8.2,4.6-12.1,2s-5.3-7.6-3.2-11.7l0,0c11.4-20.4,28.6-37.4,49.6-48.9c7.6-5.1,9.6-15,4.8-22.5c-0.9-1.3-1.9-2.6-3.2-3.6 C1754.4,2306.4,1777,2306,1798.7,2310.6z"/> <path class="st2" d="M1791.9,2369.8c9.9-13,29-15.9,42.6-6.4c0.6,0.4,1.1,0.8,1.6,1.2c13.6,11.2,15.9,30.6,5.1,44.3 c-9.9,13-29,15.9-42.6,6.4c-0.6-0.4-1.1-0.8-1.6-1.2C1783.4,2402.9,1781.1,2383.6,1791.9,2369.8z"/> <path class="st3" d="M1721.6,2314.8c3.3-0.3,6.5,1.1,8.4,3.7c3.1,4.2,2.2,9.9-1.9,13.1c-32.7,16.4-55.6,47.4-61.6,83.6 c-18.3,10.3-25,33.5-14.6,51.9c2.8,5.1,6.8,9.5,11.6,12.9c12.7,38.4,47,65.5,87.2,68.9c4.8,0.8,8.2,4.9,7.8,9.6 c-0.1,4.5-3.8,8.2-8.5,8.6c-23.8,0.2-47.1-6.2-67.1-18.6c-7.8-3.9-17.4-1.1-21.5,6.4c-0.1,0.2-0.2,0.4-0.4,0.7 c-0.7,1.4-1.2,3-1.5,4.5c-15.4-16.4-26.8-35.6-33.6-56.6C1600.5,2424.8,1643.2,2340.3,1721.6,2314.8z"/> <ellipse class="st4" cx="1801.7" cy="2533" rx="31.4" ry="31.5"/> <path class="st3" d="M1660.4,2428.7c9.9-13,29-15.9,42.6-6.4c0.6,0.4,1.1,0.8,1.6,1.2c13.6,11.2,15.9,30.6,5.1,44.3 c-9.9,13-29,15.9-42.6,6.4c-0.5-0.4-1.1-0.8-1.6-1.2C1651.9,2461.8,1649.6,2442.5,1660.4,2428.7z"/> <path class="st4" d="M1878.6,2557c-55.1,61.4-149.4,66.4-210.6,11.3c-1.9-2.7-2.3-6.1-1-9.1c1.8-4.5,7.1-6.8,11.7-5 c0.1,0.1,0.3,0.1,0.4,0.2c30.1,20.1,68.8,24.5,102.9,11.7c18.1,10.8,41.5,4.9,52.2-13.3c3-5.1,4.8-10.7,5.3-16.6 c26.8-30.3,33-73.6,15.9-110.3c-1.8-4.4,0.1-9.3,4.4-11.6c4.1-2.1,9.2-0.8,11.7,3.1c12.1,20.6,18.2,44,17.5,67.6 c0.3,8.8,7.9,15.6,17,15.4h0.1c1.6-0.1,3.2-0.4,4.7-0.9C1904.5,2520.6,1893.5,2540.2,1878.6,2557z"/> <path class="st2" d="M1798.7,2310.6c80.5,17.2,132.1,96.5,115,177.4c-1.9,4.5-7.3,6.6-12,4.8c-3.2-1.3-5.5-4.2-5.7-7.6 c2.2-36.6-13.2-72-41.4-95.3c0.3-21-16.5-38.4-37.5-38.7c-5.9-0.1-11.6,1.2-16.9,3.7c-39.5-8.2-80.1,8.1-103.1,41.3 c-2.8,3.7-8.2,4.6-12.1,2s-5.3-7.6-3.2-11.7l0,0c11.4-20.4,28.6-37.4,49.6-48.9c7.6-5.1,9.6-15,4.8-22.5c-0.9-1.3-1.9-2.6-3.2-3.6 C1754.4,2306.4,1777,2306,1798.7,2310.6z"/> <path class="st2" d="M1791.9,2369.8c9.9-13,29-15.9,42.6-6.4c0.6,0.4,1.1,0.8,1.6,1.2c13.6,11.2,15.9,30.6,5.1,44.3 c-9.9,13-29,15.9-42.6,6.4c-0.6-0.4-1.1-0.8-1.6-1.2C1783.4,2402.9,1781.1,2383.6,1791.9,2369.8z"/> <path class="st2" d="M1798.7,2310.6c80.5,17.2,132.1,96.5,115,177.4c-1.9,4.5-7.3,6.6-12,4.8c-3.2-1.3-5.5-4.2-5.7-7.6 c2.2-36.6-13.2-72-41.4-95.3c0.3-21-16.5-38.4-37.5-38.7c-5.9-0.1-11.6,1.2-16.9,3.7c-39.5-8.2-80.1,8.1-103.1,41.3 c-2.8,3.7-8.2,4.6-12.1,2s-5.3-7.6-3.2-11.7l0,0c11.4-20.4,28.6-37.4,49.6-48.9c7.6-5.1,9.6-15,4.8-22.5c-0.9-1.3-1.9-2.6-3.2-3.6 C1754.4,2306.4,1777,2306,1798.7,2310.6z"/> <path class="st2" d="M1791.9,2369.8c9.9-13,29-15.9,42.6-6.4c0.6,0.4,1.1,0.8,1.6,1.2c13.6,11.2,15.9,30.6,5.1,44.3 c-9.9,13-29,15.9-42.6,6.4c-0.6-0.4-1.1-0.8-1.6-1.2C1783.4,2402.9,1781.1,2383.6,1791.9,2369.8z"/> <path class="st2" d="M1798.7,2310.6c80.5,17.2,132.1,96.5,115,177.4c-1.9,4.5-7.3,6.6-12,4.8c-3.2-1.3-5.5-4.2-5.7-7.6 c2.2-36.6-13.2-72-41.4-95.3c0.3-21-16.5-38.4-37.5-38.7c-5.9-0.1-11.6,1.2-16.9,3.7c-39.5-8.2-80.1,8.1-103.1,41.3 c-2.8,3.7-8.2,4.6-12.1,2s-5.3-7.6-3.2-11.7l0,0c11.4-20.4,28.6-37.4,49.6-48.9c7.6-5.1,9.6-15,4.8-22.5c-0.9-1.3-1.9-2.6-3.2-3.6 C1754.4,2306.4,1777,2306,1798.7,2310.6z"/> <path class="st2" d="M1791.9,2369.8c9.9-13,29-15.9,42.6-6.4c0.6,0.4,1.1,0.8,1.6,1.2c13.6,11.2,15.9,30.6,5.1,44.3 c-9.9,13-29,15.9-42.6,6.4c-0.6-0.4-1.1-0.8-1.6-1.2C1783.4,2402.9,1781.1,2383.6,1791.9,2369.8z"/> <path class="st2" d="M1798.7,2310.6c80.5,17.2,132.1,96.5,115,177.4c-1.9,4.5-7.3,6.6-12,4.8c-3.2-1.3-5.5-4.2-5.7-7.6 c2.2-36.6-13.2-72-41.4-95.3c0.3-21-16.5-38.4-37.5-38.7c-5.9-0.1-11.6,1.2-16.9,3.7c-39.5-8.2-80.1,8.1-103.1,41.3 c-2.8,3.7-8.2,4.6-12.1,2s-5.3-7.6-3.2-11.7l0,0c11.4-20.4,28.6-37.4,49.6-48.9c7.6-5.1,9.6-15,4.8-22.5c-0.9-1.3-1.9-2.6-3.2-3.6 C1754.4,2306.4,1777,2306,1798.7,2310.6z"/> <path class="st2" d="M1791.9,2369.8c9.9-13,29-15.9,42.6-6.4c0.6,0.4,1.1,0.8,1.6,1.2c13.6,11.2,15.9,30.6,5.1,44.3 c-9.9,13-29,15.9-42.6,6.4c-0.6-0.4-1.1-0.8-1.6-1.2C1783.4,2402.9,1781.1,2383.6,1791.9,2369.8z"/> <path class="st2" d="M1798.7,2310.6c80.5,17.2,132.1,96.5,115,177.4c-1.9,4.5-7.3,6.6-12,4.8c-3.2-1.3-5.5-4.2-5.7-7.6 c2.2-36.6-13.2-72-41.4-95.3c0.3-21-16.5-38.4-37.5-38.7c-5.9-0.1-11.6,1.2-16.9,3.7c-39.5-8.2-80.1,8.1-103.1,41.3 c-2.8,3.7-8.2,4.6-12.1,2s-5.3-7.6-3.2-11.7l0,0c11.4-20.4,28.6-37.4,49.6-48.9c7.6-5.1,9.6-15,4.8-22.5c-0.9-1.3-1.9-2.6-3.2-3.6 C1754.4,2306.4,1777,2306,1798.7,2310.6z"/> <path class="st2" d="M1791.9,2369.8c9.9-13,29-15.9,42.6-6.4c0.6,0.4,1.1,0.8,1.6,1.2c13.6,11.2,15.9,30.6,5.1,44.3 c-9.9,13-29,15.9-42.6,6.4c-0.6-0.4-1.1-0.8-1.6-1.2C1783.4,2402.9,1781.1,2383.6,1791.9,2369.8z"/> <path class="st2" d="M1798.7,2310.6c80.5,17.2,132.1,96.5,115,177.4c-1.9,4.5-7.3,6.6-12,4.8c-3.2-1.3-5.5-4.2-5.7-7.6 c2.2-36.6-13.2-72-41.4-95.3c0.3-21-16.5-38.4-37.5-38.7c-5.9-0.1-11.6,1.2-16.9,3.7c-39.5-8.2-80.1,8.1-103.1,41.3 c-2.8,3.7-8.2,4.6-12.1,2s-5.3-7.6-3.2-11.7l0,0c11.4-20.4,28.6-37.4,49.6-48.9c7.6-5.1,9.6-15,4.8-22.5c-0.9-1.3-1.9-2.6-3.2-3.6 C1754.4,2306.4,1777,2306,1798.7,2310.6z"/> <path class="st2" d="M1791.9,2369.8c9.9-13,29-15.9,42.6-6.4c0.6,0.4,1.1,0.8,1.6,1.2c13.6,11.2,15.9,30.6,5.1,44.3 c-9.9,13-29,15.9-42.6,6.4c-0.6-0.4-1.1-0.8-1.6-1.2C1783.4,2402.9,1781.1,2383.6,1791.9,2369.8z"/> <path class="st3" d="M1721.6,2314.8c3.3-0.3,6.5,1.1,8.4,3.7c3.1,4.2,2.2,9.9-1.9,13.1c-32.7,16.4-55.6,47.4-61.6,83.6 c-18.3,10.3-25,33.5-14.6,51.9c2.8,5.1,6.8,9.5,11.6,12.9c12.7,38.4,47,65.5,87.2,68.9c4.8,0.8,8.2,4.9,7.8,9.6 c-0.1,4.5-3.8,8.2-8.5,8.6c-23.8,0.2-47.1-6.2-67.1-18.6c-7.8-3.9-17.4-1.1-21.5,6.4c-0.1,0.2-0.2,0.4-0.4,0.7 c-0.7,1.4-1.2,3-1.5,4.5c-15.4-16.4-26.8-35.6-33.6-56.6C1600.5,2424.8,1643.2,2340.3,1721.6,2314.8z"/> <ellipse class="st4" cx="1801.7" cy="2533" rx="31.4" ry="31.5"/> <path class="st3" d="M1660.4,2428.7c9.9-13,29-15.9,42.6-6.4c0.6,0.4,1.1,0.8,1.6,1.2c13.6,11.2,15.9,30.6,5.1,44.3 c-9.9,13-29,15.9-42.6,6.4c-0.5-0.4-1.1-0.8-1.6-1.2C1651.9,2461.8,1649.6,2442.5,1660.4,2428.7z"/> <path class="st4" d="M1878.6,2557c-55.1,61.4-149.4,66.4-210.6,11.3c-1.9-2.7-2.3-6.1-1-9.1c1.8-4.5,7.1-6.8,11.7-5 c0.1,0.1,0.3,0.1,0.4,0.2c30.1,20.1,68.8,24.5,102.9,11.7c18.1,10.8,41.5,4.9,52.2-13.3c3-5.1,4.8-10.7,5.3-16.6 c26.8-30.3,33-73.6,15.9-110.3c-1.8-4.4,0.1-9.3,4.4-11.6c4.1-2.1,9.2-0.8,11.7,3.1c12.1,20.6,18.2,44,17.5,67.6 c0.3,8.8,7.9,15.6,17,15.4h0.1c1.6-0.1,3.2-0.4,4.7-0.9C1904.5,2520.6,1893.5,2540.2,1878.6,2557z"/> </g> </g> </svg>