<?xml version="1.0" encoding="utf-8"?><svg version="1.1" id="Layer_1" xmlns="http://www.w3.org/2000/svg" xmlns:xlink="http://www.w3.org/1999/xlink" x="0px" y="0px" viewBox="0 0 2187 130" style="enable-background:new 0 0 2187 130;" xml:space="preserve"><style type="text/css">.st0{fill:#FF7D1F}.st1{fill:#1D9ED5}.st2{fill:#9ADA2C}</style><g> <g> <g> <path class="st0" d="M46.7,27.6c-9.1,0-16.2,3-21.5,9.1S17.3,51,17.3,61.6c0,10.8,2.5,19.2,7.6,25.1c5.1,5.9,12.3,8.9,21.7,8.9 c5.8,0,12.3-1,19.7-3.1v8.4c-5.7,2.2-12.8,3.2-21.2,3.2C33,104.1,23.6,100.4,17,93c-6.6-7.4-9.9-17.9-9.9-31.5 c0-8.5,1.6-16,4.8-22.4c3.2-6.4,7.8-11.4,13.8-14.8c6-3.5,13.1-5.2,21.2-5.2c8.7,0,16.2,1.6,22.7,4.8L65.5,32 C59.2,29.1,53,27.6,46.7,27.6z"/> <path class="st0" d="M159.8,61.5c0,13.3-3.3,23.7-10,31.3c-6.7,7.6-16,11.4-27.9,11.4c-12.2,0-21.5-3.7-28.2-11.2 c-6.6-7.5-9.9-18-9.9-31.6c0-13.5,3.3-23.9,9.9-31.4c6.6-7.4,16-11.1,28.2-11.1c11.9,0,21.1,3.8,27.8,11.3 C156.5,37.8,159.8,48.2,159.8,61.5z M94,61.5c0,11.2,2.4,19.7,7.1,25.5c4.8,5.8,11.7,8.7,20.8,8.7c9.2,0,16.1-2.9,20.7-8.7 c4.7-5.8,7-14.3,7-25.5c0-11.1-2.3-19.6-7-25.3c-4.7-5.8-11.5-8.6-20.6-8.6c-9.2,0-16.1,2.9-20.9,8.7C96.4,42,94,50.4,94,61.5z" /> <path class="st0" d="M218.6,103l-28-73.4h-0.5c0.5,5.8,0.8,12.7,0.8,20.7V103h-8.9V20.2h14.5l26.2,68.3h0.5l26.4-68.3h14.3V103 h-9.6V49.6c0-6.1,0.3-12.8,0.8-19.9h-0.5L226.3,103H218.6z"/> <path class="st0" d="M326.9,103l-28-73.4h-0.5c0.5,5.8,0.8,12.7,0.8,20.7V103h-8.9V20.2h14.5l26.2,68.3h0.5l26.4-68.3h14.3V103 h-9.6V49.6c0-6.1,0.3-12.8,0.8-19.9h-0.5L334.6,103H326.9z"/> <path class="st0" d="M460.9,20.2v53.6c0,9.4-2.8,16.9-8.5,22.3c-5.7,5.4-13.5,8.1-23.4,8.1s-17.6-2.7-23.1-8.2 s-8.2-12.9-8.2-22.4V20.2h9.6v54c0,6.9,1.9,12.2,5.6,15.9c3.8,3.7,9.3,5.6,16.6,5.6c7,0,12.3-1.9,16.1-5.6 c3.8-3.7,5.6-9.1,5.6-16V20.2H460.9z"/> <path class="st0" d="M551.1,103h-11L495,33.5h-0.5c0.6,8.2,0.9,15.6,0.9,22.4V103h-8.9V20.2h10.8l45,69.2h0.5 c-0.1-1-0.2-4.3-0.5-9.8c-0.3-5.5-0.4-9.5-0.3-11.9V20.2h9V103z"/> <path class="st0" d="M577.6,103V20.2h9.6V103H577.6z"/> <path class="st0" d="M639.1,103h-9.6V28.7h-26.2v-8.6h61.9v8.6h-26.2V103z"/> <path class="st0" d="M702.5,61.6l22-41.4H735l-27.6,50.7V103h-9.7V71.3l-27.5-51.1h10.5L702.5,61.6z"/> <path class="st1" d="M904.1,44.3c0,8.4-2.9,14.8-8.6,19.3c-5.7,4.5-13.9,6.8-24.5,6.8h-9.7V103h-9.6V20.2h21.4 C893.8,20.2,904.1,28.2,904.1,44.3z M861.3,62.1h8.6c8.5,0,14.7-1.4,18.5-4.1c3.8-2.8,5.7-7.2,5.7-13.3c0-5.5-1.8-9.6-5.4-12.2 c-3.6-2.7-9.2-4-16.7-4h-10.7V62.1z"/> <path class="st1" d="M934.8,68.5V103h-9.6V20.2h22.7c10.1,0,17.6,1.9,22.5,5.8c4.8,3.9,7.3,9.7,7.3,17.6c0,11-5.5,18.4-16.6,22.2 l22.4,37.2H972l-20-34.4H934.8z M934.8,60.3H948c6.8,0,11.7-1.3,14.9-4c3.2-2.7,4.7-6.7,4.7-12.1c0-5.5-1.6-9.4-4.8-11.8 c-3.2-2.4-8.4-3.6-15.5-3.6h-12.5V60.3z"/> <path class="st1" d="M1072.2,61.5c0,13.3-3.3,23.7-10,31.3c-6.7,7.6-16,11.4-27.9,11.4c-12.2,0-21.5-3.7-28.2-11.2 c-6.6-7.5-9.9-18-9.9-31.6c0-13.5,3.3-23.9,9.9-31.4c6.6-7.4,16-11.1,28.2-11.1c11.9,0,21.1,3.8,27.8,11.3 C1068.9,37.8,1072.2,48.2,1072.2,61.5z M1006.4,61.5c0,11.2,2.4,19.7,7.1,25.5c4.8,5.8,11.7,8.7,20.8,8.7 c9.2,0,16.1-2.9,20.7-8.7s7-14.3,7-25.5c0-11.1-2.3-19.6-7-25.3c-4.7-5.8-11.5-8.6-20.6-8.6c-9.2,0-16.1,2.9-20.9,8.7 C1008.8,42,1006.4,50.4,1006.4,61.5z"/> <path class="st1" d="M1149.4,103h-10.9l-22.2-36.4l-22.6,36.4h-10.2l27.5-43.3l-25.6-39.5h10.6l20.5,32.8l20.7-32.8h10.2 l-25.6,39.2L1149.4,103z"/> <path class="st1" d="M1165,103V20.2h9.6V103H1165z"/> <path class="st1" d="M1237.6,103l-28-73.4h-0.5c0.5,5.8,0.8,12.7,0.8,20.7V103h-8.9V20.2h14.5l26.2,68.3h0.5l26.4-68.3h14.3V103 h-9.6V49.6c0-6.1,0.3-12.8,0.8-19.9h-0.5l-28.2,73.3H1237.6z"/> <path class="st1" d="M1309.3,103V20.2h9.6V103H1309.3z"/> <path class="st1" d="M1370.8,103h-9.6V28.7h-26.2v-8.6h61.9v8.6h-26.2V103z"/> <path class="st1" d="M1434.2,61.6l22-41.4h10.4l-27.6,50.7V103h-9.7V71.3l-27.5-51.1h10.5L1434.2,61.6z"/> <path class="st2" d="M1618.8,27.6c-9.1,0-16.2,3-21.5,9.1c-5.3,6.1-7.9,14.4-7.9,24.9c0,10.8,2.5,19.2,7.6,25.1 c5.1,5.9,12.3,8.9,21.7,8.9c5.8,0,12.3-1,19.7-3.1v8.4c-5.7,2.2-12.8,3.2-21.2,3.2c-12.2,0-21.5-3.7-28.2-11.1 c-6.6-7.4-9.9-17.9-9.9-31.5c0-8.5,1.6-16,4.8-22.4c3.2-6.4,7.8-11.4,13.8-14.8c6-3.5,13.1-5.2,21.2-5.2c8.7,0,16.2,1.6,22.7,4.8 l-4.1,8.3C1631.3,29.1,1625,27.6,1618.8,27.6z"/> <path class="st2" d="M1722.6,20.2v53.6c0,9.4-2.8,16.9-8.5,22.3c-5.7,5.4-13.5,8.1-23.4,8.1s-17.6-2.7-23.1-8.2 s-8.2-12.9-8.2-22.4V20.2h9.6v54c0,6.9,1.9,12.2,5.6,15.9c3.8,3.7,9.3,5.6,16.6,5.6c7,0,12.3-1.9,16.1-5.6 c3.8-3.7,5.6-9.1,5.6-16V20.2H1722.6z"/> <path class="st2" d="M1757.9,68.5V103h-9.6V20.2h22.7c10.1,0,17.6,1.9,22.5,5.8c4.8,3.9,7.3,9.7,7.3,17.6 c0,11-5.5,18.4-16.6,22.2l22.4,37.2h-11.4l-20-34.4H1757.9z M1757.9,60.3h13.2c6.8,0,11.7-1.3,14.9-4c3.2-2.7,4.7-6.7,4.7-12.1 c0-5.5-1.6-9.4-4.8-11.8c-3.2-2.4-8.4-3.6-15.5-3.6h-12.5V60.3z"/> <path class="st2" d="M1833.2,68.5V103h-9.6V20.2h22.7c10.1,0,17.6,1.9,22.5,5.8c4.8,3.9,7.3,9.7,7.3,17.6 c0,11-5.5,18.4-16.6,22.2l22.4,37.2h-11.4l-20-34.4H1833.2z M1833.2,60.3h13.2c6.8,0,11.7-1.3,14.9-4c3.2-2.7,4.7-6.7,4.7-12.1 c0-5.5-1.6-9.4-4.8-11.8c-3.2-2.4-8.4-3.6-15.5-3.6h-12.5V60.3z"/> <path class="st2" d="M1944.9,103h-46V20.2h46v8.6h-36.4v26.7h34.2v8.5h-34.2v30.5h36.4V103z"/> <path class="st2" d="M2031.6,103h-11l-45.1-69.5h-0.5c0.6,8.2,0.9,15.6,0.9,22.4V103h-8.9V20.2h10.8l45,69.2h0.5 c-0.1-1-0.2-4.3-0.5-9.8c-0.3-5.5-0.4-9.5-0.3-11.9V20.2h9V103z"/> <path class="st2" d="M2093.5,27.6c-9.1,0-16.2,3-21.5,9.1c-5.3,6.1-7.9,14.4-7.9,24.9c0,10.8,2.5,19.2,7.6,25.1 c5.1,5.9,12.3,8.9,21.7,8.9c5.8,0,12.3-1,19.7-3.1v8.4c-5.7,2.2-12.8,3.2-21.2,3.2c-12.2,0-21.5-3.7-28.2-11.1 c-6.6-7.4-9.9-17.9-9.9-31.5c0-8.5,1.6-16,4.8-22.4c3.2-6.4,7.8-11.4,13.8-14.8c6-3.5,13.1-5.2,21.2-5.2c8.7,0,16.2,1.6,22.7,4.8 l-4.1,8.3C2106,29.1,2099.7,27.6,2093.5,27.6z"/> <path class="st2" d="M2155.9,61.6l22-41.4h10.4l-27.6,50.7V103h-9.7V71.3l-27.5-51.1h10.5L2155.9,61.6z"/> </g> </g> </g> </svg>