<?xml version="1.0" encoding="utf-8"?>
<!-- Generator: Adobe Illustrator 23.0.6, SVG Export Plug-In . SVG Version: 6.00 Build 0)  -->
<svg version="1.1" id="Layer_1" xmlns="http://www.w3.org/2000/svg" xmlns:xlink="http://www.w3.org/1999/xlink" x="0px" y="0px"
	 viewBox="0 0 2500 750" style="enable-background:new 0 0 2500 750;" xml:space="preserve">
<style type="text/css">
	.st0{fill:#C7C7C7;}
	.st1{font-family:'OpenSans-SemiBold';}
	.st2{font-size:373.9452px;}
	.st3{letter-spacing:4;}
	.st4{fill:none;}
	.st5{fill:#FF7D1F;}
	.st6{fill:#9ADA2C;}
	.st7{fill:#1D9FD3;}
	.st8{font-family:'OpenSans-Regular';}
	.st9{font-size:116px;}
	.st10{letter-spacing:3;}
	.st11{fill:#1D9ED5;}
	.st12{fill:#ECECEC;}
</style>
<g>
	<text transform="matrix(0.9972 0 0 1 137.0002 415.4458)"><tspan x="0" y="0" class="st0 st1 st2 st3">C</tspan><tspan x="241.5" y="0" class="st4 st1 st2 st3">O</tspan><tspan x="540.3" y="0" class="st0 st1 st2 st3">MMUNIO</tspan></text>
	<path class="st5" d="M548.7,135.6c80.5,17.2,132.1,96.5,115,177.4c-1.9,4.5-7.3,6.6-12,4.8c-3.2-1.3-5.5-4.2-5.7-7.6
		c2.2-36.6-13.2-72-41.4-95.3c0.3-21-16.5-38.4-37.5-38.7c-5.9-0.1-11.6,1.2-16.9,3.7c-39.5-8.2-80.1,8.1-103.1,41.3
		c-2.8,3.7-8.2,4.6-12.1,2c-3.9-2.6-5.3-7.6-3.2-11.7l0,0c11.4-20.4,28.6-37.4,49.6-48.9c7.6-5.1,9.6-15,4.8-22.5
		c-0.9-1.3-1.9-2.6-3.2-3.6C504.4,131.4,527,131,548.7,135.6z"/>
	<path class="st5" d="M541.9,194.8c9.9-13,29-15.9,42.6-6.4c0.6,0.4,1.1,0.8,1.6,1.2c13.6,11.2,15.9,30.6,5.1,44.3
		c-9.9,13-29,15.9-42.6,6.4c-0.6-0.4-1.1-0.8-1.6-1.2C533.4,227.9,531.1,208.6,541.9,194.8z"/>
	<path class="st5" d="M548.7,135.6c80.5,17.2,132.1,96.5,115,177.4c-1.9,4.5-7.3,6.6-12,4.8c-3.2-1.3-5.5-4.2-5.7-7.6
		c2.2-36.6-13.2-72-41.4-95.3c0.3-21-16.5-38.4-37.5-38.7c-5.9-0.1-11.6,1.2-16.9,3.7c-39.5-8.2-80.1,8.1-103.1,41.3
		c-2.8,3.7-8.2,4.6-12.1,2c-3.9-2.6-5.3-7.6-3.2-11.7l0,0c11.4-20.4,28.6-37.4,49.6-48.9c7.6-5.1,9.6-15,4.8-22.5
		c-0.9-1.3-1.9-2.6-3.2-3.6C504.4,131.4,527,131,548.7,135.6z"/>
	<path class="st5" d="M541.9,194.8c9.9-13,29-15.9,42.6-6.4c0.6,0.4,1.1,0.8,1.6,1.2c13.6,11.2,15.9,30.6,5.1,44.3
		c-9.9,13-29,15.9-42.6,6.4c-0.6-0.4-1.1-0.8-1.6-1.2C533.4,227.9,531.1,208.6,541.9,194.8z"/>
	<path class="st5" d="M548.7,135.6c80.5,17.2,132.1,96.5,115,177.4c-1.9,4.5-7.3,6.6-12,4.8c-3.2-1.3-5.5-4.2-5.7-7.6
		c2.2-36.6-13.2-72-41.4-95.3c0.3-21-16.5-38.4-37.5-38.7c-5.9-0.1-11.6,1.2-16.9,3.7c-39.5-8.2-80.1,8.1-103.1,41.3
		c-2.8,3.7-8.2,4.6-12.1,2c-3.9-2.6-5.3-7.6-3.2-11.7l0,0c11.4-20.4,28.6-37.4,49.6-48.9c7.6-5.1,9.6-15,4.8-22.5
		c-0.9-1.3-1.9-2.6-3.2-3.6C504.4,131.4,527,131,548.7,135.6z"/>
	<path class="st5" d="M541.9,194.8c9.9-13,29-15.9,42.6-6.4c0.6,0.4,1.1,0.8,1.6,1.2c13.6,11.2,15.9,30.6,5.1,44.3
		c-9.9,13-29,15.9-42.6,6.4c-0.6-0.4-1.1-0.8-1.6-1.2C533.4,227.9,531.1,208.6,541.9,194.8z"/>
	<path class="st5" d="M548.7,135.6c80.5,17.2,132.1,96.5,115,177.4c-1.9,4.5-7.3,6.6-12,4.8c-3.2-1.3-5.5-4.2-5.7-7.6
		c2.2-36.6-13.2-72-41.4-95.3c0.3-21-16.5-38.4-37.5-38.7c-5.9-0.1-11.6,1.2-16.9,3.7c-39.5-8.2-80.1,8.1-103.1,41.3
		c-2.8,3.7-8.2,4.6-12.1,2c-3.9-2.6-5.3-7.6-3.2-11.7l0,0c11.4-20.4,28.6-37.4,49.6-48.9c7.6-5.1,9.6-15,4.8-22.5
		c-0.9-1.3-1.9-2.6-3.2-3.6C504.4,131.4,527,131,548.7,135.6z"/>
	<path class="st5" d="M541.9,194.8c9.9-13,29-15.9,42.6-6.4c0.6,0.4,1.1,0.8,1.6,1.2c13.6,11.2,15.9,30.6,5.1,44.3
		c-9.9,13-29,15.9-42.6,6.4c-0.6-0.4-1.1-0.8-1.6-1.2C533.4,227.9,531.1,208.6,541.9,194.8z"/>
	<path class="st5" d="M548.7,135.6c80.5,17.2,132.1,96.5,115,177.4c-1.9,4.5-7.3,6.6-12,4.8c-3.2-1.3-5.5-4.2-5.7-7.6
		c2.2-36.6-13.2-72-41.4-95.3c0.3-21-16.5-38.4-37.5-38.7c-5.9-0.1-11.6,1.2-16.9,3.7c-39.5-8.2-80.1,8.1-103.1,41.3
		c-2.8,3.7-8.2,4.6-12.1,2c-3.9-2.6-5.3-7.6-3.2-11.7l0,0c11.4-20.4,28.6-37.4,49.6-48.9c7.6-5.1,9.6-15,4.8-22.5
		c-0.9-1.3-1.9-2.6-3.2-3.6C504.4,131.4,527,131,548.7,135.6z"/>
	<path class="st5" d="M541.9,194.8c9.9-13,29-15.9,42.6-6.4c0.6,0.4,1.1,0.8,1.6,1.2c13.6,11.2,15.9,30.6,5.1,44.3
		c-9.9,13-29,15.9-42.6,6.4c-0.6-0.4-1.1-0.8-1.6-1.2C533.4,227.9,531.1,208.6,541.9,194.8z"/>
	<path class="st5" d="M548.7,135.6c80.5,17.2,132.1,96.5,115,177.4c-1.9,4.5-7.3,6.6-12,4.8c-3.2-1.3-5.5-4.2-5.7-7.6
		c2.2-36.6-13.2-72-41.4-95.3c0.3-21-16.5-38.4-37.5-38.7c-5.9-0.1-11.6,1.2-16.9,3.7c-39.5-8.2-80.1,8.1-103.1,41.3
		c-2.8,3.7-8.2,4.6-12.1,2c-3.9-2.6-5.3-7.6-3.2-11.7l0,0c11.4-20.4,28.6-37.4,49.6-48.9c7.6-5.1,9.6-15,4.8-22.5
		c-0.9-1.3-1.9-2.6-3.2-3.6C504.4,131.4,527,131,548.7,135.6z"/>
	<path class="st5" d="M541.9,194.8c9.9-13,29-15.9,42.6-6.4c0.6,0.4,1.1,0.8,1.6,1.2c13.6,11.2,15.9,30.6,5.1,44.3
		c-9.9,13-29,15.9-42.6,6.4c-0.6-0.4-1.1-0.8-1.6-1.2C533.4,227.9,531.1,208.6,541.9,194.8z"/>
	<path class="st6" d="M471.6,139.8c3.3-0.3,6.5,1.1,8.4,3.7c3.1,4.2,2.2,9.9-1.9,13.1c-32.7,16.4-55.6,47.4-61.6,83.6
		c-18.3,10.3-25,33.5-14.6,51.9c2.8,5.1,6.8,9.5,11.6,12.9c12.7,38.4,47,65.5,87.2,68.9c4.8,0.8,8.2,4.9,7.8,9.6
		c-0.1,4.5-3.8,8.2-8.5,8.6c-23.8,0.2-47.1-6.2-67.1-18.6c-7.8-3.9-17.4-1.1-21.5,6.4c-0.1,0.2-0.2,0.4-0.4,0.7
		c-0.7,1.4-1.2,3-1.5,4.5c-15.4-16.4-26.8-35.6-33.6-56.6C350.5,249.8,393.2,165.3,471.6,139.8z"/>
	<ellipse class="st7" cx="551.7" cy="358" rx="31.4" ry="31.5"/>
	<path class="st6" d="M410.4,253.7c9.9-13,29-15.9,42.6-6.4c0.6,0.4,1.1,0.8,1.6,1.2c13.6,11.2,15.9,30.6,5.1,44.3
		c-9.9,13-29,15.9-42.6,6.4c-0.5-0.4-1.1-0.8-1.6-1.2C401.9,286.8,399.6,267.5,410.4,253.7z"/>
	<path class="st7" d="M628.6,382c-55.1,61.4-149.4,66.4-210.6,11.3c-1.9-2.7-2.3-6.1-1-9.1c1.8-4.5,7.1-6.8,11.7-5
		c0.1,0.1,0.3,0.1,0.4,0.2c30.1,20.1,68.8,24.5,102.9,11.7c18.1,10.8,41.5,4.9,52.2-13.3c3-5.1,4.8-10.7,5.3-16.6
		c26.8-30.3,33-73.6,15.9-110.3c-1.8-4.4,0.1-9.3,4.4-11.6c4.1-2.1,9.2-0.8,11.7,3.1c12.1,20.6,18.2,44,17.5,67.6
		c0.3,8.8,7.9,15.6,17,15.4h0.1c1.6-0.1,3.2-0.4,4.7-0.9C654.5,345.6,643.5,365.2,628.6,382z"/>
	<g>
		<path class="st5" d="M548.7,135.6c80.5,17.2,132.1,96.5,115,177.4c-1.9,4.5-7.3,6.6-12,4.8c-3.2-1.3-5.5-4.2-5.7-7.6
			c2.2-36.6-13.2-72-41.4-95.3c0.3-21-16.5-38.4-37.5-38.7c-5.9-0.1-11.6,1.2-16.9,3.7c-39.5-8.2-80.1,8.1-103.1,41.3
			c-2.8,3.7-8.2,4.6-12.1,2c-3.9-2.6-5.3-7.6-3.2-11.7l0,0c11.4-20.4,28.6-37.4,49.6-48.9c7.6-5.1,9.6-15,4.8-22.5
			c-0.9-1.3-1.9-2.6-3.2-3.6C504.4,131.4,527,131,548.7,135.6z"/>
		<path class="st5" d="M541.9,194.8c9.9-13,29-15.9,42.6-6.4c0.6,0.4,1.1,0.8,1.6,1.2c13.6,11.2,15.9,30.6,5.1,44.3
			c-9.9,13-29,15.9-42.6,6.4c-0.6-0.4-1.1-0.8-1.6-1.2C533.4,227.9,531.1,208.6,541.9,194.8z"/>
		<path class="st5" d="M548.7,135.6c80.5,17.2,132.1,96.5,115,177.4c-1.9,4.5-7.3,6.6-12,4.8c-3.2-1.3-5.5-4.2-5.7-7.6
			c2.2-36.6-13.2-72-41.4-95.3c0.3-21-16.5-38.4-37.5-38.7c-5.9-0.1-11.6,1.2-16.9,3.7c-39.5-8.2-80.1,8.1-103.1,41.3
			c-2.8,3.7-8.2,4.6-12.1,2c-3.9-2.6-5.3-7.6-3.2-11.7l0,0c11.4-20.4,28.6-37.4,49.6-48.9c7.6-5.1,9.6-15,4.8-22.5
			c-0.9-1.3-1.9-2.6-3.2-3.6C504.4,131.4,527,131,548.7,135.6z"/>
		<path class="st5" d="M541.9,194.8c9.9-13,29-15.9,42.6-6.4c0.6,0.4,1.1,0.8,1.6,1.2c13.6,11.2,15.9,30.6,5.1,44.3
			c-9.9,13-29,15.9-42.6,6.4c-0.6-0.4-1.1-0.8-1.6-1.2C533.4,227.9,531.1,208.6,541.9,194.8z"/>
		<path class="st5" d="M548.7,135.6c80.5,17.2,132.1,96.5,115,177.4c-1.9,4.5-7.3,6.6-12,4.8c-3.2-1.3-5.5-4.2-5.7-7.6
			c2.2-36.6-13.2-72-41.4-95.3c0.3-21-16.5-38.4-37.5-38.7c-5.9-0.1-11.6,1.2-16.9,3.7c-39.5-8.2-80.1,8.1-103.1,41.3
			c-2.8,3.7-8.2,4.6-12.1,2c-3.9-2.6-5.3-7.6-3.2-11.7l0,0c11.4-20.4,28.6-37.4,49.6-48.9c7.6-5.1,9.6-15,4.8-22.5
			c-0.9-1.3-1.9-2.6-3.2-3.6C504.4,131.4,527,131,548.7,135.6z"/>
		<path class="st5" d="M541.9,194.8c9.9-13,29-15.9,42.6-6.4c0.6,0.4,1.1,0.8,1.6,1.2c13.6,11.2,15.9,30.6,5.1,44.3
			c-9.9,13-29,15.9-42.6,6.4c-0.6-0.4-1.1-0.8-1.6-1.2C533.4,227.9,531.1,208.6,541.9,194.8z"/>
		<path class="st5" d="M548.7,135.6c80.5,17.2,132.1,96.5,115,177.4c-1.9,4.5-7.3,6.6-12,4.8c-3.2-1.3-5.5-4.2-5.7-7.6
			c2.2-36.6-13.2-72-41.4-95.3c0.3-21-16.5-38.4-37.5-38.7c-5.9-0.1-11.6,1.2-16.9,3.7c-39.5-8.2-80.1,8.1-103.1,41.3
			c-2.8,3.7-8.2,4.6-12.1,2c-3.9-2.6-5.3-7.6-3.2-11.7l0,0c11.4-20.4,28.6-37.4,49.6-48.9c7.6-5.1,9.6-15,4.8-22.5
			c-0.9-1.3-1.9-2.6-3.2-3.6C504.4,131.4,527,131,548.7,135.6z"/>
		<path class="st5" d="M541.9,194.8c9.9-13,29-15.9,42.6-6.4c0.6,0.4,1.1,0.8,1.6,1.2c13.6,11.2,15.9,30.6,5.1,44.3
			c-9.9,13-29,15.9-42.6,6.4c-0.6-0.4-1.1-0.8-1.6-1.2C533.4,227.9,531.1,208.6,541.9,194.8z"/>
		<path class="st5" d="M548.7,135.6c80.5,17.2,132.1,96.5,115,177.4c-1.9,4.5-7.3,6.6-12,4.8c-3.2-1.3-5.5-4.2-5.7-7.6
			c2.2-36.6-13.2-72-41.4-95.3c0.3-21-16.5-38.4-37.5-38.7c-5.9-0.1-11.6,1.2-16.9,3.7c-39.5-8.2-80.1,8.1-103.1,41.3
			c-2.8,3.7-8.2,4.6-12.1,2c-3.9-2.6-5.3-7.6-3.2-11.7l0,0c11.4-20.4,28.6-37.4,49.6-48.9c7.6-5.1,9.6-15,4.8-22.5
			c-0.9-1.3-1.9-2.6-3.2-3.6C504.4,131.4,527,131,548.7,135.6z"/>
		<path class="st5" d="M541.9,194.8c9.9-13,29-15.9,42.6-6.4c0.6,0.4,1.1,0.8,1.6,1.2c13.6,11.2,15.9,30.6,5.1,44.3
			c-9.9,13-29,15.9-42.6,6.4c-0.6-0.4-1.1-0.8-1.6-1.2C533.4,227.9,531.1,208.6,541.9,194.8z"/>
		<path class="st5" d="M548.7,135.6c80.5,17.2,132.1,96.5,115,177.4c-1.9,4.5-7.3,6.6-12,4.8c-3.2-1.3-5.5-4.2-5.7-7.6
			c2.2-36.6-13.2-72-41.4-95.3c0.3-21-16.5-38.4-37.5-38.7c-5.9-0.1-11.6,1.2-16.9,3.7c-39.5-8.2-80.1,8.1-103.1,41.3
			c-2.8,3.7-8.2,4.6-12.1,2c-3.9-2.6-5.3-7.6-3.2-11.7l0,0c11.4-20.4,28.6-37.4,49.6-48.9c7.6-5.1,9.6-15,4.8-22.5
			c-0.9-1.3-1.9-2.6-3.2-3.6C504.4,131.4,527,131,548.7,135.6z"/>
		<path class="st5" d="M541.9,194.8c9.9-13,29-15.9,42.6-6.4c0.6,0.4,1.1,0.8,1.6,1.2c13.6,11.2,15.9,30.6,5.1,44.3
			c-9.9,13-29,15.9-42.6,6.4c-0.6-0.4-1.1-0.8-1.6-1.2C533.4,227.9,531.1,208.6,541.9,194.8z"/>
		<path class="st6" d="M471.6,139.8c3.3-0.3,6.5,1.1,8.4,3.7c3.1,4.2,2.2,9.9-1.9,13.1c-32.7,16.4-55.6,47.4-61.6,83.6
			c-18.3,10.3-25,33.5-14.6,51.9c2.8,5.1,6.8,9.5,11.6,12.9c12.7,38.4,47,65.5,87.2,68.9c4.8,0.8,8.2,4.9,7.8,9.6
			c-0.1,4.5-3.8,8.2-8.5,8.6c-23.8,0.2-47.1-6.2-67.1-18.6c-7.8-3.9-17.4-1.1-21.5,6.4c-0.1,0.2-0.2,0.4-0.4,0.7
			c-0.7,1.4-1.2,3-1.5,4.5c-15.4-16.4-26.8-35.6-33.6-56.6C350.5,249.8,393.2,165.3,471.6,139.8z"/>
		<ellipse class="st7" cx="551.7" cy="358" rx="31.4" ry="31.5"/>
		<path class="st6" d="M410.4,253.7c9.9-13,29-15.9,42.6-6.4c0.6,0.4,1.1,0.8,1.6,1.2c13.6,11.2,15.9,30.6,5.1,44.3
			c-9.9,13-29,15.9-42.6,6.4c-0.5-0.4-1.1-0.8-1.6-1.2C401.9,286.8,399.6,267.5,410.4,253.7z"/>
		<path class="st7" d="M628.6,382c-55.1,61.4-149.4,66.4-210.6,11.3c-1.9-2.7-2.3-6.1-1-9.1c1.8-4.5,7.1-6.8,11.7-5
			c0.1,0.1,0.3,0.1,0.4,0.2c30.1,20.1,68.8,24.5,102.9,11.7c18.1,10.8,41.5,4.9,52.2-13.3c3-5.1,4.8-10.7,5.3-16.6
			c26.8-30.3,33-73.6,15.9-110.3c-1.8-4.4,0.1-9.3,4.4-11.6c4.1-2.1,9.2-0.8,11.7,3.1c12.1,20.6,18.2,44,17.5,67.6
			c0.3,8.8,7.9,15.6,17,15.4h0.1c1.6-0.1,3.2-0.4,4.7-0.9C654.5,345.6,643.5,365.2,628.6,382z"/>
		<path class="st5" d="M548.7,135.6c80.5,17.2,132.1,96.5,115,177.4c-1.9,4.5-7.3,6.6-12,4.8c-3.2-1.3-5.5-4.2-5.7-7.6
			c2.2-36.6-13.2-72-41.4-95.3c0.3-21-16.5-38.4-37.5-38.7c-5.9-0.1-11.6,1.2-16.9,3.7c-39.5-8.2-80.1,8.1-103.1,41.3
			c-2.8,3.7-8.2,4.6-12.1,2c-3.9-2.6-5.3-7.6-3.2-11.7l0,0c11.4-20.4,28.6-37.4,49.6-48.9c7.6-5.1,9.6-15,4.8-22.5
			c-0.9-1.3-1.9-2.6-3.2-3.6C504.4,131.4,527,131,548.7,135.6z"/>
		<path class="st5" d="M541.9,194.8c9.9-13,29-15.9,42.6-6.4c0.6,0.4,1.1,0.8,1.6,1.2c13.6,11.2,15.9,30.6,5.1,44.3
			c-9.9,13-29,15.9-42.6,6.4c-0.6-0.4-1.1-0.8-1.6-1.2C533.4,227.9,531.1,208.6,541.9,194.8z"/>
		<path class="st5" d="M548.7,135.6c80.5,17.2,132.1,96.5,115,177.4c-1.9,4.5-7.3,6.6-12,4.8c-3.2-1.3-5.5-4.2-5.7-7.6
			c2.2-36.6-13.2-72-41.4-95.3c0.3-21-16.5-38.4-37.5-38.7c-5.9-0.1-11.6,1.2-16.9,3.7c-39.5-8.2-80.1,8.1-103.1,41.3
			c-2.8,3.7-8.2,4.6-12.1,2c-3.9-2.6-5.3-7.6-3.2-11.7l0,0c11.4-20.4,28.6-37.4,49.6-48.9c7.6-5.1,9.6-15,4.8-22.5
			c-0.9-1.3-1.9-2.6-3.2-3.6C504.4,131.4,527,131,548.7,135.6z"/>
		<path class="st5" d="M541.9,194.8c9.9-13,29-15.9,42.6-6.4c0.6,0.4,1.1,0.8,1.6,1.2c13.6,11.2,15.9,30.6,5.1,44.3
			c-9.9,13-29,15.9-42.6,6.4c-0.6-0.4-1.1-0.8-1.6-1.2C533.4,227.9,531.1,208.6,541.9,194.8z"/>
		<path class="st5" d="M548.7,135.6c80.5,17.2,132.1,96.5,115,177.4c-1.9,4.5-7.3,6.6-12,4.8c-3.2-1.3-5.5-4.2-5.7-7.6
			c2.2-36.6-13.2-72-41.4-95.3c0.3-21-16.5-38.4-37.5-38.7c-5.9-0.1-11.6,1.2-16.9,3.7c-39.5-8.2-80.1,8.1-103.1,41.3
			c-2.8,3.7-8.2,4.6-12.1,2c-3.9-2.6-5.3-7.6-3.2-11.7l0,0c11.4-20.4,28.6-37.4,49.6-48.9c7.6-5.1,9.6-15,4.8-22.5
			c-0.9-1.3-1.9-2.6-3.2-3.6C504.4,131.4,527,131,548.7,135.6z"/>
		<path class="st5" d="M541.9,194.8c9.9-13,29-15.9,42.6-6.4c0.6,0.4,1.1,0.8,1.6,1.2c13.6,11.2,15.9,30.6,5.1,44.3
			c-9.9,13-29,15.9-42.6,6.4c-0.6-0.4-1.1-0.8-1.6-1.2C533.4,227.9,531.1,208.6,541.9,194.8z"/>
		<path class="st5" d="M548.7,135.6c80.5,17.2,132.1,96.5,115,177.4c-1.9,4.5-7.3,6.6-12,4.8c-3.2-1.3-5.5-4.2-5.7-7.6
			c2.2-36.6-13.2-72-41.4-95.3c0.3-21-16.5-38.4-37.5-38.7c-5.9-0.1-11.6,1.2-16.9,3.7c-39.5-8.2-80.1,8.1-103.1,41.3
			c-2.8,3.7-8.2,4.6-12.1,2c-3.9-2.6-5.3-7.6-3.2-11.7l0,0c11.4-20.4,28.6-37.4,49.6-48.9c7.6-5.1,9.6-15,4.8-22.5
			c-0.9-1.3-1.9-2.6-3.2-3.6C504.4,131.4,527,131,548.7,135.6z"/>
		<path class="st5" d="M541.9,194.8c9.9-13,29-15.9,42.6-6.4c0.6,0.4,1.1,0.8,1.6,1.2c13.6,11.2,15.9,30.6,5.1,44.3
			c-9.9,13-29,15.9-42.6,6.4c-0.6-0.4-1.1-0.8-1.6-1.2C533.4,227.9,531.1,208.6,541.9,194.8z"/>
		<path class="st5" d="M548.7,135.6c80.5,17.2,132.1,96.5,115,177.4c-1.9,4.5-7.3,6.6-12,4.8c-3.2-1.3-5.5-4.2-5.7-7.6
			c2.2-36.6-13.2-72-41.4-95.3c0.3-21-16.5-38.4-37.5-38.7c-5.9-0.1-11.6,1.2-16.9,3.7c-39.5-8.2-80.1,8.1-103.1,41.3
			c-2.8,3.7-8.2,4.6-12.1,2c-3.9-2.6-5.3-7.6-3.2-11.7l0,0c11.4-20.4,28.6-37.4,49.6-48.9c7.6-5.1,9.6-15,4.8-22.5
			c-0.9-1.3-1.9-2.6-3.2-3.6C504.4,131.4,527,131,548.7,135.6z"/>
		<path class="st5" d="M541.9,194.8c9.9-13,29-15.9,42.6-6.4c0.6,0.4,1.1,0.8,1.6,1.2c13.6,11.2,15.9,30.6,5.1,44.3
			c-9.9,13-29,15.9-42.6,6.4c-0.6-0.4-1.1-0.8-1.6-1.2C533.4,227.9,531.1,208.6,541.9,194.8z"/>
		<path class="st5" d="M548.7,135.6c80.5,17.2,132.1,96.5,115,177.4c-1.9,4.5-7.3,6.6-12,4.8c-3.2-1.3-5.5-4.2-5.7-7.6
			c2.2-36.6-13.2-72-41.4-95.3c0.3-21-16.5-38.4-37.5-38.7c-5.9-0.1-11.6,1.2-16.9,3.7c-39.5-8.2-80.1,8.1-103.1,41.3
			c-2.8,3.7-8.2,4.6-12.1,2c-3.9-2.6-5.3-7.6-3.2-11.7l0,0c11.4-20.4,28.6-37.4,49.6-48.9c7.6-5.1,9.6-15,4.8-22.5
			c-0.9-1.3-1.9-2.6-3.2-3.6C504.4,131.4,527,131,548.7,135.6z"/>
		<path class="st5" d="M541.9,194.8c9.9-13,29-15.9,42.6-6.4c0.6,0.4,1.1,0.8,1.6,1.2c13.6,11.2,15.9,30.6,5.1,44.3
			c-9.9,13-29,15.9-42.6,6.4c-0.6-0.4-1.1-0.8-1.6-1.2C533.4,227.9,531.1,208.6,541.9,194.8z"/>
		<path class="st6" d="M471.6,139.8c3.3-0.3,6.5,1.1,8.4,3.7c3.1,4.2,2.2,9.9-1.9,13.1c-32.7,16.4-55.6,47.4-61.6,83.6
			c-18.3,10.3-25,33.5-14.6,51.9c2.8,5.1,6.8,9.5,11.6,12.9c12.7,38.4,47,65.5,87.2,68.9c4.8,0.8,8.2,4.9,7.8,9.6
			c-0.1,4.5-3.8,8.2-8.5,8.6c-23.8,0.2-47.1-6.2-67.1-18.6c-7.8-3.9-17.4-1.1-21.5,6.4c-0.1,0.2-0.2,0.4-0.4,0.7
			c-0.7,1.4-1.2,3-1.5,4.5c-15.4-16.4-26.8-35.6-33.6-56.6C350.5,249.8,393.2,165.3,471.6,139.8z"/>
		<ellipse class="st7" cx="551.7" cy="358" rx="31.4" ry="31.5"/>
		<path class="st6" d="M410.4,253.7c9.9-13,29-15.9,42.6-6.4c0.6,0.4,1.1,0.8,1.6,1.2c13.6,11.2,15.9,30.6,5.1,44.3
			c-9.9,13-29,15.9-42.6,6.4c-0.5-0.4-1.1-0.8-1.6-1.2C401.9,286.8,399.6,267.5,410.4,253.7z"/>
		<path class="st7" d="M628.6,382c-55.1,61.4-149.4,66.4-210.6,11.3c-1.9-2.7-2.3-6.1-1-9.1c1.8-4.5,7.1-6.8,11.7-5
			c0.1,0.1,0.3,0.1,0.4,0.2c30.1,20.1,68.8,24.5,102.9,11.7c18.1,10.8,41.5,4.9,52.2-13.3c3-5.1,4.8-10.7,5.3-16.6
			c26.8-30.3,33-73.6,15.9-110.3c-1.8-4.4,0.1-9.3,4.4-11.6c4.1-2.1,9.2-0.8,11.7,3.1c12.1,20.6,18.2,44,17.5,67.6
			c0.3,8.8,7.9,15.6,17,15.4h0.1c1.6-0.1,3.2-0.4,4.7-0.9C654.5,345.6,643.5,365.2,628.6,382z"/>
		<path class="st5" d="M548.7,135.6c80.5,17.2,132.1,96.5,115,177.4c-1.9,4.5-7.3,6.6-12,4.8c-3.2-1.3-5.5-4.2-5.7-7.6
			c2.2-36.6-13.2-72-41.4-95.3c0.3-21-16.5-38.4-37.5-38.7c-5.9-0.1-11.6,1.2-16.9,3.7c-39.5-8.2-80.1,8.1-103.1,41.3
			c-2.8,3.7-8.2,4.6-12.1,2c-3.9-2.6-5.3-7.6-3.2-11.7l0,0c11.4-20.4,28.6-37.4,49.6-48.9c7.6-5.1,9.6-15,4.8-22.5
			c-0.9-1.3-1.9-2.6-3.2-3.6C504.4,131.4,527,131,548.7,135.6z"/>
		<path class="st5" d="M541.9,194.8c9.9-13,29-15.9,42.6-6.4c0.6,0.4,1.1,0.8,1.6,1.2c13.6,11.2,15.9,30.6,5.1,44.3
			c-9.9,13-29,15.9-42.6,6.4c-0.6-0.4-1.1-0.8-1.6-1.2C533.4,227.9,531.1,208.6,541.9,194.8z"/>
		<path class="st5" d="M548.7,135.6c80.5,17.2,132.1,96.5,115,177.4c-1.9,4.5-7.3,6.6-12,4.8c-3.2-1.3-5.5-4.2-5.7-7.6
			c2.2-36.6-13.2-72-41.4-95.3c0.3-21-16.5-38.4-37.5-38.7c-5.9-0.1-11.6,1.2-16.9,3.7c-39.5-8.2-80.1,8.1-103.1,41.3
			c-2.8,3.7-8.2,4.6-12.1,2c-3.9-2.6-5.3-7.6-3.2-11.7l0,0c11.4-20.4,28.6-37.4,49.6-48.9c7.6-5.1,9.6-15,4.8-22.5
			c-0.9-1.3-1.9-2.6-3.2-3.6C504.4,131.4,527,131,548.7,135.6z"/>
		<path class="st5" d="M541.9,194.8c9.9-13,29-15.9,42.6-6.4c0.6,0.4,1.1,0.8,1.6,1.2c13.6,11.2,15.9,30.6,5.1,44.3
			c-9.9,13-29,15.9-42.6,6.4c-0.6-0.4-1.1-0.8-1.6-1.2C533.4,227.9,531.1,208.6,541.9,194.8z"/>
		<path class="st5" d="M548.7,135.6c80.5,17.2,132.1,96.5,115,177.4c-1.9,4.5-7.3,6.6-12,4.8c-3.2-1.3-5.5-4.2-5.7-7.6
			c2.2-36.6-13.2-72-41.4-95.3c0.3-21-16.5-38.4-37.5-38.7c-5.9-0.1-11.6,1.2-16.9,3.7c-39.5-8.2-80.1,8.1-103.1,41.3
			c-2.8,3.7-8.2,4.6-12.1,2c-3.9-2.6-5.3-7.6-3.2-11.7l0,0c11.4-20.4,28.6-37.4,49.6-48.9c7.6-5.1,9.6-15,4.8-22.5
			c-0.9-1.3-1.9-2.6-3.2-3.6C504.4,131.4,527,131,548.7,135.6z"/>
		<path class="st5" d="M541.9,194.8c9.9-13,29-15.9,42.6-6.4c0.6,0.4,1.1,0.8,1.6,1.2c13.6,11.2,15.9,30.6,5.1,44.3
			c-9.9,13-29,15.9-42.6,6.4c-0.6-0.4-1.1-0.8-1.6-1.2C533.4,227.9,531.1,208.6,541.9,194.8z"/>
		<path class="st5" d="M548.7,135.6c80.5,17.2,132.1,96.5,115,177.4c-1.9,4.5-7.3,6.6-12,4.8c-3.2-1.3-5.5-4.2-5.7-7.6
			c2.2-36.6-13.2-72-41.4-95.3c0.3-21-16.5-38.4-37.5-38.7c-5.9-0.1-11.6,1.2-16.9,3.7c-39.5-8.2-80.1,8.1-103.1,41.3
			c-2.8,3.7-8.2,4.6-12.1,2c-3.9-2.6-5.3-7.6-3.2-11.7l0,0c11.4-20.4,28.6-37.4,49.6-48.9c7.6-5.1,9.6-15,4.8-22.5
			c-0.9-1.3-1.9-2.6-3.2-3.6C504.4,131.4,527,131,548.7,135.6z"/>
		<path class="st5" d="M541.9,194.8c9.9-13,29-15.9,42.6-6.4c0.6,0.4,1.1,0.8,1.6,1.2c13.6,11.2,15.9,30.6,5.1,44.3
			c-9.9,13-29,15.9-42.6,6.4c-0.6-0.4-1.1-0.8-1.6-1.2C533.4,227.9,531.1,208.6,541.9,194.8z"/>
		<path class="st5" d="M548.7,135.6c80.5,17.2,132.1,96.5,115,177.4c-1.9,4.5-7.3,6.6-12,4.8c-3.2-1.3-5.5-4.2-5.7-7.6
			c2.2-36.6-13.2-72-41.4-95.3c0.3-21-16.5-38.4-37.5-38.7c-5.9-0.1-11.6,1.2-16.9,3.7c-39.5-8.2-80.1,8.1-103.1,41.3
			c-2.8,3.7-8.2,4.6-12.1,2c-3.9-2.6-5.3-7.6-3.2-11.7l0,0c11.4-20.4,28.6-37.4,49.6-48.9c7.6-5.1,9.6-15,4.8-22.5
			c-0.9-1.3-1.9-2.6-3.2-3.6C504.4,131.4,527,131,548.7,135.6z"/>
		<path class="st5" d="M541.9,194.8c9.9-13,29-15.9,42.6-6.4c0.6,0.4,1.1,0.8,1.6,1.2c13.6,11.2,15.9,30.6,5.1,44.3
			c-9.9,13-29,15.9-42.6,6.4c-0.6-0.4-1.1-0.8-1.6-1.2C533.4,227.9,531.1,208.6,541.9,194.8z"/>
		<path class="st5" d="M548.7,135.6c80.5,17.2,132.1,96.5,115,177.4c-1.9,4.5-7.3,6.6-12,4.8c-3.2-1.3-5.5-4.2-5.7-7.6
			c2.2-36.6-13.2-72-41.4-95.3c0.3-21-16.5-38.4-37.5-38.7c-5.9-0.1-11.6,1.2-16.9,3.7c-39.5-8.2-80.1,8.1-103.1,41.3
			c-2.8,3.7-8.2,4.6-12.1,2c-3.9-2.6-5.3-7.6-3.2-11.7l0,0c11.4-20.4,28.6-37.4,49.6-48.9c7.6-5.1,9.6-15,4.8-22.5
			c-0.9-1.3-1.9-2.6-3.2-3.6C504.4,131.4,527,131,548.7,135.6z"/>
		<path class="st5" d="M541.9,194.8c9.9-13,29-15.9,42.6-6.4c0.6,0.4,1.1,0.8,1.6,1.2c13.6,11.2,15.9,30.6,5.1,44.3
			c-9.9,13-29,15.9-42.6,6.4c-0.6-0.4-1.1-0.8-1.6-1.2C533.4,227.9,531.1,208.6,541.9,194.8z"/>
		<path class="st6" d="M471.6,139.8c3.3-0.3,6.5,1.1,8.4,3.7c3.1,4.2,2.2,9.9-1.9,13.1c-32.7,16.4-55.6,47.4-61.6,83.6
			c-18.3,10.3-25,33.5-14.6,51.9c2.8,5.1,6.8,9.5,11.6,12.9c12.7,38.4,47,65.5,87.2,68.9c4.8,0.8,8.2,4.9,7.8,9.6
			c-0.1,4.5-3.8,8.2-8.5,8.6c-23.8,0.2-47.1-6.2-67.1-18.6c-7.8-3.9-17.4-1.1-21.5,6.4c-0.1,0.2-0.2,0.4-0.4,0.7
			c-0.7,1.4-1.2,3-1.5,4.5c-15.4-16.4-26.8-35.6-33.6-56.6C350.5,249.8,393.2,165.3,471.6,139.8z"/>
		<ellipse class="st7" cx="551.7" cy="358" rx="31.4" ry="31.5"/>
		<path class="st6" d="M410.4,253.7c9.9-13,29-15.9,42.6-6.4c0.6,0.4,1.1,0.8,1.6,1.2c13.6,11.2,15.9,30.6,5.1,44.3
			c-9.9,13-29,15.9-42.6,6.4c-0.5-0.4-1.1-0.8-1.6-1.2C401.9,286.8,399.6,267.5,410.4,253.7z"/>
		<path class="st7" d="M628.6,382c-55.1,61.4-149.4,66.4-210.6,11.3c-1.9-2.7-2.3-6.1-1-9.1c1.8-4.5,7.1-6.8,11.7-5
			c0.1,0.1,0.3,0.1,0.4,0.2c30.1,20.1,68.8,24.5,102.9,11.7c18.1,10.8,41.5,4.9,52.2-13.3c3-5.1,4.8-10.7,5.3-16.6
			c26.8-30.3,33-73.6,15.9-110.3c-1.8-4.4,0.1-9.3,4.4-11.6c4.1-2.1,9.2-0.8,11.7,3.1c12.1,20.6,18.2,44,17.5,67.6
			c0.3,8.8,7.9,15.6,17,15.4h0.1c1.6-0.1,3.2-0.4,4.7-0.9C654.5,345.6,643.5,365.2,628.6,382z"/>
		<path class="st5" d="M548.7,135.6c80.5,17.2,132.1,96.5,115,177.4c-1.9,4.5-7.3,6.6-12,4.8c-3.2-1.3-5.5-4.2-5.7-7.6
			c2.2-36.6-13.2-72-41.4-95.3c0.3-21-16.5-38.4-37.5-38.7c-5.9-0.1-11.6,1.2-16.9,3.7c-39.5-8.2-80.1,8.1-103.1,41.3
			c-2.8,3.7-8.2,4.6-12.1,2c-3.9-2.6-5.3-7.6-3.2-11.7l0,0c11.4-20.4,28.6-37.4,49.6-48.9c7.6-5.1,9.6-15,4.8-22.5
			c-0.9-1.3-1.9-2.6-3.2-3.6C504.4,131.4,527,131,548.7,135.6z"/>
		<path class="st5" d="M541.9,194.8c9.9-13,29-15.9,42.6-6.4c0.6,0.4,1.1,0.8,1.6,1.2c13.6,11.2,15.9,30.6,5.1,44.3
			c-9.9,13-29,15.9-42.6,6.4c-0.6-0.4-1.1-0.8-1.6-1.2C533.4,227.9,531.1,208.6,541.9,194.8z"/>
		<path class="st5" d="M548.7,135.6c80.5,17.2,132.1,96.5,115,177.4c-1.9,4.5-7.3,6.6-12,4.8c-3.2-1.3-5.5-4.2-5.7-7.6
			c2.2-36.6-13.2-72-41.4-95.3c0.3-21-16.5-38.4-37.5-38.7c-5.9-0.1-11.6,1.2-16.9,3.7c-39.5-8.2-80.1,8.1-103.1,41.3
			c-2.8,3.7-8.2,4.6-12.1,2c-3.9-2.6-5.3-7.6-3.2-11.7l0,0c11.4-20.4,28.6-37.4,49.6-48.9c7.6-5.1,9.6-15,4.8-22.5
			c-0.9-1.3-1.9-2.6-3.2-3.6C504.4,131.4,527,131,548.7,135.6z"/>
		<path class="st5" d="M541.9,194.8c9.9-13,29-15.9,42.6-6.4c0.6,0.4,1.1,0.8,1.6,1.2c13.6,11.2,15.9,30.6,5.1,44.3
			c-9.9,13-29,15.9-42.6,6.4c-0.6-0.4-1.1-0.8-1.6-1.2C533.4,227.9,531.1,208.6,541.9,194.8z"/>
		<path class="st5" d="M548.7,135.6c80.5,17.2,132.1,96.5,115,177.4c-1.9,4.5-7.3,6.6-12,4.8c-3.2-1.3-5.5-4.2-5.7-7.6
			c2.2-36.6-13.2-72-41.4-95.3c0.3-21-16.5-38.4-37.5-38.7c-5.9-0.1-11.6,1.2-16.9,3.7c-39.5-8.2-80.1,8.1-103.1,41.3
			c-2.8,3.7-8.2,4.6-12.1,2c-3.9-2.6-5.3-7.6-3.2-11.7l0,0c11.4-20.4,28.6-37.4,49.6-48.9c7.6-5.1,9.6-15,4.8-22.5
			c-0.9-1.3-1.9-2.6-3.2-3.6C504.4,131.4,527,131,548.7,135.6z"/>
		<path class="st5" d="M541.9,194.8c9.9-13,29-15.9,42.6-6.4c0.6,0.4,1.1,0.8,1.6,1.2c13.6,11.2,15.9,30.6,5.1,44.3
			c-9.9,13-29,15.9-42.6,6.4c-0.6-0.4-1.1-0.8-1.6-1.2C533.4,227.9,531.1,208.6,541.9,194.8z"/>
		<path class="st5" d="M548.7,135.6c80.5,17.2,132.1,96.5,115,177.4c-1.9,4.5-7.3,6.6-12,4.8c-3.2-1.3-5.5-4.2-5.7-7.6
			c2.2-36.6-13.2-72-41.4-95.3c0.3-21-16.5-38.4-37.5-38.7c-5.9-0.1-11.6,1.2-16.9,3.7c-39.5-8.2-80.1,8.1-103.1,41.3
			c-2.8,3.7-8.2,4.6-12.1,2c-3.9-2.6-5.3-7.6-3.2-11.7l0,0c11.4-20.4,28.6-37.4,49.6-48.9c7.6-5.1,9.6-15,4.8-22.5
			c-0.9-1.3-1.9-2.6-3.2-3.6C504.4,131.4,527,131,548.7,135.6z"/>
		<path class="st5" d="M541.9,194.8c9.9-13,29-15.9,42.6-6.4c0.6,0.4,1.1,0.8,1.6,1.2c13.6,11.2,15.9,30.6,5.1,44.3
			c-9.9,13-29,15.9-42.6,6.4c-0.6-0.4-1.1-0.8-1.6-1.2C533.4,227.9,531.1,208.6,541.9,194.8z"/>
		<path class="st5" d="M548.7,135.6c80.5,17.2,132.1,96.5,115,177.4c-1.9,4.5-7.3,6.6-12,4.8c-3.2-1.3-5.5-4.2-5.7-7.6
			c2.2-36.6-13.2-72-41.4-95.3c0.3-21-16.5-38.4-37.5-38.7c-5.9-0.1-11.6,1.2-16.9,3.7c-39.5-8.2-80.1,8.1-103.1,41.3
			c-2.8,3.7-8.2,4.6-12.1,2c-3.9-2.6-5.3-7.6-3.2-11.7l0,0c11.4-20.4,28.6-37.4,49.6-48.9c7.6-5.1,9.6-15,4.8-22.5
			c-0.9-1.3-1.9-2.6-3.2-3.6C504.4,131.4,527,131,548.7,135.6z"/>
		<path class="st5" d="M541.9,194.8c9.9-13,29-15.9,42.6-6.4c0.6,0.4,1.1,0.8,1.6,1.2c13.6,11.2,15.9,30.6,5.1,44.3
			c-9.9,13-29,15.9-42.6,6.4c-0.6-0.4-1.1-0.8-1.6-1.2C533.4,227.9,531.1,208.6,541.9,194.8z"/>
		<path class="st5" d="M548.7,135.6c80.5,17.2,132.1,96.5,115,177.4c-1.9,4.5-7.3,6.6-12,4.8c-3.2-1.3-5.5-4.2-5.7-7.6
			c2.2-36.6-13.2-72-41.4-95.3c0.3-21-16.5-38.4-37.5-38.7c-5.9-0.1-11.6,1.2-16.9,3.7c-39.5-8.2-80.1,8.1-103.1,41.3
			c-2.8,3.7-8.2,4.6-12.1,2c-3.9-2.6-5.3-7.6-3.2-11.7l0,0c11.4-20.4,28.6-37.4,49.6-48.9c7.6-5.1,9.6-15,4.8-22.5
			c-0.9-1.3-1.9-2.6-3.2-3.6C504.4,131.4,527,131,548.7,135.6z"/>
		<path class="st5" d="M541.9,194.8c9.9-13,29-15.9,42.6-6.4c0.6,0.4,1.1,0.8,1.6,1.2c13.6,11.2,15.9,30.6,5.1,44.3
			c-9.9,13-29,15.9-42.6,6.4c-0.6-0.4-1.1-0.8-1.6-1.2C533.4,227.9,531.1,208.6,541.9,194.8z"/>
		<path class="st6" d="M471.6,139.8c3.3-0.3,6.5,1.1,8.4,3.7c3.1,4.2,2.2,9.9-1.9,13.1c-32.7,16.4-55.6,47.4-61.6,83.6
			c-18.3,10.3-25,33.5-14.6,51.9c2.8,5.1,6.8,9.5,11.6,12.9c12.7,38.4,47,65.5,87.2,68.9c4.8,0.8,8.2,4.9,7.8,9.6
			c-0.1,4.5-3.8,8.2-8.5,8.6c-23.8,0.2-47.1-6.2-67.1-18.6c-7.8-3.9-17.4-1.1-21.5,6.4c-0.1,0.2-0.2,0.4-0.4,0.7
			c-0.7,1.4-1.2,3-1.5,4.5c-15.4-16.4-26.8-35.6-33.6-56.6C350.5,249.8,393.2,165.3,471.6,139.8z"/>
		<ellipse class="st7" cx="551.7" cy="358" rx="31.4" ry="31.5"/>
		<path class="st6" d="M410.4,253.7c9.9-13,29-15.9,42.6-6.4c0.6,0.4,1.1,0.8,1.6,1.2c13.6,11.2,15.9,30.6,5.1,44.3
			c-9.9,13-29,15.9-42.6,6.4c-0.5-0.4-1.1-0.8-1.6-1.2C401.9,286.8,399.6,267.5,410.4,253.7z"/>
		<path class="st7" d="M628.6,382c-55.1,61.4-149.4,66.4-210.6,11.3c-1.9-2.7-2.3-6.1-1-9.1c1.8-4.5,7.1-6.8,11.7-5
			c0.1,0.1,0.3,0.1,0.4,0.2c30.1,20.1,68.8,24.5,102.9,11.7c18.1,10.8,41.5,4.9,52.2-13.3c3-5.1,4.8-10.7,5.3-16.6
			c26.8-30.3,33-73.6,15.9-110.3c-1.8-4.4,0.1-9.3,4.4-11.6c4.1-2.1,9.2-0.8,11.7,3.1c12.1,20.6,18.2,44,17.5,67.6
			c0.3,8.8,7.9,15.6,17,15.4h0.1c1.6-0.1,3.2-0.4,4.7-0.9C654.5,345.6,643.5,365.2,628.6,382z"/>
		<path class="st5" d="M548.7,135.6c80.5,17.2,132.1,96.5,115,177.4c-1.9,4.5-7.3,6.6-12,4.8c-3.2-1.3-5.5-4.2-5.7-7.6
			c2.2-36.6-13.2-72-41.4-95.3c0.3-21-16.5-38.4-37.5-38.7c-5.9-0.1-11.6,1.2-16.9,3.7c-39.5-8.2-80.1,8.1-103.1,41.3
			c-2.8,3.7-8.2,4.6-12.1,2c-3.9-2.6-5.3-7.6-3.2-11.7l0,0c11.4-20.4,28.6-37.4,49.6-48.9c7.6-5.1,9.6-15,4.8-22.5
			c-0.9-1.3-1.9-2.6-3.2-3.6C504.4,131.4,527,131,548.7,135.6z"/>
		<path class="st5" d="M541.9,194.8c9.9-13,29-15.9,42.6-6.4c0.6,0.4,1.1,0.8,1.6,1.2c13.6,11.2,15.9,30.6,5.1,44.3
			c-9.9,13-29,15.9-42.6,6.4c-0.6-0.4-1.1-0.8-1.6-1.2C533.4,227.9,531.1,208.6,541.9,194.8z"/>
		<path class="st5" d="M548.7,135.6c80.5,17.2,132.1,96.5,115,177.4c-1.9,4.5-7.3,6.6-12,4.8c-3.2-1.3-5.5-4.2-5.7-7.6
			c2.2-36.6-13.2-72-41.4-95.3c0.3-21-16.5-38.4-37.5-38.7c-5.9-0.1-11.6,1.2-16.9,3.7c-39.5-8.2-80.1,8.1-103.1,41.3
			c-2.8,3.7-8.2,4.6-12.1,2c-3.9-2.6-5.3-7.6-3.2-11.7l0,0c11.4-20.4,28.6-37.4,49.6-48.9c7.6-5.1,9.6-15,4.8-22.5
			c-0.9-1.3-1.9-2.6-3.2-3.6C504.4,131.4,527,131,548.7,135.6z"/>
		<path class="st5" d="M541.9,194.8c9.9-13,29-15.9,42.6-6.4c0.6,0.4,1.1,0.8,1.6,1.2c13.6,11.2,15.9,30.6,5.1,44.3
			c-9.9,13-29,15.9-42.6,6.4c-0.6-0.4-1.1-0.8-1.6-1.2C533.4,227.9,531.1,208.6,541.9,194.8z"/>
		<path class="st5" d="M548.7,135.6c80.5,17.2,132.1,96.5,115,177.4c-1.9,4.5-7.3,6.6-12,4.8c-3.2-1.3-5.5-4.2-5.7-7.6
			c2.2-36.6-13.2-72-41.4-95.3c0.3-21-16.5-38.4-37.5-38.7c-5.9-0.1-11.6,1.2-16.9,3.7c-39.5-8.2-80.1,8.1-103.1,41.3
			c-2.8,3.7-8.2,4.6-12.1,2c-3.9-2.6-5.3-7.6-3.2-11.7l0,0c11.4-20.4,28.6-37.4,49.6-48.9c7.6-5.1,9.6-15,4.8-22.5
			c-0.9-1.3-1.9-2.6-3.2-3.6C504.4,131.4,527,131,548.7,135.6z"/>
		<path class="st5" d="M541.9,194.8c9.9-13,29-15.9,42.6-6.4c0.6,0.4,1.1,0.8,1.6,1.2c13.6,11.2,15.9,30.6,5.1,44.3
			c-9.9,13-29,15.9-42.6,6.4c-0.6-0.4-1.1-0.8-1.6-1.2C533.4,227.9,531.1,208.6,541.9,194.8z"/>
		<path class="st5" d="M548.7,135.6c80.5,17.2,132.1,96.5,115,177.4c-1.9,4.5-7.3,6.6-12,4.8c-3.2-1.3-5.5-4.2-5.7-7.6
			c2.2-36.6-13.2-72-41.4-95.3c0.3-21-16.5-38.4-37.5-38.7c-5.9-0.1-11.6,1.2-16.9,3.7c-39.5-8.2-80.1,8.1-103.1,41.3
			c-2.8,3.7-8.2,4.6-12.1,2c-3.9-2.6-5.3-7.6-3.2-11.7l0,0c11.4-20.4,28.6-37.4,49.6-48.9c7.6-5.1,9.6-15,4.8-22.5
			c-0.9-1.3-1.9-2.6-3.2-3.6C504.4,131.4,527,131,548.7,135.6z"/>
		<path class="st5" d="M541.9,194.8c9.9-13,29-15.9,42.6-6.4c0.6,0.4,1.1,0.8,1.6,1.2c13.6,11.2,15.9,30.6,5.1,44.3
			c-9.9,13-29,15.9-42.6,6.4c-0.6-0.4-1.1-0.8-1.6-1.2C533.4,227.9,531.1,208.6,541.9,194.8z"/>
		<path class="st5" d="M548.7,135.6c80.5,17.2,132.1,96.5,115,177.4c-1.9,4.5-7.3,6.6-12,4.8c-3.2-1.3-5.5-4.2-5.7-7.6
			c2.2-36.6-13.2-72-41.4-95.3c0.3-21-16.5-38.4-37.5-38.7c-5.9-0.1-11.6,1.2-16.9,3.7c-39.5-8.2-80.1,8.1-103.1,41.3
			c-2.8,3.7-8.2,4.6-12.1,2c-3.9-2.6-5.3-7.6-3.2-11.7l0,0c11.4-20.4,28.6-37.4,49.6-48.9c7.6-5.1,9.6-15,4.8-22.5
			c-0.9-1.3-1.9-2.6-3.2-3.6C504.4,131.4,527,131,548.7,135.6z"/>
		<path class="st5" d="M541.9,194.8c9.9-13,29-15.9,42.6-6.4c0.6,0.4,1.1,0.8,1.6,1.2c13.6,11.2,15.9,30.6,5.1,44.3
			c-9.9,13-29,15.9-42.6,6.4c-0.6-0.4-1.1-0.8-1.6-1.2C533.4,227.9,531.1,208.6,541.9,194.8z"/>
		<path class="st5" d="M548.7,135.6c80.5,17.2,132.1,96.5,115,177.4c-1.9,4.5-7.3,6.6-12,4.8c-3.2-1.3-5.5-4.2-5.7-7.6
			c2.2-36.6-13.2-72-41.4-95.3c0.3-21-16.5-38.4-37.5-38.7c-5.9-0.1-11.6,1.2-16.9,3.7c-39.5-8.2-80.1,8.1-103.1,41.3
			c-2.8,3.7-8.2,4.6-12.1,2c-3.9-2.6-5.3-7.6-3.2-11.7l0,0c11.4-20.4,28.6-37.4,49.6-48.9c7.6-5.1,9.6-15,4.8-22.5
			c-0.9-1.3-1.9-2.6-3.2-3.6C504.4,131.4,527,131,548.7,135.6z"/>
		<path class="st5" d="M541.9,194.8c9.9-13,29-15.9,42.6-6.4c0.6,0.4,1.1,0.8,1.6,1.2c13.6,11.2,15.9,30.6,5.1,44.3
			c-9.9,13-29,15.9-42.6,6.4c-0.6-0.4-1.1-0.8-1.6-1.2C533.4,227.9,531.1,208.6,541.9,194.8z"/>
		<path class="st6" d="M471.6,139.8c3.3-0.3,6.5,1.1,8.4,3.7c3.1,4.2,2.2,9.9-1.9,13.1c-32.7,16.4-55.6,47.4-61.6,83.6
			c-18.3,10.3-25,33.5-14.6,51.9c2.8,5.1,6.8,9.5,11.6,12.9c12.7,38.4,47,65.5,87.2,68.9c4.8,0.8,8.2,4.9,7.8,9.6
			c-0.1,4.5-3.8,8.2-8.5,8.6c-23.8,0.2-47.1-6.2-67.1-18.6c-7.8-3.9-17.4-1.1-21.5,6.4c-0.1,0.2-0.2,0.4-0.4,0.7
			c-0.7,1.4-1.2,3-1.5,4.5c-15.4-16.4-26.8-35.6-33.6-56.6C350.5,249.8,393.2,165.3,471.6,139.8z"/>
		<ellipse class="st7" cx="551.7" cy="358" rx="31.4" ry="31.5"/>
		<path class="st6" d="M410.4,253.7c9.9-13,29-15.9,42.6-6.4c0.6,0.4,1.1,0.8,1.6,1.2c13.6,11.2,15.9,30.6,5.1,44.3
			c-9.9,13-29,15.9-42.6,6.4c-0.5-0.4-1.1-0.8-1.6-1.2C401.9,286.8,399.6,267.5,410.4,253.7z"/>
		<path class="st7" d="M628.6,382c-55.1,61.4-149.4,66.4-210.6,11.3c-1.9-2.7-2.3-6.1-1-9.1c1.8-4.5,7.1-6.8,11.7-5
			c0.1,0.1,0.3,0.1,0.4,0.2c30.1,20.1,68.8,24.5,102.9,11.7c18.1,10.8,41.5,4.9,52.2-13.3c3-5.1,4.8-10.7,5.3-16.6
			c26.8-30.3,33-73.6,15.9-110.3c-1.8-4.4,0.1-9.3,4.4-11.6c4.1-2.1,9.2-0.8,11.7,3.1c12.1,20.6,18.2,44,17.5,67.6
			c0.3,8.8,7.9,15.6,17,15.4h0.1c1.6-0.1,3.2-0.4,4.7-0.9C654.5,345.6,643.5,365.2,628.6,382z"/>
		<path class="st5" d="M548.7,135.6c80.5,17.2,132.1,96.5,115,177.4c-1.9,4.5-7.3,6.6-12,4.8c-3.2-1.3-5.5-4.2-5.7-7.6
			c2.2-36.6-13.2-72-41.4-95.3c0.3-21-16.5-38.4-37.5-38.7c-5.9-0.1-11.6,1.2-16.9,3.7c-39.5-8.2-80.1,8.1-103.1,41.3
			c-2.8,3.7-8.2,4.6-12.1,2c-3.9-2.6-5.3-7.6-3.2-11.7l0,0c11.4-20.4,28.6-37.4,49.6-48.9c7.6-5.1,9.6-15,4.8-22.5
			c-0.9-1.3-1.9-2.6-3.2-3.6C504.4,131.4,527,131,548.7,135.6z"/>
		<path class="st5" d="M541.9,194.8c9.9-13,29-15.9,42.6-6.4c0.6,0.4,1.1,0.8,1.6,1.2c13.6,11.2,15.9,30.6,5.1,44.3
			c-9.9,13-29,15.9-42.6,6.4c-0.6-0.4-1.1-0.8-1.6-1.2C533.4,227.9,531.1,208.6,541.9,194.8z"/>
		<path class="st5" d="M548.7,135.6c80.5,17.2,132.1,96.5,115,177.4c-1.9,4.5-7.3,6.6-12,4.8c-3.2-1.3-5.5-4.2-5.7-7.6
			c2.2-36.6-13.2-72-41.4-95.3c0.3-21-16.5-38.4-37.5-38.7c-5.9-0.1-11.6,1.2-16.9,3.7c-39.5-8.2-80.1,8.1-103.1,41.3
			c-2.8,3.7-8.2,4.6-12.1,2c-3.9-2.6-5.3-7.6-3.2-11.7l0,0c11.4-20.4,28.6-37.4,49.6-48.9c7.6-5.1,9.6-15,4.8-22.5
			c-0.9-1.3-1.9-2.6-3.2-3.6C504.4,131.4,527,131,548.7,135.6z"/>
		<path class="st5" d="M541.9,194.8c9.9-13,29-15.9,42.6-6.4c0.6,0.4,1.1,0.8,1.6,1.2c13.6,11.2,15.9,30.6,5.1,44.3
			c-9.9,13-29,15.9-42.6,6.4c-0.6-0.4-1.1-0.8-1.6-1.2C533.4,227.9,531.1,208.6,541.9,194.8z"/>
		<path class="st5" d="M548.7,135.6c80.5,17.2,132.1,96.5,115,177.4c-1.9,4.5-7.3,6.6-12,4.8c-3.2-1.3-5.5-4.2-5.7-7.6
			c2.2-36.6-13.2-72-41.4-95.3c0.3-21-16.5-38.4-37.5-38.7c-5.9-0.1-11.6,1.2-16.9,3.7c-39.5-8.2-80.1,8.1-103.1,41.3
			c-2.8,3.7-8.2,4.6-12.1,2c-3.9-2.6-5.3-7.6-3.2-11.7l0,0c11.4-20.4,28.6-37.4,49.6-48.9c7.6-5.1,9.6-15,4.8-22.5
			c-0.9-1.3-1.9-2.6-3.2-3.6C504.4,131.4,527,131,548.7,135.6z"/>
		<path class="st5" d="M541.9,194.8c9.9-13,29-15.9,42.6-6.4c0.6,0.4,1.1,0.8,1.6,1.2c13.6,11.2,15.9,30.6,5.1,44.3
			c-9.9,13-29,15.9-42.6,6.4c-0.6-0.4-1.1-0.8-1.6-1.2C533.4,227.9,531.1,208.6,541.9,194.8z"/>
		<path class="st5" d="M548.7,135.6c80.5,17.2,132.1,96.5,115,177.4c-1.9,4.5-7.3,6.6-12,4.8c-3.2-1.3-5.5-4.2-5.7-7.6
			c2.2-36.6-13.2-72-41.4-95.3c0.3-21-16.5-38.4-37.5-38.7c-5.9-0.1-11.6,1.2-16.9,3.7c-39.5-8.2-80.1,8.1-103.1,41.3
			c-2.8,3.7-8.2,4.6-12.1,2c-3.9-2.6-5.3-7.6-3.2-11.7l0,0c11.4-20.4,28.6-37.4,49.6-48.9c7.6-5.1,9.6-15,4.8-22.5
			c-0.9-1.3-1.9-2.6-3.2-3.6C504.4,131.4,527,131,548.7,135.6z"/>
		<path class="st5" d="M541.9,194.8c9.9-13,29-15.9,42.6-6.4c0.6,0.4,1.1,0.8,1.6,1.2c13.6,11.2,15.9,30.6,5.1,44.3
			c-9.9,13-29,15.9-42.6,6.4c-0.6-0.4-1.1-0.8-1.6-1.2C533.4,227.9,531.1,208.6,541.9,194.8z"/>
		<path class="st5" d="M548.7,135.6c80.5,17.2,132.1,96.5,115,177.4c-1.9,4.5-7.3,6.6-12,4.8c-3.2-1.3-5.5-4.2-5.7-7.6
			c2.2-36.6-13.2-72-41.4-95.3c0.3-21-16.5-38.4-37.5-38.7c-5.9-0.1-11.6,1.2-16.9,3.7c-39.5-8.2-80.1,8.1-103.1,41.3
			c-2.8,3.7-8.2,4.6-12.1,2c-3.9-2.6-5.3-7.6-3.2-11.7l0,0c11.4-20.4,28.6-37.4,49.6-48.9c7.6-5.1,9.6-15,4.8-22.5
			c-0.9-1.3-1.9-2.6-3.2-3.6C504.4,131.4,527,131,548.7,135.6z"/>
		<path class="st5" d="M541.9,194.8c9.9-13,29-15.9,42.6-6.4c0.6,0.4,1.1,0.8,1.6,1.2c13.6,11.2,15.9,30.6,5.1,44.3
			c-9.9,13-29,15.9-42.6,6.4c-0.6-0.4-1.1-0.8-1.6-1.2C533.4,227.9,531.1,208.6,541.9,194.8z"/>
		<path class="st5" d="M548.7,135.6c80.5,17.2,132.1,96.5,115,177.4c-1.9,4.5-7.3,6.6-12,4.8c-3.2-1.3-5.5-4.2-5.7-7.6
			c2.2-36.6-13.2-72-41.4-95.3c0.3-21-16.5-38.4-37.5-38.7c-5.9-0.1-11.6,1.2-16.9,3.7c-39.5-8.2-80.1,8.1-103.1,41.3
			c-2.8,3.7-8.2,4.6-12.1,2c-3.9-2.6-5.3-7.6-3.2-11.7l0,0c11.4-20.4,28.6-37.4,49.6-48.9c7.6-5.1,9.6-15,4.8-22.5
			c-0.9-1.3-1.9-2.6-3.2-3.6C504.4,131.4,527,131,548.7,135.6z"/>
		<path class="st5" d="M541.9,194.8c9.9-13,29-15.9,42.6-6.4c0.6,0.4,1.1,0.8,1.6,1.2c13.6,11.2,15.9,30.6,5.1,44.3
			c-9.9,13-29,15.9-42.6,6.4c-0.6-0.4-1.1-0.8-1.6-1.2C533.4,227.9,531.1,208.6,541.9,194.8z"/>
		<path class="st6" d="M471.6,139.8c3.3-0.3,6.5,1.1,8.4,3.7c3.1,4.2,2.2,9.9-1.9,13.1c-32.7,16.4-55.6,47.4-61.6,83.6
			c-18.3,10.3-25,33.5-14.6,51.9c2.8,5.1,6.8,9.5,11.6,12.9c12.7,38.4,47,65.5,87.2,68.9c4.8,0.8,8.2,4.9,7.8,9.6
			c-0.1,4.5-3.8,8.2-8.5,8.6c-23.8,0.2-47.1-6.2-67.1-18.6c-7.8-3.9-17.4-1.1-21.5,6.4c-0.1,0.2-0.2,0.4-0.4,0.7
			c-0.7,1.4-1.2,3-1.5,4.5c-15.4-16.4-26.8-35.6-33.6-56.6C350.5,249.8,393.2,165.3,471.6,139.8z"/>
		<ellipse class="st7" cx="551.7" cy="358" rx="31.4" ry="31.5"/>
		<path class="st6" d="M410.4,253.7c9.9-13,29-15.9,42.6-6.4c0.6,0.4,1.1,0.8,1.6,1.2c13.6,11.2,15.9,30.6,5.1,44.3
			c-9.9,13-29,15.9-42.6,6.4c-0.5-0.4-1.1-0.8-1.6-1.2C401.9,286.8,399.6,267.5,410.4,253.7z"/>
		<path class="st7" d="M628.6,382c-55.1,61.4-149.4,66.4-210.6,11.3c-1.9-2.7-2.3-6.1-1-9.1c1.8-4.5,7.1-6.8,11.7-5
			c0.1,0.1,0.3,0.1,0.4,0.2c30.1,20.1,68.8,24.5,102.9,11.7c18.1,10.8,41.5,4.9,52.2-13.3c3-5.1,4.8-10.7,5.3-16.6
			c26.8-30.3,33-73.6,15.9-110.3c-1.8-4.4,0.1-9.3,4.4-11.6c4.1-2.1,9.2-0.8,11.7,3.1c12.1,20.6,18.2,44,17.5,67.6
			c0.3,8.8,7.9,15.6,17,15.4h0.1c1.6-0.1,3.2-0.4,4.7-0.9C654.5,345.6,643.5,365.2,628.6,382z"/>
		<path class="st5" d="M548.7,135.6c80.5,17.2,132.1,96.5,115,177.4c-1.9,4.5-7.3,6.6-12,4.8c-3.2-1.3-5.5-4.2-5.7-7.6
			c2.2-36.6-13.2-72-41.4-95.3c0.3-21-16.5-38.4-37.5-38.7c-5.9-0.1-11.6,1.2-16.9,3.7c-39.5-8.2-80.1,8.1-103.1,41.3
			c-2.8,3.7-8.2,4.6-12.1,2c-3.9-2.6-5.3-7.6-3.2-11.7l0,0c11.4-20.4,28.6-37.4,49.6-48.9c7.6-5.1,9.6-15,4.8-22.5
			c-0.9-1.3-1.9-2.6-3.2-3.6C504.4,131.4,527,131,548.7,135.6z"/>
		<path class="st5" d="M541.9,194.8c9.9-13,29-15.9,42.6-6.4c0.6,0.4,1.1,0.8,1.6,1.2c13.6,11.2,15.9,30.6,5.1,44.3
			c-9.9,13-29,15.9-42.6,6.4c-0.6-0.4-1.1-0.8-1.6-1.2C533.4,227.9,531.1,208.6,541.9,194.8z"/>
		<path class="st5" d="M548.7,135.6c80.5,17.2,132.1,96.5,115,177.4c-1.9,4.5-7.3,6.6-12,4.8c-3.2-1.3-5.5-4.2-5.7-7.6
			c2.2-36.6-13.2-72-41.4-95.3c0.3-21-16.5-38.4-37.5-38.7c-5.9-0.1-11.6,1.2-16.9,3.7c-39.5-8.2-80.1,8.1-103.1,41.3
			c-2.8,3.7-8.2,4.6-12.1,2c-3.9-2.6-5.3-7.6-3.2-11.7l0,0c11.4-20.4,28.6-37.4,49.6-48.9c7.6-5.1,9.6-15,4.8-22.5
			c-0.9-1.3-1.9-2.6-3.2-3.6C504.4,131.4,527,131,548.7,135.6z"/>
		<path class="st5" d="M541.9,194.8c9.9-13,29-15.9,42.6-6.4c0.6,0.4,1.1,0.8,1.6,1.2c13.6,11.2,15.9,30.6,5.1,44.3
			c-9.9,13-29,15.9-42.6,6.4c-0.6-0.4-1.1-0.8-1.6-1.2C533.4,227.9,531.1,208.6,541.9,194.8z"/>
		<path class="st5" d="M548.7,135.6c80.5,17.2,132.1,96.5,115,177.4c-1.9,4.5-7.3,6.6-12,4.8c-3.2-1.3-5.5-4.2-5.7-7.6
			c2.2-36.6-13.2-72-41.4-95.3c0.3-21-16.5-38.4-37.5-38.7c-5.9-0.1-11.6,1.2-16.9,3.7c-39.5-8.2-80.1,8.1-103.1,41.3
			c-2.8,3.7-8.2,4.6-12.1,2c-3.9-2.6-5.3-7.6-3.2-11.7l0,0c11.4-20.4,28.6-37.4,49.6-48.9c7.6-5.1,9.6-15,4.8-22.5
			c-0.9-1.3-1.9-2.6-3.2-3.6C504.4,131.4,527,131,548.7,135.6z"/>
		<path class="st5" d="M541.9,194.8c9.9-13,29-15.9,42.6-6.4c0.6,0.4,1.1,0.8,1.6,1.2c13.6,11.2,15.9,30.6,5.1,44.3
			c-9.9,13-29,15.9-42.6,6.4c-0.6-0.4-1.1-0.8-1.6-1.2C533.4,227.9,531.1,208.6,541.9,194.8z"/>
		<path class="st5" d="M548.7,135.6c80.5,17.2,132.1,96.5,115,177.4c-1.9,4.5-7.3,6.6-12,4.8c-3.2-1.3-5.5-4.2-5.7-7.6
			c2.2-36.6-13.2-72-41.4-95.3c0.3-21-16.5-38.4-37.5-38.7c-5.9-0.1-11.6,1.2-16.9,3.7c-39.5-8.2-80.1,8.1-103.1,41.3
			c-2.8,3.7-8.2,4.6-12.1,2c-3.9-2.6-5.3-7.6-3.2-11.7l0,0c11.4-20.4,28.6-37.4,49.6-48.9c7.6-5.1,9.6-15,4.8-22.5
			c-0.9-1.3-1.9-2.6-3.2-3.6C504.4,131.4,527,131,548.7,135.6z"/>
		<path class="st5" d="M541.9,194.8c9.9-13,29-15.9,42.6-6.4c0.6,0.4,1.1,0.8,1.6,1.2c13.6,11.2,15.9,30.6,5.1,44.3
			c-9.9,13-29,15.9-42.6,6.4c-0.6-0.4-1.1-0.8-1.6-1.2C533.4,227.9,531.1,208.6,541.9,194.8z"/>
		<path class="st5" d="M548.7,135.6c80.5,17.2,132.1,96.5,115,177.4c-1.9,4.5-7.3,6.6-12,4.8c-3.2-1.3-5.5-4.2-5.7-7.6
			c2.2-36.6-13.2-72-41.4-95.3c0.3-21-16.5-38.4-37.5-38.7c-5.9-0.1-11.6,1.2-16.9,3.7c-39.5-8.2-80.1,8.1-103.1,41.3
			c-2.8,3.7-8.2,4.6-12.1,2c-3.9-2.6-5.3-7.6-3.2-11.7l0,0c11.4-20.4,28.6-37.4,49.6-48.9c7.6-5.1,9.6-15,4.8-22.5
			c-0.9-1.3-1.9-2.6-3.2-3.6C504.4,131.4,527,131,548.7,135.6z"/>
		<path class="st5" d="M541.9,194.8c9.9-13,29-15.9,42.6-6.4c0.6,0.4,1.1,0.8,1.6,1.2c13.6,11.2,15.9,30.6,5.1,44.3
			c-9.9,13-29,15.9-42.6,6.4c-0.6-0.4-1.1-0.8-1.6-1.2C533.4,227.9,531.1,208.6,541.9,194.8z"/>
		<path class="st5" d="M548.7,135.6c80.5,17.2,132.1,96.5,115,177.4c-1.9,4.5-7.3,6.6-12,4.8c-3.2-1.3-5.5-4.2-5.7-7.6
			c2.2-36.6-13.2-72-41.4-95.3c0.3-21-16.5-38.4-37.5-38.7c-5.9-0.1-11.6,1.2-16.9,3.7c-39.5-8.2-80.1,8.1-103.1,41.3
			c-2.8,3.7-8.2,4.6-12.1,2c-3.9-2.6-5.3-7.6-3.2-11.7l0,0c11.4-20.4,28.6-37.4,49.6-48.9c7.6-5.1,9.6-15,4.8-22.5
			c-0.9-1.3-1.9-2.6-3.2-3.6C504.4,131.4,527,131,548.7,135.6z"/>
		<path class="st5" d="M541.9,194.8c9.9-13,29-15.9,42.6-6.4c0.6,0.4,1.1,0.8,1.6,1.2c13.6,11.2,15.9,30.6,5.1,44.3
			c-9.9,13-29,15.9-42.6,6.4c-0.6-0.4-1.1-0.8-1.6-1.2C533.4,227.9,531.1,208.6,541.9,194.8z"/>
		<path class="st6" d="M471.6,139.8c3.3-0.3,6.5,1.1,8.4,3.7c3.1,4.2,2.2,9.9-1.9,13.1c-32.7,16.4-55.6,47.4-61.6,83.6
			c-18.3,10.3-25,33.5-14.6,51.9c2.8,5.1,6.8,9.5,11.6,12.9c12.7,38.4,47,65.5,87.2,68.9c4.8,0.8,8.2,4.9,7.8,9.6
			c-0.1,4.5-3.8,8.2-8.5,8.6c-23.8,0.2-47.1-6.2-67.1-18.6c-7.8-3.9-17.4-1.1-21.5,6.4c-0.1,0.2-0.2,0.4-0.4,0.7
			c-0.7,1.4-1.2,3-1.5,4.5c-15.4-16.4-26.8-35.6-33.6-56.6C350.5,249.8,393.2,165.3,471.6,139.8z"/>
		<ellipse class="st7" cx="551.7" cy="358" rx="31.4" ry="31.5"/>
		<path class="st6" d="M410.4,253.7c9.9-13,29-15.9,42.6-6.4c0.6,0.4,1.1,0.8,1.6,1.2c13.6,11.2,15.9,30.6,5.1,44.3
			c-9.9,13-29,15.9-42.6,6.4c-0.5-0.4-1.1-0.8-1.6-1.2C401.9,286.8,399.6,267.5,410.4,253.7z"/>
		<path class="st7" d="M628.6,382c-55.1,61.4-149.4,66.4-210.6,11.3c-1.9-2.7-2.3-6.1-1-9.1c1.8-4.5,7.1-6.8,11.7-5
			c0.1,0.1,0.3,0.1,0.4,0.2c30.1,20.1,68.8,24.5,102.9,11.7c18.1,10.8,41.5,4.9,52.2-13.3c3-5.1,4.8-10.7,5.3-16.6
			c26.8-30.3,33-73.6,15.9-110.3c-1.8-4.4,0.1-9.3,4.4-11.6c4.1-2.1,9.2-0.8,11.7,3.1c12.1,20.6,18.2,44,17.5,67.6
			c0.3,8.8,7.9,15.6,17,15.4h0.1c1.6-0.1,3.2-0.4,4.7-0.9C654.5,345.6,643.5,365.2,628.6,382z"/>
		<path class="st5" d="M548.7,135.6c80.5,17.2,132.1,96.5,115,177.4c-1.9,4.5-7.3,6.6-12,4.8c-3.2-1.3-5.5-4.2-5.7-7.6
			c2.2-36.6-13.2-72-41.4-95.3c0.3-21-16.5-38.4-37.5-38.7c-5.9-0.1-11.6,1.2-16.9,3.7c-39.5-8.2-80.1,8.1-103.1,41.3
			c-2.8,3.7-8.2,4.6-12.1,2c-3.9-2.6-5.3-7.6-3.2-11.7l0,0c11.4-20.4,28.6-37.4,49.6-48.9c7.6-5.1,9.6-15,4.8-22.5
			c-0.9-1.3-1.9-2.6-3.2-3.6C504.4,131.4,527,131,548.7,135.6z"/>
		<path class="st5" d="M541.9,194.8c9.9-13,29-15.9,42.6-6.4c0.6,0.4,1.1,0.8,1.6,1.2c13.6,11.2,15.9,30.6,5.1,44.3
			c-9.9,13-29,15.9-42.6,6.4c-0.6-0.4-1.1-0.8-1.6-1.2C533.4,227.9,531.1,208.6,541.9,194.8z"/>
		<path class="st5" d="M548.7,135.6c80.5,17.2,132.1,96.5,115,177.4c-1.9,4.5-7.3,6.6-12,4.8c-3.2-1.3-5.5-4.2-5.7-7.6
			c2.2-36.6-13.2-72-41.4-95.3c0.3-21-16.5-38.4-37.5-38.7c-5.9-0.1-11.6,1.2-16.9,3.7c-39.5-8.2-80.1,8.1-103.1,41.3
			c-2.8,3.7-8.2,4.6-12.1,2c-3.9-2.6-5.3-7.6-3.2-11.7l0,0c11.4-20.4,28.6-37.4,49.6-48.9c7.6-5.1,9.6-15,4.8-22.5
			c-0.9-1.3-1.9-2.6-3.2-3.6C504.4,131.4,527,131,548.7,135.6z"/>
		<path class="st5" d="M541.9,194.8c9.9-13,29-15.9,42.6-6.4c0.6,0.4,1.1,0.8,1.6,1.2c13.6,11.2,15.9,30.6,5.1,44.3
			c-9.9,13-29,15.9-42.6,6.4c-0.6-0.4-1.1-0.8-1.6-1.2C533.4,227.9,531.1,208.6,541.9,194.8z"/>
		<path class="st5" d="M548.7,135.6c80.5,17.2,132.1,96.5,115,177.4c-1.9,4.5-7.3,6.6-12,4.8c-3.2-1.3-5.5-4.2-5.7-7.6
			c2.2-36.6-13.2-72-41.4-95.3c0.3-21-16.5-38.4-37.5-38.7c-5.9-0.1-11.6,1.2-16.9,3.7c-39.5-8.2-80.1,8.1-103.1,41.3
			c-2.8,3.7-8.2,4.6-12.1,2c-3.9-2.6-5.3-7.6-3.2-11.7l0,0c11.4-20.4,28.6-37.4,49.6-48.9c7.6-5.1,9.6-15,4.8-22.5
			c-0.9-1.3-1.9-2.6-3.2-3.6C504.4,131.4,527,131,548.7,135.6z"/>
		<path class="st5" d="M541.9,194.8c9.9-13,29-15.9,42.6-6.4c0.6,0.4,1.1,0.8,1.6,1.2c13.6,11.2,15.9,30.6,5.1,44.3
			c-9.9,13-29,15.9-42.6,6.4c-0.6-0.4-1.1-0.8-1.6-1.2C533.4,227.9,531.1,208.6,541.9,194.8z"/>
		<path class="st5" d="M548.7,135.6c80.5,17.2,132.1,96.5,115,177.4c-1.9,4.5-7.3,6.6-12,4.8c-3.2-1.3-5.5-4.2-5.7-7.6
			c2.2-36.6-13.2-72-41.4-95.3c0.3-21-16.5-38.4-37.5-38.7c-5.9-0.1-11.6,1.2-16.9,3.7c-39.5-8.2-80.1,8.1-103.1,41.3
			c-2.8,3.7-8.2,4.6-12.1,2c-3.9-2.6-5.3-7.6-3.2-11.7l0,0c11.4-20.4,28.6-37.4,49.6-48.9c7.6-5.1,9.6-15,4.8-22.5
			c-0.9-1.3-1.9-2.6-3.2-3.6C504.4,131.4,527,131,548.7,135.6z"/>
		<path class="st5" d="M541.9,194.8c9.9-13,29-15.9,42.6-6.4c0.6,0.4,1.1,0.8,1.6,1.2c13.6,11.2,15.9,30.6,5.1,44.3
			c-9.9,13-29,15.9-42.6,6.4c-0.6-0.4-1.1-0.8-1.6-1.2C533.4,227.9,531.1,208.6,541.9,194.8z"/>
		<path class="st5" d="M548.7,135.6c80.5,17.2,132.1,96.5,115,177.4c-1.9,4.5-7.3,6.6-12,4.8c-3.2-1.3-5.5-4.2-5.7-7.6
			c2.2-36.6-13.2-72-41.4-95.3c0.3-21-16.5-38.4-37.5-38.7c-5.9-0.1-11.6,1.2-16.9,3.7c-39.5-8.2-80.1,8.1-103.1,41.3
			c-2.8,3.7-8.2,4.6-12.1,2c-3.9-2.6-5.3-7.6-3.2-11.7l0,0c11.4-20.4,28.6-37.4,49.6-48.9c7.6-5.1,9.6-15,4.8-22.5
			c-0.9-1.3-1.9-2.6-3.2-3.6C504.4,131.4,527,131,548.7,135.6z"/>
		<path class="st5" d="M541.9,194.8c9.9-13,29-15.9,42.6-6.4c0.6,0.4,1.1,0.8,1.6,1.2c13.6,11.2,15.9,30.6,5.1,44.3
			c-9.9,13-29,15.9-42.6,6.4c-0.6-0.4-1.1-0.8-1.6-1.2C533.4,227.9,531.1,208.6,541.9,194.8z"/>
		<path class="st5" d="M548.7,135.6c80.5,17.2,132.1,96.5,115,177.4c-1.9,4.5-7.3,6.6-12,4.8c-3.2-1.3-5.5-4.2-5.7-7.6
			c2.2-36.6-13.2-72-41.4-95.3c0.3-21-16.5-38.4-37.5-38.7c-5.9-0.1-11.6,1.2-16.9,3.7c-39.5-8.2-80.1,8.1-103.1,41.3
			c-2.8,3.7-8.2,4.6-12.1,2c-3.9-2.6-5.3-7.6-3.2-11.7l0,0c11.4-20.4,28.6-37.4,49.6-48.9c7.6-5.1,9.6-15,4.8-22.5
			c-0.9-1.3-1.9-2.6-3.2-3.6C504.4,131.4,527,131,548.7,135.6z"/>
		<path class="st5" d="M541.9,194.8c9.9-13,29-15.9,42.6-6.4c0.6,0.4,1.1,0.8,1.6,1.2c13.6,11.2,15.9,30.6,5.1,44.3
			c-9.9,13-29,15.9-42.6,6.4c-0.6-0.4-1.1-0.8-1.6-1.2C533.4,227.9,531.1,208.6,541.9,194.8z"/>
		<path class="st6" d="M471.6,139.8c3.3-0.3,6.5,1.1,8.4,3.7c3.1,4.2,2.2,9.9-1.9,13.1c-32.7,16.4-55.6,47.4-61.6,83.6
			c-18.3,10.3-25,33.5-14.6,51.9c2.8,5.1,6.8,9.5,11.6,12.9c12.7,38.4,47,65.5,87.2,68.9c4.8,0.8,8.2,4.9,7.8,9.6
			c-0.1,4.5-3.8,8.2-8.5,8.6c-23.8,0.2-47.1-6.2-67.1-18.6c-7.8-3.9-17.4-1.1-21.5,6.4c-0.1,0.2-0.2,0.4-0.4,0.7
			c-0.7,1.4-1.2,3-1.5,4.5c-15.4-16.4-26.8-35.6-33.6-56.6C350.5,249.8,393.2,165.3,471.6,139.8z"/>
		<ellipse class="st7" cx="551.7" cy="358" rx="31.4" ry="31.5"/>
		<path class="st6" d="M410.4,253.7c9.9-13,29-15.9,42.6-6.4c0.6,0.4,1.1,0.8,1.6,1.2c13.6,11.2,15.9,30.6,5.1,44.3
			c-9.9,13-29,15.9-42.6,6.4c-0.5-0.4-1.1-0.8-1.6-1.2C401.9,286.8,399.6,267.5,410.4,253.7z"/>
		<path class="st7" d="M628.6,382c-55.1,61.4-149.4,66.4-210.6,11.3c-1.9-2.7-2.3-6.1-1-9.1c1.8-4.5,7.1-6.8,11.7-5
			c0.1,0.1,0.3,0.1,0.4,0.2c30.1,20.1,68.8,24.5,102.9,11.7c18.1,10.8,41.5,4.9,52.2-13.3c3-5.1,4.8-10.7,5.3-16.6
			c26.8-30.3,33-73.6,15.9-110.3c-1.8-4.4,0.1-9.3,4.4-11.6c4.1-2.1,9.2-0.8,11.7,3.1c12.1,20.6,18.2,44,17.5,67.6
			c0.3,8.8,7.9,15.6,17,15.4h0.1c1.6-0.1,3.2-0.4,4.7-0.9C654.5,345.6,643.5,365.2,628.6,382z"/>
		<path class="st5" d="M548.7,135.6c80.5,17.2,132.1,96.5,115,177.4c-1.9,4.5-7.3,6.6-12,4.8c-3.2-1.3-5.5-4.2-5.7-7.6
			c2.2-36.6-13.2-72-41.4-95.3c0.3-21-16.5-38.4-37.5-38.7c-5.9-0.1-11.6,1.2-16.9,3.7c-39.5-8.2-80.1,8.1-103.1,41.3
			c-2.8,3.7-8.2,4.6-12.1,2c-3.9-2.6-5.3-7.6-3.2-11.7l0,0c11.4-20.4,28.6-37.4,49.6-48.9c7.6-5.1,9.6-15,4.8-22.5
			c-0.9-1.3-1.9-2.6-3.2-3.6C504.4,131.4,527,131,548.7,135.6z"/>
		<path class="st5" d="M541.9,194.8c9.9-13,29-15.9,42.6-6.4c0.6,0.4,1.1,0.8,1.6,1.2c13.6,11.2,15.9,30.6,5.1,44.3
			c-9.9,13-29,15.9-42.6,6.4c-0.6-0.4-1.1-0.8-1.6-1.2C533.4,227.9,531.1,208.6,541.9,194.8z"/>
		<path class="st5" d="M548.7,135.6c80.5,17.2,132.1,96.5,115,177.4c-1.9,4.5-7.3,6.6-12,4.8c-3.2-1.3-5.5-4.2-5.7-7.6
			c2.2-36.6-13.2-72-41.4-95.3c0.3-21-16.5-38.4-37.5-38.7c-5.9-0.1-11.6,1.2-16.9,3.7c-39.5-8.2-80.1,8.1-103.1,41.3
			c-2.8,3.7-8.2,4.6-12.1,2c-3.9-2.6-5.3-7.6-3.2-11.7l0,0c11.4-20.4,28.6-37.4,49.6-48.9c7.6-5.1,9.6-15,4.8-22.5
			c-0.9-1.3-1.9-2.6-3.2-3.6C504.4,131.4,527,131,548.7,135.6z"/>
		<path class="st5" d="M541.9,194.8c9.9-13,29-15.9,42.6-6.4c0.6,0.4,1.1,0.8,1.6,1.2c13.6,11.2,15.9,30.6,5.1,44.3
			c-9.9,13-29,15.9-42.6,6.4c-0.6-0.4-1.1-0.8-1.6-1.2C533.4,227.9,531.1,208.6,541.9,194.8z"/>
		<path class="st5" d="M548.7,135.6c80.5,17.2,132.1,96.5,115,177.4c-1.9,4.5-7.3,6.6-12,4.8c-3.2-1.3-5.5-4.2-5.7-7.6
			c2.2-36.6-13.2-72-41.4-95.3c0.3-21-16.5-38.4-37.5-38.7c-5.9-0.1-11.6,1.2-16.9,3.7c-39.5-8.2-80.1,8.1-103.1,41.3
			c-2.8,3.7-8.2,4.6-12.1,2c-3.9-2.6-5.3-7.6-3.2-11.7l0,0c11.4-20.4,28.6-37.4,49.6-48.9c7.6-5.1,9.6-15,4.8-22.5
			c-0.9-1.3-1.9-2.6-3.2-3.6C504.4,131.4,527,131,548.7,135.6z"/>
		<path class="st5" d="M541.9,194.8c9.9-13,29-15.9,42.6-6.4c0.6,0.4,1.1,0.8,1.6,1.2c13.6,11.2,15.9,30.6,5.1,44.3
			c-9.9,13-29,15.9-42.6,6.4c-0.6-0.4-1.1-0.8-1.6-1.2C533.4,227.9,531.1,208.6,541.9,194.8z"/>
		<path class="st5" d="M548.7,135.6c80.5,17.2,132.1,96.5,115,177.4c-1.9,4.5-7.3,6.6-12,4.8c-3.2-1.3-5.5-4.2-5.7-7.6
			c2.2-36.6-13.2-72-41.4-95.3c0.3-21-16.5-38.4-37.5-38.7c-5.9-0.1-11.6,1.2-16.9,3.7c-39.5-8.2-80.1,8.1-103.1,41.3
			c-2.8,3.7-8.2,4.6-12.1,2c-3.9-2.6-5.3-7.6-3.2-11.7l0,0c11.4-20.4,28.6-37.4,49.6-48.9c7.6-5.1,9.6-15,4.8-22.5
			c-0.9-1.3-1.9-2.6-3.2-3.6C504.4,131.4,527,131,548.7,135.6z"/>
		<path class="st5" d="M541.9,194.8c9.9-13,29-15.9,42.6-6.4c0.6,0.4,1.1,0.8,1.6,1.2c13.6,11.2,15.9,30.6,5.1,44.3
			c-9.9,13-29,15.9-42.6,6.4c-0.6-0.4-1.1-0.8-1.6-1.2C533.4,227.9,531.1,208.6,541.9,194.8z"/>
		<path class="st5" d="M548.7,135.6c80.5,17.2,132.1,96.5,115,177.4c-1.9,4.5-7.3,6.6-12,4.8c-3.2-1.3-5.5-4.2-5.7-7.6
			c2.2-36.6-13.2-72-41.4-95.3c0.3-21-16.5-38.4-37.5-38.7c-5.9-0.1-11.6,1.2-16.9,3.7c-39.5-8.2-80.1,8.1-103.1,41.3
			c-2.8,3.7-8.2,4.6-12.1,2c-3.9-2.6-5.3-7.6-3.2-11.7l0,0c11.4-20.4,28.6-37.4,49.6-48.9c7.6-5.1,9.6-15,4.8-22.5
			c-0.9-1.3-1.9-2.6-3.2-3.6C504.4,131.4,527,131,548.7,135.6z"/>
		<path class="st5" d="M541.9,194.8c9.9-13,29-15.9,42.6-6.4c0.6,0.4,1.1,0.8,1.6,1.2c13.6,11.2,15.9,30.6,5.1,44.3
			c-9.9,13-29,15.9-42.6,6.4c-0.6-0.4-1.1-0.8-1.6-1.2C533.4,227.9,531.1,208.6,541.9,194.8z"/>
		<path class="st5" d="M548.7,135.6c80.5,17.2,132.1,96.5,115,177.4c-1.9,4.5-7.3,6.6-12,4.8c-3.2-1.3-5.5-4.2-5.7-7.6
			c2.2-36.6-13.2-72-41.4-95.3c0.3-21-16.5-38.4-37.5-38.7c-5.9-0.1-11.6,1.2-16.9,3.7c-39.5-8.2-80.1,8.1-103.1,41.3
			c-2.8,3.7-8.2,4.6-12.1,2c-3.9-2.6-5.3-7.6-3.2-11.7l0,0c11.4-20.4,28.6-37.4,49.6-48.9c7.6-5.1,9.6-15,4.8-22.5
			c-0.9-1.3-1.9-2.6-3.2-3.6C504.4,131.4,527,131,548.7,135.6z"/>
		<path class="st5" d="M541.9,194.8c9.9-13,29-15.9,42.6-6.4c0.6,0.4,1.1,0.8,1.6,1.2c13.6,11.2,15.9,30.6,5.1,44.3
			c-9.9,13-29,15.9-42.6,6.4c-0.6-0.4-1.1-0.8-1.6-1.2C533.4,227.9,531.1,208.6,541.9,194.8z"/>
		<path class="st6" d="M471.6,139.8c3.3-0.3,6.5,1.1,8.4,3.7c3.1,4.2,2.2,9.9-1.9,13.1c-32.7,16.4-55.6,47.4-61.6,83.6
			c-18.3,10.3-25,33.5-14.6,51.9c2.8,5.1,6.8,9.5,11.6,12.9c12.7,38.4,47,65.5,87.2,68.9c4.8,0.8,8.2,4.9,7.8,9.6
			c-0.1,4.5-3.8,8.2-8.5,8.6c-23.8,0.2-47.1-6.2-67.1-18.6c-7.8-3.9-17.4-1.1-21.5,6.4c-0.1,0.2-0.2,0.4-0.4,0.7
			c-0.7,1.4-1.2,3-1.5,4.5c-15.4-16.4-26.8-35.6-33.6-56.6C350.5,249.8,393.2,165.3,471.6,139.8z"/>
		<ellipse class="st7" cx="551.7" cy="358" rx="31.4" ry="31.5"/>
		<path class="st6" d="M410.4,253.7c9.9-13,29-15.9,42.6-6.4c0.6,0.4,1.1,0.8,1.6,1.2c13.6,11.2,15.9,30.6,5.1,44.3
			c-9.9,13-29,15.9-42.6,6.4c-0.5-0.4-1.1-0.8-1.6-1.2C401.9,286.8,399.6,267.5,410.4,253.7z"/>
		<path class="st7" d="M628.6,382c-55.1,61.4-149.4,66.4-210.6,11.3c-1.9-2.7-2.3-6.1-1-9.1c1.8-4.5,7.1-6.8,11.7-5
			c0.1,0.1,0.3,0.1,0.4,0.2c30.1,20.1,68.8,24.5,102.9,11.7c18.1,10.8,41.5,4.9,52.2-13.3c3-5.1,4.8-10.7,5.3-16.6
			c26.8-30.3,33-73.6,15.9-110.3c-1.8-4.4,0.1-9.3,4.4-11.6c4.1-2.1,9.2-0.8,11.7,3.1c12.1,20.6,18.2,44,17.5,67.6
			c0.3,8.8,7.9,15.6,17,15.4h0.1c1.6-0.1,3.2-0.4,4.7-0.9C654.5,345.6,643.5,365.2,628.6,382z"/>
		<path class="st5" d="M548.7,135.6c80.5,17.2,132.1,96.5,115,177.4c-1.9,4.5-7.3,6.6-12,4.8c-3.2-1.3-5.5-4.2-5.7-7.6
			c2.2-36.6-13.2-72-41.4-95.3c0.3-21-16.5-38.4-37.5-38.7c-5.9-0.1-11.6,1.2-16.9,3.7c-39.5-8.2-80.1,8.1-103.1,41.3
			c-2.8,3.7-8.2,4.6-12.1,2c-3.9-2.6-5.3-7.6-3.2-11.7l0,0c11.4-20.4,28.6-37.4,49.6-48.9c7.6-5.1,9.6-15,4.8-22.5
			c-0.9-1.3-1.9-2.6-3.2-3.6C504.4,131.4,527,131,548.7,135.6z"/>
		<path class="st5" d="M541.9,194.8c9.9-13,29-15.9,42.6-6.4c0.6,0.4,1.1,0.8,1.6,1.2c13.6,11.2,15.9,30.6,5.1,44.3
			c-9.9,13-29,15.9-42.6,6.4c-0.6-0.4-1.1-0.8-1.6-1.2C533.4,227.9,531.1,208.6,541.9,194.8z"/>
		<path class="st5" d="M548.7,135.6c80.5,17.2,132.1,96.5,115,177.4c-1.9,4.5-7.3,6.6-12,4.8c-3.2-1.3-5.5-4.2-5.7-7.6
			c2.2-36.6-13.2-72-41.4-95.3c0.3-21-16.5-38.4-37.5-38.7c-5.9-0.1-11.6,1.2-16.9,3.7c-39.5-8.2-80.1,8.1-103.1,41.3
			c-2.8,3.7-8.2,4.6-12.1,2c-3.9-2.6-5.3-7.6-3.2-11.7l0,0c11.4-20.4,28.6-37.4,49.6-48.9c7.6-5.1,9.6-15,4.8-22.5
			c-0.9-1.3-1.9-2.6-3.2-3.6C504.4,131.4,527,131,548.7,135.6z"/>
		<path class="st5" d="M541.9,194.8c9.9-13,29-15.9,42.6-6.4c0.6,0.4,1.1,0.8,1.6,1.2c13.6,11.2,15.9,30.6,5.1,44.3
			c-9.9,13-29,15.9-42.6,6.4c-0.6-0.4-1.1-0.8-1.6-1.2C533.4,227.9,531.1,208.6,541.9,194.8z"/>
		<path class="st5" d="M548.7,135.6c80.5,17.2,132.1,96.5,115,177.4c-1.9,4.5-7.3,6.6-12,4.8c-3.2-1.3-5.5-4.2-5.7-7.6
			c2.2-36.6-13.2-72-41.4-95.3c0.3-21-16.5-38.4-37.5-38.7c-5.9-0.1-11.6,1.2-16.9,3.7c-39.5-8.2-80.1,8.1-103.1,41.3
			c-2.8,3.7-8.2,4.6-12.1,2c-3.9-2.6-5.3-7.6-3.2-11.7l0,0c11.4-20.4,28.6-37.4,49.6-48.9c7.6-5.1,9.6-15,4.8-22.5
			c-0.9-1.3-1.9-2.6-3.2-3.6C504.4,131.4,527,131,548.7,135.6z"/>
		<path class="st5" d="M541.9,194.8c9.9-13,29-15.9,42.6-6.4c0.6,0.4,1.1,0.8,1.6,1.2c13.6,11.2,15.9,30.6,5.1,44.3
			c-9.9,13-29,15.9-42.6,6.4c-0.6-0.4-1.1-0.8-1.6-1.2C533.4,227.9,531.1,208.6,541.9,194.8z"/>
		<path class="st5" d="M548.7,135.6c80.5,17.2,132.1,96.5,115,177.4c-1.9,4.5-7.3,6.6-12,4.8c-3.2-1.3-5.5-4.2-5.7-7.6
			c2.2-36.6-13.2-72-41.4-95.3c0.3-21-16.5-38.4-37.5-38.7c-5.9-0.1-11.6,1.2-16.9,3.7c-39.5-8.2-80.1,8.1-103.1,41.3
			c-2.8,3.7-8.2,4.6-12.1,2c-3.9-2.6-5.3-7.6-3.2-11.7l0,0c11.4-20.4,28.6-37.4,49.6-48.9c7.6-5.1,9.6-15,4.8-22.5
			c-0.9-1.3-1.9-2.6-3.2-3.6C504.4,131.4,527,131,548.7,135.6z"/>
		<path class="st5" d="M541.9,194.8c9.9-13,29-15.9,42.6-6.4c0.6,0.4,1.1,0.8,1.6,1.2c13.6,11.2,15.9,30.6,5.1,44.3
			c-9.9,13-29,15.9-42.6,6.4c-0.6-0.4-1.1-0.8-1.6-1.2C533.4,227.9,531.1,208.6,541.9,194.8z"/>
		<path class="st5" d="M548.7,135.6c80.5,17.2,132.1,96.5,115,177.4c-1.9,4.5-7.3,6.6-12,4.8c-3.2-1.3-5.5-4.2-5.7-7.6
			c2.2-36.6-13.2-72-41.4-95.3c0.3-21-16.5-38.4-37.5-38.7c-5.9-0.1-11.6,1.2-16.9,3.7c-39.5-8.2-80.1,8.1-103.1,41.3
			c-2.8,3.7-8.2,4.6-12.1,2c-3.9-2.6-5.3-7.6-3.2-11.7l0,0c11.4-20.4,28.6-37.4,49.6-48.9c7.6-5.1,9.6-15,4.8-22.5
			c-0.9-1.3-1.9-2.6-3.2-3.6C504.4,131.4,527,131,548.7,135.6z"/>
		<path class="st5" d="M541.9,194.8c9.9-13,29-15.9,42.6-6.4c0.6,0.4,1.1,0.8,1.6,1.2c13.6,11.2,15.9,30.6,5.1,44.3
			c-9.9,13-29,15.9-42.6,6.4c-0.6-0.4-1.1-0.8-1.6-1.2C533.4,227.9,531.1,208.6,541.9,194.8z"/>
		<path class="st5" d="M548.7,135.6c80.5,17.2,132.1,96.5,115,177.4c-1.9,4.5-7.3,6.6-12,4.8c-3.2-1.3-5.5-4.2-5.7-7.6
			c2.2-36.6-13.2-72-41.4-95.3c0.3-21-16.5-38.4-37.5-38.7c-5.9-0.1-11.6,1.2-16.9,3.7c-39.5-8.2-80.1,8.1-103.1,41.3
			c-2.8,3.7-8.2,4.6-12.1,2c-3.9-2.6-5.3-7.6-3.2-11.7l0,0c11.4-20.4,28.6-37.4,49.6-48.9c7.6-5.1,9.6-15,4.8-22.5
			c-0.9-1.3-1.9-2.6-3.2-3.6C504.4,131.4,527,131,548.7,135.6z"/>
		<path class="st5" d="M541.9,194.8c9.9-13,29-15.9,42.6-6.4c0.6,0.4,1.1,0.8,1.6,1.2c13.6,11.2,15.9,30.6,5.1,44.3
			c-9.9,13-29,15.9-42.6,6.4c-0.6-0.4-1.1-0.8-1.6-1.2C533.4,227.9,531.1,208.6,541.9,194.8z"/>
		<path class="st6" d="M471.6,139.8c3.3-0.3,6.5,1.1,8.4,3.7c3.1,4.2,2.2,9.9-1.9,13.1c-32.7,16.4-55.6,47.4-61.6,83.6
			c-18.3,10.3-25,33.5-14.6,51.9c2.8,5.1,6.8,9.5,11.6,12.9c12.7,38.4,47,65.5,87.2,68.9c4.8,0.8,8.2,4.9,7.8,9.6
			c-0.1,4.5-3.8,8.2-8.5,8.6c-23.8,0.2-47.1-6.2-67.1-18.6c-7.8-3.9-17.4-1.1-21.5,6.4c-0.1,0.2-0.2,0.4-0.4,0.7
			c-0.7,1.4-1.2,3-1.5,4.5c-15.4-16.4-26.8-35.6-33.6-56.6C350.5,249.8,393.2,165.3,471.6,139.8z"/>
		<ellipse class="st7" cx="551.7" cy="358" rx="31.4" ry="31.5"/>
		<path class="st6" d="M410.4,253.7c9.9-13,29-15.9,42.6-6.4c0.6,0.4,1.1,0.8,1.6,1.2c13.6,11.2,15.9,30.6,5.1,44.3
			c-9.9,13-29,15.9-42.6,6.4c-0.5-0.4-1.1-0.8-1.6-1.2C401.9,286.8,399.6,267.5,410.4,253.7z"/>
		<path class="st7" d="M628.6,382c-55.1,61.4-149.4,66.4-210.6,11.3c-1.9-2.7-2.3-6.1-1-9.1c1.8-4.5,7.1-6.8,11.7-5
			c0.1,0.1,0.3,0.1,0.4,0.2c30.1,20.1,68.8,24.5,102.9,11.7c18.1,10.8,41.5,4.9,52.2-13.3c3-5.1,4.8-10.7,5.3-16.6
			c26.8-30.3,33-73.6,15.9-110.3c-1.8-4.4,0.1-9.3,4.4-11.6c4.1-2.1,9.2-0.8,11.7,3.1c12.1,20.6,18.2,44,17.5,67.6
			c0.3,8.8,7.9,15.6,17,15.4h0.1c1.6-0.1,3.2-0.4,4.7-0.9C654.5,345.6,643.5,365.2,628.6,382z"/>
		<path class="st5" d="M548.7,135.6c80.5,17.2,132.1,96.5,115,177.4c-1.9,4.5-7.3,6.6-12,4.8c-3.2-1.3-5.5-4.2-5.7-7.6
			c2.2-36.6-13.2-72-41.4-95.3c0.3-21-16.5-38.4-37.5-38.7c-5.9-0.1-11.6,1.2-16.9,3.7c-39.5-8.2-80.1,8.1-103.1,41.3
			c-2.8,3.7-8.2,4.6-12.1,2c-3.9-2.6-5.3-7.6-3.2-11.7l0,0c11.4-20.4,28.6-37.4,49.6-48.9c7.6-5.1,9.6-15,4.8-22.5
			c-0.9-1.3-1.9-2.6-3.2-3.6C504.4,131.4,527,131,548.7,135.6z"/>
		<path class="st5" d="M541.9,194.8c9.9-13,29-15.9,42.6-6.4c0.6,0.4,1.1,0.8,1.6,1.2c13.6,11.2,15.9,30.6,5.1,44.3
			c-9.9,13-29,15.9-42.6,6.4c-0.6-0.4-1.1-0.8-1.6-1.2C533.4,227.9,531.1,208.6,541.9,194.8z"/>
		<path class="st5" d="M548.7,135.6c80.5,17.2,132.1,96.5,115,177.4c-1.9,4.5-7.3,6.6-12,4.8c-3.2-1.3-5.5-4.2-5.7-7.6
			c2.2-36.6-13.2-72-41.4-95.3c0.3-21-16.5-38.4-37.5-38.7c-5.9-0.1-11.6,1.2-16.9,3.7c-39.5-8.2-80.1,8.1-103.1,41.3
			c-2.8,3.7-8.2,4.6-12.1,2c-3.9-2.6-5.3-7.6-3.2-11.7l0,0c11.4-20.4,28.6-37.4,49.6-48.9c7.6-5.1,9.6-15,4.8-22.5
			c-0.9-1.3-1.9-2.6-3.2-3.6C504.4,131.4,527,131,548.7,135.6z"/>
		<path class="st5" d="M541.9,194.8c9.9-13,29-15.9,42.6-6.4c0.6,0.4,1.1,0.8,1.6,1.2c13.6,11.2,15.9,30.6,5.1,44.3
			c-9.9,13-29,15.9-42.6,6.4c-0.6-0.4-1.1-0.8-1.6-1.2C533.4,227.9,531.1,208.6,541.9,194.8z"/>
		<path class="st5" d="M548.7,135.6c80.5,17.2,132.1,96.5,115,177.4c-1.9,4.5-7.3,6.6-12,4.8c-3.2-1.3-5.5-4.2-5.7-7.6
			c2.2-36.6-13.2-72-41.4-95.3c0.3-21-16.5-38.4-37.5-38.7c-5.9-0.1-11.6,1.2-16.9,3.7c-39.5-8.2-80.1,8.1-103.1,41.3
			c-2.8,3.7-8.2,4.6-12.1,2c-3.9-2.6-5.3-7.6-3.2-11.7l0,0c11.4-20.4,28.6-37.4,49.6-48.9c7.6-5.1,9.6-15,4.8-22.5
			c-0.9-1.3-1.9-2.6-3.2-3.6C504.4,131.4,527,131,548.7,135.6z"/>
		<path class="st5" d="M541.9,194.8c9.9-13,29-15.9,42.6-6.4c0.6,0.4,1.1,0.8,1.6,1.2c13.6,11.2,15.9,30.6,5.1,44.3
			c-9.9,13-29,15.9-42.6,6.4c-0.6-0.4-1.1-0.8-1.6-1.2C533.4,227.9,531.1,208.6,541.9,194.8z"/>
		<path class="st5" d="M548.7,135.6c80.5,17.2,132.1,96.5,115,177.4c-1.9,4.5-7.3,6.6-12,4.8c-3.2-1.3-5.5-4.2-5.7-7.6
			c2.2-36.6-13.2-72-41.4-95.3c0.3-21-16.5-38.4-37.5-38.7c-5.9-0.1-11.6,1.2-16.9,3.7c-39.5-8.2-80.1,8.1-103.1,41.3
			c-2.8,3.7-8.2,4.6-12.1,2c-3.9-2.6-5.3-7.6-3.2-11.7l0,0c11.4-20.4,28.6-37.4,49.6-48.9c7.6-5.1,9.6-15,4.8-22.5
			c-0.9-1.3-1.9-2.6-3.2-3.6C504.4,131.4,527,131,548.7,135.6z"/>
		<path class="st5" d="M541.9,194.8c9.9-13,29-15.9,42.6-6.4c0.6,0.4,1.1,0.8,1.6,1.2c13.6,11.2,15.9,30.6,5.1,44.3
			c-9.9,13-29,15.9-42.6,6.4c-0.6-0.4-1.1-0.8-1.6-1.2C533.4,227.9,531.1,208.6,541.9,194.8z"/>
		<path class="st5" d="M548.7,135.6c80.5,17.2,132.1,96.5,115,177.4c-1.9,4.5-7.3,6.6-12,4.8c-3.2-1.3-5.5-4.2-5.7-7.6
			c2.2-36.6-13.2-72-41.4-95.3c0.3-21-16.5-38.4-37.5-38.7c-5.9-0.1-11.6,1.2-16.9,3.7c-39.5-8.2-80.1,8.1-103.1,41.3
			c-2.8,3.7-8.2,4.6-12.1,2c-3.9-2.6-5.3-7.6-3.2-11.7l0,0c11.4-20.4,28.6-37.4,49.6-48.9c7.6-5.1,9.6-15,4.8-22.5
			c-0.9-1.3-1.9-2.6-3.2-3.6C504.4,131.4,527,131,548.7,135.6z"/>
		<path class="st5" d="M541.9,194.8c9.9-13,29-15.9,42.6-6.4c0.6,0.4,1.1,0.8,1.6,1.2c13.6,11.2,15.9,30.6,5.1,44.3
			c-9.9,13-29,15.9-42.6,6.4c-0.6-0.4-1.1-0.8-1.6-1.2C533.4,227.9,531.1,208.6,541.9,194.8z"/>
		<path class="st5" d="M548.7,135.6c80.5,17.2,132.1,96.5,115,177.4c-1.9,4.5-7.3,6.6-12,4.8c-3.2-1.3-5.5-4.2-5.7-7.6
			c2.2-36.6-13.2-72-41.4-95.3c0.3-21-16.5-38.4-37.5-38.7c-5.9-0.1-11.6,1.2-16.9,3.7c-39.5-8.2-80.1,8.1-103.1,41.3
			c-2.8,3.7-8.2,4.6-12.1,2c-3.9-2.6-5.3-7.6-3.2-11.7l0,0c11.4-20.4,28.6-37.4,49.6-48.9c7.6-5.1,9.6-15,4.8-22.5
			c-0.9-1.3-1.9-2.6-3.2-3.6C504.4,131.4,527,131,548.7,135.6z"/>
		<path class="st5" d="M541.9,194.8c9.9-13,29-15.9,42.6-6.4c0.6,0.4,1.1,0.8,1.6,1.2c13.6,11.2,15.9,30.6,5.1,44.3
			c-9.9,13-29,15.9-42.6,6.4c-0.6-0.4-1.1-0.8-1.6-1.2C533.4,227.9,531.1,208.6,541.9,194.8z"/>
		<path class="st6" d="M471.6,139.8c3.3-0.3,6.5,1.1,8.4,3.7c3.1,4.2,2.2,9.9-1.9,13.1c-32.7,16.4-55.6,47.4-61.6,83.6
			c-18.3,10.3-25,33.5-14.6,51.9c2.8,5.1,6.8,9.5,11.6,12.9c12.7,38.4,47,65.5,87.2,68.9c4.8,0.8,8.2,4.9,7.8,9.6
			c-0.1,4.5-3.8,8.2-8.5,8.6c-23.8,0.2-47.1-6.2-67.1-18.6c-7.8-3.9-17.4-1.1-21.5,6.4c-0.1,0.2-0.2,0.4-0.4,0.7
			c-0.7,1.4-1.2,3-1.5,4.5c-15.4-16.4-26.8-35.6-33.6-56.6C350.5,249.8,393.2,165.3,471.6,139.8z"/>
		<ellipse class="st7" cx="551.7" cy="358" rx="31.4" ry="31.5"/>
		<path class="st6" d="M410.4,253.7c9.9-13,29-15.9,42.6-6.4c0.6,0.4,1.1,0.8,1.6,1.2c13.6,11.2,15.9,30.6,5.1,44.3
			c-9.9,13-29,15.9-42.6,6.4c-0.5-0.4-1.1-0.8-1.6-1.2C401.9,286.8,399.6,267.5,410.4,253.7z"/>
		<path class="st7" d="M628.6,382c-55.1,61.4-149.4,66.4-210.6,11.3c-1.9-2.7-2.3-6.1-1-9.1c1.8-4.5,7.1-6.8,11.7-5
			c0.1,0.1,0.3,0.1,0.4,0.2c30.1,20.1,68.8,24.5,102.9,11.7c18.1,10.8,41.5,4.9,52.2-13.3c3-5.1,4.8-10.7,5.3-16.6
			c26.8-30.3,33-73.6,15.9-110.3c-1.8-4.4,0.1-9.3,4.4-11.6c4.1-2.1,9.2-0.8,11.7,3.1c12.1,20.6,18.2,44,17.5,67.6
			c0.3,8.8,7.9,15.6,17,15.4h0.1c1.6-0.1,3.2-0.4,4.7-0.9C654.5,345.6,643.5,365.2,628.6,382z"/>
		<path class="st5" d="M548.7,135.6c80.5,17.2,132.1,96.5,115,177.4c-1.9,4.5-7.3,6.6-12,4.8c-3.2-1.3-5.5-4.2-5.7-7.6
			c2.2-36.6-13.2-72-41.4-95.3c0.3-21-16.5-38.4-37.5-38.7c-5.9-0.1-11.6,1.2-16.9,3.7c-39.5-8.2-80.1,8.1-103.1,41.3
			c-2.8,3.7-8.2,4.6-12.1,2c-3.9-2.6-5.3-7.6-3.2-11.7l0,0c11.4-20.4,28.6-37.4,49.6-48.9c7.6-5.1,9.6-15,4.8-22.5
			c-0.9-1.3-1.9-2.6-3.2-3.6C504.4,131.4,527,131,548.7,135.6z"/>
		<path class="st5" d="M541.9,194.8c9.9-13,29-15.9,42.6-6.4c0.6,0.4,1.1,0.8,1.6,1.2c13.6,11.2,15.9,30.6,5.1,44.3
			c-9.9,13-29,15.9-42.6,6.4c-0.6-0.4-1.1-0.8-1.6-1.2C533.4,227.9,531.1,208.6,541.9,194.8z"/>
		<path class="st5" d="M548.7,135.6c80.5,17.2,132.1,96.5,115,177.4c-1.9,4.5-7.3,6.6-12,4.8c-3.2-1.3-5.5-4.2-5.7-7.6
			c2.2-36.6-13.2-72-41.4-95.3c0.3-21-16.5-38.4-37.5-38.7c-5.9-0.1-11.6,1.2-16.9,3.7c-39.5-8.2-80.1,8.1-103.1,41.3
			c-2.8,3.7-8.2,4.6-12.1,2c-3.9-2.6-5.3-7.6-3.2-11.7l0,0c11.4-20.4,28.6-37.4,49.6-48.9c7.6-5.1,9.6-15,4.8-22.5
			c-0.9-1.3-1.9-2.6-3.2-3.6C504.4,131.4,527,131,548.7,135.6z"/>
		<path class="st5" d="M541.9,194.8c9.9-13,29-15.9,42.6-6.4c0.6,0.4,1.1,0.8,1.6,1.2c13.6,11.2,15.9,30.6,5.1,44.3
			c-9.9,13-29,15.9-42.6,6.4c-0.6-0.4-1.1-0.8-1.6-1.2C533.4,227.9,531.1,208.6,541.9,194.8z"/>
		<path class="st5" d="M548.7,135.6c80.5,17.2,132.1,96.5,115,177.4c-1.9,4.5-7.3,6.6-12,4.8c-3.2-1.3-5.5-4.2-5.7-7.6
			c2.2-36.6-13.2-72-41.4-95.3c0.3-21-16.5-38.4-37.5-38.7c-5.9-0.1-11.6,1.2-16.9,3.7c-39.5-8.2-80.1,8.1-103.1,41.3
			c-2.8,3.7-8.2,4.6-12.1,2c-3.9-2.6-5.3-7.6-3.2-11.7l0,0c11.4-20.4,28.6-37.4,49.6-48.9c7.6-5.1,9.6-15,4.8-22.5
			c-0.9-1.3-1.9-2.6-3.2-3.6C504.4,131.4,527,131,548.7,135.6z"/>
		<path class="st5" d="M541.9,194.8c9.9-13,29-15.9,42.6-6.4c0.6,0.4,1.1,0.8,1.6,1.2c13.6,11.2,15.9,30.6,5.1,44.3
			c-9.9,13-29,15.9-42.6,6.4c-0.6-0.4-1.1-0.8-1.6-1.2C533.4,227.9,531.1,208.6,541.9,194.8z"/>
		<path class="st5" d="M548.7,135.6c80.5,17.2,132.1,96.5,115,177.4c-1.9,4.5-7.3,6.6-12,4.8c-3.2-1.3-5.5-4.2-5.7-7.6
			c2.2-36.6-13.2-72-41.4-95.3c0.3-21-16.5-38.4-37.5-38.7c-5.9-0.1-11.6,1.2-16.9,3.7c-39.5-8.2-80.1,8.1-103.1,41.3
			c-2.8,3.7-8.2,4.6-12.1,2c-3.9-2.6-5.3-7.6-3.2-11.7l0,0c11.4-20.4,28.6-37.4,49.6-48.9c7.6-5.1,9.6-15,4.8-22.5
			c-0.9-1.3-1.9-2.6-3.2-3.6C504.4,131.4,527,131,548.7,135.6z"/>
		<path class="st5" d="M541.9,194.8c9.9-13,29-15.9,42.6-6.4c0.6,0.4,1.1,0.8,1.6,1.2c13.6,11.2,15.9,30.6,5.1,44.3
			c-9.9,13-29,15.9-42.6,6.4c-0.6-0.4-1.1-0.8-1.6-1.2C533.4,227.9,531.1,208.6,541.9,194.8z"/>
		<path class="st5" d="M548.7,135.6c80.5,17.2,132.1,96.5,115,177.4c-1.9,4.5-7.3,6.6-12,4.8c-3.2-1.3-5.5-4.2-5.7-7.6
			c2.2-36.6-13.2-72-41.4-95.3c0.3-21-16.5-38.4-37.5-38.7c-5.9-0.1-11.6,1.2-16.9,3.7c-39.5-8.2-80.1,8.1-103.1,41.3
			c-2.8,3.7-8.2,4.6-12.1,2c-3.9-2.6-5.3-7.6-3.2-11.7l0,0c11.4-20.4,28.6-37.4,49.6-48.9c7.6-5.1,9.6-15,4.8-22.5
			c-0.9-1.3-1.9-2.6-3.2-3.6C504.4,131.4,527,131,548.7,135.6z"/>
		<path class="st5" d="M541.9,194.8c9.9-13,29-15.9,42.6-6.4c0.6,0.4,1.1,0.8,1.6,1.2c13.6,11.2,15.9,30.6,5.1,44.3
			c-9.9,13-29,15.9-42.6,6.4c-0.6-0.4-1.1-0.8-1.6-1.2C533.4,227.9,531.1,208.6,541.9,194.8z"/>
		<path class="st5" d="M548.7,135.6c80.5,17.2,132.1,96.5,115,177.4c-1.9,4.5-7.3,6.6-12,4.8c-3.2-1.3-5.5-4.2-5.7-7.6
			c2.2-36.6-13.2-72-41.4-95.3c0.3-21-16.5-38.4-37.5-38.7c-5.9-0.1-11.6,1.2-16.9,3.7c-39.5-8.2-80.1,8.1-103.1,41.3
			c-2.8,3.7-8.2,4.6-12.1,2c-3.9-2.6-5.3-7.6-3.2-11.7l0,0c11.4-20.4,28.6-37.4,49.6-48.9c7.6-5.1,9.6-15,4.8-22.5
			c-0.9-1.3-1.9-2.6-3.2-3.6C504.4,131.4,527,131,548.7,135.6z"/>
		<path class="st5" d="M541.9,194.8c9.9-13,29-15.9,42.6-6.4c0.6,0.4,1.1,0.8,1.6,1.2c13.6,11.2,15.9,30.6,5.1,44.3
			c-9.9,13-29,15.9-42.6,6.4c-0.6-0.4-1.1-0.8-1.6-1.2C533.4,227.9,531.1,208.6,541.9,194.8z"/>
		<path class="st6" d="M471.6,139.8c3.3-0.3,6.5,1.1,8.4,3.7c3.1,4.2,2.2,9.9-1.9,13.1c-32.7,16.4-55.6,47.4-61.6,83.6
			c-18.3,10.3-25,33.5-14.6,51.9c2.8,5.1,6.8,9.5,11.6,12.9c12.7,38.4,47,65.5,87.2,68.9c4.8,0.8,8.2,4.9,7.8,9.6
			c-0.1,4.5-3.8,8.2-8.5,8.6c-23.8,0.2-47.1-6.2-67.1-18.6c-7.8-3.9-17.4-1.1-21.5,6.4c-0.1,0.2-0.2,0.4-0.4,0.7
			c-0.7,1.4-1.2,3-1.5,4.5c-15.4-16.4-26.8-35.6-33.6-56.6C350.5,249.8,393.2,165.3,471.6,139.8z"/>
		<ellipse class="st7" cx="551.7" cy="358" rx="31.4" ry="31.5"/>
		<path class="st6" d="M410.4,253.7c9.9-13,29-15.9,42.6-6.4c0.6,0.4,1.1,0.8,1.6,1.2c13.6,11.2,15.9,30.6,5.1,44.3
			c-9.9,13-29,15.9-42.6,6.4c-0.5-0.4-1.1-0.8-1.6-1.2C401.9,286.8,399.6,267.5,410.4,253.7z"/>
		<path class="st7" d="M628.6,382c-55.1,61.4-149.4,66.4-210.6,11.3c-1.9-2.7-2.3-6.1-1-9.1c1.8-4.5,7.1-6.8,11.7-5
			c0.1,0.1,0.3,0.1,0.4,0.2c30.1,20.1,68.8,24.5,102.9,11.7c18.1,10.8,41.5,4.9,52.2-13.3c3-5.1,4.8-10.7,5.3-16.6
			c26.8-30.3,33-73.6,15.9-110.3c-1.8-4.4,0.1-9.3,4.4-11.6c4.1-2.1,9.2-0.8,11.7,3.1c12.1,20.6,18.2,44,17.5,67.6
			c0.3,8.8,7.9,15.6,17,15.4h0.1c1.6-0.1,3.2-0.4,4.7-0.9C654.5,345.6,643.5,365.2,628.6,382z"/>
		<path class="st5" d="M548.7,135.6c80.5,17.2,132.1,96.5,115,177.4c-1.9,4.5-7.3,6.6-12,4.8c-3.2-1.3-5.5-4.2-5.7-7.6
			c2.2-36.6-13.2-72-41.4-95.3c0.3-21-16.5-38.4-37.5-38.7c-5.9-0.1-11.6,1.2-16.9,3.7c-39.5-8.2-80.1,8.1-103.1,41.3
			c-2.8,3.7-8.2,4.6-12.1,2c-3.9-2.6-5.3-7.6-3.2-11.7l0,0c11.4-20.4,28.6-37.4,49.6-48.9c7.6-5.1,9.6-15,4.8-22.5
			c-0.9-1.3-1.9-2.6-3.2-3.6C504.4,131.4,527,131,548.7,135.6z"/>
		<path class="st5" d="M541.9,194.8c9.9-13,29-15.9,42.6-6.4c0.6,0.4,1.1,0.8,1.6,1.2c13.6,11.2,15.9,30.6,5.1,44.3
			c-9.9,13-29,15.9-42.6,6.4c-0.6-0.4-1.1-0.8-1.6-1.2C533.4,227.9,531.1,208.6,541.9,194.8z"/>
		<path class="st5" d="M548.7,135.6c80.5,17.2,132.1,96.5,115,177.4c-1.9,4.5-7.3,6.6-12,4.8c-3.2-1.3-5.5-4.2-5.7-7.6
			c2.2-36.6-13.2-72-41.4-95.3c0.3-21-16.5-38.4-37.5-38.7c-5.9-0.1-11.6,1.2-16.9,3.7c-39.5-8.2-80.1,8.1-103.1,41.3
			c-2.8,3.7-8.2,4.6-12.1,2c-3.9-2.6-5.3-7.6-3.2-11.7l0,0c11.4-20.4,28.6-37.4,49.6-48.9c7.6-5.1,9.6-15,4.8-22.5
			c-0.9-1.3-1.9-2.6-3.2-3.6C504.4,131.4,527,131,548.7,135.6z"/>
		<path class="st5" d="M541.9,194.8c9.9-13,29-15.9,42.6-6.4c0.6,0.4,1.1,0.8,1.6,1.2c13.6,11.2,15.9,30.6,5.1,44.3
			c-9.9,13-29,15.9-42.6,6.4c-0.6-0.4-1.1-0.8-1.6-1.2C533.4,227.9,531.1,208.6,541.9,194.8z"/>
		<path class="st5" d="M548.7,135.6c80.5,17.2,132.1,96.5,115,177.4c-1.9,4.5-7.3,6.6-12,4.8c-3.2-1.3-5.5-4.2-5.7-7.6
			c2.2-36.6-13.2-72-41.4-95.3c0.3-21-16.5-38.4-37.5-38.7c-5.9-0.1-11.6,1.2-16.9,3.7c-39.5-8.2-80.1,8.1-103.1,41.3
			c-2.8,3.7-8.2,4.6-12.1,2c-3.9-2.6-5.3-7.6-3.2-11.7l0,0c11.4-20.4,28.6-37.4,49.6-48.9c7.6-5.1,9.6-15,4.8-22.5
			c-0.9-1.3-1.9-2.6-3.2-3.6C504.4,131.4,527,131,548.7,135.6z"/>
		<path class="st5" d="M541.9,194.8c9.9-13,29-15.9,42.6-6.4c0.6,0.4,1.1,0.8,1.6,1.2c13.6,11.2,15.9,30.6,5.1,44.3
			c-9.9,13-29,15.9-42.6,6.4c-0.6-0.4-1.1-0.8-1.6-1.2C533.4,227.9,531.1,208.6,541.9,194.8z"/>
		<path class="st5" d="M548.7,135.6c80.5,17.2,132.1,96.5,115,177.4c-1.9,4.5-7.3,6.6-12,4.8c-3.2-1.3-5.5-4.2-5.7-7.6
			c2.2-36.6-13.2-72-41.4-95.3c0.3-21-16.5-38.4-37.5-38.7c-5.9-0.1-11.6,1.2-16.9,3.7c-39.5-8.2-80.1,8.1-103.1,41.3
			c-2.8,3.7-8.2,4.6-12.1,2c-3.9-2.6-5.3-7.6-3.2-11.7l0,0c11.4-20.4,28.6-37.4,49.6-48.9c7.6-5.1,9.6-15,4.8-22.5
			c-0.9-1.3-1.9-2.6-3.2-3.6C504.4,131.4,527,131,548.7,135.6z"/>
		<path class="st5" d="M541.9,194.8c9.9-13,29-15.9,42.6-6.4c0.6,0.4,1.1,0.8,1.6,1.2c13.6,11.2,15.9,30.6,5.1,44.3
			c-9.9,13-29,15.9-42.6,6.4c-0.6-0.4-1.1-0.8-1.6-1.2C533.4,227.9,531.1,208.6,541.9,194.8z"/>
		<path class="st5" d="M548.7,135.6c80.5,17.2,132.1,96.5,115,177.4c-1.9,4.5-7.3,6.6-12,4.8c-3.2-1.3-5.5-4.2-5.7-7.6
			c2.2-36.6-13.2-72-41.4-95.3c0.3-21-16.5-38.4-37.5-38.7c-5.9-0.1-11.6,1.2-16.9,3.7c-39.5-8.2-80.1,8.1-103.1,41.3
			c-2.8,3.7-8.2,4.6-12.1,2c-3.9-2.6-5.3-7.6-3.2-11.7l0,0c11.4-20.4,28.6-37.4,49.6-48.9c7.6-5.1,9.6-15,4.8-22.5
			c-0.9-1.3-1.9-2.6-3.2-3.6C504.4,131.4,527,131,548.7,135.6z"/>
		<path class="st5" d="M541.9,194.8c9.9-13,29-15.9,42.6-6.4c0.6,0.4,1.1,0.8,1.6,1.2c13.6,11.2,15.9,30.6,5.1,44.3
			c-9.9,13-29,15.9-42.6,6.4c-0.6-0.4-1.1-0.8-1.6-1.2C533.4,227.9,531.1,208.6,541.9,194.8z"/>
		<path class="st5" d="M548.7,135.6c80.5,17.2,132.1,96.5,115,177.4c-1.9,4.5-7.3,6.6-12,4.8c-3.2-1.3-5.5-4.2-5.7-7.6
			c2.2-36.6-13.2-72-41.4-95.3c0.3-21-16.5-38.4-37.5-38.7c-5.9-0.1-11.6,1.2-16.9,3.7c-39.5-8.2-80.1,8.1-103.1,41.3
			c-2.8,3.7-8.2,4.6-12.1,2c-3.9-2.6-5.3-7.6-3.2-11.7l0,0c11.4-20.4,28.6-37.4,49.6-48.9c7.6-5.1,9.6-15,4.8-22.5
			c-0.9-1.3-1.9-2.6-3.2-3.6C504.4,131.4,527,131,548.7,135.6z"/>
		<path class="st5" d="M541.9,194.8c9.9-13,29-15.9,42.6-6.4c0.6,0.4,1.1,0.8,1.6,1.2c13.6,11.2,15.9,30.6,5.1,44.3
			c-9.9,13-29,15.9-42.6,6.4c-0.6-0.4-1.1-0.8-1.6-1.2C533.4,227.9,531.1,208.6,541.9,194.8z"/>
		<path class="st6" d="M471.6,139.8c3.3-0.3,6.5,1.1,8.4,3.7c3.1,4.2,2.2,9.9-1.9,13.1c-32.7,16.4-55.6,47.4-61.6,83.6
			c-18.3,10.3-25,33.5-14.6,51.9c2.8,5.1,6.8,9.5,11.6,12.9c12.7,38.4,47,65.5,87.2,68.9c4.8,0.8,8.2,4.9,7.8,9.6
			c-0.1,4.5-3.8,8.2-8.5,8.6c-23.8,0.2-47.1-6.2-67.1-18.6c-7.8-3.9-17.4-1.1-21.5,6.4c-0.1,0.2-0.2,0.4-0.4,0.7
			c-0.7,1.4-1.2,3-1.5,4.5c-15.4-16.4-26.8-35.6-33.6-56.6C350.5,249.8,393.2,165.3,471.6,139.8z"/>
		<ellipse class="st7" cx="551.7" cy="358" rx="31.4" ry="31.5"/>
		<path class="st6" d="M410.4,253.7c9.9-13,29-15.9,42.6-6.4c0.6,0.4,1.1,0.8,1.6,1.2c13.6,11.2,15.9,30.6,5.1,44.3
			c-9.9,13-29,15.9-42.6,6.4c-0.5-0.4-1.1-0.8-1.6-1.2C401.9,286.8,399.6,267.5,410.4,253.7z"/>
		<path class="st7" d="M628.6,382c-55.1,61.4-149.4,66.4-210.6,11.3c-1.9-2.7-2.3-6.1-1-9.1c1.8-4.5,7.1-6.8,11.7-5
			c0.1,0.1,0.3,0.1,0.4,0.2c30.1,20.1,68.8,24.5,102.9,11.7c18.1,10.8,41.5,4.9,52.2-13.3c3-5.1,4.8-10.7,5.3-16.6
			c26.8-30.3,33-73.6,15.9-110.3c-1.8-4.4,0.1-9.3,4.4-11.6c4.1-2.1,9.2-0.8,11.7,3.1c12.1,20.6,18.2,44,17.5,67.6
			c0.3,8.8,7.9,15.6,17,15.4h0.1c1.6-0.1,3.2-0.4,4.7-0.9C654.5,345.6,643.5,365.2,628.6,382z"/>
		<path class="st5" d="M548.7,135.6c80.5,17.2,132.1,96.5,115,177.4c-1.9,4.5-7.3,6.6-12,4.8c-3.2-1.3-5.5-4.2-5.7-7.6
			c2.2-36.6-13.2-72-41.4-95.3c0.3-21-16.5-38.4-37.5-38.7c-5.9-0.1-11.6,1.2-16.9,3.7c-39.5-8.2-80.1,8.1-103.1,41.3
			c-2.8,3.7-8.2,4.6-12.1,2c-3.9-2.6-5.3-7.6-3.2-11.7l0,0c11.4-20.4,28.6-37.4,49.6-48.9c7.6-5.1,9.6-15,4.8-22.5
			c-0.9-1.3-1.9-2.6-3.2-3.6C504.4,131.4,527,131,548.7,135.6z"/>
		<path class="st5" d="M541.9,194.8c9.9-13,29-15.9,42.6-6.4c0.6,0.4,1.1,0.8,1.6,1.2c13.6,11.2,15.9,30.6,5.1,44.3
			c-9.9,13-29,15.9-42.6,6.4c-0.6-0.4-1.1-0.8-1.6-1.2C533.4,227.9,531.1,208.6,541.9,194.8z"/>
		<path class="st5" d="M548.7,135.6c80.5,17.2,132.1,96.5,115,177.4c-1.9,4.5-7.3,6.6-12,4.8c-3.2-1.3-5.5-4.2-5.7-7.6
			c2.2-36.6-13.2-72-41.4-95.3c0.3-21-16.5-38.4-37.5-38.7c-5.9-0.1-11.6,1.2-16.9,3.7c-39.5-8.2-80.1,8.1-103.1,41.3
			c-2.8,3.7-8.2,4.6-12.1,2c-3.9-2.6-5.3-7.6-3.2-11.7l0,0c11.4-20.4,28.6-37.4,49.6-48.9c7.6-5.1,9.6-15,4.8-22.5
			c-0.9-1.3-1.9-2.6-3.2-3.6C504.4,131.4,527,131,548.7,135.6z"/>
		<path class="st5" d="M541.9,194.8c9.9-13,29-15.9,42.6-6.4c0.6,0.4,1.1,0.8,1.6,1.2c13.6,11.2,15.9,30.6,5.1,44.3
			c-9.9,13-29,15.9-42.6,6.4c-0.6-0.4-1.1-0.8-1.6-1.2C533.4,227.9,531.1,208.6,541.9,194.8z"/>
		<path class="st5" d="M548.7,135.6c80.5,17.2,132.1,96.5,115,177.4c-1.9,4.5-7.3,6.6-12,4.8c-3.2-1.3-5.5-4.2-5.7-7.6
			c2.2-36.6-13.2-72-41.4-95.3c0.3-21-16.5-38.4-37.5-38.7c-5.9-0.1-11.6,1.2-16.9,3.7c-39.5-8.2-80.1,8.1-103.1,41.3
			c-2.8,3.7-8.2,4.6-12.1,2c-3.9-2.6-5.3-7.6-3.2-11.7l0,0c11.4-20.4,28.6-37.4,49.6-48.9c7.6-5.1,9.6-15,4.8-22.5
			c-0.9-1.3-1.9-2.6-3.2-3.6C504.4,131.4,527,131,548.7,135.6z"/>
		<path class="st5" d="M541.9,194.8c9.9-13,29-15.9,42.6-6.4c0.6,0.4,1.1,0.8,1.6,1.2c13.6,11.2,15.9,30.6,5.1,44.3
			c-9.9,13-29,15.9-42.6,6.4c-0.6-0.4-1.1-0.8-1.6-1.2C533.4,227.9,531.1,208.6,541.9,194.8z"/>
		<path class="st5" d="M548.7,135.6c80.5,17.2,132.1,96.5,115,177.4c-1.9,4.5-7.3,6.6-12,4.8c-3.2-1.3-5.5-4.2-5.7-7.6
			c2.2-36.6-13.2-72-41.4-95.3c0.3-21-16.5-38.4-37.5-38.7c-5.9-0.1-11.6,1.2-16.9,3.7c-39.5-8.2-80.1,8.1-103.1,41.3
			c-2.8,3.7-8.2,4.6-12.1,2c-3.9-2.6-5.3-7.6-3.2-11.7l0,0c11.4-20.4,28.6-37.4,49.6-48.9c7.6-5.1,9.6-15,4.8-22.5
			c-0.9-1.3-1.9-2.6-3.2-3.6C504.4,131.4,527,131,548.7,135.6z"/>
		<path class="st5" d="M541.9,194.8c9.9-13,29-15.9,42.6-6.4c0.6,0.4,1.1,0.8,1.6,1.2c13.6,11.2,15.9,30.6,5.1,44.3
			c-9.9,13-29,15.9-42.6,6.4c-0.6-0.4-1.1-0.8-1.6-1.2C533.4,227.9,531.1,208.6,541.9,194.8z"/>
		<path class="st5" d="M548.7,135.6c80.5,17.2,132.1,96.5,115,177.4c-1.9,4.5-7.3,6.6-12,4.8c-3.2-1.3-5.5-4.2-5.7-7.6
			c2.2-36.6-13.2-72-41.4-95.3c0.3-21-16.5-38.4-37.5-38.7c-5.9-0.1-11.6,1.2-16.9,3.7c-39.5-8.2-80.1,8.1-103.1,41.3
			c-2.8,3.7-8.2,4.6-12.1,2c-3.9-2.6-5.3-7.6-3.2-11.7l0,0c11.4-20.4,28.6-37.4,49.6-48.9c7.6-5.1,9.6-15,4.8-22.5
			c-0.9-1.3-1.9-2.6-3.2-3.6C504.4,131.4,527,131,548.7,135.6z"/>
		<path class="st5" d="M541.9,194.8c9.9-13,29-15.9,42.6-6.4c0.6,0.4,1.1,0.8,1.6,1.2c13.6,11.2,15.9,30.6,5.1,44.3
			c-9.9,13-29,15.9-42.6,6.4c-0.6-0.4-1.1-0.8-1.6-1.2C533.4,227.9,531.1,208.6,541.9,194.8z"/>
		<path class="st5" d="M548.7,135.6c80.5,17.2,132.1,96.5,115,177.4c-1.9,4.5-7.3,6.6-12,4.8c-3.2-1.3-5.5-4.2-5.7-7.6
			c2.2-36.6-13.2-72-41.4-95.3c0.3-21-16.5-38.4-37.5-38.7c-5.9-0.1-11.6,1.2-16.9,3.7c-39.5-8.2-80.1,8.1-103.1,41.3
			c-2.8,3.7-8.2,4.6-12.1,2c-3.9-2.6-5.3-7.6-3.2-11.7l0,0c11.4-20.4,28.6-37.4,49.6-48.9c7.6-5.1,9.6-15,4.8-22.5
			c-0.9-1.3-1.9-2.6-3.2-3.6C504.4,131.4,527,131,548.7,135.6z"/>
		<path class="st5" d="M541.9,194.8c9.9-13,29-15.9,42.6-6.4c0.6,0.4,1.1,0.8,1.6,1.2c13.6,11.2,15.9,30.6,5.1,44.3
			c-9.9,13-29,15.9-42.6,6.4c-0.6-0.4-1.1-0.8-1.6-1.2C533.4,227.9,531.1,208.6,541.9,194.8z"/>
		<path class="st6" d="M471.6,139.8c3.3-0.3,6.5,1.1,8.4,3.7c3.1,4.2,2.2,9.9-1.9,13.1c-32.7,16.4-55.6,47.4-61.6,83.6
			c-18.3,10.3-25,33.5-14.6,51.9c2.8,5.1,6.8,9.5,11.6,12.9c12.7,38.4,47,65.5,87.2,68.9c4.8,0.8,8.2,4.9,7.8,9.6
			c-0.1,4.5-3.8,8.2-8.5,8.6c-23.8,0.2-47.1-6.2-67.1-18.6c-7.8-3.9-17.4-1.1-21.5,6.4c-0.1,0.2-0.2,0.4-0.4,0.7
			c-0.7,1.4-1.2,3-1.5,4.5c-15.4-16.4-26.8-35.6-33.6-56.6C350.5,249.8,393.2,165.3,471.6,139.8z"/>
		<ellipse class="st7" cx="551.7" cy="358" rx="31.4" ry="31.5"/>
		<path class="st6" d="M410.4,253.7c9.9-13,29-15.9,42.6-6.4c0.6,0.4,1.1,0.8,1.6,1.2c13.6,11.2,15.9,30.6,5.1,44.3
			c-9.9,13-29,15.9-42.6,6.4c-0.5-0.4-1.1-0.8-1.6-1.2C401.9,286.8,399.6,267.5,410.4,253.7z"/>
		<path class="st7" d="M628.6,382c-55.1,61.4-149.4,66.4-210.6,11.3c-1.9-2.7-2.3-6.1-1-9.1c1.8-4.5,7.1-6.8,11.7-5
			c0.1,0.1,0.3,0.1,0.4,0.2c30.1,20.1,68.8,24.5,102.9,11.7c18.1,10.8,41.5,4.9,52.2-13.3c3-5.1,4.8-10.7,5.3-16.6
			c26.8-30.3,33-73.6,15.9-110.3c-1.8-4.4,0.1-9.3,4.4-11.6c4.1-2.1,9.2-0.8,11.7,3.1c12.1,20.6,18.2,44,17.5,67.6
			c0.3,8.8,7.9,15.6,17,15.4h0.1c1.6-0.1,3.2-0.4,4.7-0.9C654.5,345.6,643.5,365.2,628.6,382z"/>
		<path class="st5" d="M548.7,135.6c80.5,17.2,132.1,96.5,115,177.4c-1.9,4.5-7.3,6.6-12,4.8c-3.2-1.3-5.5-4.2-5.7-7.6
			c2.2-36.6-13.2-72-41.4-95.3c0.3-21-16.5-38.4-37.5-38.7c-5.9-0.1-11.6,1.2-16.9,3.7c-39.5-8.2-80.1,8.1-103.1,41.3
			c-2.8,3.7-8.2,4.6-12.1,2c-3.9-2.6-5.3-7.6-3.2-11.7l0,0c11.4-20.4,28.6-37.4,49.6-48.9c7.6-5.1,9.6-15,4.8-22.5
			c-0.9-1.3-1.9-2.6-3.2-3.6C504.4,131.4,527,131,548.7,135.6z"/>
		<path class="st5" d="M541.9,194.8c9.9-13,29-15.9,42.6-6.4c0.6,0.4,1.1,0.8,1.6,1.2c13.6,11.2,15.9,30.6,5.1,44.3
			c-9.9,13-29,15.9-42.6,6.4c-0.6-0.4-1.1-0.8-1.6-1.2C533.4,227.9,531.1,208.6,541.9,194.8z"/>
		<path class="st5" d="M548.7,135.6c80.5,17.2,132.1,96.5,115,177.4c-1.9,4.5-7.3,6.6-12,4.8c-3.2-1.3-5.5-4.2-5.7-7.6
			c2.2-36.6-13.2-72-41.4-95.3c0.3-21-16.5-38.4-37.5-38.7c-5.9-0.1-11.6,1.2-16.9,3.7c-39.5-8.2-80.1,8.1-103.1,41.3
			c-2.8,3.7-8.2,4.6-12.1,2c-3.9-2.6-5.3-7.6-3.2-11.7l0,0c11.4-20.4,28.6-37.4,49.6-48.9c7.6-5.1,9.6-15,4.8-22.5
			c-0.9-1.3-1.9-2.6-3.2-3.6C504.4,131.4,527,131,548.7,135.6z"/>
		<path class="st5" d="M541.9,194.8c9.9-13,29-15.9,42.6-6.4c0.6,0.4,1.1,0.8,1.6,1.2c13.6,11.2,15.9,30.6,5.1,44.3
			c-9.9,13-29,15.9-42.6,6.4c-0.6-0.4-1.1-0.8-1.6-1.2C533.4,227.9,531.1,208.6,541.9,194.8z"/>
		<path class="st5" d="M548.7,135.6c80.5,17.2,132.1,96.5,115,177.4c-1.9,4.5-7.3,6.6-12,4.8c-3.2-1.3-5.5-4.2-5.7-7.6
			c2.2-36.6-13.2-72-41.4-95.3c0.3-21-16.5-38.4-37.5-38.7c-5.9-0.1-11.6,1.2-16.9,3.7c-39.5-8.2-80.1,8.1-103.1,41.3
			c-2.8,3.7-8.2,4.6-12.1,2c-3.9-2.6-5.3-7.6-3.2-11.7l0,0c11.4-20.4,28.6-37.4,49.6-48.9c7.6-5.1,9.6-15,4.8-22.5
			c-0.9-1.3-1.9-2.6-3.2-3.6C504.4,131.4,527,131,548.7,135.6z"/>
		<path class="st5" d="M541.9,194.8c9.9-13,29-15.9,42.6-6.4c0.6,0.4,1.1,0.8,1.6,1.2c13.6,11.2,15.9,30.6,5.1,44.3
			c-9.9,13-29,15.9-42.6,6.4c-0.6-0.4-1.1-0.8-1.6-1.2C533.4,227.9,531.1,208.6,541.9,194.8z"/>
		<path class="st5" d="M548.7,135.6c80.5,17.2,132.1,96.5,115,177.4c-1.9,4.5-7.3,6.6-12,4.8c-3.2-1.3-5.5-4.2-5.7-7.6
			c2.2-36.6-13.2-72-41.4-95.3c0.3-21-16.5-38.4-37.5-38.7c-5.9-0.1-11.6,1.2-16.9,3.7c-39.5-8.2-80.1,8.1-103.1,41.3
			c-2.8,3.7-8.2,4.6-12.1,2c-3.9-2.6-5.3-7.6-3.2-11.7l0,0c11.4-20.4,28.6-37.4,49.6-48.9c7.6-5.1,9.6-15,4.8-22.5
			c-0.9-1.3-1.9-2.6-3.2-3.6C504.4,131.4,527,131,548.7,135.6z"/>
		<path class="st5" d="M541.9,194.8c9.9-13,29-15.9,42.6-6.4c0.6,0.4,1.1,0.8,1.6,1.2c13.6,11.2,15.9,30.6,5.1,44.3
			c-9.9,13-29,15.9-42.6,6.4c-0.6-0.4-1.1-0.8-1.6-1.2C533.4,227.9,531.1,208.6,541.9,194.8z"/>
		<path class="st5" d="M548.7,135.6c80.5,17.2,132.1,96.5,115,177.4c-1.9,4.5-7.3,6.6-12,4.8c-3.2-1.3-5.5-4.2-5.7-7.6
			c2.2-36.6-13.2-72-41.4-95.3c0.3-21-16.5-38.4-37.5-38.7c-5.9-0.1-11.6,1.2-16.9,3.7c-39.5-8.2-80.1,8.1-103.1,41.3
			c-2.8,3.7-8.2,4.6-12.1,2c-3.9-2.6-5.3-7.6-3.2-11.7l0,0c11.4-20.4,28.6-37.4,49.6-48.9c7.6-5.1,9.6-15,4.8-22.5
			c-0.9-1.3-1.9-2.6-3.2-3.6C504.4,131.4,527,131,548.7,135.6z"/>
		<path class="st5" d="M541.9,194.8c9.9-13,29-15.9,42.6-6.4c0.6,0.4,1.1,0.8,1.6,1.2c13.6,11.2,15.9,30.6,5.1,44.3
			c-9.9,13-29,15.9-42.6,6.4c-0.6-0.4-1.1-0.8-1.6-1.2C533.4,227.9,531.1,208.6,541.9,194.8z"/>
		<path class="st5" d="M548.7,135.6c80.5,17.2,132.1,96.5,115,177.4c-1.9,4.5-7.3,6.6-12,4.8c-3.2-1.3-5.5-4.2-5.7-7.6
			c2.2-36.6-13.2-72-41.4-95.3c0.3-21-16.5-38.4-37.5-38.7c-5.9-0.1-11.6,1.2-16.9,3.7c-39.5-8.2-80.1,8.1-103.1,41.3
			c-2.8,3.7-8.2,4.6-12.1,2c-3.9-2.6-5.3-7.6-3.2-11.7l0,0c11.4-20.4,28.6-37.4,49.6-48.9c7.6-5.1,9.6-15,4.8-22.5
			c-0.9-1.3-1.9-2.6-3.2-3.6C504.4,131.4,527,131,548.7,135.6z"/>
		<path class="st5" d="M541.9,194.8c9.9-13,29-15.9,42.6-6.4c0.6,0.4,1.1,0.8,1.6,1.2c13.6,11.2,15.9,30.6,5.1,44.3
			c-9.9,13-29,15.9-42.6,6.4c-0.6-0.4-1.1-0.8-1.6-1.2C533.4,227.9,531.1,208.6,541.9,194.8z"/>
		<path class="st6" d="M471.6,139.8c3.3-0.3,6.5,1.1,8.4,3.7c3.1,4.2,2.2,9.9-1.9,13.1c-32.7,16.4-55.6,47.4-61.6,83.6
			c-18.3,10.3-25,33.5-14.6,51.9c2.8,5.1,6.8,9.5,11.6,12.9c12.7,38.4,47,65.5,87.2,68.9c4.8,0.8,8.2,4.9,7.8,9.6
			c-0.1,4.5-3.8,8.2-8.5,8.6c-23.8,0.2-47.1-6.2-67.1-18.6c-7.8-3.9-17.4-1.1-21.5,6.4c-0.1,0.2-0.2,0.4-0.4,0.7
			c-0.7,1.4-1.2,3-1.5,4.5c-15.4-16.4-26.8-35.6-33.6-56.6C350.5,249.8,393.2,165.3,471.6,139.8z"/>
		<ellipse class="st7" cx="551.7" cy="358" rx="31.4" ry="31.5"/>
		<path class="st6" d="M410.4,253.7c9.9-13,29-15.9,42.6-6.4c0.6,0.4,1.1,0.8,1.6,1.2c13.6,11.2,15.9,30.6,5.1,44.3
			c-9.9,13-29,15.9-42.6,6.4c-0.5-0.4-1.1-0.8-1.6-1.2C401.9,286.8,399.6,267.5,410.4,253.7z"/>
		<path class="st7" d="M628.6,382c-55.1,61.4-149.4,66.4-210.6,11.3c-1.9-2.7-2.3-6.1-1-9.1c1.8-4.5,7.1-6.8,11.7-5
			c0.1,0.1,0.3,0.1,0.4,0.2c30.1,20.1,68.8,24.5,102.9,11.7c18.1,10.8,41.5,4.9,52.2-13.3c3-5.1,4.8-10.7,5.3-16.6
			c26.8-30.3,33-73.6,15.9-110.3c-1.8-4.4,0.1-9.3,4.4-11.6c4.1-2.1,9.2-0.8,11.7,3.1c12.1,20.6,18.2,44,17.5,67.6
			c0.3,8.8,7.9,15.6,17,15.4h0.1c1.6-0.1,3.2-0.4,4.7-0.9C654.5,345.6,643.5,365.2,628.6,382z"/>
		<path class="st5" d="M548.7,135.6c80.5,17.2,132.1,96.5,115,177.4c-1.9,4.5-7.3,6.6-12,4.8c-3.2-1.3-5.5-4.2-5.7-7.6
			c2.2-36.6-13.2-72-41.4-95.3c0.3-21-16.5-38.4-37.5-38.7c-5.9-0.1-11.6,1.2-16.9,3.7c-39.5-8.2-80.1,8.1-103.1,41.3
			c-2.8,3.7-8.2,4.6-12.1,2c-3.9-2.6-5.3-7.6-3.2-11.7l0,0c11.4-20.4,28.6-37.4,49.6-48.9c7.6-5.1,9.6-15,4.8-22.5
			c-0.9-1.3-1.9-2.6-3.2-3.6C504.4,131.4,527,131,548.7,135.6z"/>
		<path class="st5" d="M541.9,194.8c9.9-13,29-15.9,42.6-6.4c0.6,0.4,1.1,0.8,1.6,1.2c13.6,11.2,15.9,30.6,5.1,44.3
			c-9.9,13-29,15.9-42.6,6.4c-0.6-0.4-1.1-0.8-1.6-1.2C533.4,227.9,531.1,208.6,541.9,194.8z"/>
		<path class="st5" d="M548.7,135.6c80.5,17.2,132.1,96.5,115,177.4c-1.9,4.5-7.3,6.6-12,4.8c-3.2-1.3-5.5-4.2-5.7-7.6
			c2.2-36.6-13.2-72-41.4-95.3c0.3-21-16.5-38.4-37.5-38.7c-5.9-0.1-11.6,1.2-16.9,3.7c-39.5-8.2-80.1,8.1-103.1,41.3
			c-2.8,3.7-8.2,4.6-12.1,2c-3.9-2.6-5.3-7.6-3.2-11.7l0,0c11.4-20.4,28.6-37.4,49.6-48.9c7.6-5.1,9.6-15,4.8-22.5
			c-0.9-1.3-1.9-2.6-3.2-3.6C504.4,131.4,527,131,548.7,135.6z"/>
		<path class="st5" d="M541.9,194.8c9.9-13,29-15.9,42.6-6.4c0.6,0.4,1.1,0.8,1.6,1.2c13.6,11.2,15.9,30.6,5.1,44.3
			c-9.9,13-29,15.9-42.6,6.4c-0.6-0.4-1.1-0.8-1.6-1.2C533.4,227.9,531.1,208.6,541.9,194.8z"/>
		<path class="st5" d="M548.7,135.6c80.5,17.2,132.1,96.5,115,177.4c-1.9,4.5-7.3,6.6-12,4.8c-3.2-1.3-5.5-4.2-5.7-7.6
			c2.2-36.6-13.2-72-41.4-95.3c0.3-21-16.5-38.4-37.5-38.7c-5.9-0.1-11.6,1.2-16.9,3.7c-39.5-8.2-80.1,8.1-103.1,41.3
			c-2.8,3.7-8.2,4.6-12.1,2c-3.9-2.6-5.3-7.6-3.2-11.7l0,0c11.4-20.4,28.6-37.4,49.6-48.9c7.6-5.1,9.6-15,4.8-22.5
			c-0.9-1.3-1.9-2.6-3.2-3.6C504.4,131.4,527,131,548.7,135.6z"/>
		<path class="st5" d="M541.9,194.8c9.9-13,29-15.9,42.6-6.4c0.6,0.4,1.1,0.8,1.6,1.2c13.6,11.2,15.9,30.6,5.1,44.3
			c-9.9,13-29,15.9-42.6,6.4c-0.6-0.4-1.1-0.8-1.6-1.2C533.4,227.9,531.1,208.6,541.9,194.8z"/>
		<path class="st5" d="M548.7,135.6c80.5,17.2,132.1,96.5,115,177.4c-1.9,4.5-7.3,6.6-12,4.8c-3.2-1.3-5.5-4.2-5.7-7.6
			c2.2-36.6-13.2-72-41.4-95.3c0.3-21-16.5-38.4-37.5-38.7c-5.9-0.1-11.6,1.2-16.9,3.7c-39.5-8.2-80.1,8.1-103.1,41.3
			c-2.8,3.7-8.2,4.6-12.1,2c-3.9-2.6-5.3-7.6-3.2-11.7l0,0c11.4-20.4,28.6-37.4,49.6-48.9c7.6-5.1,9.6-15,4.8-22.5
			c-0.9-1.3-1.9-2.6-3.2-3.6C504.4,131.4,527,131,548.7,135.6z"/>
		<path class="st5" d="M541.9,194.8c9.9-13,29-15.9,42.6-6.4c0.6,0.4,1.1,0.8,1.6,1.2c13.6,11.2,15.9,30.6,5.1,44.3
			c-9.9,13-29,15.9-42.6,6.4c-0.6-0.4-1.1-0.8-1.6-1.2C533.4,227.9,531.1,208.6,541.9,194.8z"/>
		<path class="st5" d="M548.7,135.6c80.5,17.2,132.1,96.5,115,177.4c-1.9,4.5-7.3,6.6-12,4.8c-3.2-1.3-5.5-4.2-5.7-7.6
			c2.2-36.6-13.2-72-41.4-95.3c0.3-21-16.5-38.4-37.5-38.7c-5.9-0.1-11.6,1.2-16.9,3.7c-39.5-8.2-80.1,8.1-103.1,41.3
			c-2.8,3.7-8.2,4.6-12.1,2c-3.9-2.6-5.3-7.6-3.2-11.7l0,0c11.4-20.4,28.6-37.4,49.6-48.9c7.6-5.1,9.6-15,4.8-22.5
			c-0.9-1.3-1.9-2.6-3.2-3.6C504.4,131.4,527,131,548.7,135.6z"/>
		<path class="st5" d="M541.9,194.8c9.9-13,29-15.9,42.6-6.4c0.6,0.4,1.1,0.8,1.6,1.2c13.6,11.2,15.9,30.6,5.1,44.3
			c-9.9,13-29,15.9-42.6,6.4c-0.6-0.4-1.1-0.8-1.6-1.2C533.4,227.9,531.1,208.6,541.9,194.8z"/>
		<path class="st5" d="M548.7,135.6c80.5,17.2,132.1,96.5,115,177.4c-1.9,4.5-7.3,6.6-12,4.8c-3.2-1.3-5.5-4.2-5.7-7.6
			c2.2-36.6-13.2-72-41.4-95.3c0.3-21-16.5-38.4-37.5-38.7c-5.9-0.1-11.6,1.2-16.9,3.7c-39.5-8.2-80.1,8.1-103.1,41.3
			c-2.8,3.7-8.2,4.6-12.1,2c-3.9-2.6-5.3-7.6-3.2-11.7l0,0c11.4-20.4,28.6-37.4,49.6-48.9c7.6-5.1,9.6-15,4.8-22.5
			c-0.9-1.3-1.9-2.6-3.2-3.6C504.4,131.4,527,131,548.7,135.6z"/>
		<path class="st5" d="M541.9,194.8c9.9-13,29-15.9,42.6-6.4c0.6,0.4,1.1,0.8,1.6,1.2c13.6,11.2,15.9,30.6,5.1,44.3
			c-9.9,13-29,15.9-42.6,6.4c-0.6-0.4-1.1-0.8-1.6-1.2C533.4,227.9,531.1,208.6,541.9,194.8z"/>
		<path class="st6" d="M471.6,139.8c3.3-0.3,6.5,1.1,8.4,3.7c3.1,4.2,2.2,9.9-1.9,13.1c-32.7,16.4-55.6,47.4-61.6,83.6
			c-18.3,10.3-25,33.5-14.6,51.9c2.8,5.1,6.8,9.5,11.6,12.9c12.7,38.4,47,65.5,87.2,68.9c4.8,0.8,8.2,4.9,7.8,9.6
			c-0.1,4.5-3.8,8.2-8.5,8.6c-23.8,0.2-47.1-6.2-67.1-18.6c-7.8-3.9-17.4-1.1-21.5,6.4c-0.1,0.2-0.2,0.4-0.4,0.7
			c-0.7,1.4-1.2,3-1.5,4.5c-15.4-16.4-26.8-35.6-33.6-56.6C350.5,249.8,393.2,165.3,471.6,139.8z"/>
		<ellipse class="st7" cx="551.7" cy="358" rx="31.4" ry="31.5"/>
		<path class="st6" d="M410.4,253.7c9.9-13,29-15.9,42.6-6.4c0.6,0.4,1.1,0.8,1.6,1.2c13.6,11.2,15.9,30.6,5.1,44.3
			c-9.9,13-29,15.9-42.6,6.4c-0.5-0.4-1.1-0.8-1.6-1.2C401.9,286.8,399.6,267.5,410.4,253.7z"/>
		<path class="st7" d="M628.6,382c-55.1,61.4-149.4,66.4-210.6,11.3c-1.9-2.7-2.3-6.1-1-9.1c1.8-4.5,7.1-6.8,11.7-5
			c0.1,0.1,0.3,0.1,0.4,0.2c30.1,20.1,68.8,24.5,102.9,11.7c18.1,10.8,41.5,4.9,52.2-13.3c3-5.1,4.8-10.7,5.3-16.6
			c26.8-30.3,33-73.6,15.9-110.3c-1.8-4.4,0.1-9.3,4.4-11.6c4.1-2.1,9.2-0.8,11.7,3.1c12.1,20.6,18.2,44,17.5,67.6
			c0.3,8.8,7.9,15.6,17,15.4h0.1c1.6-0.1,3.2-0.4,4.7-0.9C654.5,345.6,643.5,365.2,628.6,382z"/>
		<path class="st5" d="M548.7,135.6c80.5,17.2,132.1,96.5,115,177.4c-1.9,4.5-7.3,6.6-12,4.8c-3.2-1.3-5.5-4.2-5.7-7.6
			c2.2-36.6-13.2-72-41.4-95.3c0.3-21-16.5-38.4-37.5-38.7c-5.9-0.1-11.6,1.2-16.9,3.7c-39.5-8.2-80.1,8.1-103.1,41.3
			c-2.8,3.7-8.2,4.6-12.1,2c-3.9-2.6-5.3-7.6-3.2-11.7l0,0c11.4-20.4,28.6-37.4,49.6-48.9c7.6-5.1,9.6-15,4.8-22.5
			c-0.9-1.3-1.9-2.6-3.2-3.6C504.4,131.4,527,131,548.7,135.6z"/>
		<path class="st5" d="M541.9,194.8c9.9-13,29-15.9,42.6-6.4c0.6,0.4,1.1,0.8,1.6,1.2c13.6,11.2,15.9,30.6,5.1,44.3
			c-9.9,13-29,15.9-42.6,6.4c-0.6-0.4-1.1-0.8-1.6-1.2C533.4,227.9,531.1,208.6,541.9,194.8z"/>
		<path class="st5" d="M548.7,135.6c80.5,17.2,132.1,96.5,115,177.4c-1.9,4.5-7.3,6.6-12,4.8c-3.2-1.3-5.5-4.2-5.7-7.6
			c2.2-36.6-13.2-72-41.4-95.3c0.3-21-16.5-38.4-37.5-38.7c-5.9-0.1-11.6,1.2-16.9,3.7c-39.5-8.2-80.1,8.1-103.1,41.3
			c-2.8,3.7-8.2,4.6-12.1,2c-3.9-2.6-5.3-7.6-3.2-11.7l0,0c11.4-20.4,28.6-37.4,49.6-48.9c7.6-5.1,9.6-15,4.8-22.5
			c-0.9-1.3-1.9-2.6-3.2-3.6C504.4,131.4,527,131,548.7,135.6z"/>
		<path class="st5" d="M541.9,194.8c9.9-13,29-15.9,42.6-6.4c0.6,0.4,1.1,0.8,1.6,1.2c13.6,11.2,15.9,30.6,5.1,44.3
			c-9.9,13-29,15.9-42.6,6.4c-0.6-0.4-1.1-0.8-1.6-1.2C533.4,227.9,531.1,208.6,541.9,194.8z"/>
		<path class="st5" d="M548.7,135.6c80.5,17.2,132.1,96.5,115,177.4c-1.9,4.5-7.3,6.6-12,4.8c-3.2-1.3-5.5-4.2-5.7-7.6
			c2.2-36.6-13.2-72-41.4-95.3c0.3-21-16.5-38.4-37.5-38.7c-5.9-0.1-11.6,1.2-16.9,3.7c-39.5-8.2-80.1,8.1-103.1,41.3
			c-2.8,3.7-8.2,4.6-12.1,2c-3.9-2.6-5.3-7.6-3.2-11.7l0,0c11.4-20.4,28.6-37.4,49.6-48.9c7.6-5.1,9.6-15,4.8-22.5
			c-0.9-1.3-1.9-2.6-3.2-3.6C504.4,131.4,527,131,548.7,135.6z"/>
		<path class="st5" d="M541.9,194.8c9.9-13,29-15.9,42.6-6.4c0.6,0.4,1.1,0.8,1.6,1.2c13.6,11.2,15.9,30.6,5.1,44.3
			c-9.9,13-29,15.9-42.6,6.4c-0.6-0.4-1.1-0.8-1.6-1.2C533.4,227.9,531.1,208.6,541.9,194.8z"/>
		<path class="st5" d="M548.7,135.6c80.5,17.2,132.1,96.5,115,177.4c-1.9,4.5-7.3,6.6-12,4.8c-3.2-1.3-5.5-4.2-5.7-7.6
			c2.2-36.6-13.2-72-41.4-95.3c0.3-21-16.5-38.4-37.5-38.7c-5.9-0.1-11.6,1.2-16.9,3.7c-39.5-8.2-80.1,8.1-103.1,41.3
			c-2.8,3.7-8.2,4.6-12.1,2c-3.9-2.6-5.3-7.6-3.2-11.7l0,0c11.4-20.4,28.6-37.4,49.6-48.9c7.6-5.1,9.6-15,4.8-22.5
			c-0.9-1.3-1.9-2.6-3.2-3.6C504.4,131.4,527,131,548.7,135.6z"/>
		<path class="st5" d="M541.9,194.8c9.9-13,29-15.9,42.6-6.4c0.6,0.4,1.1,0.8,1.6,1.2c13.6,11.2,15.9,30.6,5.1,44.3
			c-9.9,13-29,15.9-42.6,6.4c-0.6-0.4-1.1-0.8-1.6-1.2C533.4,227.9,531.1,208.6,541.9,194.8z"/>
		<path class="st5" d="M548.7,135.6c80.5,17.2,132.1,96.5,115,177.4c-1.9,4.5-7.3,6.6-12,4.8c-3.2-1.3-5.5-4.2-5.7-7.6
			c2.2-36.6-13.2-72-41.4-95.3c0.3-21-16.5-38.4-37.5-38.7c-5.9-0.1-11.6,1.2-16.9,3.7c-39.5-8.2-80.1,8.1-103.1,41.3
			c-2.8,3.7-8.2,4.6-12.1,2c-3.9-2.6-5.3-7.6-3.2-11.7l0,0c11.4-20.4,28.6-37.4,49.6-48.9c7.6-5.1,9.6-15,4.8-22.5
			c-0.9-1.3-1.9-2.6-3.2-3.6C504.4,131.4,527,131,548.7,135.6z"/>
		<path class="st5" d="M541.9,194.8c9.9-13,29-15.9,42.6-6.4c0.6,0.4,1.1,0.8,1.6,1.2c13.6,11.2,15.9,30.6,5.1,44.3
			c-9.9,13-29,15.9-42.6,6.4c-0.6-0.4-1.1-0.8-1.6-1.2C533.4,227.9,531.1,208.6,541.9,194.8z"/>
		<path class="st5" d="M548.7,135.6c80.5,17.2,132.1,96.5,115,177.4c-1.9,4.5-7.3,6.6-12,4.8c-3.2-1.3-5.5-4.2-5.7-7.6
			c2.2-36.6-13.2-72-41.4-95.3c0.3-21-16.5-38.4-37.5-38.7c-5.9-0.1-11.6,1.2-16.9,3.7c-39.5-8.2-80.1,8.1-103.1,41.3
			c-2.8,3.7-8.2,4.6-12.1,2c-3.9-2.6-5.3-7.6-3.2-11.7l0,0c11.4-20.4,28.6-37.4,49.6-48.9c7.6-5.1,9.6-15,4.8-22.5
			c-0.9-1.3-1.9-2.6-3.2-3.6C504.4,131.4,527,131,548.7,135.6z"/>
		<path class="st5" d="M541.9,194.8c9.9-13,29-15.9,42.6-6.4c0.6,0.4,1.1,0.8,1.6,1.2c13.6,11.2,15.9,30.6,5.1,44.3
			c-9.9,13-29,15.9-42.6,6.4c-0.6-0.4-1.1-0.8-1.6-1.2C533.4,227.9,531.1,208.6,541.9,194.8z"/>
		<path class="st6" d="M471.6,139.8c3.3-0.3,6.5,1.1,8.4,3.7c3.1,4.2,2.2,9.9-1.9,13.1c-32.7,16.4-55.6,47.4-61.6,83.6
			c-18.3,10.3-25,33.5-14.6,51.9c2.8,5.1,6.8,9.5,11.6,12.9c12.7,38.4,47,65.5,87.2,68.9c4.8,0.8,8.2,4.9,7.8,9.6
			c-0.1,4.5-3.8,8.2-8.5,8.6c-23.8,0.2-47.1-6.2-67.1-18.6c-7.8-3.9-17.4-1.1-21.5,6.4c-0.1,0.2-0.2,0.4-0.4,0.7
			c-0.7,1.4-1.2,3-1.5,4.5c-15.4-16.4-26.8-35.6-33.6-56.6C350.5,249.8,393.2,165.3,471.6,139.8z"/>
		<ellipse class="st7" cx="551.7" cy="358" rx="31.4" ry="31.5"/>
		<path class="st6" d="M410.4,253.7c9.9-13,29-15.9,42.6-6.4c0.6,0.4,1.1,0.8,1.6,1.2c13.6,11.2,15.9,30.6,5.1,44.3
			c-9.9,13-29,15.9-42.6,6.4c-0.5-0.4-1.1-0.8-1.6-1.2C401.9,286.8,399.6,267.5,410.4,253.7z"/>
		<path class="st7" d="M628.6,382c-55.1,61.4-149.4,66.4-210.6,11.3c-1.9-2.7-2.3-6.1-1-9.1c1.8-4.5,7.1-6.8,11.7-5
			c0.1,0.1,0.3,0.1,0.4,0.2c30.1,20.1,68.8,24.5,102.9,11.7c18.1,10.8,41.5,4.9,52.2-13.3c3-5.1,4.8-10.7,5.3-16.6
			c26.8-30.3,33-73.6,15.9-110.3c-1.8-4.4,0.1-9.3,4.4-11.6c4.1-2.1,9.2-0.8,11.7,3.1c12.1,20.6,18.2,44,17.5,67.6
			c0.3,8.8,7.9,15.6,17,15.4h0.1c1.6-0.1,3.2-0.4,4.7-0.9C654.5,345.6,643.5,365.2,628.6,382z"/>
		<path class="st5" d="M548.7,135.6c80.5,17.2,132.1,96.5,115,177.4c-1.9,4.5-7.3,6.6-12,4.8c-3.2-1.3-5.5-4.2-5.7-7.6
			c2.2-36.6-13.2-72-41.4-95.3c0.3-21-16.5-38.4-37.5-38.7c-5.9-0.1-11.6,1.2-16.9,3.7c-39.5-8.2-80.1,8.1-103.1,41.3
			c-2.8,3.7-8.2,4.6-12.1,2c-3.9-2.6-5.3-7.6-3.2-11.7l0,0c11.4-20.4,28.6-37.4,49.6-48.9c7.6-5.1,9.6-15,4.8-22.5
			c-0.9-1.3-1.9-2.6-3.2-3.6C504.4,131.4,527,131,548.7,135.6z"/>
		<path class="st5" d="M541.9,194.8c9.9-13,29-15.9,42.6-6.4c0.6,0.4,1.1,0.8,1.6,1.2c13.6,11.2,15.9,30.6,5.1,44.3
			c-9.9,13-29,15.9-42.6,6.4c-0.6-0.4-1.1-0.8-1.6-1.2C533.4,227.9,531.1,208.6,541.9,194.8z"/>
		<path class="st5" d="M548.7,135.6c80.5,17.2,132.1,96.5,115,177.4c-1.9,4.5-7.3,6.6-12,4.8c-3.2-1.3-5.5-4.2-5.7-7.6
			c2.2-36.6-13.2-72-41.4-95.3c0.3-21-16.5-38.4-37.5-38.7c-5.9-0.1-11.6,1.2-16.9,3.7c-39.5-8.2-80.1,8.1-103.1,41.3
			c-2.8,3.7-8.2,4.6-12.1,2c-3.9-2.6-5.3-7.6-3.2-11.7l0,0c11.4-20.4,28.6-37.4,49.6-48.9c7.6-5.1,9.6-15,4.8-22.5
			c-0.9-1.3-1.9-2.6-3.2-3.6C504.4,131.4,527,131,548.7,135.6z"/>
		<path class="st5" d="M541.9,194.8c9.9-13,29-15.9,42.6-6.4c0.6,0.4,1.1,0.8,1.6,1.2c13.6,11.2,15.9,30.6,5.1,44.3
			c-9.9,13-29,15.9-42.6,6.4c-0.6-0.4-1.1-0.8-1.6-1.2C533.4,227.9,531.1,208.6,541.9,194.8z"/>
		<path class="st5" d="M548.7,135.6c80.5,17.2,132.1,96.5,115,177.4c-1.9,4.5-7.3,6.6-12,4.8c-3.2-1.3-5.5-4.2-5.7-7.6
			c2.2-36.6-13.2-72-41.4-95.3c0.3-21-16.5-38.4-37.5-38.7c-5.9-0.1-11.6,1.2-16.9,3.7c-39.5-8.2-80.1,8.1-103.1,41.3
			c-2.8,3.7-8.2,4.6-12.1,2c-3.9-2.6-5.3-7.6-3.2-11.7l0,0c11.4-20.4,28.6-37.4,49.6-48.9c7.6-5.1,9.6-15,4.8-22.5
			c-0.9-1.3-1.9-2.6-3.2-3.6C504.4,131.4,527,131,548.7,135.6z"/>
		<path class="st5" d="M541.9,194.8c9.9-13,29-15.9,42.6-6.4c0.6,0.4,1.1,0.8,1.6,1.2c13.6,11.2,15.9,30.6,5.1,44.3
			c-9.9,13-29,15.9-42.6,6.4c-0.6-0.4-1.1-0.8-1.6-1.2C533.4,227.9,531.1,208.6,541.9,194.8z"/>
		<path class="st5" d="M548.7,135.6c80.5,17.2,132.1,96.5,115,177.4c-1.9,4.5-7.3,6.6-12,4.8c-3.2-1.3-5.5-4.2-5.7-7.6
			c2.2-36.6-13.2-72-41.4-95.3c0.3-21-16.5-38.4-37.5-38.7c-5.9-0.1-11.6,1.2-16.9,3.7c-39.5-8.2-80.1,8.1-103.1,41.3
			c-2.8,3.7-8.2,4.6-12.1,2c-3.9-2.6-5.3-7.6-3.2-11.7l0,0c11.4-20.4,28.6-37.4,49.6-48.9c7.6-5.1,9.6-15,4.8-22.5
			c-0.9-1.3-1.9-2.6-3.2-3.6C504.4,131.4,527,131,548.7,135.6z"/>
		<path class="st5" d="M541.9,194.8c9.9-13,29-15.9,42.6-6.4c0.6,0.4,1.1,0.8,1.6,1.2c13.6,11.2,15.9,30.6,5.1,44.3
			c-9.9,13-29,15.9-42.6,6.4c-0.6-0.4-1.1-0.8-1.6-1.2C533.4,227.9,531.1,208.6,541.9,194.8z"/>
		<path class="st5" d="M548.7,135.6c80.5,17.2,132.1,96.5,115,177.4c-1.9,4.5-7.3,6.6-12,4.8c-3.2-1.3-5.5-4.2-5.7-7.6
			c2.2-36.6-13.2-72-41.4-95.3c0.3-21-16.5-38.4-37.5-38.7c-5.9-0.1-11.6,1.2-16.9,3.7c-39.5-8.2-80.1,8.1-103.1,41.3
			c-2.8,3.7-8.2,4.6-12.1,2c-3.9-2.6-5.3-7.6-3.2-11.7l0,0c11.4-20.4,28.6-37.4,49.6-48.9c7.6-5.1,9.6-15,4.8-22.5
			c-0.9-1.3-1.9-2.6-3.2-3.6C504.4,131.4,527,131,548.7,135.6z"/>
		<path class="st5" d="M541.9,194.8c9.9-13,29-15.9,42.6-6.4c0.6,0.4,1.1,0.8,1.6,1.2c13.6,11.2,15.9,30.6,5.1,44.3
			c-9.9,13-29,15.9-42.6,6.4c-0.6-0.4-1.1-0.8-1.6-1.2C533.4,227.9,531.1,208.6,541.9,194.8z"/>
		<path class="st5" d="M548.7,135.6c80.5,17.2,132.1,96.5,115,177.4c-1.9,4.5-7.3,6.6-12,4.8c-3.2-1.3-5.5-4.2-5.7-7.6
			c2.2-36.6-13.2-72-41.4-95.3c0.3-21-16.5-38.4-37.5-38.7c-5.9-0.1-11.6,1.2-16.9,3.7c-39.5-8.2-80.1,8.1-103.1,41.3
			c-2.8,3.7-8.2,4.6-12.1,2c-3.9-2.6-5.3-7.6-3.2-11.7l0,0c11.4-20.4,28.6-37.4,49.6-48.9c7.6-5.1,9.6-15,4.8-22.5
			c-0.9-1.3-1.9-2.6-3.2-3.6C504.4,131.4,527,131,548.7,135.6z"/>
		<path class="st5" d="M541.9,194.8c9.9-13,29-15.9,42.6-6.4c0.6,0.4,1.1,0.8,1.6,1.2c13.6,11.2,15.9,30.6,5.1,44.3
			c-9.9,13-29,15.9-42.6,6.4c-0.6-0.4-1.1-0.8-1.6-1.2C533.4,227.9,531.1,208.6,541.9,194.8z"/>
		<path class="st6" d="M471.6,139.8c3.3-0.3,6.5,1.1,8.4,3.7c3.1,4.2,2.2,9.9-1.9,13.1c-32.7,16.4-55.6,47.4-61.6,83.6
			c-18.3,10.3-25,33.5-14.6,51.9c2.8,5.1,6.8,9.5,11.6,12.9c12.7,38.4,47,65.5,87.2,68.9c4.8,0.8,8.2,4.9,7.8,9.6
			c-0.1,4.5-3.8,8.2-8.5,8.6c-23.8,0.2-47.1-6.2-67.1-18.6c-7.8-3.9-17.4-1.1-21.5,6.4c-0.1,0.2-0.2,0.4-0.4,0.7
			c-0.7,1.4-1.2,3-1.5,4.5c-15.4-16.4-26.8-35.6-33.6-56.6C350.5,249.8,393.2,165.3,471.6,139.8z"/>
		<ellipse class="st7" cx="551.7" cy="358" rx="31.4" ry="31.5"/>
		<path class="st6" d="M410.4,253.7c9.9-13,29-15.9,42.6-6.4c0.6,0.4,1.1,0.8,1.6,1.2c13.6,11.2,15.9,30.6,5.1,44.3
			c-9.9,13-29,15.9-42.6,6.4c-0.5-0.4-1.1-0.8-1.6-1.2C401.9,286.8,399.6,267.5,410.4,253.7z"/>
		<path class="st7" d="M628.6,382c-55.1,61.4-149.4,66.4-210.6,11.3c-1.9-2.7-2.3-6.1-1-9.1c1.8-4.5,7.1-6.8,11.7-5
			c0.1,0.1,0.3,0.1,0.4,0.2c30.1,20.1,68.8,24.5,102.9,11.7c18.1,10.8,41.5,4.9,52.2-13.3c3-5.1,4.8-10.7,5.3-16.6
			c26.8-30.3,33-73.6,15.9-110.3c-1.8-4.4,0.1-9.3,4.4-11.6c4.1-2.1,9.2-0.8,11.7,3.1c12.1,20.6,18.2,44,17.5,67.6
			c0.3,8.8,7.9,15.6,17,15.4h0.1c1.6-0.1,3.2-0.4,4.7-0.9C654.5,345.6,643.5,365.2,628.6,382z"/>
		<path class="st5" d="M548.7,135.6c80.5,17.2,132.1,96.5,115,177.4c-1.9,4.5-7.3,6.6-12,4.8c-3.2-1.3-5.5-4.2-5.7-7.6
			c2.2-36.6-13.2-72-41.4-95.3c0.3-21-16.5-38.4-37.5-38.7c-5.9-0.1-11.6,1.2-16.9,3.7c-39.5-8.2-80.1,8.1-103.1,41.3
			c-2.8,3.7-8.2,4.6-12.1,2c-3.9-2.6-5.3-7.6-3.2-11.7l0,0c11.4-20.4,28.6-37.4,49.6-48.9c7.6-5.1,9.6-15,4.8-22.5
			c-0.9-1.3-1.9-2.6-3.2-3.6C504.4,131.4,527,131,548.7,135.6z"/>
		<path class="st5" d="M541.9,194.8c9.9-13,29-15.9,42.6-6.4c0.6,0.4,1.1,0.8,1.6,1.2c13.6,11.2,15.9,30.6,5.1,44.3
			c-9.9,13-29,15.9-42.6,6.4c-0.6-0.4-1.1-0.8-1.6-1.2C533.4,227.9,531.1,208.6,541.9,194.8z"/>
		<path class="st5" d="M548.7,135.6c80.5,17.2,132.1,96.5,115,177.4c-1.9,4.5-7.3,6.6-12,4.8c-3.2-1.3-5.5-4.2-5.7-7.6
			c2.2-36.6-13.2-72-41.4-95.3c0.3-21-16.5-38.4-37.5-38.7c-5.9-0.1-11.6,1.2-16.9,3.7c-39.5-8.2-80.1,8.1-103.1,41.3
			c-2.8,3.7-8.2,4.6-12.1,2c-3.9-2.6-5.3-7.6-3.2-11.7l0,0c11.4-20.4,28.6-37.4,49.6-48.9c7.6-5.1,9.6-15,4.8-22.5
			c-0.9-1.3-1.9-2.6-3.2-3.6C504.4,131.4,527,131,548.7,135.6z"/>
		<path class="st5" d="M541.9,194.8c9.9-13,29-15.9,42.6-6.4c0.6,0.4,1.1,0.8,1.6,1.2c13.6,11.2,15.9,30.6,5.1,44.3
			c-9.9,13-29,15.9-42.6,6.4c-0.6-0.4-1.1-0.8-1.6-1.2C533.4,227.9,531.1,208.6,541.9,194.8z"/>
		<path class="st5" d="M548.7,135.6c80.5,17.2,132.1,96.5,115,177.4c-1.9,4.5-7.3,6.6-12,4.8c-3.2-1.3-5.5-4.2-5.7-7.6
			c2.2-36.6-13.2-72-41.4-95.3c0.3-21-16.5-38.4-37.5-38.7c-5.9-0.1-11.6,1.2-16.9,3.7c-39.5-8.2-80.1,8.1-103.1,41.3
			c-2.8,3.7-8.2,4.6-12.1,2c-3.9-2.6-5.3-7.6-3.2-11.7l0,0c11.4-20.4,28.6-37.4,49.6-48.9c7.6-5.1,9.6-15,4.8-22.5
			c-0.9-1.3-1.9-2.6-3.2-3.6C504.4,131.4,527,131,548.7,135.6z"/>
		<path class="st5" d="M541.9,194.8c9.9-13,29-15.9,42.6-6.4c0.6,0.4,1.1,0.8,1.6,1.2c13.6,11.2,15.9,30.6,5.1,44.3
			c-9.9,13-29,15.9-42.6,6.4c-0.6-0.4-1.1-0.8-1.6-1.2C533.4,227.9,531.1,208.6,541.9,194.8z"/>
		<path class="st5" d="M548.7,135.6c80.5,17.2,132.1,96.5,115,177.4c-1.9,4.5-7.3,6.6-12,4.8c-3.2-1.3-5.5-4.2-5.7-7.6
			c2.2-36.6-13.2-72-41.4-95.3c0.3-21-16.5-38.4-37.5-38.7c-5.9-0.1-11.6,1.2-16.9,3.7c-39.5-8.2-80.1,8.1-103.1,41.3
			c-2.8,3.7-8.2,4.6-12.1,2c-3.9-2.6-5.3-7.6-3.2-11.7l0,0c11.4-20.4,28.6-37.4,49.6-48.9c7.6-5.1,9.6-15,4.8-22.5
			c-0.9-1.3-1.9-2.6-3.2-3.6C504.4,131.4,527,131,548.7,135.6z"/>
		<path class="st5" d="M541.9,194.8c9.9-13,29-15.9,42.6-6.4c0.6,0.4,1.1,0.8,1.6,1.2c13.6,11.2,15.9,30.6,5.1,44.3
			c-9.9,13-29,15.9-42.6,6.4c-0.6-0.4-1.1-0.8-1.6-1.2C533.4,227.9,531.1,208.6,541.9,194.8z"/>
		<path class="st5" d="M548.7,135.6c80.5,17.2,132.1,96.5,115,177.4c-1.9,4.5-7.3,6.6-12,4.8c-3.2-1.3-5.5-4.2-5.7-7.6
			c2.2-36.6-13.2-72-41.4-95.3c0.3-21-16.5-38.4-37.5-38.7c-5.9-0.1-11.6,1.2-16.9,3.7c-39.5-8.2-80.1,8.1-103.1,41.3
			c-2.8,3.7-8.2,4.6-12.1,2c-3.9-2.6-5.3-7.6-3.2-11.7l0,0c11.4-20.4,28.6-37.4,49.6-48.9c7.6-5.1,9.6-15,4.8-22.5
			c-0.9-1.3-1.9-2.6-3.2-3.6C504.4,131.4,527,131,548.7,135.6z"/>
		<path class="st5" d="M541.9,194.8c9.9-13,29-15.9,42.6-6.4c0.6,0.4,1.1,0.8,1.6,1.2c13.6,11.2,15.9,30.6,5.1,44.3
			c-9.9,13-29,15.9-42.6,6.4c-0.6-0.4-1.1-0.8-1.6-1.2C533.4,227.9,531.1,208.6,541.9,194.8z"/>
		<path class="st5" d="M548.7,135.6c80.5,17.2,132.1,96.5,115,177.4c-1.9,4.5-7.3,6.6-12,4.8c-3.2-1.3-5.5-4.2-5.7-7.6
			c2.2-36.6-13.2-72-41.4-95.3c0.3-21-16.5-38.4-37.5-38.7c-5.9-0.1-11.6,1.2-16.9,3.7c-39.5-8.2-80.1,8.1-103.1,41.3
			c-2.8,3.7-8.2,4.6-12.1,2c-3.9-2.6-5.3-7.6-3.2-11.7l0,0c11.4-20.4,28.6-37.4,49.6-48.9c7.6-5.1,9.6-15,4.8-22.5
			c-0.9-1.3-1.9-2.6-3.2-3.6C504.4,131.4,527,131,548.7,135.6z"/>
		<path class="st5" d="M541.9,194.8c9.9-13,29-15.9,42.6-6.4c0.6,0.4,1.1,0.8,1.6,1.2c13.6,11.2,15.9,30.6,5.1,44.3
			c-9.9,13-29,15.9-42.6,6.4c-0.6-0.4-1.1-0.8-1.6-1.2C533.4,227.9,531.1,208.6,541.9,194.8z"/>
		<path class="st6" d="M471.6,139.8c3.3-0.3,6.5,1.1,8.4,3.7c3.1,4.2,2.2,9.9-1.9,13.1c-32.7,16.4-55.6,47.4-61.6,83.6
			c-18.3,10.3-25,33.5-14.6,51.9c2.8,5.1,6.8,9.5,11.6,12.9c12.7,38.4,47,65.5,87.2,68.9c4.8,0.8,8.2,4.9,7.8,9.6
			c-0.1,4.5-3.8,8.2-8.5,8.6c-23.8,0.2-47.1-6.2-67.1-18.6c-7.8-3.9-17.4-1.1-21.5,6.4c-0.1,0.2-0.2,0.4-0.4,0.7
			c-0.7,1.4-1.2,3-1.5,4.5c-15.4-16.4-26.8-35.6-33.6-56.6C350.5,249.8,393.2,165.3,471.6,139.8z"/>
		<ellipse class="st7" cx="551.7" cy="358" rx="31.4" ry="31.5"/>
		<path class="st6" d="M410.4,253.7c9.9-13,29-15.9,42.6-6.4c0.6,0.4,1.1,0.8,1.6,1.2c13.6,11.2,15.9,30.6,5.1,44.3
			c-9.9,13-29,15.9-42.6,6.4c-0.5-0.4-1.1-0.8-1.6-1.2C401.9,286.8,399.6,267.5,410.4,253.7z"/>
		<path class="st7" d="M628.6,382c-55.1,61.4-149.4,66.4-210.6,11.3c-1.9-2.7-2.3-6.1-1-9.1c1.8-4.5,7.1-6.8,11.7-5
			c0.1,0.1,0.3,0.1,0.4,0.2c30.1,20.1,68.8,24.5,102.9,11.7c18.1,10.8,41.5,4.9,52.2-13.3c3-5.1,4.8-10.7,5.3-16.6
			c26.8-30.3,33-73.6,15.9-110.3c-1.8-4.4,0.1-9.3,4.4-11.6c4.1-2.1,9.2-0.8,11.7,3.1c12.1,20.6,18.2,44,17.5,67.6
			c0.3,8.8,7.9,15.6,17,15.4h0.1c1.6-0.1,3.2-0.4,4.7-0.9C654.5,345.6,643.5,365.2,628.6,382z"/>
		<text transform="matrix(0.9972 0 0 1 151.8062 616.7324)"><tspan x="0" y="0" class="st5 st8 st9 st10">COMMUNITY</tspan><tspan x="740.8" y="0" class="st8 st9 st10">   </tspan><tspan x="842.7" y="0" class="st11 st8 st9 st10">PROXIMITY</tspan><tspan x="1474.5" y="0" class="st8 st9 st10">   </tspan><tspan x="1576.4" y="0" class="st6 st8 st9 st10">CURRENCY</tspan></text>
		<rect x="158.5" y="485" class="st12" width="2184" height="10"/>
	</g>
</g>
</svg>
