<?xml version="1.0" encoding="utf-8"?> <svg version="1.1" id="Layer_1" xmlns="http://www.w3.org/2000/svg" xmlns:xlink="http://www.w3.org/1999/xlink" x="0px" y="0px" viewBox="0 0 2187 302" style="enable-background:new 0 0 2187 302;" xml:space="preserve"><style type="text/css">.st0xyz{enable-background:new}.st1xyz{fill:#C7C7C7}.st2xyz{fill:#FF7D1F}.st3xyz{fill:#9ADA2C}.st4xyz{fill:#1D9FD3}</style><g> <g class="st0xyz"> <path class="st1xyz" d="M129.5,50.9c-25,0-44.7,8.9-59,26.7C56.2,95.3,49,119.9,49,151.1c0,32.7,6.9,57.5,20.7,74.3 s33.7,25.2,59.8,25.2c11.3,0,22.2-1.1,32.8-3.4c10.6-2.3,21.5-5.1,33-8.7V276c-20.9,7.9-44.6,11.9-71,11.9 c-39,0-68.9-11.8-89.8-35.5S3.2,194.8,3.2,150.8c0-27.8,5.1-52,15.2-72.9c10.1-20.8,24.8-36.8,44-47.8 C81.5,19,104,13.5,129.9,13.5c27.2,0,52.3,5.7,75.4,17.2L189.6,67c-9-4.3-18.5-8-28.5-11.2C151.1,52.5,140.6,50.9,129.5,50.9z" /> </g> <g class="st0xyz"> <path class="st1xyz" d="M670.1,284.2L592.9,61.3h-1.5c2.1,33.1,3.1,64.2,3.1,93.1v129.8H555V17.3h61.4l73.9,212.4h1.1l76.1-212.4H829 v266.9h-41.9v-132c0-13.3,0.3-30.6,1-51.9s1.2-34.2,1.7-38.7h-1.5l-79.9,222.6H670.1z" /> <path class="st1xyz" d="M1018,284.2L940.8,61.3h-1.5c2.1,33.1,3.1,64.2,3.1,93.1v129.8h-39.5V17.3h61.4l73.9,212.4h1.1l76.1-212.4 h61.5v266.9H1135v-132c0-13.3,0.3-30.6,1-51.9s1.2-34.2,1.7-38.7h-1.5l-79.9,222.6H1018z" /> <path class="st1xyz" d="M1459.4,17.3V190c0,19.7-4.2,37-12.7,51.8c-8.4,14.8-20.6,26.2-36.6,34.1c-16,8-35.1,12-57.3,12 c-33,0-58.7-8.8-77-26.3s-27.5-41.6-27.5-72.3v-172h43.7v168.9c0,22,5.1,38.3,15.3,48.8c10.2,10.5,25.9,15.7,47,15.7 c41,0,61.5-21.6,61.5-64.8V17.3H1459.4z" /> <path class="st1xyz" d="M1753,284.2h-53.3L1568.8,71.5h-1.5l0.9,11.9c1.7,22.6,2.5,43.3,2.5,62.1v138.8h-39.5v-267h52.8l130.6,211.6 h1.1c-0.2-2.8-0.7-13-1.5-30.6c-0.7-17.6-1.1-31.3-1.1-41.2V17.3h39.9L1753,284.2L1753,284.2z" /> <path class="st1xyz" d="M1827,284.2V17.3h43.5v266.9L1827,284.2L1827,284.2z" /> <path class="st1xyz" d="M2180.9,150.4c0,43.5-10.8,77.2-32.5,101.3s-52.3,36.2-92,36.2c-40.2,0-71-12-92.6-35.9 c-21.5-23.9-32.3-57.9-32.3-102s10.8-77.9,32.5-101.5s52.6-35.4,92.8-35.4c39.6,0,70.2,12,91.8,36 C2170.1,73,2180.9,106.8,2180.9,150.4z M1977.7,150.4c0,32.9,6.6,57.8,19.8,74.8c13.2,17,32.8,25.5,58.8,25.5 c25.9,0,45.4-8.4,58.5-25.2c13.2-16.8,19.8-41.8,19.8-75c0-32.7-6.5-57.6-19.6-74.5c-13-16.9-32.5-25.4-58.4-25.4 c-26.1,0-45.8,8.5-59.1,25.4C1984.4,92.8,1977.7,117.7,1977.7,150.4z" /> </g> <path class="st2xyz" d="M392.8,4.4c80.5,17.2,132.1,96.5,115,177.4c-1.9,4.5-7.3,6.6-12,4.8c-3.2-1.3-5.5-4.2-5.7-7.6 c2.2-36.6-13.2-72-41.4-95.3c0.3-21-16.5-38.4-37.5-38.7c-5.9-0.1-11.6,1.2-16.9,3.7c-39.5-8.2-80.1,8.1-103.1,41.3 c-2.8,3.7-8.2,4.6-12.1,2s-5.3-7.6-3.2-11.7l0,0c11.4-20.4,28.6-37.4,49.6-48.9c7.6-5.1,9.6-15,4.8-22.5c-0.9-1.3-1.9-2.6-3.2-3.6 C348.5,0.2,371.1-0.2,392.8,4.4z" /> <path class="st2xyz" d="M386,63.6c9.9-13,29-15.9,42.6-6.4c0.6,0.4,1.1,0.8,1.6,1.2c13.6,11.2,15.9,30.6,5.1,44.3 c-9.9,13-29,15.9-42.6,6.4c-0.6-0.4-1.1-0.8-1.6-1.2C377.5,96.7,375.2,77.4,386,63.6z" /> <path class="st2xyz" d="M392.8,4.4c80.5,17.2,132.1,96.5,115,177.4c-1.9,4.5-7.3,6.6-12,4.8c-3.2-1.3-5.5-4.2-5.7-7.6 c2.2-36.6-13.2-72-41.4-95.3c0.3-21-16.5-38.4-37.5-38.7c-5.9-0.1-11.6,1.2-16.9,3.7c-39.5-8.2-80.1,8.1-103.1,41.3 c-2.8,3.7-8.2,4.6-12.1,2s-5.3-7.6-3.2-11.7l0,0c11.4-20.4,28.6-37.4,49.6-48.9c7.6-5.1,9.6-15,4.8-22.5c-0.9-1.3-1.9-2.6-3.2-3.6 C348.5,0.2,371.1-0.2,392.8,4.4z" /> <path class="st2xyz" d="M386,63.6c9.9-13,29-15.9,42.6-6.4c0.6,0.4,1.1,0.8,1.6,1.2c13.6,11.2,15.9,30.6,5.1,44.3 c-9.9,13-29,15.9-42.6,6.4c-0.6-0.4-1.1-0.8-1.6-1.2C377.5,96.7,375.2,77.4,386,63.6z" /> <path class="st2xyz" d="M392.8,4.4c80.5,17.2,132.1,96.5,115,177.4c-1.9,4.5-7.3,6.6-12,4.8c-3.2-1.3-5.5-4.2-5.7-7.6 c2.2-36.6-13.2-72-41.4-95.3c0.3-21-16.5-38.4-37.5-38.7c-5.9-0.1-11.6,1.2-16.9,3.7c-39.5-8.2-80.1,8.1-103.1,41.3 c-2.8,3.7-8.2,4.6-12.1,2s-5.3-7.6-3.2-11.7l0,0c11.4-20.4,28.6-37.4,49.6-48.9c7.6-5.1,9.6-15,4.8-22.5c-0.9-1.3-1.9-2.6-3.2-3.6 C348.5,0.2,371.1-0.2,392.8,4.4z" /> <path class="st2xyz" d="M386,63.6c9.9-13,29-15.9,42.6-6.4c0.6,0.4,1.1,0.8,1.6,1.2c13.6,11.2,15.9,30.6,5.1,44.3 c-9.9,13-29,15.9-42.6,6.4c-0.6-0.4-1.1-0.8-1.6-1.2C377.5,96.7,375.2,77.4,386,63.6z" /> <path class="st2xyz" d="M392.8,4.4c80.5,17.2,132.1,96.5,115,177.4c-1.9,4.5-7.3,6.6-12,4.8c-3.2-1.3-5.5-4.2-5.7-7.6 c2.2-36.6-13.2-72-41.4-95.3c0.3-21-16.5-38.4-37.5-38.7c-5.9-0.1-11.6,1.2-16.9,3.7c-39.5-8.2-80.1,8.1-103.1,41.3 c-2.8,3.7-8.2,4.6-12.1,2s-5.3-7.6-3.2-11.7l0,0c11.4-20.4,28.6-37.4,49.6-48.9c7.6-5.1,9.6-15,4.8-22.5c-0.9-1.3-1.9-2.6-3.2-3.6 C348.5,0.2,371.1-0.2,392.8,4.4z" /> <path class="st2xyz" d="M386,63.6c9.9-13,29-15.9,42.6-6.4c0.6,0.4,1.1,0.8,1.6,1.2c13.6,11.2,15.9,30.6,5.1,44.3 c-9.9,13-29,15.9-42.6,6.4c-0.6-0.4-1.1-0.8-1.6-1.2C377.5,96.7,375.2,77.4,386,63.6z" /> <path class="st2xyz" d="M392.8,4.4c80.5,17.2,132.1,96.5,115,177.4c-1.9,4.5-7.3,6.6-12,4.8c-3.2-1.3-5.5-4.2-5.7-7.6 c2.2-36.6-13.2-72-41.4-95.3c0.3-21-16.5-38.4-37.5-38.7c-5.9-0.1-11.6,1.2-16.9,3.7c-39.5-8.2-80.1,8.1-103.1,41.3 c-2.8,3.7-8.2,4.6-12.1,2s-5.3-7.6-3.2-11.7l0,0c11.4-20.4,28.6-37.4,49.6-48.9c7.6-5.1,9.6-15,4.8-22.5c-0.9-1.3-1.9-2.6-3.2-3.6 C348.5,0.2,371.1-0.2,392.8,4.4z" /> <path class="st2xyz" d="M386,63.6c9.9-13,29-15.9,42.6-6.4c0.6,0.4,1.1,0.8,1.6,1.2c13.6,11.2,15.9,30.6,5.1,44.3 c-9.9,13-29,15.9-42.6,6.4c-0.6-0.4-1.1-0.8-1.6-1.2C377.5,96.7,375.2,77.4,386,63.6z" /> <path class="st2xyz" d="M392.8,4.4c80.5,17.2,132.1,96.5,115,177.4c-1.9,4.5-7.3,6.6-12,4.8c-3.2-1.3-5.5-4.2-5.7-7.6 c2.2-36.6-13.2-72-41.4-95.3c0.3-21-16.5-38.4-37.5-38.7c-5.9-0.1-11.6,1.2-16.9,3.7c-39.5-8.2-80.1,8.1-103.1,41.3 c-2.8,3.7-8.2,4.6-12.1,2s-5.3-7.6-3.2-11.7l0,0c11.4-20.4,28.6-37.4,49.6-48.9c7.6-5.1,9.6-15,4.8-22.5c-0.9-1.3-1.9-2.6-3.2-3.6 C348.5,0.2,371.1-0.2,392.8,4.4z" /> <path class="st2xyz" d="M386,63.6c9.9-13,29-15.9,42.6-6.4c0.6,0.4,1.1,0.8,1.6,1.2c13.6,11.2,15.9,30.6,5.1,44.3 c-9.9,13-29,15.9-42.6,6.4c-0.6-0.4-1.1-0.8-1.6-1.2C377.5,96.7,375.2,77.4,386,63.6z" /> <path class="st3xyz" d="M315.7,8.6c3.3-0.3,6.5,1.1,8.4,3.7c3.1,4.2,2.2,9.9-1.9,13.1c-32.7,16.4-55.6,47.4-61.6,83.6 c-18.3,10.3-25,33.5-14.6,51.9c2.8,5.1,6.8,9.5,11.6,12.9c12.7,38.4,47,65.5,87.2,68.9c4.8,0.8,8.2,4.9,7.8,9.6 c-0.1,4.5-3.8,8.2-8.5,8.6c-23.8,0.2-47.1-6.2-67.1-18.6c-7.8-3.9-17.4-1.1-21.5,6.4c-0.1,0.2-0.2,0.4-0.4,0.7 c-0.7,1.4-1.2,3-1.5,4.5c-15.4-16.4-26.8-35.6-33.6-56.6C194.6,118.5,237.4,34.1,315.7,8.6z" /> <ellipse class="st4xyz" cx="395.8" cy="226.8" rx="31.4" ry="31.5" /> <path class="st3xyz" d="M254.6,122.5c9.9-13,29-15.9,42.6-6.4c0.6,0.4,1.1,0.8,1.6,1.2c13.6,11.2,15.9,30.6,5.1,44.3 c-9.9,13-29,15.9-42.6,6.4c-0.5-0.4-1.1-0.8-1.6-1.2C246,155.6,243.7,136.3,254.6,122.5z" /> <path class="st4xyz" d="M472.7,250.8c-55.1,61.4-149.4,66.4-210.6,11.3c-1.9-2.7-2.3-6.1-1-9.1c1.8-4.5,7.1-6.8,11.7-5 c0.1,0.1,0.3,0.1,0.4,0.2c30.1,20.1,68.8,24.5,102.9,11.7c18.1,10.8,41.5,4.9,52.2-13.3c3-5.1,4.8-10.7,5.3-16.6 c26.8-30.3,33-73.6,15.9-110.3c-1.8-4.4,0.1-9.3,4.4-11.6c4.1-2.1,9.2-0.8,11.7,3.1c12.1,20.6,18.2,44,17.5,67.6 c0.3,8.8,7.9,15.6,17,15.4h0.1c1.6-0.1,3.2-0.4,4.7-0.9C498.6,214.4,487.7,234,472.7,250.8z" /> <g> <path class="st2xyz" d="M392.8,4.4c80.5,17.2,132.1,96.5,115,177.4c-1.9,4.5-7.3,6.6-12,4.8c-3.2-1.3-5.5-4.2-5.7-7.6 c2.2-36.6-13.2-72-41.4-95.3c0.3-21-16.5-38.4-37.5-38.7c-5.9-0.1-11.6,1.2-16.9,3.7c-39.5-8.2-80.1,8.1-103.1,41.3 c-2.8,3.7-8.2,4.6-12.1,2s-5.3-7.6-3.2-11.7l0,0c11.4-20.4,28.6-37.4,49.6-48.9c7.6-5.1,9.6-15,4.8-22.5c-0.9-1.3-1.9-2.6-3.2-3.6 C348.5,0.2,371.1-0.2,392.8,4.4z" /> <path class="st2xyz" d="M386,63.6c9.9-13,29-15.9,42.6-6.4c0.6,0.4,1.1,0.8,1.6,1.2c13.6,11.2,15.9,30.6,5.1,44.3 c-9.9,13-29,15.9-42.6,6.4c-0.6-0.4-1.1-0.8-1.6-1.2C377.5,96.7,375.2,77.4,386,63.6z" /> <path class="st2xyz" d="M392.8,4.4c80.5,17.2,132.1,96.5,115,177.4c-1.9,4.5-7.3,6.6-12,4.8c-3.2-1.3-5.5-4.2-5.7-7.6 c2.2-36.6-13.2-72-41.4-95.3c0.3-21-16.5-38.4-37.5-38.7c-5.9-0.1-11.6,1.2-16.9,3.7c-39.5-8.2-80.1,8.1-103.1,41.3 c-2.8,3.7-8.2,4.6-12.1,2s-5.3-7.6-3.2-11.7l0,0c11.4-20.4,28.6-37.4,49.6-48.9c7.6-5.1,9.6-15,4.8-22.5c-0.9-1.3-1.9-2.6-3.2-3.6 C348.5,0.2,371.1-0.2,392.8,4.4z" /> <path class="st2xyz" d="M386,63.6c9.9-13,29-15.9,42.6-6.4c0.6,0.4,1.1,0.8,1.6,1.2c13.6,11.2,15.9,30.6,5.1,44.3 c-9.9,13-29,15.9-42.6,6.4c-0.6-0.4-1.1-0.8-1.6-1.2C377.5,96.7,375.2,77.4,386,63.6z" /> <path class="st2xyz" d="M392.8,4.4c80.5,17.2,132.1,96.5,115,177.4c-1.9,4.5-7.3,6.6-12,4.8c-3.2-1.3-5.5-4.2-5.7-7.6 c2.2-36.6-13.2-72-41.4-95.3c0.3-21-16.5-38.4-37.5-38.7c-5.9-0.1-11.6,1.2-16.9,3.7c-39.5-8.2-80.1,8.1-103.1,41.3 c-2.8,3.7-8.2,4.6-12.1,2s-5.3-7.6-3.2-11.7l0,0c11.4-20.4,28.6-37.4,49.6-48.9c7.6-5.1,9.6-15,4.8-22.5c-0.9-1.3-1.9-2.6-3.2-3.6 C348.5,0.2,371.1-0.2,392.8,4.4z" /> <path class="st2xyz" d="M386,63.6c9.9-13,29-15.9,42.6-6.4c0.6,0.4,1.1,0.8,1.6,1.2c13.6,11.2,15.9,30.6,5.1,44.3 c-9.9,13-29,15.9-42.6,6.4c-0.6-0.4-1.1-0.8-1.6-1.2C377.5,96.7,375.2,77.4,386,63.6z" /> <path class="st2xyz" d="M392.8,4.4c80.5,17.2,132.1,96.5,115,177.4c-1.9,4.5-7.3,6.6-12,4.8c-3.2-1.3-5.5-4.2-5.7-7.6 c2.2-36.6-13.2-72-41.4-95.3c0.3-21-16.5-38.4-37.5-38.7c-5.9-0.1-11.6,1.2-16.9,3.7c-39.5-8.2-80.1,8.1-103.1,41.3 c-2.8,3.7-8.2,4.6-12.1,2s-5.3-7.6-3.2-11.7l0,0c11.4-20.4,28.6-37.4,49.6-48.9c7.6-5.1,9.6-15,4.8-22.5c-0.9-1.3-1.9-2.6-3.2-3.6 C348.5,0.2,371.1-0.2,392.8,4.4z" /> <path class="st2xyz" d="M386,63.6c9.9-13,29-15.9,42.6-6.4c0.6,0.4,1.1,0.8,1.6,1.2c13.6,11.2,15.9,30.6,5.1,44.3 c-9.9,13-29,15.9-42.6,6.4c-0.6-0.4-1.1-0.8-1.6-1.2C377.5,96.7,375.2,77.4,386,63.6z" /> <path class="st2xyz" d="M392.8,4.4c80.5,17.2,132.1,96.5,115,177.4c-1.9,4.5-7.3,6.6-12,4.8c-3.2-1.3-5.5-4.2-5.7-7.6 c2.2-36.6-13.2-72-41.4-95.3c0.3-21-16.5-38.4-37.5-38.7c-5.9-0.1-11.6,1.2-16.9,3.7c-39.5-8.2-80.1,8.1-103.1,41.3 c-2.8,3.7-8.2,4.6-12.1,2s-5.3-7.6-3.2-11.7l0,0c11.4-20.4,28.6-37.4,49.6-48.9c7.6-5.1,9.6-15,4.8-22.5c-0.9-1.3-1.9-2.6-3.2-3.6 C348.5,0.2,371.1-0.2,392.8,4.4z" /> <path class="st2xyz" d="M386,63.6c9.9-13,29-15.9,42.6-6.4c0.6,0.4,1.1,0.8,1.6,1.2c13.6,11.2,15.9,30.6,5.1,44.3 c-9.9,13-29,15.9-42.6,6.4c-0.6-0.4-1.1-0.8-1.6-1.2C377.5,96.7,375.2,77.4,386,63.6z" /> <path class="st2xyz" d="M392.8,4.4c80.5,17.2,132.1,96.5,115,177.4c-1.9,4.5-7.3,6.6-12,4.8c-3.2-1.3-5.5-4.2-5.7-7.6 c2.2-36.6-13.2-72-41.4-95.3c0.3-21-16.5-38.4-37.5-38.7c-5.9-0.1-11.6,1.2-16.9,3.7c-39.5-8.2-80.1,8.1-103.1,41.3 c-2.8,3.7-8.2,4.6-12.1,2s-5.3-7.6-3.2-11.7l0,0c11.4-20.4,28.6-37.4,49.6-48.9c7.6-5.1,9.6-15,4.8-22.5c-0.9-1.3-1.9-2.6-3.2-3.6 C348.5,0.2,371.1-0.2,392.8,4.4z" /> <path class="st2xyz" d="M386,63.6c9.9-13,29-15.9,42.6-6.4c0.6,0.4,1.1,0.8,1.6,1.2c13.6,11.2,15.9,30.6,5.1,44.3 c-9.9,13-29,15.9-42.6,6.4c-0.6-0.4-1.1-0.8-1.6-1.2C377.5,96.7,375.2,77.4,386,63.6z" /> <path class="st3xyz" d="M315.7,8.6c3.3-0.3,6.5,1.1,8.4,3.7c3.1,4.2,2.2,9.9-1.9,13.1c-32.7,16.4-55.6,47.4-61.6,83.6 c-18.3,10.3-25,33.5-14.6,51.9c2.8,5.1,6.8,9.5,11.6,12.9c12.7,38.4,47,65.5,87.2,68.9c4.8,0.8,8.2,4.9,7.8,9.6 c-0.1,4.5-3.8,8.2-8.5,8.6c-23.8,0.2-47.1-6.2-67.1-18.6c-7.8-3.9-17.4-1.1-21.5,6.4c-0.1,0.2-0.2,0.4-0.4,0.7 c-0.7,1.4-1.2,3-1.5,4.5c-15.4-16.4-26.8-35.6-33.6-56.6C194.6,118.5,237.4,34.1,315.7,8.6z" /> <ellipse class="st4xyz" cx="395.8" cy="226.8" rx="31.4" ry="31.5" /> <path class="st3xyz" d="M254.6,122.5c9.9-13,29-15.9,42.6-6.4c0.6,0.4,1.1,0.8,1.6,1.2c13.6,11.2,15.9,30.6,5.1,44.3 c-9.9,13-29,15.9-42.6,6.4c-0.5-0.4-1.1-0.8-1.6-1.2C246,155.6,243.7,136.3,254.6,122.5z" /> <path class="st4xyz" d="M472.7,250.8c-55.1,61.4-149.4,66.4-210.6,11.3c-1.9-2.7-2.3-6.1-1-9.1c1.8-4.5,7.1-6.8,11.7-5 c0.1,0.1,0.3,0.1,0.4,0.2c30.1,20.1,68.8,24.5,102.9,11.7c18.1,10.8,41.5,4.9,52.2-13.3c3-5.1,4.8-10.7,5.3-16.6 c26.8-30.3,33-73.6,15.9-110.3c-1.8-4.4,0.1-9.3,4.4-11.6c4.1-2.1,9.2-0.8,11.7,3.1c12.1,20.6,18.2,44,17.5,67.6 c0.3,8.8,7.9,15.6,17,15.4h0.1c1.6-0.1,3.2-0.4,4.7-0.9C498.6,214.4,487.7,234,472.7,250.8z" /> <path class="st2xyz" d="M392.8,4.4c80.5,17.2,132.1,96.5,115,177.4c-1.9,4.5-7.3,6.6-12,4.8c-3.2-1.3-5.5-4.2-5.7-7.6 c2.2-36.6-13.2-72-41.4-95.3c0.3-21-16.5-38.4-37.5-38.7c-5.9-0.1-11.6,1.2-16.9,3.7c-39.5-8.2-80.1,8.1-103.1,41.3 c-2.8,3.7-8.2,4.6-12.1,2s-5.3-7.6-3.2-11.7l0,0c11.4-20.4,28.6-37.4,49.6-48.9c7.6-5.1,9.6-15,4.8-22.5c-0.9-1.3-1.9-2.6-3.2-3.6 C348.5,0.2,371.1-0.2,392.8,4.4z" /> <path class="st2xyz" d="M386,63.6c9.9-13,29-15.9,42.6-6.4c0.6,0.4,1.1,0.8,1.6,1.2c13.6,11.2,15.9,30.6,5.1,44.3 c-9.9,13-29,15.9-42.6,6.4c-0.6-0.4-1.1-0.8-1.6-1.2C377.5,96.7,375.2,77.4,386,63.6z" /> <path class="st2xyz" d="M392.8,4.4c80.5,17.2,132.1,96.5,115,177.4c-1.9,4.5-7.3,6.6-12,4.8c-3.2-1.3-5.5-4.2-5.7-7.6 c2.2-36.6-13.2-72-41.4-95.3c0.3-21-16.5-38.4-37.5-38.7c-5.9-0.1-11.6,1.2-16.9,3.7c-39.5-8.2-80.1,8.1-103.1,41.3 c-2.8,3.7-8.2,4.6-12.1,2s-5.3-7.6-3.2-11.7l0,0c11.4-20.4,28.6-37.4,49.6-48.9c7.6-5.1,9.6-15,4.8-22.5c-0.9-1.3-1.9-2.6-3.2-3.6 C348.5,0.2,371.1-0.2,392.8,4.4z" /> <path class="st2xyz" d="M386,63.6c9.9-13,29-15.9,42.6-6.4c0.6,0.4,1.1,0.8,1.6,1.2c13.6,11.2,15.9,30.6,5.1,44.3 c-9.9,13-29,15.9-42.6,6.4c-0.6-0.4-1.1-0.8-1.6-1.2C377.5,96.7,375.2,77.4,386,63.6z" /> <path class="st2xyz" d="M392.8,4.4c80.5,17.2,132.1,96.5,115,177.4c-1.9,4.5-7.3,6.6-12,4.8c-3.2-1.3-5.5-4.2-5.7-7.6 c2.2-36.6-13.2-72-41.4-95.3c0.3-21-16.5-38.4-37.5-38.7c-5.9-0.1-11.6,1.2-16.9,3.7c-39.5-8.2-80.1,8.1-103.1,41.3 c-2.8,3.7-8.2,4.6-12.1,2s-5.3-7.6-3.2-11.7l0,0c11.4-20.4,28.6-37.4,49.6-48.9c7.6-5.1,9.6-15,4.8-22.5c-0.9-1.3-1.9-2.6-3.2-3.6 C348.5,0.2,371.1-0.2,392.8,4.4z" /> <path class="st2xyz" d="M386,63.6c9.9-13,29-15.9,42.6-6.4c0.6,0.4,1.1,0.8,1.6,1.2c13.6,11.2,15.9,30.6,5.1,44.3 c-9.9,13-29,15.9-42.6,6.4c-0.6-0.4-1.1-0.8-1.6-1.2C377.5,96.7,375.2,77.4,386,63.6z" /> <path class="st2xyz" d="M392.8,4.4c80.5,17.2,132.1,96.5,115,177.4c-1.9,4.5-7.3,6.6-12,4.8c-3.2-1.3-5.5-4.2-5.7-7.6 c2.2-36.6-13.2-72-41.4-95.3c0.3-21-16.5-38.4-37.5-38.7c-5.9-0.1-11.6,1.2-16.9,3.7c-39.5-8.2-80.1,8.1-103.1,41.3 c-2.8,3.7-8.2,4.6-12.1,2s-5.3-7.6-3.2-11.7l0,0c11.4-20.4,28.6-37.4,49.6-48.9c7.6-5.1,9.6-15,4.8-22.5c-0.9-1.3-1.9-2.6-3.2-3.6 C348.5,0.2,371.1-0.2,392.8,4.4z" /> <path class="st2xyz" d="M386,63.6c9.9-13,29-15.9,42.6-6.4c0.6,0.4,1.1,0.8,1.6,1.2c13.6,11.2,15.9,30.6,5.1,44.3 c-9.9,13-29,15.9-42.6,6.4c-0.6-0.4-1.1-0.8-1.6-1.2C377.5,96.7,375.2,77.4,386,63.6z" /> <path class="st2xyz" d="M392.8,4.4c80.5,17.2,132.1,96.5,115,177.4c-1.9,4.5-7.3,6.6-12,4.8c-3.2-1.3-5.5-4.2-5.7-7.6 c2.2-36.6-13.2-72-41.4-95.3c0.3-21-16.5-38.4-37.5-38.7c-5.9-0.1-11.6,1.2-16.9,3.7c-39.5-8.2-80.1,8.1-103.1,41.3 c-2.8,3.7-8.2,4.6-12.1,2s-5.3-7.6-3.2-11.7l0,0c11.4-20.4,28.6-37.4,49.6-48.9c7.6-5.1,9.6-15,4.8-22.5c-0.9-1.3-1.9-2.6-3.2-3.6 C348.5,0.2,371.1-0.2,392.8,4.4z" /> <path class="st2xyz" d="M386,63.6c9.9-13,29-15.9,42.6-6.4c0.6,0.4,1.1,0.8,1.6,1.2c13.6,11.2,15.9,30.6,5.1,44.3 c-9.9,13-29,15.9-42.6,6.4c-0.6-0.4-1.1-0.8-1.6-1.2C377.5,96.7,375.2,77.4,386,63.6z" /> <path class="st2xyz" d="M392.8,4.4c80.5,17.2,132.1,96.5,115,177.4c-1.9,4.5-7.3,6.6-12,4.8c-3.2-1.3-5.5-4.2-5.7-7.6 c2.2-36.6-13.2-72-41.4-95.3c0.3-21-16.5-38.4-37.5-38.7c-5.9-0.1-11.6,1.2-16.9,3.7c-39.5-8.2-80.1,8.1-103.1,41.3 c-2.8,3.7-8.2,4.6-12.1,2s-5.3-7.6-3.2-11.7l0,0c11.4-20.4,28.6-37.4,49.6-48.9c7.6-5.1,9.6-15,4.8-22.5c-0.9-1.3-1.9-2.6-3.2-3.6 C348.5,0.2,371.1-0.2,392.8,4.4z" /> <path class="st2xyz" d="M386,63.6c9.9-13,29-15.9,42.6-6.4c0.6,0.4,1.1,0.8,1.6,1.2c13.6,11.2,15.9,30.6,5.1,44.3 c-9.9,13-29,15.9-42.6,6.4c-0.6-0.4-1.1-0.8-1.6-1.2C377.5,96.7,375.2,77.4,386,63.6z" /> <path class="st3xyz" d="M315.7,8.6c3.3-0.3,6.5,1.1,8.4,3.7c3.1,4.2,2.2,9.9-1.9,13.1c-32.7,16.4-55.6,47.4-61.6,83.6 c-18.3,10.3-25,33.5-14.6,51.9c2.8,5.1,6.8,9.5,11.6,12.9c12.7,38.4,47,65.5,87.2,68.9c4.8,0.8,8.2,4.9,7.8,9.6 c-0.1,4.5-3.8,8.2-8.5,8.6c-23.8,0.2-47.1-6.2-67.1-18.6c-7.8-3.9-17.4-1.1-21.5,6.4c-0.1,0.2-0.2,0.4-0.4,0.7 c-0.7,1.4-1.2,3-1.5,4.5c-15.4-16.4-26.8-35.6-33.6-56.6C194.6,118.5,237.4,34.1,315.7,8.6z" /> <ellipse class="st4xyz" cx="395.8" cy="226.8" rx="31.4" ry="31.5" /> <path class="st3xyz" d="M254.6,122.5c9.9-13,29-15.9,42.6-6.4c0.6,0.4,1.1,0.8,1.6,1.2c13.6,11.2,15.9,30.6,5.1,44.3 c-9.9,13-29,15.9-42.6,6.4c-0.5-0.4-1.1-0.8-1.6-1.2C246,155.6,243.7,136.3,254.6,122.5z" /> <path class="st4xyz" d="M472.7,250.8c-55.1,61.4-149.4,66.4-210.6,11.3c-1.9-2.7-2.3-6.1-1-9.1c1.8-4.5,7.1-6.8,11.7-5 c0.1,0.1,0.3,0.1,0.4,0.2c30.1,20.1,68.8,24.5,102.9,11.7c18.1,10.8,41.5,4.9,52.2-13.3c3-5.1,4.8-10.7,5.3-16.6 c26.8-30.3,33-73.6,15.9-110.3c-1.8-4.4,0.1-9.3,4.4-11.6c4.1-2.1,9.2-0.8,11.7,3.1c12.1,20.6,18.2,44,17.5,67.6 c0.3,8.8,7.9,15.6,17,15.4h0.1c1.6-0.1,3.2-0.4,4.7-0.9C498.6,214.4,487.7,234,472.7,250.8z" /> <path class="st2xyz" d="M392.8,4.4c80.5,17.2,132.1,96.5,115,177.4c-1.9,4.5-7.3,6.6-12,4.8c-3.2-1.3-5.5-4.2-5.7-7.6 c2.2-36.6-13.2-72-41.4-95.3c0.3-21-16.5-38.4-37.5-38.7c-5.9-0.1-11.6,1.2-16.9,3.7c-39.5-8.2-80.1,8.1-103.1,41.3 c-2.8,3.7-8.2,4.6-12.1,2s-5.3-7.6-3.2-11.7l0,0c11.4-20.4,28.6-37.4,49.6-48.9c7.6-5.1,9.6-15,4.8-22.5c-0.9-1.3-1.9-2.6-3.2-3.6 C348.5,0.2,371.1-0.2,392.8,4.4z" /> <path class="st2xyz" d="M386,63.6c9.9-13,29-15.9,42.6-6.4c0.6,0.4,1.1,0.8,1.6,1.2c13.6,11.2,15.9,30.6,5.1,44.3 c-9.9,13-29,15.9-42.6,6.4c-0.6-0.4-1.1-0.8-1.6-1.2C377.5,96.7,375.2,77.4,386,63.6z" /> <path class="st2xyz" d="M392.8,4.4c80.5,17.2,132.1,96.5,115,177.4c-1.9,4.5-7.3,6.6-12,4.8c-3.2-1.3-5.5-4.2-5.7-7.6 c2.2-36.6-13.2-72-41.4-95.3c0.3-21-16.5-38.4-37.5-38.7c-5.9-0.1-11.6,1.2-16.9,3.7c-39.5-8.2-80.1,8.1-103.1,41.3 c-2.8,3.7-8.2,4.6-12.1,2s-5.3-7.6-3.2-11.7l0,0c11.4-20.4,28.6-37.4,49.6-48.9c7.6-5.1,9.6-15,4.8-22.5c-0.9-1.3-1.9-2.6-3.2-3.6 C348.5,0.2,371.1-0.2,392.8,4.4z" /> <path class="st2xyz" d="M386,63.6c9.9-13,29-15.9,42.6-6.4c0.6,0.4,1.1,0.8,1.6,1.2c13.6,11.2,15.9,30.6,5.1,44.3 c-9.9,13-29,15.9-42.6,6.4c-0.6-0.4-1.1-0.8-1.6-1.2C377.5,96.7,375.2,77.4,386,63.6z" /> <path class="st2xyz" d="M392.8,4.4c80.5,17.2,132.1,96.5,115,177.4c-1.9,4.5-7.3,6.6-12,4.8c-3.2-1.3-5.5-4.2-5.7-7.6 c2.2-36.6-13.2-72-41.4-95.3c0.3-21-16.5-38.4-37.5-38.7c-5.9-0.1-11.6,1.2-16.9,3.7c-39.5-8.2-80.1,8.1-103.1,41.3 c-2.8,3.7-8.2,4.6-12.1,2s-5.3-7.6-3.2-11.7l0,0c11.4-20.4,28.6-37.4,49.6-48.9c7.6-5.1,9.6-15,4.8-22.5c-0.9-1.3-1.9-2.6-3.2-3.6 C348.5,0.2,371.1-0.2,392.8,4.4z" /> <path class="st2xyz" d="M386,63.6c9.9-13,29-15.9,42.6-6.4c0.6,0.4,1.1,0.8,1.6,1.2c13.6,11.2,15.9,30.6,5.1,44.3 c-9.9,13-29,15.9-42.6,6.4c-0.6-0.4-1.1-0.8-1.6-1.2C377.5,96.7,375.2,77.4,386,63.6z" /> <path class="st2xyz" d="M392.8,4.4c80.5,17.2,132.1,96.5,115,177.4c-1.9,4.5-7.3,6.6-12,4.8c-3.2-1.3-5.5-4.2-5.7-7.6 c2.2-36.6-13.2-72-41.4-95.3c0.3-21-16.5-38.4-37.5-38.7c-5.9-0.1-11.6,1.2-16.9,3.7c-39.5-8.2-80.1,8.1-103.1,41.3 c-2.8,3.7-8.2,4.6-12.1,2s-5.3-7.6-3.2-11.7l0,0c11.4-20.4,28.6-37.4,49.6-48.9c7.6-5.1,9.6-15,4.8-22.5c-0.9-1.3-1.9-2.6-3.2-3.6 C348.5,0.2,371.1-0.2,392.8,4.4z" /> <path class="st2xyz" d="M386,63.6c9.9-13,29-15.9,42.6-6.4c0.6,0.4,1.1,0.8,1.6,1.2c13.6,11.2,15.9,30.6,5.1,44.3 c-9.9,13-29,15.9-42.6,6.4c-0.6-0.4-1.1-0.8-1.6-1.2C377.5,96.7,375.2,77.4,386,63.6z" /> <path class="st2xyz" d="M392.8,4.4c80.5,17.2,132.1,96.5,115,177.4c-1.9,4.5-7.3,6.6-12,4.8c-3.2-1.3-5.5-4.2-5.7-7.6 c2.2-36.6-13.2-72-41.4-95.3c0.3-21-16.5-38.4-37.5-38.7c-5.9-0.1-11.6,1.2-16.9,3.7c-39.5-8.2-80.1,8.1-103.1,41.3 c-2.8,3.7-8.2,4.6-12.1,2s-5.3-7.6-3.2-11.7l0,0c11.4-20.4,28.6-37.4,49.6-48.9c7.6-5.1,9.6-15,4.8-22.5c-0.9-1.3-1.9-2.6-3.2-3.6 C348.5,0.2,371.1-0.2,392.8,4.4z" /> <path class="st2xyz" d="M386,63.6c9.9-13,29-15.9,42.6-6.4c0.6,0.4,1.1,0.8,1.6,1.2c13.6,11.2,15.9,30.6,5.1,44.3 c-9.9,13-29,15.9-42.6,6.4c-0.6-0.4-1.1-0.8-1.6-1.2C377.5,96.7,375.2,77.4,386,63.6z" /> <path class="st2xyz" d="M392.8,4.4c80.5,17.2,132.1,96.5,115,177.4c-1.9,4.5-7.3,6.6-12,4.8c-3.2-1.3-5.5-4.2-5.7-7.6 c2.2-36.6-13.2-72-41.4-95.3c0.3-21-16.5-38.4-37.5-38.7c-5.9-0.1-11.6,1.2-16.9,3.7c-39.5-8.2-80.1,8.1-103.1,41.3 c-2.8,3.7-8.2,4.6-12.1,2s-5.3-7.6-3.2-11.7l0,0c11.4-20.4,28.6-37.4,49.6-48.9c7.6-5.1,9.6-15,4.8-22.5c-0.9-1.3-1.9-2.6-3.2-3.6 C348.5,0.2,371.1-0.2,392.8,4.4z" /> <path class="st2xyz" d="M386,63.6c9.9-13,29-15.9,42.6-6.4c0.6,0.4,1.1,0.8,1.6,1.2c13.6,11.2,15.9,30.6,5.1,44.3 c-9.9,13-29,15.9-42.6,6.4c-0.6-0.4-1.1-0.8-1.6-1.2C377.5,96.7,375.2,77.4,386,63.6z" /> <path class="st3xyz" d="M315.7,8.6c3.3-0.3,6.5,1.1,8.4,3.7c3.1,4.2,2.2,9.9-1.9,13.1c-32.7,16.4-55.6,47.4-61.6,83.6 c-18.3,10.3-25,33.5-14.6,51.9c2.8,5.1,6.8,9.5,11.6,12.9c12.7,38.4,47,65.5,87.2,68.9c4.8,0.8,8.2,4.9,7.8,9.6 c-0.1,4.5-3.8,8.2-8.5,8.6c-23.8,0.2-47.1-6.2-67.1-18.6c-7.8-3.9-17.4-1.1-21.5,6.4c-0.1,0.2-0.2,0.4-0.4,0.7 c-0.7,1.4-1.2,3-1.5,4.5c-15.4-16.4-26.8-35.6-33.6-56.6C194.6,118.5,237.4,34.1,315.7,8.6z" /> <ellipse class="st4xyz" cx="395.8" cy="226.8" rx="31.4" ry="31.5" /> <path class="st3xyz" d="M254.6,122.5c9.9-13,29-15.9,42.6-6.4c0.6,0.4,1.1,0.8,1.6,1.2c13.6,11.2,15.9,30.6,5.1,44.3 c-9.9,13-29,15.9-42.6,6.4c-0.5-0.4-1.1-0.8-1.6-1.2C246,155.6,243.7,136.3,254.6,122.5z" /> <path class="st4xyz" d="M472.7,250.8c-55.1,61.4-149.4,66.4-210.6,11.3c-1.9-2.7-2.3-6.1-1-9.1c1.8-4.5,7.1-6.8,11.7-5 c0.1,0.1,0.3,0.1,0.4,0.2c30.1,20.1,68.8,24.5,102.9,11.7c18.1,10.8,41.5,4.9,52.2-13.3c3-5.1,4.8-10.7,5.3-16.6 c26.8-30.3,33-73.6,15.9-110.3c-1.8-4.4,0.1-9.3,4.4-11.6c4.1-2.1,9.2-0.8,11.7,3.1c12.1,20.6,18.2,44,17.5,67.6 c0.3,8.8,7.9,15.6,17,15.4h0.1c1.6-0.1,3.2-0.4,4.7-0.9C498.6,214.4,487.7,234,472.7,250.8z" /> <path class="st2xyz" d="M392.8,4.4c80.5,17.2,132.1,96.5,115,177.4c-1.9,4.5-7.3,6.6-12,4.8c-3.2-1.3-5.5-4.2-5.7-7.6 c2.2-36.6-13.2-72-41.4-95.3c0.3-21-16.5-38.4-37.5-38.7c-5.9-0.1-11.6,1.2-16.9,3.7c-39.5-8.2-80.1,8.1-103.1,41.3 c-2.8,3.7-8.2,4.6-12.1,2s-5.3-7.6-3.2-11.7l0,0c11.4-20.4,28.6-37.4,49.6-48.9c7.6-5.1,9.6-15,4.8-22.5c-0.9-1.3-1.9-2.6-3.2-3.6 C348.5,0.2,371.1-0.2,392.8,4.4z" /> <path class="st2xyz" d="M386,63.6c9.9-13,29-15.9,42.6-6.4c0.6,0.4,1.1,0.8,1.6,1.2c13.6,11.2,15.9,30.6,5.1,44.3 c-9.9,13-29,15.9-42.6,6.4c-0.6-0.4-1.1-0.8-1.6-1.2C377.5,96.7,375.2,77.4,386,63.6z" /> <path class="st2xyz" d="M392.8,4.4c80.5,17.2,132.1,96.5,115,177.4c-1.9,4.5-7.3,6.6-12,4.8c-3.2-1.3-5.5-4.2-5.7-7.6 c2.2-36.6-13.2-72-41.4-95.3c0.3-21-16.5-38.4-37.5-38.7c-5.9-0.1-11.6,1.2-16.9,3.7c-39.5-8.2-80.1,8.1-103.1,41.3 c-2.8,3.7-8.2,4.6-12.1,2s-5.3-7.6-3.2-11.7l0,0c11.4-20.4,28.6-37.4,49.6-48.9c7.6-5.1,9.6-15,4.8-22.5c-0.9-1.3-1.9-2.6-3.2-3.6 C348.5,0.2,371.1-0.2,392.8,4.4z" /> <path class="st2xyz" d="M386,63.6c9.9-13,29-15.9,42.6-6.4c0.6,0.4,1.1,0.8,1.6,1.2c13.6,11.2,15.9,30.6,5.1,44.3 c-9.9,13-29,15.9-42.6,6.4c-0.6-0.4-1.1-0.8-1.6-1.2C377.5,96.7,375.2,77.4,386,63.6z" /> <path class="st2xyz" d="M392.8,4.4c80.5,17.2,132.1,96.5,115,177.4c-1.9,4.5-7.3,6.6-12,4.8c-3.2-1.3-5.5-4.2-5.7-7.6 c2.2-36.6-13.2-72-41.4-95.3c0.3-21-16.5-38.4-37.5-38.7c-5.9-0.1-11.6,1.2-16.9,3.7c-39.5-8.2-80.1,8.1-103.1,41.3 c-2.8,3.7-8.2,4.6-12.1,2s-5.3-7.6-3.2-11.7l0,0c11.4-20.4,28.6-37.4,49.6-48.9c7.6-5.1,9.6-15,4.8-22.5c-0.9-1.3-1.9-2.6-3.2-3.6 C348.5,0.2,371.1-0.2,392.8,4.4z" /> <path class="st2xyz" d="M386,63.6c9.9-13,29-15.9,42.6-6.4c0.6,0.4,1.1,0.8,1.6,1.2c13.6,11.2,15.9,30.6,5.1,44.3 c-9.9,13-29,15.9-42.6,6.4c-0.6-0.4-1.1-0.8-1.6-1.2C377.5,96.7,375.2,77.4,386,63.6z" /> <path class="st2xyz" d="M392.8,4.4c80.5,17.2,132.1,96.5,115,177.4c-1.9,4.5-7.3,6.6-12,4.8c-3.2-1.3-5.5-4.2-5.7-7.6 c2.2-36.6-13.2-72-41.4-95.3c0.3-21-16.5-38.4-37.5-38.7c-5.9-0.1-11.6,1.2-16.9,3.7c-39.5-8.2-80.1,8.1-103.1,41.3 c-2.8,3.7-8.2,4.6-12.1,2s-5.3-7.6-3.2-11.7l0,0c11.4-20.4,28.6-37.4,49.6-48.9c7.6-5.1,9.6-15,4.8-22.5c-0.9-1.3-1.9-2.6-3.2-3.6 C348.5,0.2,371.1-0.2,392.8,4.4z" /> <path class="st2xyz" d="M386,63.6c9.9-13,29-15.9,42.6-6.4c0.6,0.4,1.1,0.8,1.6,1.2c13.6,11.2,15.9,30.6,5.1,44.3 c-9.9,13-29,15.9-42.6,6.4c-0.6-0.4-1.1-0.8-1.6-1.2C377.5,96.7,375.2,77.4,386,63.6z" /> <path class="st2xyz" d="M392.8,4.4c80.5,17.2,132.1,96.5,115,177.4c-1.9,4.5-7.3,6.6-12,4.8c-3.2-1.3-5.5-4.2-5.7-7.6 c2.2-36.6-13.2-72-41.4-95.3c0.3-21-16.5-38.4-37.5-38.7c-5.9-0.1-11.6,1.2-16.9,3.7c-39.5-8.2-80.1,8.1-103.1,41.3 c-2.8,3.7-8.2,4.6-12.1,2s-5.3-7.6-3.2-11.7l0,0c11.4-20.4,28.6-37.4,49.6-48.9c7.6-5.1,9.6-15,4.8-22.5c-0.9-1.3-1.9-2.6-3.2-3.6 C348.5,0.2,371.1-0.2,392.8,4.4z" /> <path class="st2xyz" d="M386,63.6c9.9-13,29-15.9,42.6-6.4c0.6,0.4,1.1,0.8,1.6,1.2c13.6,11.2,15.9,30.6,5.1,44.3 c-9.9,13-29,15.9-42.6,6.4c-0.6-0.4-1.1-0.8-1.6-1.2C377.5,96.7,375.2,77.4,386,63.6z" /> <path class="st2xyz" d="M392.8,4.4c80.5,17.2,132.1,96.5,115,177.4c-1.9,4.5-7.3,6.6-12,4.8c-3.2-1.3-5.5-4.2-5.7-7.6 c2.2-36.6-13.2-72-41.4-95.3c0.3-21-16.5-38.4-37.5-38.7c-5.9-0.1-11.6,1.2-16.9,3.7c-39.5-8.2-80.1,8.1-103.1,41.3 c-2.8,3.7-8.2,4.6-12.1,2s-5.3-7.6-3.2-11.7l0,0c11.4-20.4,28.6-37.4,49.6-48.9c7.6-5.1,9.6-15,4.8-22.5c-0.9-1.3-1.9-2.6-3.2-3.6 C348.5,0.2,371.1-0.2,392.8,4.4z" /> <path class="st2xyz" d="M386,63.6c9.9-13,29-15.9,42.6-6.4c0.6,0.4,1.1,0.8,1.6,1.2c13.6,11.2,15.9,30.6,5.1,44.3 c-9.9,13-29,15.9-42.6,6.4c-0.6-0.4-1.1-0.8-1.6-1.2C377.5,96.7,375.2,77.4,386,63.6z" /> <path class="st3xyz" d="M315.7,8.6c3.3-0.3,6.5,1.1,8.4,3.7c3.1,4.2,2.2,9.9-1.9,13.1c-32.7,16.4-55.6,47.4-61.6,83.6 c-18.3,10.3-25,33.5-14.6,51.9c2.8,5.1,6.8,9.5,11.6,12.9c12.7,38.4,47,65.5,87.2,68.9c4.8,0.8,8.2,4.9,7.8,9.6 c-0.1,4.5-3.8,8.2-8.5,8.6c-23.8,0.2-47.1-6.2-67.1-18.6c-7.8-3.9-17.4-1.1-21.5,6.4c-0.1,0.2-0.2,0.4-0.4,0.7 c-0.7,1.4-1.2,3-1.5,4.5c-15.4-16.4-26.8-35.6-33.6-56.6C194.6,118.5,237.4,34.1,315.7,8.6z" /> <ellipse class="st4xyz" cx="395.8" cy="226.8" rx="31.4" ry="31.5" /> <path class="st3xyz" d="M254.6,122.5c9.9-13,29-15.9,42.6-6.4c0.6,0.4,1.1,0.8,1.6,1.2c13.6,11.2,15.9,30.6,5.1,44.3 c-9.9,13-29,15.9-42.6,6.4c-0.5-0.4-1.1-0.8-1.6-1.2C246,155.6,243.7,136.3,254.6,122.5z" /> <path class="st4xyz" d="M472.7,250.8c-55.1,61.4-149.4,66.4-210.6,11.3c-1.9-2.7-2.3-6.1-1-9.1c1.8-4.5,7.1-6.8,11.7-5 c0.1,0.1,0.3,0.1,0.4,0.2c30.1,20.1,68.8,24.5,102.9,11.7c18.1,10.8,41.5,4.9,52.2-13.3c3-5.1,4.8-10.7,5.3-16.6 c26.8-30.3,33-73.6,15.9-110.3c-1.8-4.4,0.1-9.3,4.4-11.6c4.1-2.1,9.2-0.8,11.7,3.1c12.1,20.6,18.2,44,17.5,67.6 c0.3,8.8,7.9,15.6,17,15.4h0.1c1.6-0.1,3.2-0.4,4.7-0.9C498.6,214.4,487.7,234,472.7,250.8z" /> <path class="st2xyz" d="M392.8,4.4c80.5,17.2,132.1,96.5,115,177.4c-1.9,4.5-7.3,6.6-12,4.8c-3.2-1.3-5.5-4.2-5.7-7.6 c2.2-36.6-13.2-72-41.4-95.3c0.3-21-16.5-38.4-37.5-38.7c-5.9-0.1-11.6,1.2-16.9,3.7c-39.5-8.2-80.1,8.1-103.1,41.3 c-2.8,3.7-8.2,4.6-12.1,2s-5.3-7.6-3.2-11.7l0,0c11.4-20.4,28.6-37.4,49.6-48.9c7.6-5.1,9.6-15,4.8-22.5c-0.9-1.3-1.9-2.6-3.2-3.6 C348.5,0.2,371.1-0.2,392.8,4.4z" /> <path class="st2xyz" d="M386,63.6c9.9-13,29-15.9,42.6-6.4c0.6,0.4,1.1,0.8,1.6,1.2c13.6,11.2,15.9,30.6,5.1,44.3 c-9.9,13-29,15.9-42.6,6.4c-0.6-0.4-1.1-0.8-1.6-1.2C377.5,96.7,375.2,77.4,386,63.6z" /> <path class="st2xyz" d="M392.8,4.4c80.5,17.2,132.1,96.5,115,177.4c-1.9,4.5-7.3,6.6-12,4.8c-3.2-1.3-5.5-4.2-5.7-7.6 c2.2-36.6-13.2-72-41.4-95.3c0.3-21-16.5-38.4-37.5-38.7c-5.9-0.1-11.6,1.2-16.9,3.7c-39.5-8.2-80.1,8.1-103.1,41.3 c-2.8,3.7-8.2,4.6-12.1,2s-5.3-7.6-3.2-11.7l0,0c11.4-20.4,28.6-37.4,49.6-48.9c7.6-5.1,9.6-15,4.8-22.5c-0.9-1.3-1.9-2.6-3.2-3.6 C348.5,0.2,371.1-0.2,392.8,4.4z" /> <path class="st2xyz" d="M386,63.6c9.9-13,29-15.9,42.6-6.4c0.6,0.4,1.1,0.8,1.6,1.2c13.6,11.2,15.9,30.6,5.1,44.3 c-9.9,13-29,15.9-42.6,6.4c-0.6-0.4-1.1-0.8-1.6-1.2C377.5,96.7,375.2,77.4,386,63.6z" /> <path class="st2xyz" d="M392.8,4.4c80.5,17.2,132.1,96.5,115,177.4c-1.9,4.5-7.3,6.6-12,4.8c-3.2-1.3-5.5-4.2-5.7-7.6 c2.2-36.6-13.2-72-41.4-95.3c0.3-21-16.5-38.4-37.5-38.7c-5.9-0.1-11.6,1.2-16.9,3.7c-39.5-8.2-80.1,8.1-103.1,41.3 c-2.8,3.7-8.2,4.6-12.1,2s-5.3-7.6-3.2-11.7l0,0c11.4-20.4,28.6-37.4,49.6-48.9c7.6-5.1,9.6-15,4.8-22.5c-0.9-1.3-1.9-2.6-3.2-3.6 C348.5,0.2,371.1-0.2,392.8,4.4z" /> <path class="st2xyz" d="M386,63.6c9.9-13,29-15.9,42.6-6.4c0.6,0.4,1.1,0.8,1.6,1.2c13.6,11.2,15.9,30.6,5.1,44.3 c-9.9,13-29,15.9-42.6,6.4c-0.6-0.4-1.1-0.8-1.6-1.2C377.5,96.7,375.2,77.4,386,63.6z" /> <path class="st2xyz" d="M392.8,4.4c80.5,17.2,132.1,96.5,115,177.4c-1.9,4.5-7.3,6.6-12,4.8c-3.2-1.3-5.5-4.2-5.7-7.6 c2.2-36.6-13.2-72-41.4-95.3c0.3-21-16.5-38.4-37.5-38.7c-5.9-0.1-11.6,1.2-16.9,3.7c-39.5-8.2-80.1,8.1-103.1,41.3 c-2.8,3.7-8.2,4.6-12.1,2s-5.3-7.6-3.2-11.7l0,0c11.4-20.4,28.6-37.4,49.6-48.9c7.6-5.1,9.6-15,4.8-22.5c-0.9-1.3-1.9-2.6-3.2-3.6 C348.5,0.2,371.1-0.2,392.8,4.4z" /> <path class="st2xyz" d="M386,63.6c9.9-13,29-15.9,42.6-6.4c0.6,0.4,1.1,0.8,1.6,1.2c13.6,11.2,15.9,30.6,5.1,44.3 c-9.9,13-29,15.9-42.6,6.4c-0.6-0.4-1.1-0.8-1.6-1.2C377.5,96.7,375.2,77.4,386,63.6z" /> <path class="st2xyz" d="M392.8,4.4c80.5,17.2,132.1,96.5,115,177.4c-1.9,4.5-7.3,6.6-12,4.8c-3.2-1.3-5.5-4.2-5.7-7.6 c2.2-36.6-13.2-72-41.4-95.3c0.3-21-16.5-38.4-37.5-38.7c-5.9-0.1-11.6,1.2-16.9,3.7c-39.5-8.2-80.1,8.1-103.1,41.3 c-2.8,3.7-8.2,4.6-12.1,2s-5.3-7.6-3.2-11.7l0,0c11.4-20.4,28.6-37.4,49.6-48.9c7.6-5.1,9.6-15,4.8-22.5c-0.9-1.3-1.9-2.6-3.2-3.6 C348.5,0.2,371.1-0.2,392.8,4.4z" /> <path class="st2xyz" d="M386,63.6c9.9-13,29-15.9,42.6-6.4c0.6,0.4,1.1,0.8,1.6,1.2c13.6,11.2,15.9,30.6,5.1,44.3 c-9.9,13-29,15.9-42.6,6.4c-0.6-0.4-1.1-0.8-1.6-1.2C377.5,96.7,375.2,77.4,386,63.6z" /> <path class="st2xyz" d="M392.8,4.4c80.5,17.2,132.1,96.5,115,177.4c-1.9,4.5-7.3,6.6-12,4.8c-3.2-1.3-5.5-4.2-5.7-7.6 c2.2-36.6-13.2-72-41.4-95.3c0.3-21-16.5-38.4-37.5-38.7c-5.9-0.1-11.6,1.2-16.9,3.7c-39.5-8.2-80.1,8.1-103.1,41.3 c-2.8,3.7-8.2,4.6-12.1,2s-5.3-7.6-3.2-11.7l0,0c11.4-20.4,28.6-37.4,49.6-48.9c7.6-5.1,9.6-15,4.8-22.5c-0.9-1.3-1.9-2.6-3.2-3.6 C348.5,0.2,371.1-0.2,392.8,4.4z" /> <path class="st2xyz" d="M386,63.6c9.9-13,29-15.9,42.6-6.4c0.6,0.4,1.1,0.8,1.6,1.2c13.6,11.2,15.9,30.6,5.1,44.3 c-9.9,13-29,15.9-42.6,6.4c-0.6-0.4-1.1-0.8-1.6-1.2C377.5,96.7,375.2,77.4,386,63.6z" /> <path class="st3xyz" d="M315.7,8.6c3.3-0.3,6.5,1.1,8.4,3.7c3.1,4.2,2.2,9.9-1.9,13.1c-32.7,16.4-55.6,47.4-61.6,83.6 c-18.3,10.3-25,33.5-14.6,51.9c2.8,5.1,6.8,9.5,11.6,12.9c12.7,38.4,47,65.5,87.2,68.9c4.8,0.8,8.2,4.9,7.8,9.6 c-0.1,4.5-3.8,8.2-8.5,8.6c-23.8,0.2-47.1-6.2-67.1-18.6c-7.8-3.9-17.4-1.1-21.5,6.4c-0.1,0.2-0.2,0.4-0.4,0.7 c-0.7,1.4-1.2,3-1.5,4.5c-15.4-16.4-26.8-35.6-33.6-56.6C194.6,118.5,237.4,34.1,315.7,8.6z" /> <ellipse class="st4xyz" cx="395.8" cy="226.8" rx="31.4" ry="31.5" /> <path class="st3xyz" d="M254.6,122.5c9.9-13,29-15.9,42.6-6.4c0.6,0.4,1.1,0.8,1.6,1.2c13.6,11.2,15.9,30.6,5.1,44.3 c-9.9,13-29,15.9-42.6,6.4c-0.5-0.4-1.1-0.8-1.6-1.2C246,155.6,243.7,136.3,254.6,122.5z" /> <path class="st4xyz" d="M472.7,250.8c-55.1,61.4-149.4,66.4-210.6,11.3c-1.9-2.7-2.3-6.1-1-9.1c1.8-4.5,7.1-6.8,11.7-5 c0.1,0.1,0.3,0.1,0.4,0.2c30.1,20.1,68.8,24.5,102.9,11.7c18.1,10.8,41.5,4.9,52.2-13.3c3-5.1,4.8-10.7,5.3-16.6 c26.8-30.3,33-73.6,15.9-110.3c-1.8-4.4,0.1-9.3,4.4-11.6c4.1-2.1,9.2-0.8,11.7,3.1c12.1,20.6,18.2,44,17.5,67.6 c0.3,8.8,7.9,15.6,17,15.4h0.1c1.6-0.1,3.2-0.4,4.7-0.9C498.6,214.4,487.7,234,472.7,250.8z" /> <path class="st2xyz" d="M392.8,4.4c80.5,17.2,132.1,96.5,115,177.4c-1.9,4.5-7.3,6.6-12,4.8c-3.2-1.3-5.5-4.2-5.7-7.6 c2.2-36.6-13.2-72-41.4-95.3c0.3-21-16.5-38.4-37.5-38.7c-5.9-0.1-11.6,1.2-16.9,3.7c-39.5-8.2-80.1,8.1-103.1,41.3 c-2.8,3.7-8.2,4.6-12.1,2s-5.3-7.6-3.2-11.7l0,0c11.4-20.4,28.6-37.4,49.6-48.9c7.6-5.1,9.6-15,4.8-22.5c-0.9-1.3-1.9-2.6-3.2-3.6 C348.5,0.2,371.1-0.2,392.8,4.4z" /> <path class="st2xyz" d="M386,63.6c9.9-13,29-15.9,42.6-6.4c0.6,0.4,1.1,0.8,1.6,1.2c13.6,11.2,15.9,30.6,5.1,44.3 c-9.9,13-29,15.9-42.6,6.4c-0.6-0.4-1.1-0.8-1.6-1.2C377.5,96.7,375.2,77.4,386,63.6z" /> <path class="st2xyz" d="M392.8,4.4c80.5,17.2,132.1,96.5,115,177.4c-1.9,4.5-7.3,6.6-12,4.8c-3.2-1.3-5.5-4.2-5.7-7.6 c2.2-36.6-13.2-72-41.4-95.3c0.3-21-16.5-38.4-37.5-38.7c-5.9-0.1-11.6,1.2-16.9,3.7c-39.5-8.2-80.1,8.1-103.1,41.3 c-2.8,3.7-8.2,4.6-12.1,2s-5.3-7.6-3.2-11.7l0,0c11.4-20.4,28.6-37.4,49.6-48.9c7.6-5.1,9.6-15,4.8-22.5c-0.9-1.3-1.9-2.6-3.2-3.6 C348.5,0.2,371.1-0.2,392.8,4.4z" /> <path class="st2xyz" d="M386,63.6c9.9-13,29-15.9,42.6-6.4c0.6,0.4,1.1,0.8,1.6,1.2c13.6,11.2,15.9,30.6,5.1,44.3 c-9.9,13-29,15.9-42.6,6.4c-0.6-0.4-1.1-0.8-1.6-1.2C377.5,96.7,375.2,77.4,386,63.6z" /> <path class="st2xyz" d="M392.8,4.4c80.5,17.2,132.1,96.5,115,177.4c-1.9,4.5-7.3,6.6-12,4.8c-3.2-1.3-5.5-4.2-5.7-7.6 c2.2-36.6-13.2-72-41.4-95.3c0.3-21-16.5-38.4-37.5-38.7c-5.9-0.1-11.6,1.2-16.9,3.7c-39.5-8.2-80.1,8.1-103.1,41.3 c-2.8,3.7-8.2,4.6-12.1,2s-5.3-7.6-3.2-11.7l0,0c11.4-20.4,28.6-37.4,49.6-48.9c7.6-5.1,9.6-15,4.8-22.5c-0.9-1.3-1.9-2.6-3.2-3.6 C348.5,0.2,371.1-0.2,392.8,4.4z" /> <path class="st2xyz" d="M386,63.6c9.9-13,29-15.9,42.6-6.4c0.6,0.4,1.1,0.8,1.6,1.2c13.6,11.2,15.9,30.6,5.1,44.3 c-9.9,13-29,15.9-42.6,6.4c-0.6-0.4-1.1-0.8-1.6-1.2C377.5,96.7,375.2,77.4,386,63.6z" /> <path class="st2xyz" d="M392.8,4.4c80.5,17.2,132.1,96.5,115,177.4c-1.9,4.5-7.3,6.6-12,4.8c-3.2-1.3-5.5-4.2-5.7-7.6 c2.2-36.6-13.2-72-41.4-95.3c0.3-21-16.5-38.4-37.5-38.7c-5.9-0.1-11.6,1.2-16.9,3.7c-39.5-8.2-80.1,8.1-103.1,41.3 c-2.8,3.7-8.2,4.6-12.1,2s-5.3-7.6-3.2-11.7l0,0c11.4-20.4,28.6-37.4,49.6-48.9c7.6-5.1,9.6-15,4.8-22.5c-0.9-1.3-1.9-2.6-3.2-3.6 C348.5,0.2,371.1-0.2,392.8,4.4z" /> <path class="st2xyz" d="M386,63.6c9.9-13,29-15.9,42.6-6.4c0.6,0.4,1.1,0.8,1.6,1.2c13.6,11.2,15.9,30.6,5.1,44.3 c-9.9,13-29,15.9-42.6,6.4c-0.6-0.4-1.1-0.8-1.6-1.2C377.5,96.7,375.2,77.4,386,63.6z" /> <path class="st2xyz" d="M392.8,4.4c80.5,17.2,132.1,96.5,115,177.4c-1.9,4.5-7.3,6.6-12,4.8c-3.2-1.3-5.5-4.2-5.7-7.6 c2.2-36.6-13.2-72-41.4-95.3c0.3-21-16.5-38.4-37.5-38.7c-5.9-0.1-11.6,1.2-16.9,3.7c-39.5-8.2-80.1,8.1-103.1,41.3 c-2.8,3.7-8.2,4.6-12.1,2s-5.3-7.6-3.2-11.7l0,0c11.4-20.4,28.6-37.4,49.6-48.9c7.6-5.1,9.6-15,4.8-22.5c-0.9-1.3-1.9-2.6-3.2-3.6 C348.5,0.2,371.1-0.2,392.8,4.4z" /> <path class="st2xyz" d="M386,63.6c9.9-13,29-15.9,42.6-6.4c0.6,0.4,1.1,0.8,1.6,1.2c13.6,11.2,15.9,30.6,5.1,44.3 c-9.9,13-29,15.9-42.6,6.4c-0.6-0.4-1.1-0.8-1.6-1.2C377.5,96.7,375.2,77.4,386,63.6z" /> <path class="st2xyz" d="M392.8,4.4c80.5,17.2,132.1,96.5,115,177.4c-1.9,4.5-7.3,6.6-12,4.8c-3.2-1.3-5.5-4.2-5.7-7.6 c2.2-36.6-13.2-72-41.4-95.3c0.3-21-16.5-38.4-37.5-38.7c-5.9-0.1-11.6,1.2-16.9,3.7c-39.5-8.2-80.1,8.1-103.1,41.3 c-2.8,3.7-8.2,4.6-12.1,2s-5.3-7.6-3.2-11.7l0,0c11.4-20.4,28.6-37.4,49.6-48.9c7.6-5.1,9.6-15,4.8-22.5c-0.9-1.3-1.9-2.6-3.2-3.6 C348.5,0.2,371.1-0.2,392.8,4.4z" /> <path class="st2xyz" d="M386,63.6c9.9-13,29-15.9,42.6-6.4c0.6,0.4,1.1,0.8,1.6,1.2c13.6,11.2,15.9,30.6,5.1,44.3 c-9.9,13-29,15.9-42.6,6.4c-0.6-0.4-1.1-0.8-1.6-1.2C377.5,96.7,375.2,77.4,386,63.6z" /> <path class="st3xyz" d="M315.7,8.6c3.3-0.3,6.5,1.1,8.4,3.7c3.1,4.2,2.2,9.9-1.9,13.1c-32.7,16.4-55.6,47.4-61.6,83.6 c-18.3,10.3-25,33.5-14.6,51.9c2.8,5.1,6.8,9.5,11.6,12.9c12.7,38.4,47,65.5,87.2,68.9c4.8,0.8,8.2,4.9,7.8,9.6 c-0.1,4.5-3.8,8.2-8.5,8.6c-23.8,0.2-47.1-6.2-67.1-18.6c-7.8-3.9-17.4-1.1-21.5,6.4c-0.1,0.2-0.2,0.4-0.4,0.7 c-0.7,1.4-1.2,3-1.5,4.5c-15.4-16.4-26.8-35.6-33.6-56.6C194.6,118.5,237.4,34.1,315.7,8.6z" /> <ellipse class="st4xyz" cx="395.8" cy="226.8" rx="31.4" ry="31.5" /> <path class="st3xyz" d="M254.6,122.5c9.9-13,29-15.9,42.6-6.4c0.6,0.4,1.1,0.8,1.6,1.2c13.6,11.2,15.9,30.6,5.1,44.3 c-9.9,13-29,15.9-42.6,6.4c-0.5-0.4-1.1-0.8-1.6-1.2C246,155.6,243.7,136.3,254.6,122.5z" /> <path class="st4xyz" d="M472.7,250.8c-55.1,61.4-149.4,66.4-210.6,11.3c-1.9-2.7-2.3-6.1-1-9.1c1.8-4.5,7.1-6.8,11.7-5 c0.1,0.1,0.3,0.1,0.4,0.2c30.1,20.1,68.8,24.5,102.9,11.7c18.1,10.8,41.5,4.9,52.2-13.3c3-5.1,4.8-10.7,5.3-16.6 c26.8-30.3,33-73.6,15.9-110.3c-1.8-4.4,0.1-9.3,4.4-11.6c4.1-2.1,9.2-0.8,11.7,3.1c12.1,20.6,18.2,44,17.5,67.6 c0.3,8.8,7.9,15.6,17,15.4h0.1c1.6-0.1,3.2-0.4,4.7-0.9C498.6,214.4,487.7,234,472.7,250.8z" /> <path class="st2xyz" d="M392.8,4.4c80.5,17.2,132.1,96.5,115,177.4c-1.9,4.5-7.3,6.6-12,4.8c-3.2-1.3-5.5-4.2-5.7-7.6 c2.2-36.6-13.2-72-41.4-95.3c0.3-21-16.5-38.4-37.5-38.7c-5.9-0.1-11.6,1.2-16.9,3.7c-39.5-8.2-80.1,8.1-103.1,41.3 c-2.8,3.7-8.2,4.6-12.1,2s-5.3-7.6-3.2-11.7l0,0c11.4-20.4,28.6-37.4,49.6-48.9c7.6-5.1,9.6-15,4.8-22.5c-0.9-1.3-1.9-2.6-3.2-3.6 C348.5,0.2,371.1-0.2,392.8,4.4z" /> <path class="st2xyz" d="M386,63.6c9.9-13,29-15.9,42.6-6.4c0.6,0.4,1.1,0.8,1.6,1.2c13.6,11.2,15.9,30.6,5.1,44.3 c-9.9,13-29,15.9-42.6,6.4c-0.6-0.4-1.1-0.8-1.6-1.2C377.5,96.7,375.2,77.4,386,63.6z" /> <path class="st2xyz" d="M392.8,4.4c80.5,17.2,132.1,96.5,115,177.4c-1.9,4.5-7.3,6.6-12,4.8c-3.2-1.3-5.5-4.2-5.7-7.6 c2.2-36.6-13.2-72-41.4-95.3c0.3-21-16.5-38.4-37.5-38.7c-5.9-0.1-11.6,1.2-16.9,3.7c-39.5-8.2-80.1,8.1-103.1,41.3 c-2.8,3.7-8.2,4.6-12.1,2s-5.3-7.6-3.2-11.7l0,0c11.4-20.4,28.6-37.4,49.6-48.9c7.6-5.1,9.6-15,4.8-22.5c-0.9-1.3-1.9-2.6-3.2-3.6 C348.5,0.2,371.1-0.2,392.8,4.4z" /> <path class="st2xyz" d="M386,63.6c9.9-13,29-15.9,42.6-6.4c0.6,0.4,1.1,0.8,1.6,1.2c13.6,11.2,15.9,30.6,5.1,44.3 c-9.9,13-29,15.9-42.6,6.4c-0.6-0.4-1.1-0.8-1.6-1.2C377.5,96.7,375.2,77.4,386,63.6z" /> <path class="st2xyz" d="M392.8,4.4c80.5,17.2,132.1,96.5,115,177.4c-1.9,4.5-7.3,6.6-12,4.8c-3.2-1.3-5.5-4.2-5.7-7.6 c2.2-36.6-13.2-72-41.4-95.3c0.3-21-16.5-38.4-37.5-38.7c-5.9-0.1-11.6,1.2-16.9,3.7c-39.5-8.2-80.1,8.1-103.1,41.3 c-2.8,3.7-8.2,4.6-12.1,2s-5.3-7.6-3.2-11.7l0,0c11.4-20.4,28.6-37.4,49.6-48.9c7.6-5.1,9.6-15,4.8-22.5c-0.9-1.3-1.9-2.6-3.2-3.6 C348.5,0.2,371.1-0.2,392.8,4.4z" /> <path class="st2xyz" d="M386,63.6c9.9-13,29-15.9,42.6-6.4c0.6,0.4,1.1,0.8,1.6,1.2c13.6,11.2,15.9,30.6,5.1,44.3 c-9.9,13-29,15.9-42.6,6.4c-0.6-0.4-1.1-0.8-1.6-1.2C377.5,96.7,375.2,77.4,386,63.6z" /> <path class="st2xyz" d="M392.8,4.4c80.5,17.2,132.1,96.5,115,177.4c-1.9,4.5-7.3,6.6-12,4.8c-3.2-1.3-5.5-4.2-5.7-7.6 c2.2-36.6-13.2-72-41.4-95.3c0.3-21-16.5-38.4-37.5-38.7c-5.9-0.1-11.6,1.2-16.9,3.7c-39.5-8.2-80.1,8.1-103.1,41.3 c-2.8,3.7-8.2,4.6-12.1,2s-5.3-7.6-3.2-11.7l0,0c11.4-20.4,28.6-37.4,49.6-48.9c7.6-5.1,9.6-15,4.8-22.5c-0.9-1.3-1.9-2.6-3.2-3.6 C348.5,0.2,371.1-0.2,392.8,4.4z" /> <path class="st2xyz" d="M386,63.6c9.9-13,29-15.9,42.6-6.4c0.6,0.4,1.1,0.8,1.6,1.2c13.6,11.2,15.9,30.6,5.1,44.3 c-9.9,13-29,15.9-42.6,6.4c-0.6-0.4-1.1-0.8-1.6-1.2C377.5,96.7,375.2,77.4,386,63.6z" /> <path class="st2xyz" d="M392.8,4.4c80.5,17.2,132.1,96.5,115,177.4c-1.9,4.5-7.3,6.6-12,4.8c-3.2-1.3-5.5-4.2-5.7-7.6 c2.2-36.6-13.2-72-41.4-95.3c0.3-21-16.5-38.4-37.5-38.7c-5.9-0.1-11.6,1.2-16.9,3.7c-39.5-8.2-80.1,8.1-103.1,41.3 c-2.8,3.7-8.2,4.6-12.1,2s-5.3-7.6-3.2-11.7l0,0c11.4-20.4,28.6-37.4,49.6-48.9c7.6-5.1,9.6-15,4.8-22.5c-0.9-1.3-1.9-2.6-3.2-3.6 C348.5,0.2,371.1-0.2,392.8,4.4z" /> <path class="st2xyz" d="M386,63.6c9.9-13,29-15.9,42.6-6.4c0.6,0.4,1.1,0.8,1.6,1.2c13.6,11.2,15.9,30.6,5.1,44.3 c-9.9,13-29,15.9-42.6,6.4c-0.6-0.4-1.1-0.8-1.6-1.2C377.5,96.7,375.2,77.4,386,63.6z" /> <path class="st2xyz" d="M392.8,4.4c80.5,17.2,132.1,96.5,115,177.4c-1.9,4.5-7.3,6.6-12,4.8c-3.2-1.3-5.5-4.2-5.7-7.6 c2.2-36.6-13.2-72-41.4-95.3c0.3-21-16.5-38.4-37.5-38.7c-5.9-0.1-11.6,1.2-16.9,3.7c-39.5-8.2-80.1,8.1-103.1,41.3 c-2.8,3.7-8.2,4.6-12.1,2s-5.3-7.6-3.2-11.7l0,0c11.4-20.4,28.6-37.4,49.6-48.9c7.6-5.1,9.6-15,4.8-22.5c-0.9-1.3-1.9-2.6-3.2-3.6 C348.5,0.2,371.1-0.2,392.8,4.4z" /> <path class="st2xyz" d="M386,63.6c9.9-13,29-15.9,42.6-6.4c0.6,0.4,1.1,0.8,1.6,1.2c13.6,11.2,15.9,30.6,5.1,44.3 c-9.9,13-29,15.9-42.6,6.4c-0.6-0.4-1.1-0.8-1.6-1.2C377.5,96.7,375.2,77.4,386,63.6z" /> <path class="st3xyz" d="M315.7,8.6c3.3-0.3,6.5,1.1,8.4,3.7c3.1,4.2,2.2,9.9-1.9,13.1c-32.7,16.4-55.6,47.4-61.6,83.6 c-18.3,10.3-25,33.5-14.6,51.9c2.8,5.1,6.8,9.5,11.6,12.9c12.7,38.4,47,65.5,87.2,68.9c4.8,0.8,8.2,4.9,7.8,9.6 c-0.1,4.5-3.8,8.2-8.5,8.6c-23.8,0.2-47.1-6.2-67.1-18.6c-7.8-3.9-17.4-1.1-21.5,6.4c-0.1,0.2-0.2,0.4-0.4,0.7 c-0.7,1.4-1.2,3-1.5,4.5c-15.4-16.4-26.8-35.6-33.6-56.6C194.6,118.5,237.4,34.1,315.7,8.6z" /> <ellipse class="st4xyz" cx="395.8" cy="226.8" rx="31.4" ry="31.5" /> <path class="st3xyz" d="M254.6,122.5c9.9-13,29-15.9,42.6-6.4c0.6,0.4,1.1,0.8,1.6,1.2c13.6,11.2,15.9,30.6,5.1,44.3 c-9.9,13-29,15.9-42.6,6.4c-0.5-0.4-1.1-0.8-1.6-1.2C246,155.6,243.7,136.3,254.6,122.5z" /> <path class="st4xyz" d="M472.7,250.8c-55.1,61.4-149.4,66.4-210.6,11.3c-1.9-2.7-2.3-6.1-1-9.1c1.8-4.5,7.1-6.8,11.7-5 c0.1,0.1,0.3,0.1,0.4,0.2c30.1,20.1,68.8,24.5,102.9,11.7c18.1,10.8,41.5,4.9,52.2-13.3c3-5.1,4.8-10.7,5.3-16.6 c26.8-30.3,33-73.6,15.9-110.3c-1.8-4.4,0.1-9.3,4.4-11.6c4.1-2.1,9.2-0.8,11.7,3.1c12.1,20.6,18.2,44,17.5,67.6 c0.3,8.8,7.9,15.6,17,15.4h0.1c1.6-0.1,3.2-0.4,4.7-0.9C498.6,214.4,487.7,234,472.7,250.8z" /> <path class="st2xyz" d="M392.8,4.4c80.5,17.2,132.1,96.5,115,177.4c-1.9,4.5-7.3,6.6-12,4.8c-3.2-1.3-5.5-4.2-5.7-7.6 c2.2-36.6-13.2-72-41.4-95.3c0.3-21-16.5-38.4-37.5-38.7c-5.9-0.1-11.6,1.2-16.9,3.7c-39.5-8.2-80.1,8.1-103.1,41.3 c-2.8,3.7-8.2,4.6-12.1,2s-5.3-7.6-3.2-11.7l0,0c11.4-20.4,28.6-37.4,49.6-48.9c7.6-5.1,9.6-15,4.8-22.5c-0.9-1.3-1.9-2.6-3.2-3.6 C348.5,0.2,371.1-0.2,392.8,4.4z" /> <path class="st2xyz" d="M386,63.6c9.9-13,29-15.9,42.6-6.4c0.6,0.4,1.1,0.8,1.6,1.2c13.6,11.2,15.9,30.6,5.1,44.3 c-9.9,13-29,15.9-42.6,6.4c-0.6-0.4-1.1-0.8-1.6-1.2C377.5,96.7,375.2,77.4,386,63.6z" /> <path class="st2xyz" d="M392.8,4.4c80.5,17.2,132.1,96.5,115,177.4c-1.9,4.5-7.3,6.6-12,4.8c-3.2-1.3-5.5-4.2-5.7-7.6 c2.2-36.6-13.2-72-41.4-95.3c0.3-21-16.5-38.4-37.5-38.7c-5.9-0.1-11.6,1.2-16.9,3.7c-39.5-8.2-80.1,8.1-103.1,41.3 c-2.8,3.7-8.2,4.6-12.1,2s-5.3-7.6-3.2-11.7l0,0c11.4-20.4,28.6-37.4,49.6-48.9c7.6-5.1,9.6-15,4.8-22.5c-0.9-1.3-1.9-2.6-3.2-3.6 C348.5,0.2,371.1-0.2,392.8,4.4z" /> <path class="st2xyz" d="M386,63.6c9.9-13,29-15.9,42.6-6.4c0.6,0.4,1.1,0.8,1.6,1.2c13.6,11.2,15.9,30.6,5.1,44.3 c-9.9,13-29,15.9-42.6,6.4c-0.6-0.4-1.1-0.8-1.6-1.2C377.5,96.7,375.2,77.4,386,63.6z" /> <path class="st2xyz" d="M392.8,4.4c80.5,17.2,132.1,96.5,115,177.4c-1.9,4.5-7.3,6.6-12,4.8c-3.2-1.3-5.5-4.2-5.7-7.6 c2.2-36.6-13.2-72-41.4-95.3c0.3-21-16.5-38.4-37.5-38.7c-5.9-0.1-11.6,1.2-16.9,3.7c-39.5-8.2-80.1,8.1-103.1,41.3 c-2.8,3.7-8.2,4.6-12.1,2s-5.3-7.6-3.2-11.7l0,0c11.4-20.4,28.6-37.4,49.6-48.9c7.6-5.1,9.6-15,4.8-22.5c-0.9-1.3-1.9-2.6-3.2-3.6 C348.5,0.2,371.1-0.2,392.8,4.4z" /> <path class="st2xyz" d="M386,63.6c9.9-13,29-15.9,42.6-6.4c0.6,0.4,1.1,0.8,1.6,1.2c13.6,11.2,15.9,30.6,5.1,44.3 c-9.9,13-29,15.9-42.6,6.4c-0.6-0.4-1.1-0.8-1.6-1.2C377.5,96.7,375.2,77.4,386,63.6z" /> <path class="st2xyz" d="M392.8,4.4c80.5,17.2,132.1,96.5,115,177.4c-1.9,4.5-7.3,6.6-12,4.8c-3.2-1.3-5.5-4.2-5.7-7.6 c2.2-36.6-13.2-72-41.4-95.3c0.3-21-16.5-38.4-37.5-38.7c-5.9-0.1-11.6,1.2-16.9,3.7c-39.5-8.2-80.1,8.1-103.1,41.3 c-2.8,3.7-8.2,4.6-12.1,2s-5.3-7.6-3.2-11.7l0,0c11.4-20.4,28.6-37.4,49.6-48.9c7.6-5.1,9.6-15,4.8-22.5c-0.9-1.3-1.9-2.6-3.2-3.6 C348.5,0.2,371.1-0.2,392.8,4.4z" /> <path class="st2xyz" d="M386,63.6c9.9-13,29-15.9,42.6-6.4c0.6,0.4,1.1,0.8,1.6,1.2c13.6,11.2,15.9,30.6,5.1,44.3 c-9.9,13-29,15.9-42.6,6.4c-0.6-0.4-1.1-0.8-1.6-1.2C377.5,96.7,375.2,77.4,386,63.6z" /> <path class="st2xyz" d="M392.8,4.4c80.5,17.2,132.1,96.5,115,177.4c-1.9,4.5-7.3,6.6-12,4.8c-3.2-1.3-5.5-4.2-5.7-7.6 c2.2-36.6-13.2-72-41.4-95.3c0.3-21-16.5-38.4-37.5-38.7c-5.9-0.1-11.6,1.2-16.9,3.7c-39.5-8.2-80.1,8.1-103.1,41.3 c-2.8,3.7-8.2,4.6-12.1,2s-5.3-7.6-3.2-11.7l0,0c11.4-20.4,28.6-37.4,49.6-48.9c7.6-5.1,9.6-15,4.8-22.5c-0.9-1.3-1.9-2.6-3.2-3.6 C348.5,0.2,371.1-0.2,392.8,4.4z" /> <path class="st2xyz" d="M386,63.6c9.9-13,29-15.9,42.6-6.4c0.6,0.4,1.1,0.8,1.6,1.2c13.6,11.2,15.9,30.6,5.1,44.3 c-9.9,13-29,15.9-42.6,6.4c-0.6-0.4-1.1-0.8-1.6-1.2C377.5,96.7,375.2,77.4,386,63.6z" /> <path class="st2xyz" d="M392.8,4.4c80.5,17.2,132.1,96.5,115,177.4c-1.9,4.5-7.3,6.6-12,4.8c-3.2-1.3-5.5-4.2-5.7-7.6 c2.2-36.6-13.2-72-41.4-95.3c0.3-21-16.5-38.4-37.5-38.7c-5.9-0.1-11.6,1.2-16.9,3.7c-39.5-8.2-80.1,8.1-103.1,41.3 c-2.8,3.7-8.2,4.6-12.1,2s-5.3-7.6-3.2-11.7l0,0c11.4-20.4,28.6-37.4,49.6-48.9c7.6-5.1,9.6-15,4.8-22.5c-0.9-1.3-1.9-2.6-3.2-3.6 C348.5,0.2,371.1-0.2,392.8,4.4z" /> <path class="st2xyz" d="M386,63.6c9.9-13,29-15.9,42.6-6.4c0.6,0.4,1.1,0.8,1.6,1.2c13.6,11.2,15.9,30.6,5.1,44.3 c-9.9,13-29,15.9-42.6,6.4c-0.6-0.4-1.1-0.8-1.6-1.2C377.5,96.7,375.2,77.4,386,63.6z" /> <path class="st3xyz" d="M315.7,8.6c3.3-0.3,6.5,1.1,8.4,3.7c3.1,4.2,2.2,9.9-1.9,13.1c-32.7,16.4-55.6,47.4-61.6,83.6 c-18.3,10.3-25,33.5-14.6,51.9c2.8,5.1,6.8,9.5,11.6,12.9c12.7,38.4,47,65.5,87.2,68.9c4.8,0.8,8.2,4.9,7.8,9.6 c-0.1,4.5-3.8,8.2-8.5,8.6c-23.8,0.2-47.1-6.2-67.1-18.6c-7.8-3.9-17.4-1.1-21.5,6.4c-0.1,0.2-0.2,0.4-0.4,0.7 c-0.7,1.4-1.2,3-1.5,4.5c-15.4-16.4-26.8-35.6-33.6-56.6C194.6,118.5,237.4,34.1,315.7,8.6z" /> <ellipse class="st4xyz" cx="395.8" cy="226.8" rx="31.4" ry="31.5" /> <path class="st3xyz" d="M254.6,122.5c9.9-13,29-15.9,42.6-6.4c0.6,0.4,1.1,0.8,1.6,1.2c13.6,11.2,15.9,30.6,5.1,44.3 c-9.9,13-29,15.9-42.6,6.4c-0.5-0.4-1.1-0.8-1.6-1.2C246,155.6,243.7,136.3,254.6,122.5z" /> <path class="st4xyz" d="M472.7,250.8c-55.1,61.4-149.4,66.4-210.6,11.3c-1.9-2.7-2.3-6.1-1-9.1c1.8-4.5,7.1-6.8,11.7-5 c0.1,0.1,0.3,0.1,0.4,0.2c30.1,20.1,68.8,24.5,102.9,11.7c18.1,10.8,41.5,4.9,52.2-13.3c3-5.1,4.8-10.7,5.3-16.6 c26.8-30.3,33-73.6,15.9-110.3c-1.8-4.4,0.1-9.3,4.4-11.6c4.1-2.1,9.2-0.8,11.7,3.1c12.1,20.6,18.2,44,17.5,67.6 c0.3,8.8,7.9,15.6,17,15.4h0.1c1.6-0.1,3.2-0.4,4.7-0.9C498.6,214.4,487.7,234,472.7,250.8z" /> <path class="st2xyz" d="M392.8,4.4c80.5,17.2,132.1,96.5,115,177.4c-1.9,4.5-7.3,6.6-12,4.8c-3.2-1.3-5.5-4.2-5.7-7.6 c2.2-36.6-13.2-72-41.4-95.3c0.3-21-16.5-38.4-37.5-38.7c-5.9-0.1-11.6,1.2-16.9,3.7c-39.5-8.2-80.1,8.1-103.1,41.3 c-2.8,3.7-8.2,4.6-12.1,2s-5.3-7.6-3.2-11.7l0,0c11.4-20.4,28.6-37.4,49.6-48.9c7.6-5.1,9.6-15,4.8-22.5c-0.9-1.3-1.9-2.6-3.2-3.6 C348.5,0.2,371.1-0.2,392.8,4.4z" /> <path class="st2xyz" d="M386,63.6c9.9-13,29-15.9,42.6-6.4c0.6,0.4,1.1,0.8,1.6,1.2c13.6,11.2,15.9,30.6,5.1,44.3 c-9.9,13-29,15.9-42.6,6.4c-0.6-0.4-1.1-0.8-1.6-1.2C377.5,96.7,375.2,77.4,386,63.6z" /> <path class="st2xyz" d="M392.8,4.4c80.5,17.2,132.1,96.5,115,177.4c-1.9,4.5-7.3,6.6-12,4.8c-3.2-1.3-5.5-4.2-5.7-7.6 c2.2-36.6-13.2-72-41.4-95.3c0.3-21-16.5-38.4-37.5-38.7c-5.9-0.1-11.6,1.2-16.9,3.7c-39.5-8.2-80.1,8.1-103.1,41.3 c-2.8,3.7-8.2,4.6-12.1,2s-5.3-7.6-3.2-11.7l0,0c11.4-20.4,28.6-37.4,49.6-48.9c7.6-5.1,9.6-15,4.8-22.5c-0.9-1.3-1.9-2.6-3.2-3.6 C348.5,0.2,371.1-0.2,392.8,4.4z" /> <path class="st2xyz" d="M386,63.6c9.9-13,29-15.9,42.6-6.4c0.6,0.4,1.1,0.8,1.6,1.2c13.6,11.2,15.9,30.6,5.1,44.3 c-9.9,13-29,15.9-42.6,6.4c-0.6-0.4-1.1-0.8-1.6-1.2C377.5,96.7,375.2,77.4,386,63.6z" /> <path class="st2xyz" d="M392.8,4.4c80.5,17.2,132.1,96.5,115,177.4c-1.9,4.5-7.3,6.6-12,4.8c-3.2-1.3-5.5-4.2-5.7-7.6 c2.2-36.6-13.2-72-41.4-95.3c0.3-21-16.5-38.4-37.5-38.7c-5.9-0.1-11.6,1.2-16.9,3.7c-39.5-8.2-80.1,8.1-103.1,41.3 c-2.8,3.7-8.2,4.6-12.1,2s-5.3-7.6-3.2-11.7l0,0c11.4-20.4,28.6-37.4,49.6-48.9c7.6-5.1,9.6-15,4.8-22.5c-0.9-1.3-1.9-2.6-3.2-3.6 C348.5,0.2,371.1-0.2,392.8,4.4z" /> <path class="st2xyz" d="M386,63.6c9.9-13,29-15.9,42.6-6.4c0.6,0.4,1.1,0.8,1.6,1.2c13.6,11.2,15.9,30.6,5.1,44.3 c-9.9,13-29,15.9-42.6,6.4c-0.6-0.4-1.1-0.8-1.6-1.2C377.5,96.7,375.2,77.4,386,63.6z" /> <path class="st2xyz" d="M392.8,4.4c80.5,17.2,132.1,96.5,115,177.4c-1.9,4.5-7.3,6.6-12,4.8c-3.2-1.3-5.5-4.2-5.7-7.6 c2.2-36.6-13.2-72-41.4-95.3c0.3-21-16.5-38.4-37.5-38.7c-5.9-0.1-11.6,1.2-16.9,3.7c-39.5-8.2-80.1,8.1-103.1,41.3 c-2.8,3.7-8.2,4.6-12.1,2s-5.3-7.6-3.2-11.7l0,0c11.4-20.4,28.6-37.4,49.6-48.9c7.6-5.1,9.6-15,4.8-22.5c-0.9-1.3-1.9-2.6-3.2-3.6 C348.5,0.2,371.1-0.2,392.8,4.4z" /> <path class="st2xyz" d="M386,63.6c9.9-13,29-15.9,42.6-6.4c0.6,0.4,1.1,0.8,1.6,1.2c13.6,11.2,15.9,30.6,5.1,44.3 c-9.9,13-29,15.9-42.6,6.4c-0.6-0.4-1.1-0.8-1.6-1.2C377.5,96.7,375.2,77.4,386,63.6z" /> <path class="st2xyz" d="M392.8,4.4c80.5,17.2,132.1,96.5,115,177.4c-1.9,4.5-7.3,6.6-12,4.8c-3.2-1.3-5.5-4.2-5.7-7.6 c2.2-36.6-13.2-72-41.4-95.3c0.3-21-16.5-38.4-37.5-38.7c-5.9-0.1-11.6,1.2-16.9,3.7c-39.5-8.2-80.1,8.1-103.1,41.3 c-2.8,3.7-8.2,4.6-12.1,2s-5.3-7.6-3.2-11.7l0,0c11.4-20.4,28.6-37.4,49.6-48.9c7.6-5.1,9.6-15,4.8-22.5c-0.9-1.3-1.9-2.6-3.2-3.6 C348.5,0.2,371.1-0.2,392.8,4.4z" /> <path class="st2xyz" d="M386,63.6c9.9-13,29-15.9,42.6-6.4c0.6,0.4,1.1,0.8,1.6,1.2c13.6,11.2,15.9,30.6,5.1,44.3 c-9.9,13-29,15.9-42.6,6.4c-0.6-0.4-1.1-0.8-1.6-1.2C377.5,96.7,375.2,77.4,386,63.6z" /> <path class="st2xyz" d="M392.8,4.4c80.5,17.2,132.1,96.5,115,177.4c-1.9,4.5-7.3,6.6-12,4.8c-3.2-1.3-5.5-4.2-5.7-7.6 c2.2-36.6-13.2-72-41.4-95.3c0.3-21-16.5-38.4-37.5-38.7c-5.9-0.1-11.6,1.2-16.9,3.7c-39.5-8.2-80.1,8.1-103.1,41.3 c-2.8,3.7-8.2,4.6-12.1,2s-5.3-7.6-3.2-11.7l0,0c11.4-20.4,28.6-37.4,49.6-48.9c7.6-5.1,9.6-15,4.8-22.5c-0.9-1.3-1.9-2.6-3.2-3.6 C348.5,0.2,371.1-0.2,392.8,4.4z" /> <path class="st2xyz" d="M386,63.6c9.9-13,29-15.9,42.6-6.4c0.6,0.4,1.1,0.8,1.6,1.2c13.6,11.2,15.9,30.6,5.1,44.3 c-9.9,13-29,15.9-42.6,6.4c-0.6-0.4-1.1-0.8-1.6-1.2C377.5,96.7,375.2,77.4,386,63.6z" /> <path class="st3xyz" d="M315.7,8.6c3.3-0.3,6.5,1.1,8.4,3.7c3.1,4.2,2.2,9.9-1.9,13.1c-32.7,16.4-55.6,47.4-61.6,83.6 c-18.3,10.3-25,33.5-14.6,51.9c2.8,5.1,6.8,9.5,11.6,12.9c12.7,38.4,47,65.5,87.2,68.9c4.8,0.8,8.2,4.9,7.8,9.6 c-0.1,4.5-3.8,8.2-8.5,8.6c-23.8,0.2-47.1-6.2-67.1-18.6c-7.8-3.9-17.4-1.1-21.5,6.4c-0.1,0.2-0.2,0.4-0.4,0.7 c-0.7,1.4-1.2,3-1.5,4.5c-15.4-16.4-26.8-35.6-33.6-56.6C194.6,118.5,237.4,34.1,315.7,8.6z" /> <ellipse class="st4xyz" cx="395.8" cy="226.8" rx="31.4" ry="31.5" /> <path class="st3xyz" d="M254.6,122.5c9.9-13,29-15.9,42.6-6.4c0.6,0.4,1.1,0.8,1.6,1.2c13.6,11.2,15.9,30.6,5.1,44.3 c-9.9,13-29,15.9-42.6,6.4c-0.5-0.4-1.1-0.8-1.6-1.2C246,155.6,243.7,136.3,254.6,122.5z" /> <path class="st4xyz" d="M472.7,250.8c-55.1,61.4-149.4,66.4-210.6,11.3c-1.9-2.7-2.3-6.1-1-9.1c1.8-4.5,7.1-6.8,11.7-5 c0.1,0.1,0.3,0.1,0.4,0.2c30.1,20.1,68.8,24.5,102.9,11.7c18.1,10.8,41.5,4.9,52.2-13.3c3-5.1,4.8-10.7,5.3-16.6 c26.8-30.3,33-73.6,15.9-110.3c-1.8-4.4,0.1-9.3,4.4-11.6c4.1-2.1,9.2-0.8,11.7,3.1c12.1,20.6,18.2,44,17.5,67.6 c0.3,8.8,7.9,15.6,17,15.4h0.1c1.6-0.1,3.2-0.4,4.7-0.9C498.6,214.4,487.7,234,472.7,250.8z" /> <path class="st2xyz" d="M392.8,4.4c80.5,17.2,132.1,96.5,115,177.4c-1.9,4.5-7.3,6.6-12,4.8c-3.2-1.3-5.5-4.2-5.7-7.6 c2.2-36.6-13.2-72-41.4-95.3c0.3-21-16.5-38.4-37.5-38.7c-5.9-0.1-11.6,1.2-16.9,3.7c-39.5-8.2-80.1,8.1-103.1,41.3 c-2.8,3.7-8.2,4.6-12.1,2s-5.3-7.6-3.2-11.7l0,0c11.4-20.4,28.6-37.4,49.6-48.9c7.6-5.1,9.6-15,4.8-22.5c-0.9-1.3-1.9-2.6-3.2-3.6 C348.5,0.2,371.1-0.2,392.8,4.4z" /> <path class="st2xyz" d="M386,63.6c9.9-13,29-15.9,42.6-6.4c0.6,0.4,1.1,0.8,1.6,1.2c13.6,11.2,15.9,30.6,5.1,44.3 c-9.9,13-29,15.9-42.6,6.4c-0.6-0.4-1.1-0.8-1.6-1.2C377.5,96.7,375.2,77.4,386,63.6z" /> <path class="st2xyz" d="M392.8,4.4c80.5,17.2,132.1,96.5,115,177.4c-1.9,4.5-7.3,6.6-12,4.8c-3.2-1.3-5.5-4.2-5.7-7.6 c2.2-36.6-13.2-72-41.4-95.3c0.3-21-16.5-38.4-37.5-38.7c-5.9-0.1-11.6,1.2-16.9,3.7c-39.5-8.2-80.1,8.1-103.1,41.3 c-2.8,3.7-8.2,4.6-12.1,2s-5.3-7.6-3.2-11.7l0,0c11.4-20.4,28.6-37.4,49.6-48.9c7.6-5.1,9.6-15,4.8-22.5c-0.9-1.3-1.9-2.6-3.2-3.6 C348.5,0.2,371.1-0.2,392.8,4.4z" /> <path class="st2xyz" d="M386,63.6c9.9-13,29-15.9,42.6-6.4c0.6,0.4,1.1,0.8,1.6,1.2c13.6,11.2,15.9,30.6,5.1,44.3 c-9.9,13-29,15.9-42.6,6.4c-0.6-0.4-1.1-0.8-1.6-1.2C377.5,96.7,375.2,77.4,386,63.6z" /> <path class="st2xyz" d="M392.8,4.4c80.5,17.2,132.1,96.5,115,177.4c-1.9,4.5-7.3,6.6-12,4.8c-3.2-1.3-5.5-4.2-5.7-7.6 c2.2-36.6-13.2-72-41.4-95.3c0.3-21-16.5-38.4-37.5-38.7c-5.9-0.1-11.6,1.2-16.9,3.7c-39.5-8.2-80.1,8.1-103.1,41.3 c-2.8,3.7-8.2,4.6-12.1,2s-5.3-7.6-3.2-11.7l0,0c11.4-20.4,28.6-37.4,49.6-48.9c7.6-5.1,9.6-15,4.8-22.5c-0.9-1.3-1.9-2.6-3.2-3.6 C348.5,0.2,371.1-0.2,392.8,4.4z" /> <path class="st2xyz" d="M386,63.6c9.9-13,29-15.9,42.6-6.4c0.6,0.4,1.1,0.8,1.6,1.2c13.6,11.2,15.9,30.6,5.1,44.3 c-9.9,13-29,15.9-42.6,6.4c-0.6-0.4-1.1-0.8-1.6-1.2C377.5,96.7,375.2,77.4,386,63.6z" /> <path class="st2xyz" d="M392.8,4.4c80.5,17.2,132.1,96.5,115,177.4c-1.9,4.5-7.3,6.6-12,4.8c-3.2-1.3-5.5-4.2-5.7-7.6 c2.2-36.6-13.2-72-41.4-95.3c0.3-21-16.5-38.4-37.5-38.7c-5.9-0.1-11.6,1.2-16.9,3.7c-39.5-8.2-80.1,8.1-103.1,41.3 c-2.8,3.7-8.2,4.6-12.1,2s-5.3-7.6-3.2-11.7l0,0c11.4-20.4,28.6-37.4,49.6-48.9c7.6-5.1,9.6-15,4.8-22.5c-0.9-1.3-1.9-2.6-3.2-3.6 C348.5,0.2,371.1-0.2,392.8,4.4z" /> <path class="st2xyz" d="M386,63.6c9.9-13,29-15.9,42.6-6.4c0.6,0.4,1.1,0.8,1.6,1.2c13.6,11.2,15.9,30.6,5.1,44.3 c-9.9,13-29,15.9-42.6,6.4c-0.6-0.4-1.1-0.8-1.6-1.2C377.5,96.7,375.2,77.4,386,63.6z" /> <path class="st2xyz" d="M392.8,4.4c80.5,17.2,132.1,96.5,115,177.4c-1.9,4.5-7.3,6.6-12,4.8c-3.2-1.3-5.5-4.2-5.7-7.6 c2.2-36.6-13.2-72-41.4-95.3c0.3-21-16.5-38.4-37.5-38.7c-5.9-0.1-11.6,1.2-16.9,3.7c-39.5-8.2-80.1,8.1-103.1,41.3 c-2.8,3.7-8.2,4.6-12.1,2s-5.3-7.6-3.2-11.7l0,0c11.4-20.4,28.6-37.4,49.6-48.9c7.6-5.1,9.6-15,4.8-22.5c-0.9-1.3-1.9-2.6-3.2-3.6 C348.5,0.2,371.1-0.2,392.8,4.4z" /> <path class="st2xyz" d="M386,63.6c9.9-13,29-15.9,42.6-6.4c0.6,0.4,1.1,0.8,1.6,1.2c13.6,11.2,15.9,30.6,5.1,44.3 c-9.9,13-29,15.9-42.6,6.4c-0.6-0.4-1.1-0.8-1.6-1.2C377.5,96.7,375.2,77.4,386,63.6z" /> <path class="st2xyz" d="M392.8,4.4c80.5,17.2,132.1,96.5,115,177.4c-1.9,4.5-7.3,6.6-12,4.8c-3.2-1.3-5.5-4.2-5.7-7.6 c2.2-36.6-13.2-72-41.4-95.3c0.3-21-16.5-38.4-37.5-38.7c-5.9-0.1-11.6,1.2-16.9,3.7c-39.5-8.2-80.1,8.1-103.1,41.3 c-2.8,3.7-8.2,4.6-12.1,2s-5.3-7.6-3.2-11.7l0,0c11.4-20.4,28.6-37.4,49.6-48.9c7.6-5.1,9.6-15,4.8-22.5c-0.9-1.3-1.9-2.6-3.2-3.6 C348.5,0.2,371.1-0.2,392.8,4.4z" /> <path class="st2xyz" d="M386,63.6c9.9-13,29-15.9,42.6-6.4c0.6,0.4,1.1,0.8,1.6,1.2c13.6,11.2,15.9,30.6,5.1,44.3 c-9.9,13-29,15.9-42.6,6.4c-0.6-0.4-1.1-0.8-1.6-1.2C377.5,96.7,375.2,77.4,386,63.6z" /> <path class="st3xyz" d="M315.7,8.6c3.3-0.3,6.5,1.1,8.4,3.7c3.1,4.2,2.2,9.9-1.9,13.1c-32.7,16.4-55.6,47.4-61.6,83.6 c-18.3,10.3-25,33.5-14.6,51.9c2.8,5.1,6.8,9.5,11.6,12.9c12.7,38.4,47,65.5,87.2,68.9c4.8,0.8,8.2,4.9,7.8,9.6 c-0.1,4.5-3.8,8.2-8.5,8.6c-23.8,0.2-47.1-6.2-67.1-18.6c-7.8-3.9-17.4-1.1-21.5,6.4c-0.1,0.2-0.2,0.4-0.4,0.7 c-0.7,1.4-1.2,3-1.5,4.5c-15.4-16.4-26.8-35.6-33.6-56.6C194.6,118.5,237.4,34.1,315.7,8.6z" /> <ellipse class="st4xyz" cx="395.8" cy="226.8" rx="31.4" ry="31.5" /> <path class="st3xyz" d="M254.6,122.5c9.9-13,29-15.9,42.6-6.4c0.6,0.4,1.1,0.8,1.6,1.2c13.6,11.2,15.9,30.6,5.1,44.3 c-9.9,13-29,15.9-42.6,6.4c-0.5-0.4-1.1-0.8-1.6-1.2C246,155.6,243.7,136.3,254.6,122.5z" /> <path class="st4xyz" d="M472.7,250.8c-55.1,61.4-149.4,66.4-210.6,11.3c-1.9-2.7-2.3-6.1-1-9.1c1.8-4.5,7.1-6.8,11.7-5 c0.1,0.1,0.3,0.1,0.4,0.2c30.1,20.1,68.8,24.5,102.9,11.7c18.1,10.8,41.5,4.9,52.2-13.3c3-5.1,4.8-10.7,5.3-16.6 c26.8-30.3,33-73.6,15.9-110.3c-1.8-4.4,0.1-9.3,4.4-11.6c4.1-2.1,9.2-0.8,11.7,3.1c12.1,20.6,18.2,44,17.5,67.6 c0.3,8.8,7.9,15.6,17,15.4h0.1c1.6-0.1,3.2-0.4,4.7-0.9C498.6,214.4,487.7,234,472.7,250.8z" /> <path class="st2xyz" d="M392.8,4.4c80.5,17.2,132.1,96.5,115,177.4c-1.9,4.5-7.3,6.6-12,4.8c-3.2-1.3-5.5-4.2-5.7-7.6 c2.2-36.6-13.2-72-41.4-95.3c0.3-21-16.5-38.4-37.5-38.7c-5.9-0.1-11.6,1.2-16.9,3.7c-39.5-8.2-80.1,8.1-103.1,41.3 c-2.8,3.7-8.2,4.6-12.1,2s-5.3-7.6-3.2-11.7l0,0c11.4-20.4,28.6-37.4,49.6-48.9c7.6-5.1,9.6-15,4.8-22.5c-0.9-1.3-1.9-2.6-3.2-3.6 C348.5,0.2,371.1-0.2,392.8,4.4z" /> <path class="st2xyz" d="M386,63.6c9.9-13,29-15.9,42.6-6.4c0.6,0.4,1.1,0.8,1.6,1.2c13.6,11.2,15.9,30.6,5.1,44.3 c-9.9,13-29,15.9-42.6,6.4c-0.6-0.4-1.1-0.8-1.6-1.2C377.5,96.7,375.2,77.4,386,63.6z" /> <path class="st2xyz" d="M392.8,4.4c80.5,17.2,132.1,96.5,115,177.4c-1.9,4.5-7.3,6.6-12,4.8c-3.2-1.3-5.5-4.2-5.7-7.6 c2.2-36.6-13.2-72-41.4-95.3c0.3-21-16.5-38.4-37.5-38.7c-5.9-0.1-11.6,1.2-16.9,3.7c-39.5-8.2-80.1,8.1-103.1,41.3 c-2.8,3.7-8.2,4.6-12.1,2s-5.3-7.6-3.2-11.7l0,0c11.4-20.4,28.6-37.4,49.6-48.9c7.6-5.1,9.6-15,4.8-22.5c-0.9-1.3-1.9-2.6-3.2-3.6 C348.5,0.2,371.1-0.2,392.8,4.4z" /> <path class="st2xyz" d="M386,63.6c9.9-13,29-15.9,42.6-6.4c0.6,0.4,1.1,0.8,1.6,1.2c13.6,11.2,15.9,30.6,5.1,44.3 c-9.9,13-29,15.9-42.6,6.4c-0.6-0.4-1.1-0.8-1.6-1.2C377.5,96.7,375.2,77.4,386,63.6z" /> <path class="st2xyz" d="M392.8,4.4c80.5,17.2,132.1,96.5,115,177.4c-1.9,4.5-7.3,6.6-12,4.8c-3.2-1.3-5.5-4.2-5.7-7.6 c2.2-36.6-13.2-72-41.4-95.3c0.3-21-16.5-38.4-37.5-38.7c-5.9-0.1-11.6,1.2-16.9,3.7c-39.5-8.2-80.1,8.1-103.1,41.3 c-2.8,3.7-8.2,4.6-12.1,2s-5.3-7.6-3.2-11.7l0,0c11.4-20.4,28.6-37.4,49.6-48.9c7.6-5.1,9.6-15,4.8-22.5c-0.9-1.3-1.9-2.6-3.2-3.6 C348.5,0.2,371.1-0.2,392.8,4.4z" /> <path class="st2xyz" d="M386,63.6c9.9-13,29-15.9,42.6-6.4c0.6,0.4,1.1,0.8,1.6,1.2c13.6,11.2,15.9,30.6,5.1,44.3 c-9.9,13-29,15.9-42.6,6.4c-0.6-0.4-1.1-0.8-1.6-1.2C377.5,96.7,375.2,77.4,386,63.6z" /> <path class="st2xyz" d="M392.8,4.4c80.5,17.2,132.1,96.5,115,177.4c-1.9,4.5-7.3,6.6-12,4.8c-3.2-1.3-5.5-4.2-5.7-7.6 c2.2-36.6-13.2-72-41.4-95.3c0.3-21-16.5-38.4-37.5-38.7c-5.9-0.1-11.6,1.2-16.9,3.7c-39.5-8.2-80.1,8.1-103.1,41.3 c-2.8,3.7-8.2,4.6-12.1,2s-5.3-7.6-3.2-11.7l0,0c11.4-20.4,28.6-37.4,49.6-48.9c7.6-5.1,9.6-15,4.8-22.5c-0.9-1.3-1.9-2.6-3.2-3.6 C348.5,0.2,371.1-0.2,392.8,4.4z" /> <path class="st2xyz" d="M386,63.6c9.9-13,29-15.9,42.6-6.4c0.6,0.4,1.1,0.8,1.6,1.2c13.6,11.2,15.9,30.6,5.1,44.3 c-9.9,13-29,15.9-42.6,6.4c-0.6-0.4-1.1-0.8-1.6-1.2C377.5,96.7,375.2,77.4,386,63.6z" /> <path class="st2xyz" d="M392.8,4.4c80.5,17.2,132.1,96.5,115,177.4c-1.9,4.5-7.3,6.6-12,4.8c-3.2-1.3-5.5-4.2-5.7-7.6 c2.2-36.6-13.2-72-41.4-95.3c0.3-21-16.5-38.4-37.5-38.7c-5.9-0.1-11.6,1.2-16.9,3.7c-39.5-8.2-80.1,8.1-103.1,41.3 c-2.8,3.7-8.2,4.6-12.1,2s-5.3-7.6-3.2-11.7l0,0c11.4-20.4,28.6-37.4,49.6-48.9c7.6-5.1,9.6-15,4.8-22.5c-0.9-1.3-1.9-2.6-3.2-3.6 C348.5,0.2,371.1-0.2,392.8,4.4z" /> <path class="st2xyz" d="M386,63.6c9.9-13,29-15.9,42.6-6.4c0.6,0.4,1.1,0.8,1.6,1.2c13.6,11.2,15.9,30.6,5.1,44.3 c-9.9,13-29,15.9-42.6,6.4c-0.6-0.4-1.1-0.8-1.6-1.2C377.5,96.7,375.2,77.4,386,63.6z" /> <path class="st2xyz" d="M392.8,4.4c80.5,17.2,132.1,96.5,115,177.4c-1.9,4.5-7.3,6.6-12,4.8c-3.2-1.3-5.5-4.2-5.7-7.6 c2.2-36.6-13.2-72-41.4-95.3c0.3-21-16.5-38.4-37.5-38.7c-5.9-0.1-11.6,1.2-16.9,3.7c-39.5-8.2-80.1,8.1-103.1,41.3 c-2.8,3.7-8.2,4.6-12.1,2s-5.3-7.6-3.2-11.7l0,0c11.4-20.4,28.6-37.4,49.6-48.9c7.6-5.1,9.6-15,4.8-22.5c-0.9-1.3-1.9-2.6-3.2-3.6 C348.5,0.2,371.1-0.2,392.8,4.4z" /> <path class="st2xyz" d="M386,63.6c9.9-13,29-15.9,42.6-6.4c0.6,0.4,1.1,0.8,1.6,1.2c13.6,11.2,15.9,30.6,5.1,44.3 c-9.9,13-29,15.9-42.6,6.4c-0.6-0.4-1.1-0.8-1.6-1.2C377.5,96.7,375.2,77.4,386,63.6z" /> <path class="st3xyz" d="M315.7,8.6c3.3-0.3,6.5,1.1,8.4,3.7c3.1,4.2,2.2,9.9-1.9,13.1c-32.7,16.4-55.6,47.4-61.6,83.6 c-18.3,10.3-25,33.5-14.6,51.9c2.8,5.1,6.8,9.5,11.6,12.9c12.7,38.4,47,65.5,87.2,68.9c4.8,0.8,8.2,4.9,7.8,9.6 c-0.1,4.5-3.8,8.2-8.5,8.6c-23.8,0.2-47.1-6.2-67.1-18.6c-7.8-3.9-17.4-1.1-21.5,6.4c-0.1,0.2-0.2,0.4-0.4,0.7 c-0.7,1.4-1.2,3-1.5,4.5c-15.4-16.4-26.8-35.6-33.6-56.6C194.6,118.5,237.4,34.1,315.7,8.6z" /> <ellipse class="st4xyz" cx="395.8" cy="226.8" rx="31.4" ry="31.5" /> <path class="st3xyz" d="M254.6,122.5c9.9-13,29-15.9,42.6-6.4c0.6,0.4,1.1,0.8,1.6,1.2c13.6,11.2,15.9,30.6,5.1,44.3 c-9.9,13-29,15.9-42.6,6.4c-0.5-0.4-1.1-0.8-1.6-1.2C246,155.6,243.7,136.3,254.6,122.5z" /> <path class="st4xyz" d="M472.7,250.8c-55.1,61.4-149.4,66.4-210.6,11.3c-1.9-2.7-2.3-6.1-1-9.1c1.8-4.5,7.1-6.8,11.7-5 c0.1,0.1,0.3,0.1,0.4,0.2c30.1,20.1,68.8,24.5,102.9,11.7c18.1,10.8,41.5,4.9,52.2-13.3c3-5.1,4.8-10.7,5.3-16.6 c26.8-30.3,33-73.6,15.9-110.3c-1.8-4.4,0.1-9.3,4.4-11.6c4.1-2.1,9.2-0.8,11.7,3.1c12.1,20.6,18.2,44,17.5,67.6 c0.3,8.8,7.9,15.6,17,15.4h0.1c1.6-0.1,3.2-0.4,4.7-0.9C498.6,214.4,487.7,234,472.7,250.8z" /> <path class="st2xyz" d="M392.8,4.4c80.5,17.2,132.1,96.5,115,177.4c-1.9,4.5-7.3,6.6-12,4.8c-3.2-1.3-5.5-4.2-5.7-7.6 c2.2-36.6-13.2-72-41.4-95.3c0.3-21-16.5-38.4-37.5-38.7c-5.9-0.1-11.6,1.2-16.9,3.7c-39.5-8.2-80.1,8.1-103.1,41.3 c-2.8,3.7-8.2,4.6-12.1,2s-5.3-7.6-3.2-11.7l0,0c11.4-20.4,28.6-37.4,49.6-48.9c7.6-5.1,9.6-15,4.8-22.5c-0.9-1.3-1.9-2.6-3.2-3.6 C348.5,0.2,371.1-0.2,392.8,4.4z" /> <path class="st2xyz" d="M386,63.6c9.9-13,29-15.9,42.6-6.4c0.6,0.4,1.1,0.8,1.6,1.2c13.6,11.2,15.9,30.6,5.1,44.3 c-9.9,13-29,15.9-42.6,6.4c-0.6-0.4-1.1-0.8-1.6-1.2C377.5,96.7,375.2,77.4,386,63.6z" /> <path class="st2xyz" d="M392.8,4.4c80.5,17.2,132.1,96.5,115,177.4c-1.9,4.5-7.3,6.6-12,4.8c-3.2-1.3-5.5-4.2-5.7-7.6 c2.2-36.6-13.2-72-41.4-95.3c0.3-21-16.5-38.4-37.5-38.7c-5.9-0.1-11.6,1.2-16.9,3.7c-39.5-8.2-80.1,8.1-103.1,41.3 c-2.8,3.7-8.2,4.6-12.1,2s-5.3-7.6-3.2-11.7l0,0c11.4-20.4,28.6-37.4,49.6-48.9c7.6-5.1,9.6-15,4.8-22.5c-0.9-1.3-1.9-2.6-3.2-3.6 C348.5,0.2,371.1-0.2,392.8,4.4z" /> <path class="st2xyz" d="M386,63.6c9.9-13,29-15.9,42.6-6.4c0.6,0.4,1.1,0.8,1.6,1.2c13.6,11.2,15.9,30.6,5.1,44.3 c-9.9,13-29,15.9-42.6,6.4c-0.6-0.4-1.1-0.8-1.6-1.2C377.5,96.7,375.2,77.4,386,63.6z" /> <path class="st2xyz" d="M392.8,4.4c80.5,17.2,132.1,96.5,115,177.4c-1.9,4.5-7.3,6.6-12,4.8c-3.2-1.3-5.5-4.2-5.7-7.6 c2.2-36.6-13.2-72-41.4-95.3c0.3-21-16.5-38.4-37.5-38.7c-5.9-0.1-11.6,1.2-16.9,3.7c-39.5-8.2-80.1,8.1-103.1,41.3 c-2.8,3.7-8.2,4.6-12.1,2s-5.3-7.6-3.2-11.7l0,0c11.4-20.4,28.6-37.4,49.6-48.9c7.6-5.1,9.6-15,4.8-22.5c-0.9-1.3-1.9-2.6-3.2-3.6 C348.5,0.2,371.1-0.2,392.8,4.4z" /> <path class="st2xyz" d="M386,63.6c9.9-13,29-15.9,42.6-6.4c0.6,0.4,1.1,0.8,1.6,1.2c13.6,11.2,15.9,30.6,5.1,44.3 c-9.9,13-29,15.9-42.6,6.4c-0.6-0.4-1.1-0.8-1.6-1.2C377.5,96.7,375.2,77.4,386,63.6z" /> <path class="st2xyz" d="M392.8,4.4c80.5,17.2,132.1,96.5,115,177.4c-1.9,4.5-7.3,6.6-12,4.8c-3.2-1.3-5.5-4.2-5.7-7.6 c2.2-36.6-13.2-72-41.4-95.3c0.3-21-16.5-38.4-37.5-38.7c-5.9-0.1-11.6,1.2-16.9,3.7c-39.5-8.2-80.1,8.1-103.1,41.3 c-2.8,3.7-8.2,4.6-12.1,2s-5.3-7.6-3.2-11.7l0,0c11.4-20.4,28.6-37.4,49.6-48.9c7.6-5.1,9.6-15,4.8-22.5c-0.9-1.3-1.9-2.6-3.2-3.6 C348.5,0.2,371.1-0.2,392.8,4.4z" /> <path class="st2xyz" d="M386,63.6c9.9-13,29-15.9,42.6-6.4c0.6,0.4,1.1,0.8,1.6,1.2c13.6,11.2,15.9,30.6,5.1,44.3 c-9.9,13-29,15.9-42.6,6.4c-0.6-0.4-1.1-0.8-1.6-1.2C377.5,96.7,375.2,77.4,386,63.6z" /> <path class="st2xyz" d="M392.8,4.4c80.5,17.2,132.1,96.5,115,177.4c-1.9,4.5-7.3,6.6-12,4.8c-3.2-1.3-5.5-4.2-5.7-7.6 c2.2-36.6-13.2-72-41.4-95.3c0.3-21-16.5-38.4-37.5-38.7c-5.9-0.1-11.6,1.2-16.9,3.7c-39.5-8.2-80.1,8.1-103.1,41.3 c-2.8,3.7-8.2,4.6-12.1,2s-5.3-7.6-3.2-11.7l0,0c11.4-20.4,28.6-37.4,49.6-48.9c7.6-5.1,9.6-15,4.8-22.5c-0.9-1.3-1.9-2.6-3.2-3.6 C348.5,0.2,371.1-0.2,392.8,4.4z" /> <path class="st2xyz" d="M386,63.6c9.9-13,29-15.9,42.6-6.4c0.6,0.4,1.1,0.8,1.6,1.2c13.6,11.2,15.9,30.6,5.1,44.3 c-9.9,13-29,15.9-42.6,6.4c-0.6-0.4-1.1-0.8-1.6-1.2C377.5,96.7,375.2,77.4,386,63.6z" /> <path class="st2xyz" d="M392.8,4.4c80.5,17.2,132.1,96.5,115,177.4c-1.9,4.5-7.3,6.6-12,4.8c-3.2-1.3-5.5-4.2-5.7-7.6 c2.2-36.6-13.2-72-41.4-95.3c0.3-21-16.5-38.4-37.5-38.7c-5.9-0.1-11.6,1.2-16.9,3.7c-39.5-8.2-80.1,8.1-103.1,41.3 c-2.8,3.7-8.2,4.6-12.1,2s-5.3-7.6-3.2-11.7l0,0c11.4-20.4,28.6-37.4,49.6-48.9c7.6-5.1,9.6-15,4.8-22.5c-0.9-1.3-1.9-2.6-3.2-3.6 C348.5,0.2,371.1-0.2,392.8,4.4z" /> <path class="st2xyz" d="M386,63.6c9.9-13,29-15.9,42.6-6.4c0.6,0.4,1.1,0.8,1.6,1.2c13.6,11.2,15.9,30.6,5.1,44.3 c-9.9,13-29,15.9-42.6,6.4c-0.6-0.4-1.1-0.8-1.6-1.2C377.5,96.7,375.2,77.4,386,63.6z" /> <path class="st3xyz" d="M315.7,8.6c3.3-0.3,6.5,1.1,8.4,3.7c3.1,4.2,2.2,9.9-1.9,13.1c-32.7,16.4-55.6,47.4-61.6,83.6 c-18.3,10.3-25,33.5-14.6,51.9c2.8,5.1,6.8,9.5,11.6,12.9c12.7,38.4,47,65.5,87.2,68.9c4.8,0.8,8.2,4.9,7.8,9.6 c-0.1,4.5-3.8,8.2-8.5,8.6c-23.8,0.2-47.1-6.2-67.1-18.6c-7.8-3.9-17.4-1.1-21.5,6.4c-0.1,0.2-0.2,0.4-0.4,0.7 c-0.7,1.4-1.2,3-1.5,4.5c-15.4-16.4-26.8-35.6-33.6-56.6C194.6,118.5,237.4,34.1,315.7,8.6z" /> <ellipse class="st4xyz" cx="395.8" cy="226.8" rx="31.4" ry="31.5" /> <path class="st3xyz" d="M254.6,122.5c9.9-13,29-15.9,42.6-6.4c0.6,0.4,1.1,0.8,1.6,1.2c13.6,11.2,15.9,30.6,5.1,44.3 c-9.9,13-29,15.9-42.6,6.4c-0.5-0.4-1.1-0.8-1.6-1.2C246,155.6,243.7,136.3,254.6,122.5z" /> <path class="st4xyz" d="M472.7,250.8c-55.1,61.4-149.4,66.4-210.6,11.3c-1.9-2.7-2.3-6.1-1-9.1c1.8-4.5,7.1-6.8,11.7-5 c0.1,0.1,0.3,0.1,0.4,0.2c30.1,20.1,68.8,24.5,102.9,11.7c18.1,10.8,41.5,4.9,52.2-13.3c3-5.1,4.8-10.7,5.3-16.6 c26.8-30.3,33-73.6,15.9-110.3c-1.8-4.4,0.1-9.3,4.4-11.6c4.1-2.1,9.2-0.8,11.7,3.1c12.1,20.6,18.2,44,17.5,67.6 c0.3,8.8,7.9,15.6,17,15.4h0.1c1.6-0.1,3.2-0.4,4.7-0.9C498.6,214.4,487.7,234,472.7,250.8z" /> <path class="st2xyz" d="M392.8,4.4c80.5,17.2,132.1,96.5,115,177.4c-1.9,4.5-7.3,6.6-12,4.8c-3.2-1.3-5.5-4.2-5.7-7.6 c2.2-36.6-13.2-72-41.4-95.3c0.3-21-16.5-38.4-37.5-38.7c-5.9-0.1-11.6,1.2-16.9,3.7c-39.5-8.2-80.1,8.1-103.1,41.3 c-2.8,3.7-8.2,4.6-12.1,2s-5.3-7.6-3.2-11.7l0,0c11.4-20.4,28.6-37.4,49.6-48.9c7.6-5.1,9.6-15,4.8-22.5c-0.9-1.3-1.9-2.6-3.2-3.6 C348.5,0.2,371.1-0.2,392.8,4.4z" /> <path class="st2xyz" d="M386,63.6c9.9-13,29-15.9,42.6-6.4c0.6,0.4,1.1,0.8,1.6,1.2c13.6,11.2,15.9,30.6,5.1,44.3 c-9.9,13-29,15.9-42.6,6.4c-0.6-0.4-1.1-0.8-1.6-1.2C377.5,96.7,375.2,77.4,386,63.6z" /> <path class="st2xyz" d="M392.8,4.4c80.5,17.2,132.1,96.5,115,177.4c-1.9,4.5-7.3,6.6-12,4.8c-3.2-1.3-5.5-4.2-5.7-7.6 c2.2-36.6-13.2-72-41.4-95.3c0.3-21-16.5-38.4-37.5-38.7c-5.9-0.1-11.6,1.2-16.9,3.7c-39.5-8.2-80.1,8.1-103.1,41.3 c-2.8,3.7-8.2,4.6-12.1,2s-5.3-7.6-3.2-11.7l0,0c11.4-20.4,28.6-37.4,49.6-48.9c7.6-5.1,9.6-15,4.8-22.5c-0.9-1.3-1.9-2.6-3.2-3.6 C348.5,0.2,371.1-0.2,392.8,4.4z" /> <path class="st2xyz" d="M386,63.6c9.9-13,29-15.9,42.6-6.4c0.6,0.4,1.1,0.8,1.6,1.2c13.6,11.2,15.9,30.6,5.1,44.3 c-9.9,13-29,15.9-42.6,6.4c-0.6-0.4-1.1-0.8-1.6-1.2C377.5,96.7,375.2,77.4,386,63.6z" /> <path class="st2xyz" d="M392.8,4.4c80.5,17.2,132.1,96.5,115,177.4c-1.9,4.5-7.3,6.6-12,4.8c-3.2-1.3-5.5-4.2-5.7-7.6 c2.2-36.6-13.2-72-41.4-95.3c0.3-21-16.5-38.4-37.5-38.7c-5.9-0.1-11.6,1.2-16.9,3.7c-39.5-8.2-80.1,8.1-103.1,41.3 c-2.8,3.7-8.2,4.6-12.1,2s-5.3-7.6-3.2-11.7l0,0c11.4-20.4,28.6-37.4,49.6-48.9c7.6-5.1,9.6-15,4.8-22.5c-0.9-1.3-1.9-2.6-3.2-3.6 C348.5,0.2,371.1-0.2,392.8,4.4z" /> <path class="st2xyz" d="M386,63.6c9.9-13,29-15.9,42.6-6.4c0.6,0.4,1.1,0.8,1.6,1.2c13.6,11.2,15.9,30.6,5.1,44.3 c-9.9,13-29,15.9-42.6,6.4c-0.6-0.4-1.1-0.8-1.6-1.2C377.5,96.7,375.2,77.4,386,63.6z" /> <path class="st2xyz" d="M392.8,4.4c80.5,17.2,132.1,96.5,115,177.4c-1.9,4.5-7.3,6.6-12,4.8c-3.2-1.3-5.5-4.2-5.7-7.6 c2.2-36.6-13.2-72-41.4-95.3c0.3-21-16.5-38.4-37.5-38.7c-5.9-0.1-11.6,1.2-16.9,3.7c-39.5-8.2-80.1,8.1-103.1,41.3 c-2.8,3.7-8.2,4.6-12.1,2s-5.3-7.6-3.2-11.7l0,0c11.4-20.4,28.6-37.4,49.6-48.9c7.6-5.1,9.6-15,4.8-22.5c-0.9-1.3-1.9-2.6-3.2-3.6 C348.5,0.2,371.1-0.2,392.8,4.4z" /> <path class="st2xyz" d="M386,63.6c9.9-13,29-15.9,42.6-6.4c0.6,0.4,1.1,0.8,1.6,1.2c13.6,11.2,15.9,30.6,5.1,44.3 c-9.9,13-29,15.9-42.6,6.4c-0.6-0.4-1.1-0.8-1.6-1.2C377.5,96.7,375.2,77.4,386,63.6z" /> <path class="st2xyz" d="M392.8,4.4c80.5,17.2,132.1,96.5,115,177.4c-1.9,4.5-7.3,6.6-12,4.8c-3.2-1.3-5.5-4.2-5.7-7.6 c2.2-36.6-13.2-72-41.4-95.3c0.3-21-16.5-38.4-37.5-38.7c-5.9-0.1-11.6,1.2-16.9,3.7c-39.5-8.2-80.1,8.1-103.1,41.3 c-2.8,3.7-8.2,4.6-12.1,2s-5.3-7.6-3.2-11.7l0,0c11.4-20.4,28.6-37.4,49.6-48.9c7.6-5.1,9.6-15,4.8-22.5c-0.9-1.3-1.9-2.6-3.2-3.6 C348.5,0.2,371.1-0.2,392.8,4.4z" /> <path class="st2xyz" d="M386,63.6c9.9-13,29-15.9,42.6-6.4c0.6,0.4,1.1,0.8,1.6,1.2c13.6,11.2,15.9,30.6,5.1,44.3 c-9.9,13-29,15.9-42.6,6.4c-0.6-0.4-1.1-0.8-1.6-1.2C377.5,96.7,375.2,77.4,386,63.6z" /> <path class="st2xyz" d="M392.8,4.4c80.5,17.2,132.1,96.5,115,177.4c-1.9,4.5-7.3,6.6-12,4.8c-3.2-1.3-5.5-4.2-5.7-7.6 c2.2-36.6-13.2-72-41.4-95.3c0.3-21-16.5-38.4-37.5-38.7c-5.9-0.1-11.6,1.2-16.9,3.7c-39.5-8.2-80.1,8.1-103.1,41.3 c-2.8,3.7-8.2,4.6-12.1,2s-5.3-7.6-3.2-11.7l0,0c11.4-20.4,28.6-37.4,49.6-48.9c7.6-5.1,9.6-15,4.8-22.5c-0.9-1.3-1.9-2.6-3.2-3.6 C348.5,0.2,371.1-0.2,392.8,4.4z" /> <path class="st2xyz" d="M386,63.6c9.9-13,29-15.9,42.6-6.4c0.6,0.4,1.1,0.8,1.6,1.2c13.6,11.2,15.9,30.6,5.1,44.3 c-9.9,13-29,15.9-42.6,6.4c-0.6-0.4-1.1-0.8-1.6-1.2C377.5,96.7,375.2,77.4,386,63.6z" /> <path class="st3xyz" d="M315.7,8.6c3.3-0.3,6.5,1.1,8.4,3.7c3.1,4.2,2.2,9.9-1.9,13.1c-32.7,16.4-55.6,47.4-61.6,83.6 c-18.3,10.3-25,33.5-14.6,51.9c2.8,5.1,6.8,9.5,11.6,12.9c12.7,38.4,47,65.5,87.2,68.9c4.8,0.8,8.2,4.9,7.8,9.6 c-0.1,4.5-3.8,8.2-8.5,8.6c-23.8,0.2-47.1-6.2-67.1-18.6c-7.8-3.9-17.4-1.1-21.5,6.4c-0.1,0.2-0.2,0.4-0.4,0.7 c-0.7,1.4-1.2,3-1.5,4.5c-15.4-16.4-26.8-35.6-33.6-56.6C194.6,118.5,237.4,34.1,315.7,8.6z" /> <ellipse class="st4xyz" cx="395.8" cy="226.8" rx="31.4" ry="31.5" /> <path class="st3xyz" d="M254.6,122.5c9.9-13,29-15.9,42.6-6.4c0.6,0.4,1.1,0.8,1.6,1.2c13.6,11.2,15.9,30.6,5.1,44.3 c-9.9,13-29,15.9-42.6,6.4c-0.5-0.4-1.1-0.8-1.6-1.2C246,155.6,243.7,136.3,254.6,122.5z" /> <path class="st4xyz" d="M472.7,250.8c-55.1,61.4-149.4,66.4-210.6,11.3c-1.9-2.7-2.3-6.1-1-9.1c1.8-4.5,7.1-6.8,11.7-5 c0.1,0.1,0.3,0.1,0.4,0.2c30.1,20.1,68.8,24.5,102.9,11.7c18.1,10.8,41.5,4.9,52.2-13.3c3-5.1,4.8-10.7,5.3-16.6 c26.8-30.3,33-73.6,15.9-110.3c-1.8-4.4,0.1-9.3,4.4-11.6c4.1-2.1,9.2-0.8,11.7,3.1c12.1,20.6,18.2,44,17.5,67.6 c0.3,8.8,7.9,15.6,17,15.4h0.1c1.6-0.1,3.2-0.4,4.7-0.9C498.6,214.4,487.7,234,472.7,250.8z" /> <path class="st2xyz" d="M392.8,4.4c80.5,17.2,132.1,96.5,115,177.4c-1.9,4.5-7.3,6.6-12,4.8c-3.2-1.3-5.5-4.2-5.7-7.6 c2.2-36.6-13.2-72-41.4-95.3c0.3-21-16.5-38.4-37.5-38.7c-5.9-0.1-11.6,1.2-16.9,3.7c-39.5-8.2-80.1,8.1-103.1,41.3 c-2.8,3.7-8.2,4.6-12.1,2s-5.3-7.6-3.2-11.7l0,0c11.4-20.4,28.6-37.4,49.6-48.9c7.6-5.1,9.6-15,4.8-22.5c-0.9-1.3-1.9-2.6-3.2-3.6 C348.5,0.2,371.1-0.2,392.8,4.4z" /> <path class="st2xyz" d="M386,63.6c9.9-13,29-15.9,42.6-6.4c0.6,0.4,1.1,0.8,1.6,1.2c13.6,11.2,15.9,30.6,5.1,44.3 c-9.9,13-29,15.9-42.6,6.4c-0.6-0.4-1.1-0.8-1.6-1.2C377.5,96.7,375.2,77.4,386,63.6z" /> <path class="st2xyz" d="M392.8,4.4c80.5,17.2,132.1,96.5,115,177.4c-1.9,4.5-7.3,6.6-12,4.8c-3.2-1.3-5.5-4.2-5.7-7.6 c2.2-36.6-13.2-72-41.4-95.3c0.3-21-16.5-38.4-37.5-38.7c-5.9-0.1-11.6,1.2-16.9,3.7c-39.5-8.2-80.1,8.1-103.1,41.3 c-2.8,3.7-8.2,4.6-12.1,2s-5.3-7.6-3.2-11.7l0,0c11.4-20.4,28.6-37.4,49.6-48.9c7.6-5.1,9.6-15,4.8-22.5c-0.9-1.3-1.9-2.6-3.2-3.6 C348.5,0.2,371.1-0.2,392.8,4.4z" /> <path class="st2xyz" d="M386,63.6c9.9-13,29-15.9,42.6-6.4c0.6,0.4,1.1,0.8,1.6,1.2c13.6,11.2,15.9,30.6,5.1,44.3 c-9.9,13-29,15.9-42.6,6.4c-0.6-0.4-1.1-0.8-1.6-1.2C377.5,96.7,375.2,77.4,386,63.6z" /> <path class="st2xyz" d="M392.8,4.4c80.5,17.2,132.1,96.5,115,177.4c-1.9,4.5-7.3,6.6-12,4.8c-3.2-1.3-5.5-4.2-5.7-7.6 c2.2-36.6-13.2-72-41.4-95.3c0.3-21-16.5-38.4-37.5-38.7c-5.9-0.1-11.6,1.2-16.9,3.7c-39.5-8.2-80.1,8.1-103.1,41.3 c-2.8,3.7-8.2,4.6-12.1,2s-5.3-7.6-3.2-11.7l0,0c11.4-20.4,28.6-37.4,49.6-48.9c7.6-5.1,9.6-15,4.8-22.5c-0.9-1.3-1.9-2.6-3.2-3.6 C348.5,0.2,371.1-0.2,392.8,4.4z" /> <path class="st2xyz" d="M386,63.6c9.9-13,29-15.9,42.6-6.4c0.6,0.4,1.1,0.8,1.6,1.2c13.6,11.2,15.9,30.6,5.1,44.3 c-9.9,13-29,15.9-42.6,6.4c-0.6-0.4-1.1-0.8-1.6-1.2C377.5,96.7,375.2,77.4,386,63.6z" /> <path class="st2xyz" d="M392.8,4.4c80.5,17.2,132.1,96.5,115,177.4c-1.9,4.5-7.3,6.6-12,4.8c-3.2-1.3-5.5-4.2-5.7-7.6 c2.2-36.6-13.2-72-41.4-95.3c0.3-21-16.5-38.4-37.5-38.7c-5.9-0.1-11.6,1.2-16.9,3.7c-39.5-8.2-80.1,8.1-103.1,41.3 c-2.8,3.7-8.2,4.6-12.1,2s-5.3-7.6-3.2-11.7l0,0c11.4-20.4,28.6-37.4,49.6-48.9c7.6-5.1,9.6-15,4.8-22.5c-0.9-1.3-1.9-2.6-3.2-3.6 C348.5,0.2,371.1-0.2,392.8,4.4z" /> <path class="st2xyz" d="M386,63.6c9.9-13,29-15.9,42.6-6.4c0.6,0.4,1.1,0.8,1.6,1.2c13.6,11.2,15.9,30.6,5.1,44.3 c-9.9,13-29,15.9-42.6,6.4c-0.6-0.4-1.1-0.8-1.6-1.2C377.5,96.7,375.2,77.4,386,63.6z" /> <path class="st2xyz" d="M392.8,4.4c80.5,17.2,132.1,96.5,115,177.4c-1.9,4.5-7.3,6.6-12,4.8c-3.2-1.3-5.5-4.2-5.7-7.6 c2.2-36.6-13.2-72-41.4-95.3c0.3-21-16.5-38.4-37.5-38.7c-5.9-0.1-11.6,1.2-16.9,3.7c-39.5-8.2-80.1,8.1-103.1,41.3 c-2.8,3.7-8.2,4.6-12.1,2s-5.3-7.6-3.2-11.7l0,0c11.4-20.4,28.6-37.4,49.6-48.9c7.6-5.1,9.6-15,4.8-22.5c-0.9-1.3-1.9-2.6-3.2-3.6 C348.5,0.2,371.1-0.2,392.8,4.4z" /> <path class="st2xyz" d="M386,63.6c9.9-13,29-15.9,42.6-6.4c0.6,0.4,1.1,0.8,1.6,1.2c13.6,11.2,15.9,30.6,5.1,44.3 c-9.9,13-29,15.9-42.6,6.4c-0.6-0.4-1.1-0.8-1.6-1.2C377.5,96.7,375.2,77.4,386,63.6z" /> <path class="st2xyz" d="M392.8,4.4c80.5,17.2,132.1,96.5,115,177.4c-1.9,4.5-7.3,6.6-12,4.8c-3.2-1.3-5.5-4.2-5.7-7.6 c2.2-36.6-13.2-72-41.4-95.3c0.3-21-16.5-38.4-37.5-38.7c-5.9-0.1-11.6,1.2-16.9,3.7c-39.5-8.2-80.1,8.1-103.1,41.3 c-2.8,3.7-8.2,4.6-12.1,2s-5.3-7.6-3.2-11.7l0,0c11.4-20.4,28.6-37.4,49.6-48.9c7.6-5.1,9.6-15,4.8-22.5c-0.9-1.3-1.9-2.6-3.2-3.6 C348.5,0.2,371.1-0.2,392.8,4.4z" /> <path class="st2xyz" d="M386,63.6c9.9-13,29-15.9,42.6-6.4c0.6,0.4,1.1,0.8,1.6,1.2c13.6,11.2,15.9,30.6,5.1,44.3 c-9.9,13-29,15.9-42.6,6.4c-0.6-0.4-1.1-0.8-1.6-1.2C377.5,96.7,375.2,77.4,386,63.6z" /> <path class="st3xyz" d="M315.7,8.6c3.3-0.3,6.5,1.1,8.4,3.7c3.1,4.2,2.2,9.9-1.9,13.1c-32.7,16.4-55.6,47.4-61.6,83.6 c-18.3,10.3-25,33.5-14.6,51.9c2.8,5.1,6.8,9.5,11.6,12.9c12.7,38.4,47,65.5,87.2,68.9c4.8,0.8,8.2,4.9,7.8,9.6 c-0.1,4.5-3.8,8.2-8.5,8.6c-23.8,0.2-47.1-6.2-67.1-18.6c-7.8-3.9-17.4-1.1-21.5,6.4c-0.1,0.2-0.2,0.4-0.4,0.7 c-0.7,1.4-1.2,3-1.5,4.5c-15.4-16.4-26.8-35.6-33.6-56.6C194.6,118.5,237.4,34.1,315.7,8.6z" /> <ellipse class="st4xyz" cx="395.8" cy="226.8" rx="31.4" ry="31.5" /> <path class="st3xyz" d="M254.6,122.5c9.9-13,29-15.9,42.6-6.4c0.6,0.4,1.1,0.8,1.6,1.2c13.6,11.2,15.9,30.6,5.1,44.3 c-9.9,13-29,15.9-42.6,6.4c-0.5-0.4-1.1-0.8-1.6-1.2C246,155.6,243.7,136.3,254.6,122.5z" /> <path class="st4xyz" d="M472.7,250.8c-55.1,61.4-149.4,66.4-210.6,11.3c-1.9-2.7-2.3-6.1-1-9.1c1.8-4.5,7.1-6.8,11.7-5 c0.1,0.1,0.3,0.1,0.4,0.2c30.1,20.1,68.8,24.5,102.9,11.7c18.1,10.8,41.5,4.9,52.2-13.3c3-5.1,4.8-10.7,5.3-16.6 c26.8-30.3,33-73.6,15.9-110.3c-1.8-4.4,0.1-9.3,4.4-11.6c4.1-2.1,9.2-0.8,11.7,3.1c12.1,20.6,18.2,44,17.5,67.6 c0.3,8.8,7.9,15.6,17,15.4h0.1c1.6-0.1,3.2-0.4,4.7-0.9C498.6,214.4,487.7,234,472.7,250.8z" /> <path class="st2xyz" d="M392.8,4.4c80.5,17.2,132.1,96.5,115,177.4c-1.9,4.5-7.3,6.6-12,4.8c-3.2-1.3-5.5-4.2-5.7-7.6 c2.2-36.6-13.2-72-41.4-95.3c0.3-21-16.5-38.4-37.5-38.7c-5.9-0.1-11.6,1.2-16.9,3.7c-39.5-8.2-80.1,8.1-103.1,41.3 c-2.8,3.7-8.2,4.6-12.1,2s-5.3-7.6-3.2-11.7l0,0c11.4-20.4,28.6-37.4,49.6-48.9c7.6-5.1,9.6-15,4.8-22.5c-0.9-1.3-1.9-2.6-3.2-3.6 C348.5,0.2,371.1-0.2,392.8,4.4z" /> <path class="st2xyz" d="M386,63.6c9.9-13,29-15.9,42.6-6.4c0.6,0.4,1.1,0.8,1.6,1.2c13.6,11.2,15.9,30.6,5.1,44.3 c-9.9,13-29,15.9-42.6,6.4c-0.6-0.4-1.1-0.8-1.6-1.2C377.5,96.7,375.2,77.4,386,63.6z" /> <path class="st2xyz" d="M392.8,4.4c80.5,17.2,132.1,96.5,115,177.4c-1.9,4.5-7.3,6.6-12,4.8c-3.2-1.3-5.5-4.2-5.7-7.6 c2.2-36.6-13.2-72-41.4-95.3c0.3-21-16.5-38.4-37.5-38.7c-5.9-0.1-11.6,1.2-16.9,3.7c-39.5-8.2-80.1,8.1-103.1,41.3 c-2.8,3.7-8.2,4.6-12.1,2s-5.3-7.6-3.2-11.7l0,0c11.4-20.4,28.6-37.4,49.6-48.9c7.6-5.1,9.6-15,4.8-22.5c-0.9-1.3-1.9-2.6-3.2-3.6 C348.5,0.2,371.1-0.2,392.8,4.4z" /> <path class="st2xyz" d="M386,63.6c9.9-13,29-15.9,42.6-6.4c0.6,0.4,1.1,0.8,1.6,1.2c13.6,11.2,15.9,30.6,5.1,44.3 c-9.9,13-29,15.9-42.6,6.4c-0.6-0.4-1.1-0.8-1.6-1.2C377.5,96.7,375.2,77.4,386,63.6z" /> <path class="st2xyz" d="M392.8,4.4c80.5,17.2,132.1,96.5,115,177.4c-1.9,4.5-7.3,6.6-12,4.8c-3.2-1.3-5.5-4.2-5.7-7.6 c2.2-36.6-13.2-72-41.4-95.3c0.3-21-16.5-38.4-37.5-38.7c-5.9-0.1-11.6,1.2-16.9,3.7c-39.5-8.2-80.1,8.1-103.1,41.3 c-2.8,3.7-8.2,4.6-12.1,2s-5.3-7.6-3.2-11.7l0,0c11.4-20.4,28.6-37.4,49.6-48.9c7.6-5.1,9.6-15,4.8-22.5c-0.9-1.3-1.9-2.6-3.2-3.6 C348.5,0.2,371.1-0.2,392.8,4.4z" /> <path class="st2xyz" d="M386,63.6c9.9-13,29-15.9,42.6-6.4c0.6,0.4,1.1,0.8,1.6,1.2c13.6,11.2,15.9,30.6,5.1,44.3 c-9.9,13-29,15.9-42.6,6.4c-0.6-0.4-1.1-0.8-1.6-1.2C377.5,96.7,375.2,77.4,386,63.6z" /> <path class="st2xyz" d="M392.8,4.4c80.5,17.2,132.1,96.5,115,177.4c-1.9,4.5-7.3,6.6-12,4.8c-3.2-1.3-5.5-4.2-5.7-7.6 c2.2-36.6-13.2-72-41.4-95.3c0.3-21-16.5-38.4-37.5-38.7c-5.9-0.1-11.6,1.2-16.9,3.7c-39.5-8.2-80.1,8.1-103.1,41.3 c-2.8,3.7-8.2,4.6-12.1,2s-5.3-7.6-3.2-11.7l0,0c11.4-20.4,28.6-37.4,49.6-48.9c7.6-5.1,9.6-15,4.8-22.5c-0.9-1.3-1.9-2.6-3.2-3.6 C348.5,0.2,371.1-0.2,392.8,4.4z" /> <path class="st2xyz" d="M386,63.6c9.9-13,29-15.9,42.6-6.4c0.6,0.4,1.1,0.8,1.6,1.2c13.6,11.2,15.9,30.6,5.1,44.3 c-9.9,13-29,15.9-42.6,6.4c-0.6-0.4-1.1-0.8-1.6-1.2C377.5,96.7,375.2,77.4,386,63.6z" /> <path class="st2xyz" d="M392.8,4.4c80.5,17.2,132.1,96.5,115,177.4c-1.9,4.5-7.3,6.6-12,4.8c-3.2-1.3-5.5-4.2-5.7-7.6 c2.2-36.6-13.2-72-41.4-95.3c0.3-21-16.5-38.4-37.5-38.7c-5.9-0.1-11.6,1.2-16.9,3.7c-39.5-8.2-80.1,8.1-103.1,41.3 c-2.8,3.7-8.2,4.6-12.1,2s-5.3-7.6-3.2-11.7l0,0c11.4-20.4,28.6-37.4,49.6-48.9c7.6-5.1,9.6-15,4.8-22.5c-0.9-1.3-1.9-2.6-3.2-3.6 C348.5,0.2,371.1-0.2,392.8,4.4z" /> <path class="st2xyz" d="M386,63.6c9.9-13,29-15.9,42.6-6.4c0.6,0.4,1.1,0.8,1.6,1.2c13.6,11.2,15.9,30.6,5.1,44.3 c-9.9,13-29,15.9-42.6,6.4c-0.6-0.4-1.1-0.8-1.6-1.2C377.5,96.7,375.2,77.4,386,63.6z" /> <path class="st2xyz" d="M392.8,4.4c80.5,17.2,132.1,96.5,115,177.4c-1.9,4.5-7.3,6.6-12,4.8c-3.2-1.3-5.5-4.2-5.7-7.6 c2.2-36.6-13.2-72-41.4-95.3c0.3-21-16.5-38.4-37.5-38.7c-5.9-0.1-11.6,1.2-16.9,3.7c-39.5-8.2-80.1,8.1-103.1,41.3 c-2.8,3.7-8.2,4.6-12.1,2s-5.3-7.6-3.2-11.7l0,0c11.4-20.4,28.6-37.4,49.6-48.9c7.6-5.1,9.6-15,4.8-22.5c-0.9-1.3-1.9-2.6-3.2-3.6 C348.5,0.2,371.1-0.2,392.8,4.4z" /> <path class="st2xyz" d="M386,63.6c9.9-13,29-15.9,42.6-6.4c0.6,0.4,1.1,0.8,1.6,1.2c13.6,11.2,15.9,30.6,5.1,44.3 c-9.9,13-29,15.9-42.6,6.4c-0.6-0.4-1.1-0.8-1.6-1.2C377.5,96.7,375.2,77.4,386,63.6z" /> <path class="st3xyz" d="M315.7,8.6c3.3-0.3,6.5,1.1,8.4,3.7c3.1,4.2,2.2,9.9-1.9,13.1c-32.7,16.4-55.6,47.4-61.6,83.6 c-18.3,10.3-25,33.5-14.6,51.9c2.8,5.1,6.8,9.5,11.6,12.9c12.7,38.4,47,65.5,87.2,68.9c4.8,0.8,8.2,4.9,7.8,9.6 c-0.1,4.5-3.8,8.2-8.5,8.6c-23.8,0.2-47.1-6.2-67.1-18.6c-7.8-3.9-17.4-1.1-21.5,6.4c-0.1,0.2-0.2,0.4-0.4,0.7 c-0.7,1.4-1.2,3-1.5,4.5c-15.4-16.4-26.8-35.6-33.6-56.6C194.6,118.5,237.4,34.1,315.7,8.6z" /> <ellipse class="st4xyz" cx="395.8" cy="226.8" rx="31.4" ry="31.5" /> <path class="st3xyz" d="M254.6,122.5c9.9-13,29-15.9,42.6-6.4c0.6,0.4,1.1,0.8,1.6,1.2c13.6,11.2,15.9,30.6,5.1,44.3 c-9.9,13-29,15.9-42.6,6.4c-0.5-0.4-1.1-0.8-1.6-1.2C246,155.6,243.7,136.3,254.6,122.5z" /> <path class="st4xyz" d="M472.7,250.8c-55.1,61.4-149.4,66.4-210.6,11.3c-1.9-2.7-2.3-6.1-1-9.1c1.8-4.5,7.1-6.8,11.7-5 c0.1,0.1,0.3,0.1,0.4,0.2c30.1,20.1,68.8,24.5,102.9,11.7c18.1,10.8,41.5,4.9,52.2-13.3c3-5.1,4.8-10.7,5.3-16.6 c26.8-30.3,33-73.6,15.9-110.3c-1.8-4.4,0.1-9.3,4.4-11.6c4.1-2.1,9.2-0.8,11.7,3.1c12.1,20.6,18.2,44,17.5,67.6 c0.3,8.8,7.9,15.6,17,15.4h0.1c1.6-0.1,3.2-0.4,4.7-0.9C498.6,214.4,487.7,234,472.7,250.8z" /> <path class="st2xyz" d="M392.8,4.4c80.5,17.2,132.1,96.5,115,177.4c-1.9,4.5-7.3,6.6-12,4.8c-3.2-1.3-5.5-4.2-5.7-7.6 c2.2-36.6-13.2-72-41.4-95.3c0.3-21-16.5-38.4-37.5-38.7c-5.9-0.1-11.6,1.2-16.9,3.7c-39.5-8.2-80.1,8.1-103.1,41.3 c-2.8,3.7-8.2,4.6-12.1,2s-5.3-7.6-3.2-11.7l0,0c11.4-20.4,28.6-37.4,49.6-48.9c7.6-5.1,9.6-15,4.8-22.5c-0.9-1.3-1.9-2.6-3.2-3.6 C348.5,0.2,371.1-0.2,392.8,4.4z" /> <path class="st2xyz" d="M386,63.6c9.9-13,29-15.9,42.6-6.4c0.6,0.4,1.1,0.8,1.6,1.2c13.6,11.2,15.9,30.6,5.1,44.3 c-9.9,13-29,15.9-42.6,6.4c-0.6-0.4-1.1-0.8-1.6-1.2C377.5,96.7,375.2,77.4,386,63.6z" /> <path class="st2xyz" d="M392.8,4.4c80.5,17.2,132.1,96.5,115,177.4c-1.9,4.5-7.3,6.6-12,4.8c-3.2-1.3-5.5-4.2-5.7-7.6 c2.2-36.6-13.2-72-41.4-95.3c0.3-21-16.5-38.4-37.5-38.7c-5.9-0.1-11.6,1.2-16.9,3.7c-39.5-8.2-80.1,8.1-103.1,41.3 c-2.8,3.7-8.2,4.6-12.1,2s-5.3-7.6-3.2-11.7l0,0c11.4-20.4,28.6-37.4,49.6-48.9c7.6-5.1,9.6-15,4.8-22.5c-0.9-1.3-1.9-2.6-3.2-3.6 C348.5,0.2,371.1-0.2,392.8,4.4z" /> <path class="st2xyz" d="M386,63.6c9.9-13,29-15.9,42.6-6.4c0.6,0.4,1.1,0.8,1.6,1.2c13.6,11.2,15.9,30.6,5.1,44.3 c-9.9,13-29,15.9-42.6,6.4c-0.6-0.4-1.1-0.8-1.6-1.2C377.5,96.7,375.2,77.4,386,63.6z" /> <path class="st2xyz" d="M392.8,4.4c80.5,17.2,132.1,96.5,115,177.4c-1.9,4.5-7.3,6.6-12,4.8c-3.2-1.3-5.5-4.2-5.7-7.6 c2.2-36.6-13.2-72-41.4-95.3c0.3-21-16.5-38.4-37.5-38.7c-5.9-0.1-11.6,1.2-16.9,3.7c-39.5-8.2-80.1,8.1-103.1,41.3 c-2.8,3.7-8.2,4.6-12.1,2s-5.3-7.6-3.2-11.7l0,0c11.4-20.4,28.6-37.4,49.6-48.9c7.6-5.1,9.6-15,4.8-22.5c-0.9-1.3-1.9-2.6-3.2-3.6 C348.5,0.2,371.1-0.2,392.8,4.4z" /> <path class="st2xyz" d="M386,63.6c9.9-13,29-15.9,42.6-6.4c0.6,0.4,1.1,0.8,1.6,1.2c13.6,11.2,15.9,30.6,5.1,44.3 c-9.9,13-29,15.9-42.6,6.4c-0.6-0.4-1.1-0.8-1.6-1.2C377.5,96.7,375.2,77.4,386,63.6z" /> <path class="st2xyz" d="M392.8,4.4c80.5,17.2,132.1,96.5,115,177.4c-1.9,4.5-7.3,6.6-12,4.8c-3.2-1.3-5.5-4.2-5.7-7.6 c2.2-36.6-13.2-72-41.4-95.3c0.3-21-16.5-38.4-37.5-38.7c-5.9-0.1-11.6,1.2-16.9,3.7c-39.5-8.2-80.1,8.1-103.1,41.3 c-2.8,3.7-8.2,4.6-12.1,2s-5.3-7.6-3.2-11.7l0,0c11.4-20.4,28.6-37.4,49.6-48.9c7.6-5.1,9.6-15,4.8-22.5c-0.9-1.3-1.9-2.6-3.2-3.6 C348.5,0.2,371.1-0.2,392.8,4.4z" /> <path class="st2xyz" d="M386,63.6c9.9-13,29-15.9,42.6-6.4c0.6,0.4,1.1,0.8,1.6,1.2c13.6,11.2,15.9,30.6,5.1,44.3 c-9.9,13-29,15.9-42.6,6.4c-0.6-0.4-1.1-0.8-1.6-1.2C377.5,96.7,375.2,77.4,386,63.6z" /> <path class="st2xyz" d="M392.8,4.4c80.5,17.2,132.1,96.5,115,177.4c-1.9,4.5-7.3,6.6-12,4.8c-3.2-1.3-5.5-4.2-5.7-7.6 c2.2-36.6-13.2-72-41.4-95.3c0.3-21-16.5-38.4-37.5-38.7c-5.9-0.1-11.6,1.2-16.9,3.7c-39.5-8.2-80.1,8.1-103.1,41.3 c-2.8,3.7-8.2,4.6-12.1,2s-5.3-7.6-3.2-11.7l0,0c11.4-20.4,28.6-37.4,49.6-48.9c7.6-5.1,9.6-15,4.8-22.5c-0.9-1.3-1.9-2.6-3.2-3.6 C348.5,0.2,371.1-0.2,392.8,4.4z" /> <path class="st2xyz" d="M386,63.6c9.9-13,29-15.9,42.6-6.4c0.6,0.4,1.1,0.8,1.6,1.2c13.6,11.2,15.9,30.6,5.1,44.3 c-9.9,13-29,15.9-42.6,6.4c-0.6-0.4-1.1-0.8-1.6-1.2C377.5,96.7,375.2,77.4,386,63.6z" /> <path class="st2xyz" d="M392.8,4.4c80.5,17.2,132.1,96.5,115,177.4c-1.9,4.5-7.3,6.6-12,4.8c-3.2-1.3-5.5-4.2-5.7-7.6 c2.2-36.6-13.2-72-41.4-95.3c0.3-21-16.5-38.4-37.5-38.7c-5.9-0.1-11.6,1.2-16.9,3.7c-39.5-8.2-80.1,8.1-103.1,41.3 c-2.8,3.7-8.2,4.6-12.1,2s-5.3-7.6-3.2-11.7l0,0c11.4-20.4,28.6-37.4,49.6-48.9c7.6-5.1,9.6-15,4.8-22.5c-0.9-1.3-1.9-2.6-3.2-3.6 C348.5,0.2,371.1-0.2,392.8,4.4z" /> <path class="st2xyz" d="M386,63.6c9.9-13,29-15.9,42.6-6.4c0.6,0.4,1.1,0.8,1.6,1.2c13.6,11.2,15.9,30.6,5.1,44.3 c-9.9,13-29,15.9-42.6,6.4c-0.6-0.4-1.1-0.8-1.6-1.2C377.5,96.7,375.2,77.4,386,63.6z" /> <path class="st3xyz" d="M315.7,8.6c3.3-0.3,6.5,1.1,8.4,3.7c3.1,4.2,2.2,9.9-1.9,13.1c-32.7,16.4-55.6,47.4-61.6,83.6 c-18.3,10.3-25,33.5-14.6,51.9c2.8,5.1,6.8,9.5,11.6,12.9c12.7,38.4,47,65.5,87.2,68.9c4.8,0.8,8.2,4.9,7.8,9.6 c-0.1,4.5-3.8,8.2-8.5,8.6c-23.8,0.2-47.1-6.2-67.1-18.6c-7.8-3.9-17.4-1.1-21.5,6.4c-0.1,0.2-0.2,0.4-0.4,0.7 c-0.7,1.4-1.2,3-1.5,4.5c-15.4-16.4-26.8-35.6-33.6-56.6C194.6,118.5,237.4,34.1,315.7,8.6z" /> <ellipse class="st4xyz" cx="395.8" cy="226.8" rx="31.4" ry="31.5" /> <path class="st3xyz" d="M254.6,122.5c9.9-13,29-15.9,42.6-6.4c0.6,0.4,1.1,0.8,1.6,1.2c13.6,11.2,15.9,30.6,5.1,44.3 c-9.9,13-29,15.9-42.6,6.4c-0.5-0.4-1.1-0.8-1.6-1.2C246,155.6,243.7,136.3,254.6,122.5z" /> <path class="st4xyz" d="M472.7,250.8c-55.1,61.4-149.4,66.4-210.6,11.3c-1.9-2.7-2.3-6.1-1-9.1c1.8-4.5,7.1-6.8,11.7-5 c0.1,0.1,0.3,0.1,0.4,0.2c30.1,20.1,68.8,24.5,102.9,11.7c18.1,10.8,41.5,4.9,52.2-13.3c3-5.1,4.8-10.7,5.3-16.6 c26.8-30.3,33-73.6,15.9-110.3c-1.8-4.4,0.1-9.3,4.4-11.6c4.1-2.1,9.2-0.8,11.7,3.1c12.1,20.6,18.2,44,17.5,67.6 c0.3,8.8,7.9,15.6,17,15.4h0.1c1.6-0.1,3.2-0.4,4.7-0.9C498.6,214.4,487.7,234,472.7,250.8z" /> <path class="st2xyz" d="M392.8,4.4c80.5,17.2,132.1,96.5,115,177.4c-1.9,4.5-7.3,6.6-12,4.8c-3.2-1.3-5.5-4.2-5.7-7.6 c2.2-36.6-13.2-72-41.4-95.3c0.3-21-16.5-38.4-37.5-38.7c-5.9-0.1-11.6,1.2-16.9,3.7c-39.5-8.2-80.1,8.1-103.1,41.3 c-2.8,3.7-8.2,4.6-12.1,2s-5.3-7.6-3.2-11.7l0,0c11.4-20.4,28.6-37.4,49.6-48.9c7.6-5.1,9.6-15,4.8-22.5c-0.9-1.3-1.9-2.6-3.2-3.6 C348.5,0.2,371.1-0.2,392.8,4.4z" /> <path class="st2xyz" d="M386,63.6c9.9-13,29-15.9,42.6-6.4c0.6,0.4,1.1,0.8,1.6,1.2c13.6,11.2,15.9,30.6,5.1,44.3 c-9.9,13-29,15.9-42.6,6.4c-0.6-0.4-1.1-0.8-1.6-1.2C377.5,96.7,375.2,77.4,386,63.6z" /> <path class="st2xyz" d="M392.8,4.4c80.5,17.2,132.1,96.5,115,177.4c-1.9,4.5-7.3,6.6-12,4.8c-3.2-1.3-5.5-4.2-5.7-7.6 c2.2-36.6-13.2-72-41.4-95.3c0.3-21-16.5-38.4-37.5-38.7c-5.9-0.1-11.6,1.2-16.9,3.7c-39.5-8.2-80.1,8.1-103.1,41.3 c-2.8,3.7-8.2,4.6-12.1,2s-5.3-7.6-3.2-11.7l0,0c11.4-20.4,28.6-37.4,49.6-48.9c7.6-5.1,9.6-15,4.8-22.5c-0.9-1.3-1.9-2.6-3.2-3.6 C348.5,0.2,371.1-0.2,392.8,4.4z" /> <path class="st2xyz" d="M386,63.6c9.9-13,29-15.9,42.6-6.4c0.6,0.4,1.1,0.8,1.6,1.2c13.6,11.2,15.9,30.6,5.1,44.3 c-9.9,13-29,15.9-42.6,6.4c-0.6-0.4-1.1-0.8-1.6-1.2C377.5,96.7,375.2,77.4,386,63.6z" /> <path class="st2xyz" d="M392.8,4.4c80.5,17.2,132.1,96.5,115,177.4c-1.9,4.5-7.3,6.6-12,4.8c-3.2-1.3-5.5-4.2-5.7-7.6 c2.2-36.6-13.2-72-41.4-95.3c0.3-21-16.5-38.4-37.5-38.7c-5.9-0.1-11.6,1.2-16.9,3.7c-39.5-8.2-80.1,8.1-103.1,41.3 c-2.8,3.7-8.2,4.6-12.1,2s-5.3-7.6-3.2-11.7l0,0c11.4-20.4,28.6-37.4,49.6-48.9c7.6-5.1,9.6-15,4.8-22.5c-0.9-1.3-1.9-2.6-3.2-3.6 C348.5,0.2,371.1-0.2,392.8,4.4z" /> <path class="st2xyz" d="M386,63.6c9.9-13,29-15.9,42.6-6.4c0.6,0.4,1.1,0.8,1.6,1.2c13.6,11.2,15.9,30.6,5.1,44.3 c-9.9,13-29,15.9-42.6,6.4c-0.6-0.4-1.1-0.8-1.6-1.2C377.5,96.7,375.2,77.4,386,63.6z" /> <path class="st2xyz" d="M392.8,4.4c80.5,17.2,132.1,96.5,115,177.4c-1.9,4.5-7.3,6.6-12,4.8c-3.2-1.3-5.5-4.2-5.7-7.6 c2.2-36.6-13.2-72-41.4-95.3c0.3-21-16.5-38.4-37.5-38.7c-5.9-0.1-11.6,1.2-16.9,3.7c-39.5-8.2-80.1,8.1-103.1,41.3 c-2.8,3.7-8.2,4.6-12.1,2s-5.3-7.6-3.2-11.7l0,0c11.4-20.4,28.6-37.4,49.6-48.9c7.6-5.1,9.6-15,4.8-22.5c-0.9-1.3-1.9-2.6-3.2-3.6 C348.5,0.2,371.1-0.2,392.8,4.4z" /> <path class="st2xyz" d="M386,63.6c9.9-13,29-15.9,42.6-6.4c0.6,0.4,1.1,0.8,1.6,1.2c13.6,11.2,15.9,30.6,5.1,44.3 c-9.9,13-29,15.9-42.6,6.4c-0.6-0.4-1.1-0.8-1.6-1.2C377.5,96.7,375.2,77.4,386,63.6z" /> <path class="st2xyz" d="M392.8,4.4c80.5,17.2,132.1,96.5,115,177.4c-1.9,4.5-7.3,6.6-12,4.8c-3.2-1.3-5.5-4.2-5.7-7.6 c2.2-36.6-13.2-72-41.4-95.3c0.3-21-16.5-38.4-37.5-38.7c-5.9-0.1-11.6,1.2-16.9,3.7c-39.5-8.2-80.1,8.1-103.1,41.3 c-2.8,3.7-8.2,4.6-12.1,2s-5.3-7.6-3.2-11.7l0,0c11.4-20.4,28.6-37.4,49.6-48.9c7.6-5.1,9.6-15,4.8-22.5c-0.9-1.3-1.9-2.6-3.2-3.6 C348.5,0.2,371.1-0.2,392.8,4.4z" /> <path class="st2xyz" d="M386,63.6c9.9-13,29-15.9,42.6-6.4c0.6,0.4,1.1,0.8,1.6,1.2c13.6,11.2,15.9,30.6,5.1,44.3 c-9.9,13-29,15.9-42.6,6.4c-0.6-0.4-1.1-0.8-1.6-1.2C377.5,96.7,375.2,77.4,386,63.6z" /> <path class="st2xyz" d="M392.8,4.4c80.5,17.2,132.1,96.5,115,177.4c-1.9,4.5-7.3,6.6-12,4.8c-3.2-1.3-5.5-4.2-5.7-7.6 c2.2-36.6-13.2-72-41.4-95.3c0.3-21-16.5-38.4-37.5-38.7c-5.9-0.1-11.6,1.2-16.9,3.7c-39.5-8.2-80.1,8.1-103.1,41.3 c-2.8,3.7-8.2,4.6-12.1,2s-5.3-7.6-3.2-11.7l0,0c11.4-20.4,28.6-37.4,49.6-48.9c7.6-5.1,9.6-15,4.8-22.5c-0.9-1.3-1.9-2.6-3.2-3.6 C348.5,0.2,371.1-0.2,392.8,4.4z" /> <path class="st2xyz" d="M386,63.6c9.9-13,29-15.9,42.6-6.4c0.6,0.4,1.1,0.8,1.6,1.2c13.6,11.2,15.9,30.6,5.1,44.3 c-9.9,13-29,15.9-42.6,6.4c-0.6-0.4-1.1-0.8-1.6-1.2C377.5,96.7,375.2,77.4,386,63.6z" /> <path class="st3xyz" d="M315.7,8.6c3.3-0.3,6.5,1.1,8.4,3.7c3.1,4.2,2.2,9.9-1.9,13.1c-32.7,16.4-55.6,47.4-61.6,83.6 c-18.3,10.3-25,33.5-14.6,51.9c2.8,5.1,6.8,9.5,11.6,12.9c12.7,38.4,47,65.5,87.2,68.9c4.8,0.8,8.2,4.9,7.8,9.6 c-0.1,4.5-3.8,8.2-8.5,8.6c-23.8,0.2-47.1-6.2-67.1-18.6c-7.8-3.9-17.4-1.1-21.5,6.4c-0.1,0.2-0.2,0.4-0.4,0.7 c-0.7,1.4-1.2,3-1.5,4.5c-15.4-16.4-26.8-35.6-33.6-56.6C194.6,118.5,237.4,34.1,315.7,8.6z" /> <ellipse class="st4xyz" cx="395.8" cy="226.8" rx="31.4" ry="31.5" /> <path class="st3xyz" d="M254.6,122.5c9.9-13,29-15.9,42.6-6.4c0.6,0.4,1.1,0.8,1.6,1.2c13.6,11.2,15.9,30.6,5.1,44.3 c-9.9,13-29,15.9-42.6,6.4c-0.5-0.4-1.1-0.8-1.6-1.2C246,155.6,243.7,136.3,254.6,122.5z" /> <path class="st4xyz" d="M472.7,250.8c-55.1,61.4-149.4,66.4-210.6,11.3c-1.9-2.7-2.3-6.1-1-9.1c1.8-4.5,7.1-6.8,11.7-5 c0.1,0.1,0.3,0.1,0.4,0.2c30.1,20.1,68.8,24.5,102.9,11.7c18.1,10.8,41.5,4.9,52.2-13.3c3-5.1,4.8-10.7,5.3-16.6 c26.8-30.3,33-73.6,15.9-110.3c-1.8-4.4,0.1-9.3,4.4-11.6c4.1-2.1,9.2-0.8,11.7,3.1c12.1,20.6,18.2,44,17.5,67.6 c0.3,8.8,7.9,15.6,17,15.4h0.1c1.6-0.1,3.2-0.4,4.7-0.9C498.6,214.4,487.7,234,472.7,250.8z" /> <path class="st2xyz" d="M392.8,4.4c80.5,17.2,132.1,96.5,115,177.4c-1.9,4.5-7.3,6.6-12,4.8c-3.2-1.3-5.5-4.2-5.7-7.6 c2.2-36.6-13.2-72-41.4-95.3c0.3-21-16.5-38.4-37.5-38.7c-5.9-0.1-11.6,1.2-16.9,3.7c-39.5-8.2-80.1,8.1-103.1,41.3 c-2.8,3.7-8.2,4.6-12.1,2s-5.3-7.6-3.2-11.7l0,0c11.4-20.4,28.6-37.4,49.6-48.9c7.6-5.1,9.6-15,4.8-22.5c-0.9-1.3-1.9-2.6-3.2-3.6 C348.5,0.2,371.1-0.2,392.8,4.4z" /> <path class="st2xyz" d="M386,63.6c9.9-13,29-15.9,42.6-6.4c0.6,0.4,1.1,0.8,1.6,1.2c13.6,11.2,15.9,30.6,5.1,44.3 c-9.9,13-29,15.9-42.6,6.4c-0.6-0.4-1.1-0.8-1.6-1.2C377.5,96.7,375.2,77.4,386,63.6z" /> <path class="st2xyz" d="M392.8,4.4c80.5,17.2,132.1,96.5,115,177.4c-1.9,4.5-7.3,6.6-12,4.8c-3.2-1.3-5.5-4.2-5.7-7.6 c2.2-36.6-13.2-72-41.4-95.3c0.3-21-16.5-38.4-37.5-38.7c-5.9-0.1-11.6,1.2-16.9,3.7c-39.5-8.2-80.1,8.1-103.1,41.3 c-2.8,3.7-8.2,4.6-12.1,2s-5.3-7.6-3.2-11.7l0,0c11.4-20.4,28.6-37.4,49.6-48.9c7.6-5.1,9.6-15,4.8-22.5c-0.9-1.3-1.9-2.6-3.2-3.6 C348.5,0.2,371.1-0.2,392.8,4.4z" /> <path class="st2xyz" d="M386,63.6c9.9-13,29-15.9,42.6-6.4c0.6,0.4,1.1,0.8,1.6,1.2c13.6,11.2,15.9,30.6,5.1,44.3 c-9.9,13-29,15.9-42.6,6.4c-0.6-0.4-1.1-0.8-1.6-1.2C377.5,96.7,375.2,77.4,386,63.6z" /> <path class="st2xyz" d="M392.8,4.4c80.5,17.2,132.1,96.5,115,177.4c-1.9,4.5-7.3,6.6-12,4.8c-3.2-1.3-5.5-4.2-5.7-7.6 c2.2-36.6-13.2-72-41.4-95.3c0.3-21-16.5-38.4-37.5-38.7c-5.9-0.1-11.6,1.2-16.9,3.7c-39.5-8.2-80.1,8.1-103.1,41.3 c-2.8,3.7-8.2,4.6-12.1,2s-5.3-7.6-3.2-11.7l0,0c11.4-20.4,28.6-37.4,49.6-48.9c7.6-5.1,9.6-15,4.8-22.5c-0.9-1.3-1.9-2.6-3.2-3.6 C348.5,0.2,371.1-0.2,392.8,4.4z" /> <path class="st2xyz" d="M386,63.6c9.9-13,29-15.9,42.6-6.4c0.6,0.4,1.1,0.8,1.6,1.2c13.6,11.2,15.9,30.6,5.1,44.3 c-9.9,13-29,15.9-42.6,6.4c-0.6-0.4-1.1-0.8-1.6-1.2C377.5,96.7,375.2,77.4,386,63.6z" /> <path class="st2xyz" d="M392.8,4.4c80.5,17.2,132.1,96.5,115,177.4c-1.9,4.5-7.3,6.6-12,4.8c-3.2-1.3-5.5-4.2-5.7-7.6 c2.2-36.6-13.2-72-41.4-95.3c0.3-21-16.5-38.4-37.5-38.7c-5.9-0.1-11.6,1.2-16.9,3.7c-39.5-8.2-80.1,8.1-103.1,41.3 c-2.8,3.7-8.2,4.6-12.1,2s-5.3-7.6-3.2-11.7l0,0c11.4-20.4,28.6-37.4,49.6-48.9c7.6-5.1,9.6-15,4.8-22.5c-0.9-1.3-1.9-2.6-3.2-3.6 C348.5,0.2,371.1-0.2,392.8,4.4z" /> <path class="st2xyz" d="M386,63.6c9.9-13,29-15.9,42.6-6.4c0.6,0.4,1.1,0.8,1.6,1.2c13.6,11.2,15.9,30.6,5.1,44.3 c-9.9,13-29,15.9-42.6,6.4c-0.6-0.4-1.1-0.8-1.6-1.2C377.5,96.7,375.2,77.4,386,63.6z" /> <path class="st2xyz" d="M392.8,4.4c80.5,17.2,132.1,96.5,115,177.4c-1.9,4.5-7.3,6.6-12,4.8c-3.2-1.3-5.5-4.2-5.7-7.6 c2.2-36.6-13.2-72-41.4-95.3c0.3-21-16.5-38.4-37.5-38.7c-5.9-0.1-11.6,1.2-16.9,3.7c-39.5-8.2-80.1,8.1-103.1,41.3 c-2.8,3.7-8.2,4.6-12.1,2s-5.3-7.6-3.2-11.7l0,0c11.4-20.4,28.6-37.4,49.6-48.9c7.6-5.1,9.6-15,4.8-22.5c-0.9-1.3-1.9-2.6-3.2-3.6 C348.5,0.2,371.1-0.2,392.8,4.4z" /> <path class="st2xyz" d="M386,63.6c9.9-13,29-15.9,42.6-6.4c0.6,0.4,1.1,0.8,1.6,1.2c13.6,11.2,15.9,30.6,5.1,44.3 c-9.9,13-29,15.9-42.6,6.4c-0.6-0.4-1.1-0.8-1.6-1.2C377.5,96.7,375.2,77.4,386,63.6z" /> <path class="st2xyz" d="M392.8,4.4c80.5,17.2,132.1,96.5,115,177.4c-1.9,4.5-7.3,6.6-12,4.8c-3.2-1.3-5.5-4.2-5.7-7.6 c2.2-36.6-13.2-72-41.4-95.3c0.3-21-16.5-38.4-37.5-38.7c-5.9-0.1-11.6,1.2-16.9,3.7c-39.5-8.2-80.1,8.1-103.1,41.3 c-2.8,3.7-8.2,4.6-12.1,2s-5.3-7.6-3.2-11.7l0,0c11.4-20.4,28.6-37.4,49.6-48.9c7.6-5.1,9.6-15,4.8-22.5c-0.9-1.3-1.9-2.6-3.2-3.6 C348.5,0.2,371.1-0.2,392.8,4.4z" /> <path class="st2xyz" d="M386,63.6c9.9-13,29-15.9,42.6-6.4c0.6,0.4,1.1,0.8,1.6,1.2c13.6,11.2,15.9,30.6,5.1,44.3 c-9.9,13-29,15.9-42.6,6.4c-0.6-0.4-1.1-0.8-1.6-1.2C377.5,96.7,375.2,77.4,386,63.6z" /> <path class="st3xyz" d="M315.7,8.6c3.3-0.3,6.5,1.1,8.4,3.7c3.1,4.2,2.2,9.9-1.9,13.1c-32.7,16.4-55.6,47.4-61.6,83.6 c-18.3,10.3-25,33.5-14.6,51.9c2.8,5.1,6.8,9.5,11.6,12.9c12.7,38.4,47,65.5,87.2,68.9c4.8,0.8,8.2,4.9,7.8,9.6 c-0.1,4.5-3.8,8.2-8.5,8.6c-23.8,0.2-47.1-6.2-67.1-18.6c-7.8-3.9-17.4-1.1-21.5,6.4c-0.1,0.2-0.2,0.4-0.4,0.7 c-0.7,1.4-1.2,3-1.5,4.5c-15.4-16.4-26.8-35.6-33.6-56.6C194.6,118.5,237.4,34.1,315.7,8.6z" /> <ellipse class="st4xyz" cx="395.8" cy="226.8" rx="31.4" ry="31.5" /> <path class="st3xyz" d="M254.6,122.5c9.9-13,29-15.9,42.6-6.4c0.6,0.4,1.1,0.8,1.6,1.2c13.6,11.2,15.9,30.6,5.1,44.3 c-9.9,13-29,15.9-42.6,6.4c-0.5-0.4-1.1-0.8-1.6-1.2C246,155.6,243.7,136.3,254.6,122.5z" /> <path class="st4xyz" d="M472.7,250.8c-55.1,61.4-149.4,66.4-210.6,11.3c-1.9-2.7-2.3-6.1-1-9.1c1.8-4.5,7.1-6.8,11.7-5 c0.1,0.1,0.3,0.1,0.4,0.2c30.1,20.1,68.8,24.5,102.9,11.7c18.1,10.8,41.5,4.9,52.2-13.3c3-5.1,4.8-10.7,5.3-16.6 c26.8-30.3,33-73.6,15.9-110.3c-1.8-4.4,0.1-9.3,4.4-11.6c4.1-2.1,9.2-0.8,11.7,3.1c12.1,20.6,18.2,44,17.5,67.6 c0.3,8.8,7.9,15.6,17,15.4h0.1c1.6-0.1,3.2-0.4,4.7-0.9C498.6,214.4,487.7,234,472.7,250.8z" /> <path class="st2xyz" d="M392.8,4.4c80.5,17.2,132.1,96.5,115,177.4c-1.9,4.5-7.3,6.6-12,4.8c-3.2-1.3-5.5-4.2-5.7-7.6 c2.2-36.6-13.2-72-41.4-95.3c0.3-21-16.5-38.4-37.5-38.7c-5.9-0.1-11.6,1.2-16.9,3.7c-39.5-8.2-80.1,8.1-103.1,41.3 c-2.8,3.7-8.2,4.6-12.1,2s-5.3-7.6-3.2-11.7l0,0c11.4-20.4,28.6-37.4,49.6-48.9c7.6-5.1,9.6-15,4.8-22.5c-0.9-1.3-1.9-2.6-3.2-3.6 C348.5,0.2,371.1-0.2,392.8,4.4z" /> <path class="st2xyz" d="M386,63.6c9.9-13,29-15.9,42.6-6.4c0.6,0.4,1.1,0.8,1.6,1.2c13.6,11.2,15.9,30.6,5.1,44.3 c-9.9,13-29,15.9-42.6,6.4c-0.6-0.4-1.1-0.8-1.6-1.2C377.5,96.7,375.2,77.4,386,63.6z" /> <path class="st2xyz" d="M392.8,4.4c80.5,17.2,132.1,96.5,115,177.4c-1.9,4.5-7.3,6.6-12,4.8c-3.2-1.3-5.5-4.2-5.7-7.6 c2.2-36.6-13.2-72-41.4-95.3c0.3-21-16.5-38.4-37.5-38.7c-5.9-0.1-11.6,1.2-16.9,3.7c-39.5-8.2-80.1,8.1-103.1,41.3 c-2.8,3.7-8.2,4.6-12.1,2s-5.3-7.6-3.2-11.7l0,0c11.4-20.4,28.6-37.4,49.6-48.9c7.6-5.1,9.6-15,4.8-22.5c-0.9-1.3-1.9-2.6-3.2-3.6 C348.5,0.2,371.1-0.2,392.8,4.4z" /> <path class="st2xyz" d="M386,63.6c9.9-13,29-15.9,42.6-6.4c0.6,0.4,1.1,0.8,1.6,1.2c13.6,11.2,15.9,30.6,5.1,44.3 c-9.9,13-29,15.9-42.6,6.4c-0.6-0.4-1.1-0.8-1.6-1.2C377.5,96.7,375.2,77.4,386,63.6z" /> <path class="st2xyz" d="M392.8,4.4c80.5,17.2,132.1,96.5,115,177.4c-1.9,4.5-7.3,6.6-12,4.8c-3.2-1.3-5.5-4.2-5.7-7.6 c2.2-36.6-13.2-72-41.4-95.3c0.3-21-16.5-38.4-37.5-38.7c-5.9-0.1-11.6,1.2-16.9,3.7c-39.5-8.2-80.1,8.1-103.1,41.3 c-2.8,3.7-8.2,4.6-12.1,2s-5.3-7.6-3.2-11.7l0,0c11.4-20.4,28.6-37.4,49.6-48.9c7.6-5.1,9.6-15,4.8-22.5c-0.9-1.3-1.9-2.6-3.2-3.6 C348.5,0.2,371.1-0.2,392.8,4.4z" /> <path class="st2xyz" d="M386,63.6c9.9-13,29-15.9,42.6-6.4c0.6,0.4,1.1,0.8,1.6,1.2c13.6,11.2,15.9,30.6,5.1,44.3 c-9.9,13-29,15.9-42.6,6.4c-0.6-0.4-1.1-0.8-1.6-1.2C377.5,96.7,375.2,77.4,386,63.6z" /> <path class="st2xyz" d="M392.8,4.4c80.5,17.2,132.1,96.5,115,177.4c-1.9,4.5-7.3,6.6-12,4.8c-3.2-1.3-5.5-4.2-5.7-7.6 c2.2-36.6-13.2-72-41.4-95.3c0.3-21-16.5-38.4-37.5-38.7c-5.9-0.1-11.6,1.2-16.9,3.7c-39.5-8.2-80.1,8.1-103.1,41.3 c-2.8,3.7-8.2,4.6-12.1,2s-5.3-7.6-3.2-11.7l0,0c11.4-20.4,28.6-37.4,49.6-48.9c7.6-5.1,9.6-15,4.8-22.5c-0.9-1.3-1.9-2.6-3.2-3.6 C348.5,0.2,371.1-0.2,392.8,4.4z" /> <path class="st2xyz" d="M386,63.6c9.9-13,29-15.9,42.6-6.4c0.6,0.4,1.1,0.8,1.6,1.2c13.6,11.2,15.9,30.6,5.1,44.3 c-9.9,13-29,15.9-42.6,6.4c-0.6-0.4-1.1-0.8-1.6-1.2C377.5,96.7,375.2,77.4,386,63.6z" /> <path class="st2xyz" d="M392.8,4.4c80.5,17.2,132.1,96.5,115,177.4c-1.9,4.5-7.3,6.6-12,4.8c-3.2-1.3-5.5-4.2-5.7-7.6 c2.2-36.6-13.2-72-41.4-95.3c0.3-21-16.5-38.4-37.5-38.7c-5.9-0.1-11.6,1.2-16.9,3.7c-39.5-8.2-80.1,8.1-103.1,41.3 c-2.8,3.7-8.2,4.6-12.1,2s-5.3-7.6-3.2-11.7l0,0c11.4-20.4,28.6-37.4,49.6-48.9c7.6-5.1,9.6-15,4.8-22.5c-0.9-1.3-1.9-2.6-3.2-3.6 C348.5,0.2,371.1-0.2,392.8,4.4z" /> <path class="st2xyz" d="M386,63.6c9.9-13,29-15.9,42.6-6.4c0.6,0.4,1.1,0.8,1.6,1.2c13.6,11.2,15.9,30.6,5.1,44.3 c-9.9,13-29,15.9-42.6,6.4c-0.6-0.4-1.1-0.8-1.6-1.2C377.5,96.7,375.2,77.4,386,63.6z" /> <path class="st2xyz" d="M392.8,4.4c80.5,17.2,132.1,96.5,115,177.4c-1.9,4.5-7.3,6.6-12,4.8c-3.2-1.3-5.5-4.2-5.7-7.6 c2.2-36.6-13.2-72-41.4-95.3c0.3-21-16.5-38.4-37.5-38.7c-5.9-0.1-11.6,1.2-16.9,3.7c-39.5-8.2-80.1,8.1-103.1,41.3 c-2.8,3.7-8.2,4.6-12.1,2s-5.3-7.6-3.2-11.7l0,0c11.4-20.4,28.6-37.4,49.6-48.9c7.6-5.1,9.6-15,4.8-22.5c-0.9-1.3-1.9-2.6-3.2-3.6 C348.5,0.2,371.1-0.2,392.8,4.4z" /> <path class="st2xyz" d="M386,63.6c9.9-13,29-15.9,42.6-6.4c0.6,0.4,1.1,0.8,1.6,1.2c13.6,11.2,15.9,30.6,5.1,44.3 c-9.9,13-29,15.9-42.6,6.4c-0.6-0.4-1.1-0.8-1.6-1.2C377.5,96.7,375.2,77.4,386,63.6z" /> <path class="st3xyz" d="M315.7,8.6c3.3-0.3,6.5,1.1,8.4,3.7c3.1,4.2,2.2,9.9-1.9,13.1c-32.7,16.4-55.6,47.4-61.6,83.6 c-18.3,10.3-25,33.5-14.6,51.9c2.8,5.1,6.8,9.5,11.6,12.9c12.7,38.4,47,65.5,87.2,68.9c4.8,0.8,8.2,4.9,7.8,9.6 c-0.1,4.5-3.8,8.2-8.5,8.6c-23.8,0.2-47.1-6.2-67.1-18.6c-7.8-3.9-17.4-1.1-21.5,6.4c-0.1,0.2-0.2,0.4-0.4,0.7 c-0.7,1.4-1.2,3-1.5,4.5c-15.4-16.4-26.8-35.6-33.6-56.6C194.6,118.5,237.4,34.1,315.7,8.6z" /> <ellipse class="st4xyz" cx="395.8" cy="226.8" rx="31.4" ry="31.5" /> <path class="st3xyz" d="M254.6,122.5c9.9-13,29-15.9,42.6-6.4c0.6,0.4,1.1,0.8,1.6,1.2c13.6,11.2,15.9,30.6,5.1,44.3 c-9.9,13-29,15.9-42.6,6.4c-0.5-0.4-1.1-0.8-1.6-1.2C246,155.6,243.7,136.3,254.6,122.5z" /> <path class="st4xyz" d="M472.7,250.8c-55.1,61.4-149.4,66.4-210.6,11.3c-1.9-2.7-2.3-6.1-1-9.1c1.8-4.5,7.1-6.8,11.7-5 c0.1,0.1,0.3,0.1,0.4,0.2c30.1,20.1,68.8,24.5,102.9,11.7c18.1,10.8,41.5,4.9,52.2-13.3c3-5.1,4.8-10.7,5.3-16.6 c26.8-30.3,33-73.6,15.9-110.3c-1.8-4.4,0.1-9.3,4.4-11.6c4.1-2.1,9.2-0.8,11.7,3.1c12.1,20.6,18.2,44,17.5,67.6 c0.3,8.8,7.9,15.6,17,15.4h0.1c1.6-0.1,3.2-0.4,4.7-0.9C498.6,214.4,487.7,234,472.7,250.8z" /> </g> </g> </svg>