<svg id="Layer_1" data-name="Layer 1" xmlns="http://www.w3.org/2000/svg" viewBox="0 0 1434.1 389.24"><defs><style>.cls-1{font-size:209.55px;font-family:GillSans-Bold, Gill Sans;font-weight:700;}.cls-2{fill:#ff7d1f;}.cls-3{fill:#655150;}.cls-4{fill:#1d9fd3;}.cls-5{font-size:120px;fill:#999;font-family:MyriadPro-Regular, Myriad Pro;}.cls-6{letter-spacing:-0.01em;}.cls-7{letter-spacing:0em;}.cls-8{letter-spacing:0.01em;}</style></defs><title>communio-logo-round-text</title><text class="cls-1" transform="translate(0 183.58)"><tspan xml:space="preserve">C    MMUNIO</tspan></text><g id="_Group_" data-name="&lt;Group&gt;"><path class="cls-2" d="M750.91,633.78c59.92,13.31,98.2,75,85.51,137.84a6.83,6.83,0,0,1-13.13-2.14c1.62-28.43-9.82-55.94-30.79-74.05.21-16.38-12.28-29.84-27.91-30.07A27.4,27.4,0,0,0,752,668.25c-29.38-6.35-59.55,6.28-76.69,32.09a6.56,6.56,0,0,1-9,1.56,7.3,7.3,0,0,1-2.38-9.07v0a95.52,95.52,0,0,1,36.9-38,13,13,0,0,0,3.53-17.49,12.56,12.56,0,0,0-2.35-2.78A106,106,0,0,1,750.91,633.78Z" transform="translate(-445 -631.26)"/><path class="cls-2" d="M745.89,679.79a22.66,22.66,0,0,1,32.85-4,25.32,25.32,0,0,1,3.78,34.44,22.66,22.66,0,0,1-32.85,4A25.33,25.33,0,0,1,745.89,679.79Z" transform="translate(-445 -631.26)"/><path class="cls-3" d="M693.59,637a6.76,6.76,0,0,1,6.19,2.87,7.46,7.46,0,0,1-1.4,10.12c-24.29,12.74-41.3,36.89-45.76,65C639,723,634.09,741,641.73,755.32a29,29,0,0,0,8.66,10c9.45,29.86,35,50.94,64.87,53.59a7,7,0,0,1,5.78,7.41,6.92,6.92,0,0,1-6.29,6.69,90,90,0,0,1-49.92-14.47A11.81,11.81,0,0,0,648.61,824a13.39,13.39,0,0,0-1.12,3.52,117.67,117.67,0,0,1-25-44C603.51,722.48,635.35,656.86,693.59,637Z" transform="translate(-445 -631.26)"/><ellipse class="cls-4" cx="308.15" cy="175.44" rx="23.38" ry="24.51"/><path class="cls-3" d="M648.11,725.6a22.66,22.66,0,0,1,32.86-4,25.32,25.32,0,0,1,3.78,34.44,22.66,22.66,0,0,1-32.85,4A25.32,25.32,0,0,1,648.11,725.6Z" transform="translate(-445 -631.26)"/><path class="cls-4" d="M810.39,825.26C769.44,873,699.32,876.91,653.79,834a7.51,7.51,0,0,1-.74-7.06,6.78,6.78,0,0,1,9.06-3.78,81.59,81.59,0,0,0,76.56,9.06c13.43,8.39,30.81,3.77,38.8-10.31a30.61,30.61,0,0,0,3.9-12.83c19.93-23.52,24.59-57.22,11.83-85.69a7.26,7.26,0,0,1,3.22-9,6.6,6.6,0,0,1,8.69,2.37,101.43,101.43,0,0,1,13,52.56,12.29,12.29,0,0,0,12.69,11.94,11.56,11.56,0,0,0,3.47-.73A118.15,118.15,0,0,1,810.39,825.26Z" transform="translate(-445 -631.26)"/></g><text class="cls-5" transform="translate(351.5 278.74)"><tspan class="cls-6">c</tspan><tspan class="cls-7" x="53.04" y="0">ommuni</tspan><tspan class="cls-8" x="479.88" y="0">t</tspan><tspan x="520.67" y="0">y hubs</tspan></text><text x="-445" y="-631.26"></text></svg>