<?xml version="1.0" encoding="utf-8"?>
<!-- Generator: Adobe Illustrator 23.0.1, SVG Export Plug-In . SVG Version: 6.00 Build 0)  -->
<svg version="1.1" id="Layer_1" xmlns="http://www.w3.org/2000/svg" xmlns:xlink="http://www.w3.org/1999/xlink" x="0px" y="0px"
	 viewBox="0 0 24 24" style="enable-background:new 0 0 24 24;" xml:space="preserve">
<style type="text/css">
	.st0{fill:none;}
	.st1{fill:#FFFFFF;}
</style>
<path class="st0" d="M0,0h24v24H0V0z"/>
<path class="st1" d="M22,13h-8v-2h8V13z M22,7h-8v2h8V7z M14,17h8v-2h-8V17z M12,9v6c0,1.1-0.9,2-2,2H4c-1.1,0-2-0.9-2-2V9
	c0-1.1,0.9-2,2-2h6C11.1,7,12,7.9,12,9z M10.5,15l-2.2-3l-1.8,2.3l-1.2-1.5L3.5,15H10.5z"/>
</svg>
