<?xml version="1.0" encoding="utf-8"?>
<!-- Generator: Adobe Illustrator 23.0.1, SVG Export Plug-In . SVG Version: 6.00 Build 0)  -->
<svg version="1.1" id="Layer_1" xmlns="http://www.w3.org/2000/svg" xmlns:xlink="http://www.w3.org/1999/xlink" x="0px" y="0px"
	 viewBox="0 0 24 24" style="enable-background:new 0 0 24 24;" xml:space="preserve">
<style type="text/css">
	.st0{fill:#FFFFFF;}
	.st1{fill:none;}
</style>
<path class="st0" d="M12,6c0-0.6-0.4-1-1-1H5.8l0.7-3.2l0-0.2c0-0.3-0.1-0.6-0.3-0.8L5.4,0L0.4,4.9C0.2,5.2,0,5.6,0,6v6.5
	C0,13.3,0.7,14,1.5,14h6.8c0.6,0,1.1-0.4,1.4-0.9l2.3-5.3C12,7.6,12,7.4,12,7.2V6z M22.5,10h-6.8c-0.6,0-1.1,0.4-1.4,0.9l-2.3,5.3
	C12,16.4,12,16.6,12,16.8V18c0,0.5,0.4,1,1,1h5.2l-0.7,3.2l0,0.2c0,0.3,0.1,0.6,0.3,0.8l0.8,0.8l4.9-4.9c0.3-0.3,0.4-0.6,0.4-1.1
	v-6.5C24,10.7,23.3,10,22.5,10z"/>
<path class="st1" d="M0,0h24v24H0V0z"/>
</svg>
