<?xml version="1.0" standalone="no"?>
<!DOCTYPE svg PUBLIC "-//W3C//DTD SVG 20010904//EN"
 "http://www.w3.org/TR/2001/REC-SVG-20010904/DTD/svg10.dtd">
<svg version="1.0" xmlns="http://www.w3.org/2000/svg"
 width="500.000000pt" height="500.000000pt" viewBox="0 0 500.000000 500.000000"
 preserveAspectRatio="xMidYMid meet">
<metadata>
Created by potrace 1.11, written by Peter Selinger 2001-2013
</metadata>
<g transform="translate(0.000000,500.000000) scale(0.100000,-0.100000)"
fill="#000000" stroke="none">
<path d="M1580 4535 c-44 -15 -80 -81 -82 -148 -1 -49 37 -129 67 -141 23 -8
18 -22 -7 -22 -57 -1 -171 -29 -260 -63 -304 -119 -535 -391 -604 -710 -38
-175 -18 -407 47 -561 94 -222 245 -395 435 -496 86 -46 83 -43 59 -60 -46
-33 -149 -143 -185 -196 -151 -227 -87 -487 181 -730 58 -53 86 -87 105 -127
58 -128 200 -304 309 -386 22 -17 48 -37 58 -46 9 -9 30 -22 45 -30 15 -8 29
-17 32 -20 10 -11 191 -99 228 -110 l37 -11 0 -61 c0 -78 8 -107 39 -140 28
-31 48 -28 83 12 17 20 22 22 23 10 0 -9 12 -24 26 -34 27 -17 42 -12 71 25
10 13 15 11 40 -12 l28 -27 32 25 c18 13 35 38 39 57 4 17 9 35 10 40 1 4 2
13 3 20 1 17 120 20 122 3 5 -40 8 -54 17 -76 24 -60 92 -79 107 -30 6 19 8
18 36 -10 17 -16 35 -29 41 -27 20 4 48 31 48 46 0 9 12 3 31 -17 17 -18 35
-32 39 -32 15 0 61 54 68 79 4 14 7 54 7 88 l0 61 40 13 c86 28 282 135 323
176 7 7 17 13 20 13 10 0 139 126 181 175 46 55 117 165 145 224 15 33 56 83
123 148 171 168 238 291 242 448 3 151 -69 288 -221 420 -31 28 -57 53 -58 57
0 4 10 10 23 14 50 15 197 121 267 193 134 136 220 290 259 466 10 44 19 91
21 105 5 57 4 218 -3 265 -11 69 -53 206 -85 274 -107 228 -330 427 -568 507
-80 27 -223 56 -236 47 -5 -2 -8 0 -8 6 0 6 9 15 19 20 10 6 29 31 41 56 21
44 23 89 8 155 -12 48 -55 80 -111 84 -68 5 -253 -47 -417 -116 -100 -42 -345
-162 -417 -205 l-43 -25 -42 25 c-49 28 -279 144 -352 177 -149 67 -322 125
-401 135 -27 3 -59 7 -70 9 -11 2 -36 -2 -55 -9z m374 -864 c321 -113 421
-517 188 -759 -42 -44 -132 -105 -172 -116 -74 -22 -101 -26 -166 -27 -253 -3
-458 200 -462 454 -2 215 136 400 342 458 79 21 193 17 270 -10z m1351 14
c122 -29 253 -136 305 -248 39 -81 42 -94 46 -193 8 -193 -97 -357 -281 -440
-79 -35 -222 -44 -306 -20 -146 43 -274 165 -315 301 -81 269 74 541 341 600
61 13 156 13 210 0z m-742 -717 c91 -118 104 -167 66 -246 -29 -59 -100 -95
-158 -80 -76 19 -131 104 -117 180 7 41 57 121 109 177 21 23 39 41 41 41 2 0
29 -33 59 -72z m-762 -1253 c59 -31 122 -14 177 49 17 20 33 36 36 36 2 0 6
-14 8 -30 4 -25 -3 -39 -35 -76 -45 -51 -62 -62 -111 -70 -76 -12 -176 74
-176 150 l0 40 36 -42 c20 -24 49 -49 65 -57z m413 16 c28 -23 49 -31 78 -31
48 0 72 12 120 62 20 21 38 38 41 38 2 0 3 -15 2 -33 -3 -69 -95 -147 -167
-143 -77 5 -166 97 -153 157 l7 31 17 -25 c9 -14 34 -39 55 -56z m394 12 c73
-66 138 -59 218 25 l41 42 -1 -39 c-3 -86 -118 -168 -198 -142 -64 21 -128 95
-123 141 5 44 5 45 16 25 6 -11 27 -34 47 -52z m670 -33 c-74 -100 -166 -114
-246 -37 -43 41 -62 78 -55 106 5 21 8 21 48 -19 23 -23 60 -47 81 -55 52 -18
96 0 149 60 l40 45 3 -35 c2 -24 -4 -44 -20 -65z m-1338 -257 c0 -29 98 -103
136 -103 38 0 90 28 127 69 20 23 38 41 39 41 2 0 4 -16 5 -35 1 -28 -7 -44
-43 -84 -81 -90 -174 -86 -254 12 -24 30 -37 107 -18 107 4 0 8 -3 8 -7z m515
-83 c30 -19 40 -20 69 -10 19 6 52 30 74 54 l40 43 5 -30 c5 -38 -42 -103 -99
-134 l-41 -23 -44 23 c-60 30 -107 94 -101 137 l4 32 29 -35 c16 -20 45 -45
64 -57z m387 9 c38 -28 90 -34 126 -15 31 16 92 74 92 87 0 5 4 9 8 9 15 0 7
-65 -11 -95 -25 -41 -90 -86 -130 -89 -44 -4 -98 25 -141 75 -33 40 -37 55
-27 107 1 2 13 -10 27 -27 14 -17 39 -40 56 -52z m-686 -259 c62 -73 121 -91
186 -57 23 12 53 37 67 54 14 18 28 33 31 33 4 0 5 -40 1 -70 -2 -17 -80 -90
-106 -100 -68 -26 -147 8 -194 83 -17 28 -26 87 -13 87 2 0 15 -13 28 -30z
m518 -66 c68 -17 93 -8 153 53 23 24 43 43 45 43 2 0 4 -14 5 -31 3 -38 -39
-97 -93 -130 -66 -40 -152 -12 -208 70 -14 20 -23 45 -21 56 2 11 4 23 4 27 1
4 22 -13 47 -37 25 -25 56 -48 68 -51z"/>
<path d="M1852 3421 c-39 -11 -90 -59 -102 -96 -40 -123 71 -236 193 -196 91
31 128 149 72 235 -27 41 -112 71 -163 57z"/>
<path d="M3054 3419 c-94 -26 -135 -146 -80 -229 84 -127 276 -68 276 85 0 64
-46 127 -100 140 -51 11 -66 12 -96 4z"/>
</g>
</svg>
