<?xml version="1.0" encoding="utf-8"?>
<!-- Generator: Adobe Illustrator 22.0.1, SVG Export Plug-In . SVG Version: 6.00 Build 0)  -->
<svg version="1.1" id="Layer_1" xmlns="http://www.w3.org/2000/svg" xmlns:xlink="http://www.w3.org/1999/xlink" x="0px" y="0px"
	 viewBox="0 0 24 24" style="enable-background:new 0 0 24 24;" xml:space="preserve">
<style type="text/css">
	.st0{fill:none;}
	.st1{fill:#ff7d1f;}
</style>
<path class="st0" d="M24,24H0V0h24V24z"/>
<path class="st1" d="M22,4h-2c-0.5,0-1,0.4-1,1v9c0,0.6,0.5,1,1,1h2V4z M2.2,11.1C2.1,11.4,2,11.6,2,11.9V13c0,1.1,0.9,2,2,2h5.5
	l-0.9,4.6c-0.1,0.2,0,0.5,0.1,0.7c0.2,0.5,0.5,0.9,0.9,1.2L10,22l6.4-6.4c0.4-0.4,0.6-0.9,0.6-1.4V6.3C17,5.1,15.9,4,14.7,4H6.6
	C5.8,4,5.2,4.4,4.8,5L2.2,11.1z"/>
</svg>
