<?xml version="1.0" encoding="utf-8"?>
<!-- Generator: Adobe Illustrator 24.0.1, SVG Export Plug-In . SVG Version: 6.00 Build 0)  -->
<svg version="1.1" id="Layer_1" xmlns="http://www.w3.org/2000/svg" xmlns:xlink="http://www.w3.org/1999/xlink" x="0px" y="0px"
	 viewBox="0 0 24 24" style="enable-background:new 0 0 24 24;" xml:space="preserve">
<style type="text/css">
	.st0{fill:#FF7D1F;}
	.st1{fill:none;}
</style>
<g id="kYCbeV.tif">
	
		<image style="overflow:visible;" width="768" height="944" id="Layer_0_4_" xlink:href="90588BAF1C9D578B.png"  transform="matrix(0.5 0 0 0.5 114 157.5)">
	</image>
</g>
<g id="LMXpbH.tif">
	
		<image style="overflow:visible;" width="768" height="944" id="Layer_0_3_" xlink:href="90588BAF1C9D5789.png"  transform="matrix(0.5 0 0 0.5 114 157.5)">
	</image>
</g>
<g id="yddlWO.tif">
	
		<image style="overflow:visible;" width="768" height="944" id="Layer_0_2_" xlink:href="90588BAF1C9D578F.png"  transform="matrix(0.5 0 0 0.5 114 157.5)">
	</image>
</g>
<g id="SqMzIT.tif">
	
		<image style="overflow:visible;" width="768" height="944" id="Layer_0_1_" xlink:href="90588BAF1C9D5788.png"  transform="matrix(0.5 0 0 0.5 114 157.5)">
	</image>
</g>
<g id="c4HgFm.tif">
	
		<image style="overflow:visible;" width="768" height="944" id="Layer_0" xlink:href="90588BAF1C9D5786.png"  transform="matrix(0.5 0 0 0.5 114 157.5)">
	</image>
</g>
<path class="st0" d="M20.5,6c-2.6,0.7-5.7,1-8.5,1S6.1,6.7,3.5,6L3,8c1.9,0.5,4,0.8,6,1v13h2v-6h2v6h2V9c2-0.2,4.1-0.5,6-1L20.5,6z
	 M12,6c1.1,0,2-0.9,2-2s-0.9-2-2-2s-2,0.9-2,2S10.9,6,12,6z"/>
<path class="st1" d="M0,0h24v24H0V0z"/>
</svg>
