<?xml version="1.0" encoding="utf-8"?>
<!-- Generator: Adobe Illustrator 22.0.1, SVG Export Plug-In . SVG Version: 6.00 Build 0)  -->
<svg version="1.1" id="Layer_1" xmlns="http://www.w3.org/2000/svg" xmlns:xlink="http://www.w3.org/1999/xlink" x="0px" y="0px"
	 viewBox="0 0 24 24" style="enable-background:new 0 0 24 24;" xml:space="preserve">
<style type="text/css">
	.st0{fill:none;}
	.st1{fill:#ff7d1f;}
</style>
<path class="st0" d="M0,0h24v24H0V0z"/>
<path class="st1" d="M3.5,18.5L5,20l1.8-1.8l-1.4-1.4C5.3,16.7,3.6,18.5,3.5,18.5z M11,22.5h2v-3h-2V22.5z M4,10.5H1v2h3V10.5z
	 M15,6.3V1.5H9v4.8c-1.8,1-3,3-3,5.2c0,3.3,2.7,6,6,6s6-2.7,6-6C18,9.3,16.8,7.3,15,6.3z M20,10.5v2h3v-2H20z M17.2,18.2L19,20
	l1.4-1.4l-1.8-1.8C18.6,16.8,17.2,18.2,17.2,18.2z"/>
</svg>
