<?xml version="1.0" encoding="utf-8"?>
<!-- Generator: Adobe Illustrator 24.0.1, SVG Export Plug-In . SVG Version: 6.00 Build 0)  -->
<svg version="1.1" id="Layer_1" xmlns="http://www.w3.org/2000/svg" xmlns:xlink="http://www.w3.org/1999/xlink" x="0px" y="0px"
	 viewBox="0 0 24 24" style="enable-background:new 0 0 24 24;" xml:space="preserve">
<style type="text/css">
	.st0{fill:none;}
	.st1{fill:#FF7D1F;}
	.st2{fill:#FFFFFF;}
</style>
<path class="st0" d="M0,0h24v24H0V0z"/>
<path class="st1" d="M21.5,12c0,5.2-4.2,9.5-9.5,9.5c-5.2,0-9.5-4.2-9.5-9.5c0-5.2,4.2-9.5,9.5-9.5S21.5,6.8,21.5,12L21.5,12z"/>
<g>
	<path class="st2" d="M15.7,9.7c-0.1-1.3-1.2-1.7-2.6-1.8V6.1H12v1.7c-0.3,0-0.6,0-0.9,0V6.1H10v1.8c-0.2,0-0.5,0-0.7,0l0,0L8,7.9V9
		h0.8c0.4,0,0.6,0.3,0.6,0.5v2h0.1H9.4v2.8c0,0.1-0.1,0.4-0.4,0.4H8.2L8,15.9h1.4c0.3,0,0.5,0,0.8,0v1.8h1.1V16c0.3,0,0.6,0,0.9,0
		v1.7h1.1v-1.8c1.8-0.1,3.1-0.6,3.2-2.2c0.1-1.4-0.5-2-1.5-2.2C15.4,11.2,15.8,10.6,15.7,9.7L15.7,9.7z M14.2,13.5
		c0,1.3-2.3,1.2-3,1.2v-2.4C12,12.3,14.2,12.1,14.2,13.5z M13.7,10.2c0,1.2-1.9,1.1-2.5,1.1V9.1C11.8,9.1,13.7,8.9,13.7,10.2z"/>
	<path class="st2" d="M9.4,11.4h0.2v0.1H9.4V11.4z"/>
</g>
</svg>
