<?xml version="1.0" encoding="utf-8"?>
<!-- Generator: Adobe Illustrator 22.0.1, SVG Export Plug-In . SVG Version: 6.00 Build 0)  -->
<svg version="1.1" id="Layer_1" xmlns="http://www.w3.org/2000/svg" xmlns:xlink="http://www.w3.org/1999/xlink" x="0px" y="0px"
	 viewBox="0 0 24 24" style="enable-background:new 0 0 24 24;" xml:space="preserve">
<style type="text/css">
	.st0{fill:#ff7d1f;}
	.st1{fill:none;}
</style>
<path class="st0" d="M12,2C8.1,2,5,5.1,5,9c0,5.2,7,13,7,13s7-7.8,7-13C19,5.1,15.9,2,12,2z M10.4,12H9v-1.4l3.4-3.3l1.4,1.4
	C13.8,8.6,10.4,12,10.4,12z M14.9,7.6l-0.7,0.7l-1.4-1.4l0.7-0.7C13.6,6,13.8,6,14,6.1L14.9,7C15,7.2,15,7.4,14.9,7.6z"/>
<path class="st1" d="M0,0h24v24H0V0z"/>
</svg>
