<?xml version="1.0" encoding="utf-8"?>
<!-- Generator: Adobe Illustrator 24.0.1, SVG Export Plug-In . SVG Version: 6.00 Build 0)  -->
<svg version="1.1" id="Layer_1" xmlns="http://www.w3.org/2000/svg" xmlns:xlink="http://www.w3.org/1999/xlink" x="0px" y="0px"
	 viewBox="0 0 24 24" style="enable-background:new 0 0 24 24;" xml:space="preserve">
<style type="text/css">
	.st0{fill:#FF7D1F;}
</style>
<g>
	<g>
		<path class="st0" d="M16.6,8.4c0.3-0.2,0.6-0.5,0.9-0.8c0.6-0.6,1-1.3,1.1-2.1c0.1-0.8-0.1-1.6-0.6-2.1c-0.4-0.4-0.9-0.6-1.6-0.6
			c-0.9,0-1.8,0.4-2.6,1.2c-1.2,1.2-1.9,2.8-2.3,4c-0.3-1.2-0.8-2.8-1.9-3.8c-0.6-0.6-1.3-0.9-2-0.9c-0.6,0-1.1,0.2-1.5,0.6
			C5.4,4.8,5.6,6.4,6.6,7.4C7,7.8,7.4,8.1,7.9,8.4H4v4.6h1.1v8h13.7v-8H20V8.4H16.6L16.6,8.4z M14.9,4.9c0.5-0.5,1.1-0.8,1.7-0.8
			c0.2,0,0.5,0,0.7,0.2c0.5,0.5,0.2,1.5-0.6,2.3c-0.8,0.8-1.8,1.3-2.8,1.7H13C13.3,7.3,13.9,5.9,14.9,4.9L14.9,4.9z M7,5.5
			C7,5.3,7,5,7.2,4.8c0.2-0.2,0.4-0.2,0.6-0.2l0,0c0.4,0,0.8,0.2,1.1,0.5c0.6,0.6,1.1,1.6,1.4,2.8c0,0,0,0.1,0,0.1c0,0-0.1,0-0.1,0
			C9.1,7.6,8.1,7.1,7.5,6.5C7.2,6.2,7,5.9,7,5.5L7,5.5z M10.9,19.8H6.3v-7.4h4.6V19.8z M10.9,11.8H5.1V9.5h5.7V11.8z M17.7,19.8
			h-4.6v-7.4h4.6V19.8z M18.9,11.8h-5.7V9.5h5.7L18.9,11.8L18.9,11.8z"/>
	</g>
</g>
</svg>
