<?xml version="1.0" encoding="utf-8"?>
<!-- Generator: Adobe Illustrator 24.0.1, SVG Export Plug-In . SVG Version: 6.00 Build 0)  -->
<svg version="1.1" id="Layer_1" xmlns="http://www.w3.org/2000/svg" xmlns:xlink="http://www.w3.org/1999/xlink" x="0px" y="0px"
	 viewBox="0 0 24 24" style="enable-background:new 0 0 24 24;" xml:space="preserve">
<style type="text/css">
	.st0{fill:#FF7D1F;}
	.st1{fill:none;}
</style>
<path class="st0" d="M15.5,14h-0.8l-0.3-0.3c1-1.1,1.6-2.6,1.6-4.2C16,5.9,13.1,3,9.5,3S3,5.9,3,9.5S5.9,16,9.5,16
	c1.6,0,3.1-0.6,4.2-1.6l0.3,0.3v0.8l5,5l1.5-1.5L15.5,14z M9.5,14C7,14,5,12,5,9.5S7,5,9.5,5S14,7,14,9.5S12,14,9.5,14z"/>
<path class="st1" d="M0,0h24v24H0V0z"/>
<path class="st0" d="M9.2,6.4c0-0.3,0.3-0.3,0.3-0.6C9.2,5.5,8.8,5.3,8.6,5.1C8.4,5.3,8.2,5.6,8.2,5.8C8.5,6,8.8,6.2,9.2,6.4z"/>
<path class="st0" d="M7.4,5.9c-0.2-0.2-0.7-0.1-1.1,0C6.4,6.3,7.1,6,7.4,5.9z"/>
<path class="st0" d="M5.7,6.2c-0.2,0.2-0.2,0.6-0.1,1C5.8,7,6.4,6.3,5.7,6.2z"/>
<path class="st0" d="M7.6,7.1C8.1,7,8.4,6.8,8.8,6.7C8.5,6.2,7.6,6.2,7,6.6C7.2,6.8,7.3,7,7.6,7.1z"/>
<path class="st0" d="M11,6.9c-0.3-0.3-0.6-0.6-1-0.8C9.8,6.2,9.7,6.5,9.6,6.7C9.9,7.1,10.5,7.5,11,6.9z"/>
<path class="st0" d="M7.2,7.6C7,7.3,6.7,7.1,6.6,6.9c-0.5,0.4-0.6,1.4,0,2C6.8,8.5,6.9,8,7.2,7.6z"/>
<path class="st0" d="M5.4,7.7C5.1,7.7,5,7.9,4.7,7.9C4.9,8.3,5,8.7,5.3,9c0.2-0.1,0.4-0.3,0.6-0.4C5.8,8.3,5.6,8,5.4,7.7z"/>
<path class="st0" d="M8.7,8.3c0.6-0.1,0.9-0.4,1.5-0.5C9.8,6.9,8.9,7.1,8,7.5C8.2,7.9,8.4,8.1,8.7,8.3z"/>
<path class="st0" d="M11.4,8.6c0.3-0.1,0.4-0.2,0.6-0.4c-0.2-0.4-0.5-0.6-0.7-1c-0.2,0.1-0.3,0.3-0.5,0.5C11,8.1,11.3,8.3,11.4,8.6z
	"/>
<path class="st0" d="M7.7,8c-0.4,0.5-1.1,1.7,0,2C7.9,9.4,8.6,8.5,7.7,8z"/>
<path class="st0" d="M9.9,9.4c0.4-0.2,0.8-0.4,1.3-0.5c-0.1-0.3-0.4-0.5-0.5-0.8c-0.6,0.1-0.9,0.4-1.5,0.5C9.3,9,9.6,9.2,9.9,9.4z"
	/>
<path class="st0" d="M5.6,9.5c0.2,0.4,0.5,0.6,0.7,0.9c0.2-0.1,0.4-0.3,0.5-0.5C6.6,9.3,6,8.9,5.6,9.5z"/>
<path class="st0" d="M8.7,9c-0.2,0.4-0.5,0.9-0.6,1.4c0.3,0.1,0.5,0.3,0.9,0.3C9.6,10.1,9.5,9.5,8.7,9z"/>
<path class="st0" d="M12.8,9.8c-0.1-0.4-0.3-0.7-0.4-1.1C12.1,8.8,12,8.9,11.8,9c-0.1,0.3,0.1,0.8,0.3,1C12.4,10,12.6,9.9,12.8,9.8z
	"/>
<path class="st0" d="M10.3,9.8c0.2,0.3,0.5,0.6,0.8,0.8c0.3-0.1,0.5-0.3,0.6-0.5C11.7,9.3,10.9,9.4,10.3,9.8z"/>
<path class="st0" d="M6.7,10.8c0.3,0.3,0.5,0.5,0.9,0.6C7.8,11.2,7.9,11,8,10.7C7.6,10.4,7,10.3,6.7,10.8z"/>
<path class="st0" d="M9.9,10.2c-0.2,0.2-0.2,0.5-0.4,0.7c0.3,0.3,0.8,0.5,1.2,0.2C10.5,10.7,10.1,10.5,9.9,10.2z"/>
<path class="st0" d="M8.2,11.7c0.5,0.2,1.1,0.4,1.3-0.2C9.2,11,8.1,10.8,8.2,11.7z"/>
</svg>
