<?xml version="1.0" encoding="utf-8"?>
<!-- Generator: Adobe Illustrator 24.0.1, SVG Export Plug-In . SVG Version: 6.00 Build 0)  -->
<svg version="1.1" id="Layer_1" xmlns="http://www.w3.org/2000/svg" xmlns:xlink="http://www.w3.org/1999/xlink" x="0px" y="0px"
	 viewBox="0 0 24 24" style="enable-background:new 0 0 24 24;" xml:space="preserve">
<style type="text/css">
	.st0{fill:none;}
	.st1{fill:#FF7D1F;}
</style>
<path class="st0" d="M0,0h24v24H0V0z"/>
<g>
	<path class="st1" d="M15.5,3.4c-2.9,0-5.2,1-5.2,2.2s2.3,2.2,5.2,2.2s5.2-1,5.2-2.2S18.4,3.4,15.5,3.4z M10.3,6.5v1.7
		c0,1.2,2.4,2.2,5.2,2.2s5.2-1,5.2-2.2V6.5c0,1.2-2.4,2.2-5.2,2.2S10.3,7.7,10.3,6.5z M20.7,9c0,1.3-2.4,2.3-5.2,2.3s-5.2-1-5.2-2.2
		v1.4c2.1,0.3,3.9,1.1,4.3,2.5h1c2.9,0,5.2-1,5.2-2.2V9z M8.5,11.3c-2.9,0-5.2,1-5.2,2.2s2.4,2.2,5.2,2.2s5.2-1,5.2-2.2
		S11.4,11.3,8.5,11.3z M20.7,11.7c0,1.2-2.4,2.2-5.2,2.2h-0.9v1.7h0.9c2.9,0,5.2-1,5.2-2.2V11.7z M3.3,14.3v1.7
		c0,1.2,2.4,2.2,5.2,2.2s5.2-1,5.2-2.2v-1.7c0,1.2-2.4,2.2-5.2,2.2S3.3,15.6,3.3,14.3z M20.7,14.3c0,1.2-2.4,2.2-5.2,2.2h-0.9v1.7
		h0.9c2.9,0,5.2-1,5.2-2.2V14.3z M3.3,17v1.7c0,1.2,2.4,2.2,5.2,2.2s5.2-1,5.2-2.2V17c0,1.2-2.4,2.2-5.2,2.2S3.3,18.2,3.3,17z"/>
</g>
</svg>
