<?xml version="1.0" encoding="utf-8"?>
<!-- Generator: Adobe Illustrator 22.0.1, SVG Export Plug-In . SVG Version: 6.00 Build 0)  -->
<svg version="1.1" id="Layer_1" xmlns="http://www.w3.org/2000/svg" xmlns:xlink="http://www.w3.org/1999/xlink" x="0px" y="0px"
	 viewBox="0 0 24 24" style="enable-background:new 0 0 24 24;" xml:space="preserve">
<style type="text/css">
	.st0{fill:#ff7d1f;}
</style>
<path class="st0" d="M20.3,10c-1,0-1.9,0.8-1.9,1.9v2.8H5.3v-2.8c0-1-0.8-1.9-1.9-1.9s-1.9,0.8-1.9,1.9v4.7c0,1,0.8,1.9,1.9,1.9
	h16.9c1,0,1.9-0.8,1.9-1.9v-4.7C22.2,10.9,21.3,10,20.3,10z M17.5,5.3H6.2c-1,0-1.9,0.8-1.9,1.9v2c1.1,0.4,1.9,1.4,1.9,2.6v1.9h11.3
	v-1.9c0-1.2,0.8-2.3,1.9-2.6v-2C19.3,6.2,18.5,5.3,17.5,5.3z"/>
</svg>
