<?xml version="1.0" encoding="utf-8"?>
<!-- Generator: Adobe Illustrator 24.0.1, SVG Export Plug-In . SVG Version: 6.00 Build 0)  -->
<svg version="1.1" id="Layer_1" xmlns="http://www.w3.org/2000/svg" xmlns:xlink="http://www.w3.org/1999/xlink" x="0px" y="0px"
	 viewBox="0 0 24 24" style="enable-background:new 0 0 24 24;" xml:space="preserve">
<style type="text/css">
	.st0{fill:none;}
	.st1{fill:#FF7D1F;}
</style>
<path class="st0" d="M0,0h24v24H0V0z"/>
<path class="st1" d="M10.4,21.2c-0.5,0-0.9-0.2-1.2-0.5l-1.4-1.4c-0.3-0.3-0.2-0.7,0-0.9C8,18,8.2,17.6,8.2,17.2
	c0-0.4-0.2-0.8-0.4-1.1c-0.6-0.6-1.6-0.6-2.2,0c-0.1,0.1-0.3,0.2-0.5,0.2c-0.2,0-0.3-0.1-0.5-0.2l-1.4-1.4c-0.3-0.3-0.5-0.8-0.5-1.2
	c0-0.5,0.2-0.9,0.5-1.2l9.1-9c0.7-0.6,1.8-0.6,2.4,0l1.4,1.4c0.3,0.3,0.2,0.7,0,0.9C16,6,15.8,6.3,15.8,6.7c0,0.4,0.2,0.8,0.4,1.1
	c0.6,0.6,1.6,0.6,2.2,0c0.1-0.1,0.3-0.2,0.5-0.2c0.2,0,0.3,0.1,0.5,0.2l1.4,1.4c0.3,0.3,0.5,0.8,0.5,1.2c0,0.5-0.2,0.9-0.5,1.2
	l-9.1,9C11.2,21,10.8,21.2,10.4,21.2z M9.1,18.7l1,1c0.1,0.2,0.4,0.2,0.6,0l9.1-9c0.1-0.1,0.1-0.2,0.1-0.3c0-0.1,0-0.2-0.1-0.3l-1-1
	c-0.4,0.3-0.9,0.4-1.5,0.4c-0.8,0-1.5-0.3-2-0.9c-0.5-0.5-0.8-1.3-0.8-2c0-0.5,0.2-1.1,0.4-1.5l-1-1c-0.1-0.2-0.4-0.2-0.6,0l-9.1,9
	c-0.1,0.1-0.1,0.2-0.1,0.3c0,0.1,0,0.2,0.1,0.3l1,1c0.4-0.3,0.9-0.4,1.5-0.4c0.8,0,1.5,0.3,2,0.9c0.5,0.5,0.8,1.3,0.8,2
	C9.5,17.8,9.4,18.3,9.1,18.7z M8.8,13.5c-0.2,0-0.3-0.1-0.5-0.2c-0.3-0.3-0.3-0.7,0-0.9L12,8.7c0.3-0.3,0.7-0.3,0.9,0s0.3,0.7,0,0.9
	l-3.7,3.7C9.1,13.4,9,13.5,8.8,13.5z M10.8,15.5c-0.2,0-0.3-0.1-0.5-0.2c-0.3-0.3-0.3-0.7,0-0.9l3.7-3.7c0.3-0.3,0.7-0.3,0.9,0
	s0.3,0.7,0,0.9l-3.7,3.7C11.1,15.4,10.9,15.5,10.8,15.5z"/>
</svg>
