<?xml version="1.0" encoding="utf-8"?>
<!-- Generator: Adobe Illustrator 24.0.1, SVG Export Plug-In . SVG Version: 6.00 Build 0)  -->
<svg version="1.1" id="Layer_1" xmlns="http://www.w3.org/2000/svg" xmlns:xlink="http://www.w3.org/1999/xlink" x="0px" y="0px"
	 viewBox="0 0 24 24" style="enable-background:new 0 0 24 24;" xml:space="preserve">
<style type="text/css">
	.st0{fill:none;}
	.st1{fill:#FF7D1F;}
</style>
<path class="st0" d="M0,0h24v24H0V0z"/>
<path class="st1" d="M18.7,4h-4.2c-0.4-1.2-1.5-2-2.8-2S9.3,2.8,8.9,4H4.7c-1.1,0-2,0.9-2,2v14c0,1.1,0.9,2,2,2h14c1.1,0,2-0.9,2-2
	V6C20.7,4.9,19.8,4,18.7,4z M11.7,4c0.6,0,1,0.5,1,1s-0.4,1-1,1s-1-0.4-1-1S11.1,4,11.7,4z M13.7,18h-7v-2h7V18z M16.7,14h-10v-2h10
	V14z M16.7,10h-10V8h10V10z"/>
</svg>
