<?xml version="1.0" encoding="utf-8"?>
<!-- Generator: Adobe Illustrator 22.0.1, SVG Export Plug-In . SVG Version: 6.00 Build 0)  -->
<svg version="1.1" id="Layer_1" xmlns="http://www.w3.org/2000/svg" xmlns:xlink="http://www.w3.org/1999/xlink" x="0px" y="0px"
	 viewBox="0 0 24 24" style="enable-background:new 0 0 24 24;" xml:space="preserve">
<style type="text/css">
	.st0{fill:none;}
	.st1{fill:#ececec;}
</style>
<path class="st0" d="M0,0h24v24H0V0z"/>
<path class="st1" d="M12,9c0.8,0,1.5-0.7,1.5-1.5S12.8,6,12,6s-1.5,0.7-1.5,1.5S11.2,9,12,9z M12,10.5c-0.8,0-1.5,0.7-1.5,1.5
	s0.7,1.5,1.5,1.5s1.5-0.7,1.5-1.5S12.8,10.5,12,10.5z M12,15c-0.8,0-1.5,0.7-1.5,1.5c0,0.8,0.7,1.5,1.5,1.5s1.5-0.7,1.5-1.5
	C13.5,15.7,12.8,15,12,15z"/>
<path class="st1" d="M12,22c5.5,0,10-4.5,10-10S17.5,2,12,2S2,6.5,2,12S6.5,22,12,22z M12,4c4.4,0,8,3.6,8,8s-3.6,8-8,8s-8-3.6-8-8
	S7.6,4,12,4z"/>
</svg>
