<?xml version="1.0" encoding="utf-8"?>
<!-- Generator: Adobe Illustrator 22.0.1, SVG Export Plug-In . SVG Version: 6.00 Build 0)  -->
<svg version="1.1" id="Layer_1" xmlns="http://www.w3.org/2000/svg" xmlns:xlink="http://www.w3.org/1999/xlink" x="0px" y="0px"
	 viewBox="0 0 24 24" style="enable-background:new 0 0 24 24;" xml:space="preserve">
<style type="text/css">
	.st0{fill:#ff7d1f;}
</style>
<path class="st0" d="M13,9.5h5v-2h-5V9.5z M13,16.5h5v-2h-5V16.5z M19,21H5c-1.1,0-2-0.9-2-2V5c0-1.1,0.9-2,2-2h14c1.1,0,2,0.9,2,2
	v14C21,20.1,20.1,21,19,21z M6,11h5V6H6V11z M7,7h3v3H7V7z M6,18h5v-5H6V18z M7,14h3v3H7V14z"/>
</svg>
