<?xml version="1.0" encoding="utf-8"?>
<!-- Generator: Adobe Illustrator 22.0.1, SVG Export Plug-In . SVG Version: 6.00 Build 0)  -->
<svg version="1.1" id="Layer_1" xmlns="http://www.w3.org/2000/svg" xmlns:xlink="http://www.w3.org/1999/xlink" x="0px" y="0px"
	 viewBox="0 0 24 24" style="enable-background:new 0 0 24 24;" xml:space="preserve">
<style type="text/css">
	.st0{fill:#ff7d1f;}
	.st1{fill:none;}
</style>
<path class="st0" d="M2,12.5C2,9.5,4.5,7,7.5,7H18c2.2,0,4,1.8,4,4s-1.8,4-4,4H9.5C8.1,15,7,13.9,7,12.5S8.1,10,9.5,10H17v2H9.4
	c-0.6,0-0.6,1,0,1H18c1.1,0,2-0.9,2-2s-0.9-2-2-2H7.5C5.6,9,4,10.6,4,12.5S5.6,16,7.5,16H17v2H7.5C4.5,18,2,15.5,2,12.5z"/>
<path class="st1" d="M0,0h24v24H0V0z"/>
</svg>
