<?xml version="1.0" encoding="utf-8"?>
<!-- Generator: Adobe Illustrator 22.0.1, SVG Export Plug-In . SVG Version: 6.00 Build 0)  -->
<svg version="1.1" id="Layer_1" xmlns="http://www.w3.org/2000/svg" xmlns:xlink="http://www.w3.org/1999/xlink" x="0px" y="0px"
	 viewBox="0 0 24 24" style="enable-background:new 0 0 24 24;" xml:space="preserve">
<style type="text/css">
	.st0{clip-path:url(#SVGID_2_);fill:#ececec;}
</style>
<g>
	<defs>
		<rect id="SVGID_1_" width="24" height="24"/>
	</defs>
	<clipPath id="SVGID_2_">
		<use xlink:href="#SVGID_1_"  style="overflow:visible;"/>
	</clipPath>
	<path class="st0" d="M23,5.5V20c0,2.2-1.8,4-4,4h-7.3c-1.1,0-2.1-0.4-2.8-1.2l-7.9-8c0,0,1.3-1.2,1.3-1.2c0.2-0.2,0.5-0.3,0.8-0.3
		c0.2,0,0.4,0.1,0.6,0.2c0,0,4.3,2.5,4.3,2.5V4c0-0.8,0.7-1.5,1.5-1.5S11,3.2,11,4v7h1V1.5C12,0.7,12.7,0,13.5,0S15,0.7,15,1.5V11h1
		V2.5C16,1.7,16.7,1,17.5,1S19,1.7,19,2.5V11h1V5.5C20,4.7,20.7,4,21.5,4S23,4.7,23,5.5z"/>
</g>
</svg>
