<?xml version="1.0" encoding="utf-8"?>
<!-- Generator: Adobe Illustrator 22.0.1, SVG Export Plug-In . SVG Version: 6.00 Build 0)  -->
<svg version="1.1" id="Layer_1" xmlns="http://www.w3.org/2000/svg" xmlns:xlink="http://www.w3.org/1999/xlink" x="0px" y="0px"
	 viewBox="0 0 24 24" style="enable-background:new 0 0 24 24;" xml:space="preserve">
<style type="text/css">
	.st0{fill:none;}
	.st1{fill:#ff7d1f;}
</style>
<path class="st0" d="M0,0h24v24H0V0z"/>
<path class="st1" d="M13,2C9.1,2,6,5.1,6,9c0,5.2,7,13,7,13s7-7.8,7-13C20,5.1,16.9,2,13,2z"/>
<path class="st1" d="M16,1c-3.9,0-7,3.1-7,7c0,5.2,7,13,7,13s7-7.8,7-13C23,4.1,19.9,1,16,1z"/>
<path class="st1" d="M10,3c-3.9,0-7,3.1-7,7c0,5.2,7,13,7,13s7-7.8,7-13C17,6.1,13.9,3,10,3z"/>
</svg>
