<?xml version="1.0" encoding="utf-8"?>
<!-- Generator: Adobe Illustrator 22.0.1, SVG Export Plug-In . SVG Version: 6.00 Build 0)  -->
<svg version="1.1" id="Layer_1" xmlns="http://www.w3.org/2000/svg" xmlns:xlink="http://www.w3.org/1999/xlink" x="0px" y="0px"
	 viewBox="0 0 24 24" style="enable-background:new 0 0 24 24;" xml:space="preserve">
<style type="text/css">
	.st0{fill:none;}
	.st1{fill:#ff7d1f;}
</style>
<path class="st0" d="M0,0h24v24H0V0z"/>
<path class="st1" d="M15.9,5c-0.2,0-0.3,0.1-0.4,0.2l-0.1,0.2L10.2,17c-0.2,0.3-0.3,0.6-0.3,1c0,1.1,0.9,2,2,2c1,0,1.8-0.7,2-1.6
	l0,0l2.4-12.9C16.4,5.2,16.2,5,15.9,5z M1,9l2,2c2.9-2.9,6.8-4.1,10.5-3.6l1.2-2.7C9.9,3.8,4.7,5.3,1,9z M21,11l2-2
	c-1.6-1.6-3.5-2.8-5.6-3.6l-0.5,2.8C18.4,8.9,19.8,9.8,21,11z M17,15l2-2c-0.8-0.8-1.7-1.4-2.7-1.9L15.8,14
	C16.2,14.3,16.6,14.6,17,15z M5,13l2,2c1.1-1.1,2.6-1.8,4-2l1.3-2.9C9.7,10,7,11,5,13z"/>
</svg>
