<?xml version="1.0" encoding="utf-8"?>
<!-- Generator: Adobe Illustrator 22.0.1, SVG Export Plug-In . SVG Version: 6.00 Build 0)  -->
<svg version="1.1" id="Layer_1" xmlns="http://www.w3.org/2000/svg" xmlns:xlink="http://www.w3.org/1999/xlink" x="0px" y="0px"
	 viewBox="0 0 24 24" style="enable-background:new 0 0 24 24;" xml:space="preserve">
<style type="text/css">
	.st0{fill:none;}
	.st1{fill:#ff7d1f;}
</style>
<path class="st0" d="M24,24H0V0h24V24z"/>
<path class="st1" d="M2,20h2c0.6,0,1-0.5,1-1v-9c0-0.6-0.4-1-1-1H2V20z M21.8,12.9c0.1-0.2,0.2-0.5,0.2-0.8V11c0-1.1-0.9-2-2-2h-5.5
	l0.9-4.7c0.1-0.2,0-0.5-0.1-0.7c-0.2-0.5-0.5-0.9-0.9-1.2L14,2L7.6,8.4C7.2,8.8,7,9.3,7,9.8v7.8C7,19,8.1,20,9.3,20h8.1
	c0.7,0,1.4-0.4,1.7-1C19.2,19,21.8,12.9,21.8,12.9z"/>
</svg>
