<?xml version="1.0" encoding="utf-8"?>
<!-- Generator: Adobe Illustrator 24.0.1, SVG Export Plug-In . SVG Version: 6.00 Build 0)  -->
<svg version="1.1" id="Layer_1" xmlns="http://www.w3.org/2000/svg" xmlns:xlink="http://www.w3.org/1999/xlink" x="0px" y="0px"
	 viewBox="0 0 24 24" style="enable-background:new 0 0 24 24;" xml:space="preserve">
<style type="text/css">
	.st0{fill:none;}
	.st1{fill:#FF7D1F;}
</style>
<path class="st0" d="M0,0h24v24H0V0z"/>
<path class="st1" d="M5,16c0,3.9,3.1,7,7,7s7-3.1,7-7v-4H5V16z M16.1,4.4l2.1-2.1l-0.8-0.8l-2.3,2.3C14.2,3.3,13.1,3,12,3
	S9.8,3.3,8.9,3.8L6.6,1.4L5.8,2.3l2.1,2.1C6.1,5.6,5,7.7,5,10v1h14v-1C19,7.7,17.9,5.6,16.1,4.4z M9,9C8.4,9,8,8.6,8,8s0.4-1,1-1
	s1,0.4,1,1S9.6,9,9,9z M15,9c-0.6,0-1-0.4-1-1s0.4-1,1-1s1,0.4,1,1S15.6,9,15,9z"/>
</svg>
