<?xml version="1.0" encoding="utf-8"?>
<!-- Generator: Adobe Illustrator 22.0.1, SVG Export Plug-In . SVG Version: 6.00 Build 0)  -->
<svg version="1.1" id="Layer_1" xmlns="http://www.w3.org/2000/svg" xmlns:xlink="http://www.w3.org/1999/xlink" x="0px" y="0px"
	 viewBox="0 0 24 24" style="enable-background:new 0 0 24 24;" xml:space="preserve">
<style type="text/css">
	.st0{fill:none;}
	.st1{fill:#ececec;}
</style>
<path class="st0" d="M0,1h24v24H0V1z"/>
<path class="st0" d="M0,1h24v24H0V1z"/>
<path class="st1" d="M12,22c5.5,0,10-4.5,10-10S17.5,2,12,2S2,6.5,2,12S6.5,22,12,22z M12,4c4.4,0,8,3.6,8,8s-3.6,8-8,8s-8-3.6-8-8
	S7.6,4,12,4z"/>
<rect x="7.4" y="11" class="st1" width="9.2" height="2"/>
<rect x="7.4" y="7" class="st1" width="9.2" height="2"/>
<rect x="7.4" y="15" class="st1" width="9.2" height="2"/>
</svg>
