<?xml version="1.0" encoding="utf-8"?>
<!-- Generator: Adobe Illustrator 22.0.1, SVG Export Plug-In . SVG Version: 6.00 Build 0)  -->
<svg version="1.1" id="Layer_1" xmlns="http://www.w3.org/2000/svg" xmlns:xlink="http://www.w3.org/1999/xlink" x="0px" y="0px"
	 viewBox="0 0 24 24" style="enable-background:new 0 0 24 24;" xml:space="preserve">
<style type="text/css">
	.st0{fill:none;}
	.st1{fill:#ff7d1f;}
</style>
<path class="st0" d="M0,0h24v24H0V0z"/>
<path class="st1" d="M12,2C8.1,2,5,5.1,5,9c0,5.2,7,13,7,13s7-7.8,7-13C19,5.1,15.9,2,12,2z M12.9,15.8h-1.8V14h1.8V15.8z
	 M12.9,12.9h-1.8c0-2.8,2.6-2.6,2.6-4.4c0-1-0.8-1.8-1.8-1.8s-1.8,0.8-1.8,1.8H8.5C8.5,6.6,10.1,5,12,5s3.5,1.6,3.5,3.5
	C15.5,10.7,12.9,10.9,12.9,12.9z"/>
</svg>
