<?xml version="1.0" encoding="utf-8"?>
<!-- Generator: Adobe Illustrator 22.0.1, SVG Export Plug-In . SVG Version: 6.00 Build 0)  -->
<svg version="1.1" id="Layer_1" xmlns="http://www.w3.org/2000/svg" xmlns:xlink="http://www.w3.org/1999/xlink" x="0px" y="0px"
	 viewBox="0 0 24 24" style="enable-background:new 0 0 24 24;" xml:space="preserve">
<style type="text/css">
	.st0{fill:#ececec;}
</style>
<g>
	<path id="Facebook" class="st0" d="M5.6,4.5c0,0.2,0,1.1,0,1.1H4.8V7h0.8v4.1h1.7V7h1.1c0,0,0.1-0.7,0.2-1.4c-0.1,0-1.3,0-1.3,0
		s0-0.8,0-0.9c0-0.1,0.2-0.3,0.4-0.3c0.2,0,0.6,0,0.9,0c0-0.2,0-0.8,0-1.4c-0.5,0-1,0-1.3,0C5.6,2.9,5.6,4.3,5.6,4.5z"/>
</g>
<g>
	<path id="SoundCloud" class="st0" d="M12.7,18.6c0,0.3,0.1,0.6,0.4,0.8v-1.6C12.9,18,12.7,18.3,12.7,18.6 M13.5,17.6v2.1
		c0.1,0,0.2,0,0.3,0h0.1v-2.1c0,0-0.1,0-0.1,0C13.7,17.5,13.6,17.5,13.5,17.6 M14.4,17.7C14.4,17.7,14.4,17.7,14.4,17.7l-0.1,2h0.4
		V17C14.6,17.2,14.5,17.4,14.4,17.7 M15.1,16.6v3.1h0.4v-3.3C15.4,16.4,15.3,16.5,15.1,16.6 M16,16.3v3.4h0.4v-3.4
		c-0.1,0-0.2,0-0.3,0C16.1,16.3,16,16.3,16,16.3 M17,16.5c-0.1-0.1-0.3-0.1-0.4-0.2v3.3h0.6v-3.4C17.1,16.4,17,16.4,17,16.5
		 M17.4,16.1v3.6h3.9v0c0.8-0.1,1.2-0.6,1.2-1.2c0-0.7-0.5-1.2-1.2-1.2c-0.2,0-0.3,0-0.5,0.1c-0.1-1-1-1.8-2.1-1.8
		C18.2,15.6,17.7,15.8,17.4,16.1"/>
</g>
<g>
	<path id="Google" class="st0" d="M20.4,3h-2.3c-0.6,0-1.4,0.1-2,0.6c-0.5,0.4-0.7,1-0.7,1.5c0,0.9,0.7,1.8,1.9,1.8
		c0.1,0,0.2,0,0.4,0c-0.1,0.1-0.1,0.2-0.1,0.4c0,0.4,0.2,0.6,0.3,0.8c-0.5,0-1.5,0.1-2.2,0.5c-0.7,0.4-0.9,1-0.9,1.4
		c0,0.8,0.8,1.6,2.4,1.6c1.9,0,3-1.1,3-2.1c0-0.8-0.5-1.2-1-1.6l-0.4-0.3c-0.1-0.1-0.3-0.2-0.3-0.5c0-0.2,0.2-0.4,0.3-0.6
		c0.5-0.4,1-0.8,1-1.6c0-0.9-0.5-1.3-0.8-1.5h0.7L20.4,3z M19.4,9.9c0,0.7-0.6,1.2-1.7,1.2c-1.2,0-2-0.6-2-1.4c0-0.8,0.7-1.1,1-1.2
		c0.5-0.2,1.1-0.2,1.2-0.2c0.1,0,0.2,0,0.3,0C19,9,19.4,9.3,19.4,9.9z M18.5,6.3c-0.2,0.2-0.5,0.3-0.8,0.3c-1,0-1.4-1.3-1.4-2
		c0-0.3,0.1-0.6,0.2-0.8c0.2-0.2,0.5-0.4,0.8-0.4c0.9,0,1.4,1.3,1.4,2.1C18.8,5.6,18.8,6,18.5,6.3z"/>
</g>
<g>
	<path id="Twitter__x28_alt_x29_" class="st0" d="M10.2,17.3c0.5,0,0.9-0.3,1.1-0.6c-0.2,0.1-0.8,0.3-1.1,0.1c0-0.1,0-0.2-0.1-0.2
		c-0.3-1-1.1-1.7-2.1-1.6c0.1,0,0.2-0.1,0.2-0.1c0.1,0,0.7-0.1,0.6-0.4c-0.1-0.2-0.8,0.1-0.9,0.2c0.2-0.1,0.5-0.2,0.5-0.4
		c-0.3,0-0.6,0.2-0.8,0.4c0.1-0.1,0.1-0.2,0.1-0.3c-0.7,0.5-1.2,1.5-1.5,2.4c-0.3-0.3-0.5-0.5-0.7-0.6C4.9,15.8,4.2,15.4,3,15
		c0,0.4,0.2,0.9,0.8,1.2c-0.1,0-0.4,0-0.6,0.1c0.1,0.4,0.4,0.8,1.1,1c-0.3,0-0.5,0.1-0.7,0.3c0.2,0.3,0.5,0.7,1.2,0.6
		c-0.7,0.3-0.3,0.9,0.3,0.8c-1,1.1-2.7,1-3.6,0.1c2.5,3.4,7.8,2,8.6-1.3c0.6,0,0.9-0.2,1.2-0.4C11,17.5,10.5,17.4,10.2,17.3z"/>
</g>
</svg>
