<?xml version="1.0" encoding="utf-8"?>
<!-- Generator: Adobe Illustrator 22.0.1, SVG Export Plug-In . SVG Version: 6.00 Build 0)  -->
<svg version="1.1" id="Layer_1" xmlns="http://www.w3.org/2000/svg" xmlns:xlink="http://www.w3.org/1999/xlink" x="0px" y="0px"
	 viewBox="0 0 24 24" style="enable-background:new 0 0 24 24;" xml:space="preserve">
<style type="text/css">
	.st0{fill:none;}
	.st1{fill:#ff7d1f;}
</style>
<path class="st0" d="M0,0h24v24H0V0z"/>
<path class="st1" d="M22,3H2C0.9,3,0,3.9,0,5v14c0,1.1,0.9,2,2,2h20c1.1,0,2-0.9,2-2V5C24,3.9,23.1,3,22,3z M8,6c1.7,0,3,1.3,3,3
	s-1.3,3-3,3s-3-1.3-3-3S6.3,6,8,6z M14,18H2v-1c0-2,4-3.1,6-3.1s6,1.1,6,3.1V18z M17.9,14h1.6l1.5,2l-2,2c-1.3-1-2.3-2.4-2.7-4
	c-0.2-0.6-0.3-1.3-0.3-2s0.1-1.4,0.3-2c0.5-1.6,1.4-3,2.7-4l2,2l-1.5,2h-1.6c-0.2,0.6-0.4,1.3-0.4,2S17.6,13.4,17.9,14z"/>
</svg>
