<?xml version="1.0" encoding="utf-8"?>
<!-- Generator: Adobe Illustrator 22.0.1, SVG Export Plug-In . SVG Version: 6.00 Build 0)  -->
<svg version="1.1" id="Layer_1" xmlns="http://www.w3.org/2000/svg" xmlns:xlink="http://www.w3.org/1999/xlink" x="0px" y="0px"
	 viewBox="0 0 24 24" style="enable-background:new 0 0 24 24;" xml:space="preserve">
<style type="text/css">
	.st0{fill:#ff7d1f;}
	.st1{fill:none;}
</style>
<path class="st0" d="M12,3.5c-4.2,0-7.5,3.3-7.5,7.5c0,3.5,2.3,6.4,5.6,7.2l1.9,1.9l1.9-1.9c3.3-0.8,5.6-3.7,5.6-7.2
	C19.5,6.8,16.2,3.5,12,3.5z M9.5,2.5C5.3,2.5,2,5.8,2,10c0,3.5,2.3,6.4,5.6,7.2l1.9,1.9l1.9-1.9c3.2-0.8,5.6-3.7,5.6-7.2
	C17,5.8,13.7,2.5,9.5,2.5z M14.5,2.5C10.3,2.5,7,5.8,7,10c0,3.5,2.3,6.4,5.6,7.2l1.9,1.9l1.9-1.9c3.3-0.8,5.6-3.7,5.6-7.2
	C22,5.8,18.7,2.5,14.5,2.5z"/>
<path class="st1" d="M0,0h24v24H0V0z"/>
</svg>
